<?xml version="1.0" encoding="UTF-8"?>
<svg viewBox="0 0 359.97424 339.62726" xmlns="http://www.w3.org/2000/svg" xmlns:xlink="http://www.w3.org/1999/xlink">
 <defs>
  <linearGradient id="a">
   <stop stop-color="#ff7f2a" offset="0"/>
   <stop stop-color="#fc0" stop-opacity="0" offset="1"/>
  </linearGradient>
  <linearGradient id="n" x1="190.53" x2="203.3" y1="91.483" y2="111.56" gradientTransform="scale(.7936,1.26)" gradientUnits="userSpaceOnUse" xlink:href="#a"/>
  <linearGradient id="m" x1="286.51" x2="299.17" y1="155.66" y2="175.59" gradientTransform="scale(1.1264,.8878)" gradientUnits="userSpaceOnUse" xlink:href="#a"/>
  <linearGradient id="l" x1="382.44" x2="397.67" y1="29.926" y2="53.183" gradientUnits="userSpaceOnUse" xlink:href="#a"/>
  <linearGradient id="k" x1="476.13" x2="489.96" y1="240.49" y2="262.25" gradientTransform="scale(1.3279,.7531)" gradientUnits="userSpaceOnUse" xlink:href="#a"/>
  <linearGradient id="j" x1="69.99" x2="84.406" y1="249.2" y2="271.2" gradientUnits="userSpaceOnUse" xlink:href="#a"/>
  <linearGradient id="i" x1="73.762" x2="86.839" y1="372.33" y2="392.9" gradientTransform="scale(.8375,1.194)" gradientUnits="userSpaceOnUse" xlink:href="#a"/>
  <linearGradient id="h" x1="371.73" x2="379.8" y1="201.21" y2="213.91" gradientTransform="scale(1.4206,.7039)" gradientUnits="userSpaceOnUse" xlink:href="#a"/>
  <linearGradient id="g" x1="356.89" x2="363.91" y1="510.1" y2="521.15" gradientTransform="scale(1.6318,.6128)" gradientUnits="userSpaceOnUse" xlink:href="#a"/>
  <linearGradient id="f" x1="244.46" x2="259.45" y1="458.42" y2="482" gradientTransform="scale(.8163,1.225)" gradientUnits="userSpaceOnUse" xlink:href="#a"/>
  <linearGradient id="e" x1="576.06" x2="587.68" y1="372.71" y2="390.99" gradientTransform="scale(.6405,1.5612)" gradientUnits="userSpaceOnUse" xlink:href="#a"/>
  <linearGradient id="d" x1="589.66" x2="598.49" y1="421.91" y2="435.81" gradientTransform="scale(.8244,1.213)" gradientUnits="userSpaceOnUse" xlink:href="#a"/>
  <linearGradient id="c" x1="697.93" x2="713.05" y1="371.35" y2="395.15" gradientTransform="scale(.8587,1.1646)" gradientUnits="userSpaceOnUse" xlink:href="#a"/>
  <linearGradient id="b" x1="181.11" x2="186.16" y1="275.55" y2="283.49" gradientTransform="scale(1.0866,.9203)" gradientUnits="userSpaceOnUse" xlink:href="#a"/>
 </defs>
 <path transform="matrix(.53157 0 0 .53157 -24.548 -9.1196)" d="m162.98 417.13c62.404-31.79 60.792-28.847 58.871-49.452s-18.839-23.548-50.629-11.774c-26 11.507-103.61 8.242-117.74-42.388s36.5-96.549 68.291-61.226 90.662 74.178 96.549 49.452c10.282-37.931-33.184-25.002-29.386-40.602 4.709-20.016 34.096-14.737 32.918-0.60831s24.538 6.0876 35.323-3.532c10.025-8.942 51.324-34.209-9.419-50.629s-102.44-50.629-107.15-77.71 58.871-32.969 83.597-5.888 52.984 91.839 85.952 90.662c9.8416-1.2754 23.548 1.178 30.613-17.661 7.064-18.839-36.5-25.904-29.436-43.565 7.065-17.662 56.517-36.501 51.807-11.775s-4.71 51.808 7.065 55.34c11.774 3.532 31.79 7.064 29.436-15.307-2.355-22.371-24.726-67.113-32.969-109.5-3.532-35.322 50.63-68.29 71.824-40.032s-4.71 75.355-9.42 94.194 8.242 52.985 28.258 58.872 59.52-6.1014 57.695-22.371c-1.178-36.5 37.677-34.146 49.451-4.71 8.242 17.661 2.355 22.37-40.033 40.032-20.015 2.355-8.241 60.049 12.952 54.162s82.42-78.888 122.45-78.888 98.613 43.823 25.904 85.953c-53.276 30.871-73-28.259-104.79-12.952s-48.274 29.436-38.855 52.983c9.419 18.839 22.371 30.614 30.613 15.307s43.565-7.064 45.92 18.839c-2.355 23.549-32.968 25.904-45.92 16.484s-34.145 15.307-25.903 28.258 30.612 50.629 71.822 37.678 111.86 54.162 93.017 83.598c-18.838 29.435-78.887 35.322-95.371 12.951s-38.855-62.404-55.339-63.581-71.823 4.71-67.113 24.726 41.21 17.661 45.919 38.855-1.177 47.097-29.435 41.21-35.323-14.129-35.323-37.678-61.781-6.1252-69.681 2.78c-9.348 10.538-2.0755 11.654 9.632 41.962s30.024 41.799 8.242 73.001-57.694 25.903-64.759-11.775c-2.354-38.855 25.904-85.951 21.195-98.903s-3.2318-6.3475-43.566-18.84c-41.287-12.788-60.049 3.534-61.226 44.743-1.177 28.259-5.8865 120.1-69.468 77.71s33.933-93.016 54.972-132.64c5.887-30.613-16.198-50.227-34.956-52.212-29.557-3.1278-27.081 7.064-55.339 31.79-27.081 23.548-70.645 78.887-110.68 21.194-21.194-35.323-9.4195-61.227 40.032-63.581 43.564-1.178 54.161-8.242 63.581-12.952z" fill="#ec1800" fill-rule="evenodd" stroke="#ea7c20" stroke-linecap="round" stroke-linejoin="round" stroke-opacity=".6835" stroke-width="6.25"/>
 <path transform="matrix(.53157 0 0 .53157 -24.548 -9.1196)" d="m146.55 123.74c-0.78931 9.1948 7.5739 28.684 11.414 30.035 2.4745-1.3802-6.4967-21.314-0.18172-25.605s17.153-4.4304 15.18-10.56c1.4406-9.5428-20.492-8.5808-26.412 6.1298z" fill="url(#n)" fill-rule="evenodd"/>
 <path transform="matrix(.53157 0 0 .53157 -24.548 -9.1196)" d="m319.76 149.46c-8.1511 8.2042-1.1282 13.304 4.6995 15.457 4.854 2.0007-0.075-10.725 9.7595-15.823 9.8351-5.0976 20.22-10.439 19.407-13.09s-25.715 5.2518-33.866 13.456z" fill="url(#m)" fill-rule="evenodd"/>
 <path transform="matrix(.53157 0 0 .53157 -24.548 -9.1196)" d="m384.92 39.695c-4.5358 6.6968-11.958 18.493-8.8005 24.623s16.515-17.684 22.83-21.975 18.286-6.8109 16.312-12.941-18.178-3.1687-30.342 10.293z" fill="url(#l)" fill-rule="evenodd"/>
 <path transform="matrix(.53157 0 0 .53157 -24.548 -9.1196)" d="m640.86 183.89c-9.8432 5.4094-17.137 10.295-17.178 19.715 0.70318 6.8592 18.297-2.7498 25.742-4.4408s17.269 6.7109 22.609-11.003c1.0361-11.361-14.936-12.367-31.174-4.2714z" fill="url(#k)" fill-rule="evenodd"/>
 <path transform="matrix(.53157 0 0 .53157 -24.548 -9.1196)" d="m71.585 259.34c-5.8894 6.284-10.025 15.659-7.6021 22.345 10.5 4.6863 14.898-8.5515 19.978-11.603s11.82-9.7832 17.311-20.936c-2.1903-8.3099-19.756 0.41467-29.687 10.194z" fill="url(#j)" fill-rule="evenodd"/>
 <path transform="matrix(.53157 0 0 .53157 -24.548 -9.1196)" d="m58.528 456.96c-3.8616 13.633-0.96024 17.761 2.1975 23.891s4.4269-15.852 10.742-20.143 15.788-11.258 13.814-17.388-20.833-1.0707-26.754 13.64z" fill="url(#i)" fill-rule="evenodd"/>
 <path transform="matrix(.53157 0 0 .53157 -24.548 -9.1196)" d="m522.81 151.24c1.4826-7.3444 3.6621-8.4756 9.124-10.524 6.5445-1.324 14.496 0.32421 17.227 3.7379 3.0723 4.7791 8.6483 11.189-4.7791 4.0964-6.9858-2.8138-12.682-5.3618-11.865-0.0414 4.0964 8.1928-11.131 8.6826-9.7067 2.7309z" fill="url(#h)" fill-rule="evenodd"/>
 <path transform="matrix(.53157 0 0 .53157 -24.548 -9.1196)" d="m577.01 321.89c4.7791-8.1928 7.8514-11.606 16.386-9.8996s20.823 13.313 8.8755 9.8996-13.313 1.0241-19.116 1.0241-6.1446-1.0241-6.1446-1.0241z" fill="url(#g)" fill-rule="evenodd"/>
 <path transform="matrix(.53157 0 0 .53157 -24.548 -9.1196)" d="m199.25 575.71c-7.8485 13.527-5.822 23.563-2.0461 29.589 11.251 2.3713 12.765-15.592 17.088-19.644s8.8136-14.1 11.834-26.159c-3.8902-7.6627-19.227 4.5636-26.877 16.214z" fill="url(#f)" fill-rule="evenodd"/>
 <path transform="matrix(.53157 0 0 .53157 -24.548 -9.1196)" d="m367.07 625.29c-1.5824-7.2062-3.1753-15.236 1.9192-33.774 5.2381-19.061 12.451-14.727 16.15-9.896-4.9358 21.368-7.57 29.003-18.07 43.67z" fill="url(#e)" fill-rule="evenodd"/>
 <path transform="matrix(.53157 0 0 .53157 -24.548 -9.1196)" d="m489.08 537.43c-6.4599-7.4971-8.7019-11.623-3.392-18.899s22.39-14.33 13.9-4.5274-4.4819 12.73-6.8958 18.111-3.6119 5.3152-3.6119 5.3152z" fill="url(#d)" fill-rule="evenodd"/>
 <path transform="matrix(.53157 0 0 .53157 -24.548 -9.1196)" d="m596.96 436.74c-9.5321 19.491 2.0617 29.717 4.0386 37.009 8.5674 5.1114-2.8124-12.487 8.4225-27.399 14.386-14.913 12.008-0.13958 18.064-13.357-1.7871-9.0637-25.573-3.7602-30.525 3.7472z" fill="url(#c)" fill-rule="evenodd"/>
 <path transform="matrix(.53157 0 0 .53157 -24.548 -9.1196)" d="m194.54 261.34c3.7745-7.9917 8.9436-9.0992 13.009-8.8532s-3.5663 2.2972-6.2334 8.3614c-2.6901 6.1163-8.4016 3.9348-6.7755 0.49185z" fill="url(#b)" fill-rule="evenodd"/>
</svg>
