<?xml version="1.0" encoding="UTF-8"?>
<svg viewBox="0 0 768 432" xmlns="http://www.w3.org/2000/svg">
 <path d="m0 0v7h245c-1.135 8.0303 12.602 18.593 18 24 20.315 20.348 35.263 55.088 62.197 65.72l-2.197-6.7205c4.5236 0.43211 3.0141-0.56694 5.5831-0.48833-1.479 0.98569 0.2139 0.48833-1.5831 0.48833-6.1279 0.32989-1.5924 3.588-0.32236 4.5605l7.3224-4.5605c-0.001007 9.4482-1.272 24.801-6.988 32.682-2.033 2.803-5.848 1.596-8.118 3.921-6.275 6.426-1.745 12.354-13.894 12.397-2.24-6.247-22.531-11.187-27.772-6.566-9.588 8.457-0.92999 19.264-4.966 27.566-1.855 3.814-5.281 11.49-8.565 14.106-3.526 2.809-8.644 1.466-12.693 3.003-7.293 2.768-10.722 12.699-12.004 19.891h-5c-0.64 9.95-8.781 13.531-12.897 21.455-1.161 2.235 0.246 5.01-1.169 7.138-1.32 1.986-3.922 1.511-5.934 1.407-3.942 6.221-14.979 19.427-14 26-8.284 5.221-1.645 21.29 6 24 1.16 8.71 7.969 13.995 8 23 2.315 0 2.422 1.697 5 2 0.001999 20.102 20.408 37.132 33.008 50.572 12.804 13.655 22.434 31.614 32.995 47.128 5.628 8.268 16.682 14.682 16.997 25.3h-302v7h768v-7h-110c0-19.208-3.365-35.258-7-54l-4 1c-2.056-7.69-3.631-12.996-3-21h-4c1.506-2.678 2.531-4.258-1-5 3.165-6.092 1.035-15.662-6-18-0.505-10.872-6.796-19.512-12.241-28.299-12.112-19.549-28.878-42.857-52.759-47.697-8.805-1.785-22.265-4.453-30.996-1.415-4.871 1.694-8.591 8.786-13.999 8.833-2.31 0.019989-3.682-1.746-4.635-3.611-3.263-6.39-12.364-11.497-13.37-17.811 5.052-1.666 6.431-8.325 8.004-13.001 4.004-11.905 13.668-21.622 16.061-33.999 0.768-3.975 2.785-19.558-5.065-16-1.834-4.656-4.55-8.72-3.852-13.985 1.24-9.357 8.961-17.631 7.164-28.015-1.209-6.985-4.283-17.191-7.648-23.424-2.87-5.316-8.738-9.6394-9.664-15.576-9.682-4.9222-13.432-18.86-22.489-25.271-7.344-5.1979-17.672-8.0338-26.511-8.6397-6.041-0.4141-13.648 1.0084-17-5.0895-37.342 0.004101-54.964 28.921-65.171 60.985-1.285 4.037-0.854 5.817-1.6 10.019-2.92 16.447-2.795 26.134-4.399 42.996-1.686 17.734 4.629 45.244 12.17 61.004 2.961 6.188 5.385 14.72 13 15.996 2.774 10.064 11.814 5.605 17.566 10.603 3.3 2.868 2.434 8.498 2.434 12.397l-6 2c0.21799 6.898 4.183 15.294 8 21l3-2c0.57199 2.377 0.89002 4.558 1 7l-1-2c-1.007 3.315 0.30801 6.643 1 10-3.371 1.236-4.424 2.45-5 6l-4 1c-3.281-7.83-10.385-2.972-16.961-3.584-5.5-0.51199-10.178-2.416-16.039-2.416 0.176 1.878 0.43799 3.199 1 5-2.993 1.934-4.037 5.153-7 7l1-6c-3.901-2.902-6.261-6.481-8-11-6.844-1.699-20.862-2.63-23-10-3.422 0.028015-6.637 0.375-10 1v-4c-6.886 1.097-7.638 7.609-15.91 5.726-5.896-1.342-9.56-7.687-14.515-10.772-7.372-4.588-15.919-7.46-23.405-11.906-4.899-2.91-9.748-7.478-15.17-9.048 0.86499-2.959 2.691-5.223 4-8 11.428 0.534 17.366-10.646 22.66-18.996 6.772-10.684 15.086-18.383 21.756-29.004 3.043-4.845 2.653-11.275 6.169-15.811 4.925-6.355 14.659-3.266 18.556-11.617 1.822-3.904-0.90298-7.634-0.12799-11.571 1.241-6.301 8.452-18.94 13.987-22.001 3.011-11.992 10.697-23.078 14-35 4.579 2.948 11.343 0.126 12.079-6 0.41-3.417-3.391-6.0009-4.476-9-2.035-5.6242 1.231-12.53-1.921-17.866-4.403-7.4531-19.502-5.3536-26.682-7.6975-4.751-1.5511-8.946-8.8182-14-6.436l-4-3h3c-1.495-2.9677-3.523-4.7743-6-7l-5 3c-1.73-8.3587-4.835-12.012-12-17 0.67401 2.2974 0.965 2.7741 3 4-3.913-0.6684-6.262-4.3705-10-6l3-2c-2.357-0.9555-2.773-1.1201-5 0-1.717-6.5227-6.965-9.9133-12-14-1.416 0.472-1.814 0.8137-3 2-2.306-6.6929-6.939-10.338-12-15 17.559-3.2597 37.16-1 55-1h105l335 1v-8h-768z" fill="#020202"/>
 <path d="m0 7c6.9187 2.9032 17.52 1 25 1h55c-6.9187-2.9032-17.52-1-25-1h-55z" fill="#141414"/>
 <path d="m80 7c12.645 5.3062 35.223 1 49 1h116c-12.645-5.3062-35.223-1-49-1h-116z" fill="#1d1d1d"/>
 <path d="m275 7c11.218 4.7072 30.794 1 43 1h442c-10.98-4.6074-30.056-1-42-1h-443z" fill="#141414"/>
 <path d="m80 76v74c3.5546 1.7708 6.2292 4.4454 8 8 0.77894-1.769 0.91241-3.0359 1-5 5.1815 0.1646 9.0376 2.8988 14 4l-1 6c2.8767-0.4762 5.1369-0.56149 8 0 2.6285-3.0277 5.5482-4.9839 9-7 2.9332 8.219-3.7594 10.168-6 17 14.002-4.501 11.975-17.033 23-25l-1-5c-5.0441 1.2734-8.6742 6.0647-14 5-2.6371 4.0963-6.5837 7.0751-9 11-6.3106-1.6386-15.171-5.9227-18-12-3.0422 1.3713-5.7882 2.9833-9 4 0.75908-3.6797 1.6935-7.248 2-11 4.5492-1.5941 6.3883-8.4787 7-13-3.5818 2.0157-5.979 3.6957-10 5 2.7727-14.05 14.828-25.826 16-40l-4 1c-0.2905 4.0094-2.3979 7.1081-3 11h-2c-1.2996-9.8769 5.9902-17.028 5-26 1.7968 0 1.5215-0.014343 3-1-5.4692-2.295-13.099-1-19-1z" fill="#505050"/>
 <path d="m61 8c6.6867 2.8058 16.767 1 24 1-6.6867-2.8058-16.767-1-24-1z" fill="#707070"/>
 <path d="m85 8c4.9741 2.0872 11.638 1 17 1-4.974-2.0872-11.638-1-17-1z" fill="#7d7d7d"/>
 <path d="m92 9c1.769 0.77893 3.036 0.91241 5 1-1.2001 3.3129-1.8421 5.5555-1 9h-4l-2 8c3.9786-1.3697 5.8332-5.3532 9-8-3.484 7.695-10.972 17.711-7 26 2.7709-1.0085 5.0309-1.9452 8-2 3.57-4.799 9.695-6.845 11-13 11.351 3.9144 20.087-16.859 32-17-1.769-0.7789-3.036-0.9124-5-1 2.955-1.0053 5.936-1.4077 9-2-4.684-3.2002-11.519-2-17-2l-38 1z" fill="#919191"/>
 <path d="m145 8c0.59801 1.1954 0.466 0.97739 2 2-2.003 1.734-1.923 3.3549-2 6 5.892-0.7985 8.943-2.255 11-8h-11z" fill="#707070"/>
 <path d="m156 8c5.707 2.3949 13.846 1 20 1h43c5.444 0 13.787-1.5596 18.853 0.6026 4.826 2.06 9.924 10.315 13.147 14.397 1.826-7.052-4.265-10.134-7-16h-88z" fill="#7d7d7d"/>
 <g fill="#707070">
  <path d="m273 8c1.988 2.061 3.157 2.5788 6 3 1.057 3.4918 2.418 4.4319 6 5v-4c-1.708-1.7188-2.223-1.9598 0-3-3.697-1.5515-8.017-1-12-1z"/>
  <path d="m323 8c12.652 5.309 35.212 1 49 1-12.652-5.309-35.212-1-49-1z"/>
 </g>
 <path d="m408 8c10.036 4.2112 27.089 1 38 1-10.036-4.2112-27.089-1-38-1z" fill="#646464"/>
 <path d="m446 8c-0.621 4.9095-4.858 14.03 1 16 0.79901-3.1166 1.325-5.7992 1-9 2.5-1.6422 3.611-3.345 5-6-2.418-0.72238-4.472-0.94812-7-1z" fill="#878787"/>
 <g fill="#595959">
  <path d="m589 8c7.892 3.3117 22.294 1.8202 31 2 0.64099 4.5586 7.128 4.9842 11 5v-7h-42z"/>
  <path d="m683 8c0.68103 5.3877 1 10.563 1 16h-5c-0.060974-2.0505-0.29999-3.0417-1-5l-2 3c-0.98602-1.4785-1-1.2032-1-3-6.412 1.1252-21.03-3.5109-23-10h-8c2.052 0.87424 3.747 0.95279 6 1 3.192 10.751 19.813 8.6526 26 17-6.207-0.791-11.551-2.9822-18-3 1.635 2.5453 2.994 2.7795 6 3 1.328 4.4025 4.69 5.9696 9 7-0.823 4.7188 0.94702 9.2099 1 14h2c0.85199-3.5631 2.291-5.5492 5-8-9.77e-4 6.5459-1.473 12.549-2 19-6.362-2.134-15.777-3.6751-19-10-1.878 0.1759-3.199 0.4382-5 1-0.768-1.3142-0.68597-1.2321-2-2-1.432 6.2953 4.806 7.3665 10 8v5c-6.263-2.9826-12.522-6.9033-19-9 3.057 12.546 27.252 11.283 34.168 21.278 2.793 4.0365 0.37994 14.945-0.077026 19.722-1.587 16.595-1.091 32.322-1.091 49h2c0.12402-44.883 6-89.257 6-134h-2z"/>
 </g>
 <path d="m766 8v417h2v-417h-2z" fill="#1d1d1d"/>
 <path d="m112 9c2.013 1.2247 3.659 1.6453 6 2-1.734-2.0034-3.355-1.9231-6-2z" fill="#aeaeae"/>
 <path d="m157 9l2 4c10.024-4.8124 22.016-3 33-3-0.74699 2.9081-2.139 4.6729-4 7 1.048 1.8559 1.512 2.9442 2 5 4.614-1.5251 5.455-6.5323 6-11 7.037-8e-4 13.995-0.4657 21-1-5.462-2.2921-13.113-1-19-1h-41z" fill="#919191"/>
 <path d="m221 9c5.205 3.9432 13.684 0.83157 20 2-4.955-3.7536-13.971-2-20-2z" fill="#9e9e9e"/>
 <path d="m291 9c-0.522 4.7687-3.914 8.2174-3 13 3.956-3.285 4.707-8.4704 7-13h-4m58 0c3.432 1.4403 7.3 1 11 1-3.432-1.4403-7.3-1-11-1m23 0l-1 6h8l2-6h-9z" fill="#919191"/>
 <path d="m385 9v2c7.064-8e-4 15.225 1.0017 22-1-6.202-2.6026-15.298-1-22-1z" fill="#878787"/>
 <path d="m481 9c-2.415 7.7229-5.457 15.042-7 23 2.33-0.3155 3.918-0.9022 6-2l-1-4c5.606-1.2013 5-11.312 5-16h4c-2.332-0.98453-4.457-0.98126-7-1z" fill="#7d7d7d"/>
 <path d="m631 9v2h6v-2h-6m-576 15c1.6806 1.3263 2.0609 2.0584 4 2-1.2488 11.58-10.987 20.401-12 32h-3c0.4693 3.8058 1.1959 7.1139 1 11 6.2283-4.5621 6.0061-13.984 12-19 0.1623-3.9622 1.7232-7.2791 3-11-1.2667-1.543-1.4893-2.0478-2-4l4 2 1-4-4 1c1.6707-2.041 2.4197-2.7314 5-2l3-5c-1.6067-4.1169-0.9718-8.6791-2-13 1.6179-1.314 1.6933-1.8772 2-4-8.0712 0.6589-10.057 6.7709-12 14z" fill="#707070"/>
 <path d="m138 11c1.769 0.7789 3.036 0.9124 5 1-7.759 2.3277-10.2 6.8284-17 11 1.506 0.683 2.315 0.8259 4 1v4c2.369-1.5447 2.458-2.2138 2-5 1.457 1.1034 1.897 1.5434 3 3h5c-1.048 1.8558-1.513 2.9442-2 5 6.863-2.7497 14.134-9.3833 15-17l-8 2c-0.093994-2.2049-0.356-3.8941-1-6l-6 1z" fill="#7d7d7d"/>
 <path d="m219 14c0 1.7968 0.014008 1.5215 1 3-2.208 1.9255-1.968 4.1249-2 7l4-1-1-5c2.863 0.5615 5.123 0.4762 8 0l-3 8h7c0.50101-3.9988 1.325-9.1189 1-13 1.894-0.4646 3.277-1.0659 5-2-5.764-2.4132-14.649 0.1976-20 3z" fill="#919191"/>
 <path d="m687 12l10 4v-4l-3 1 1-3-8 2z" fill="#7d7d7d"/>
 <path d="m276.67 11.333c-0.44501 0.4445 0.61102 0.3889 0.66602 0.3334 0.44501-0.4445-0.61102-0.3889-0.66602-0.3334z" fill="#919191"/>
 <path d="m278 11l1 1-1-1z" fill="#1d1d1d"/>
 <path d="m343 11l-1 4c3.634 5.7425-4.975 17.798-5 25 7.236-6.0571 9.975-19.957 10-29h-4z" fill="#707070"/>
 <path d="m275 12l1 1-1-1z" fill="#505050"/>
 <path d="m278 12l1 1-1-1z" fill="#9e9e9e"/>
 <path d="m707 12c-0.13898 2.4529-0.070984 2.6764 2 4v-4h-2z" fill="#707070"/>
 <path d="m54 16c-4.2426 9.803-11.62 19.966-9 31 2.2862-4.4742 3.4858-9.2433 7-13l-1-4 4 2c0.8448-2.6954 1.6569-5.1938 2-8h-4c0.5652-2.778 1.6774-5.2569 1-8z" fill="#7d7d7d"/>
 <path d="m286 17v3c0.69601-1.5537 0.69601-1.4463 0-3z" fill="#646464"/>
 <path d="m283 18c0.801 2.104 1.497 3.3369 3 5 0.082001-2.9617-0.393-3.5606-3-5z" fill="#141414"/>
 <path d="m251 19c1.229 2.8138 2.134 3.8904 5 5-1.409-2.5642-2.403-3.6703-5-5z" fill="#707070"/>
 <path d="m288 19l1 1-1-1z" fill="#646464"/>
 <path d="m686 23c-0.64398 2.1058-0.90601 3.7952-1 6l4 1c-0.052002-2.5284-0.27802-4.5819-1-7h-2z" fill="#919191"/>
 <path d="m73 25c-0.7006 2.8111-1.9412 5.3038-3 8l-4-1c-3.0568 8.2869-9.0386 16.085-10 25 3.6976-3.4549 4.35-8.5207 9-11-0.5108 1.9523-0.7333 2.4569-2 4l1 4-4 1c1.0764 5.1626-1.456 8.9552-2 14 2.9506-1.0098 4.3553-3.4466 7-5v4c2.4522-1.6115 3.1508-3.1934 4-6-2.2164 0 8-20.501 8-25-5.1095 6.7921-7.0412 15.914-13 22 1.7497-5.6395 3.9492-9.9391 4-16h4c0.1469-6.1049 5.0533-12.642 1-18z" fill="#7d7d7d"/>
 <path d="m294.33 25.667c-0.054993 0.0555-0.11102 1.1111 0.33398 0.6666 0.054993-0.0555 0.11102-1.1111-0.33398-0.6666z" fill="#aeaeae"/>
 <path d="m258 26l-1 4 8 6c-0.728-4.7203-3.181-7.2777-7-10z" fill="#707070"/>
 <path d="m289 26l1 1-1-1z" fill="#373737"/>
 <path d="m407 26v3h2v-3h-2z" fill="#919191"/>
 <path d="m300 27c0.42099 2.843 0.939 4.012 3 6-0.70902-2.4122-1.427-4.0513-3-6z" fill="#595959"/>
 <path d="m482 27c-0.68399 1.58-0.80499 1.7772-2 3l1 5c2.909-2.0546 2.917-4.5647 3-8h-2z" fill="#505050"/>
 <path d="m299 31l1 4c0.55301-2.0078 0.30301-2.3324-1-4z" fill="#1d1d1d"/>
 <path d="m300 31l1 1-1-1m1 1l1 1-1-1z" fill="#919191"/>
 <path d="m304 32c0.81201 2.7467 8.638 12.943 11.917 8.3928 2.551-3.5397-2.651-4.7747-4.917-3.3928-2.098-1.4037-2.576-1.7013-5-2-0.69101-1.3885-0.98498-1.8606-2-3z" fill="#707070"/>
 <path d="m320 32c-0.97198 4.3756-1.803 6.6674 0 11 1.565-3.3975 2.547-7.28 3-11h-3z" fill="#919191"/>
 <path d="m16 33c-3.3059 10.567-10.557 19.915-12 31 4.4069-0.7907 6.6878-2.0582 10-5-1.0597 4.5703-2.8557 10.587-7 13l-2 11c3.4761-0.7715 6.015-2.0916 9-4 1.1158 3.9014 3.002 5.4176 7 6-0.674-4.8699 1.2507-8.5618 3-13h-4c1.4741-3.3033 2.467-6.3816 5-9-0.564-1.752-0.9189-2.542-2-4-1.481 1.5982-2.0615 2.1083-4 3 1.6835-2.6843 3.6492-5.1383 5-8l-5-1c2.4048-6.8488 5.037-11.38 6-19-3.5494 0.8083-5.7909 0.7736-9-1z" fill="#595959"/>
 <path d="m265 33c1.345 3.3028 2.561 5.7809 6 7-1.48-3.166-3.168-4.9512-6-7m43 0l1 1-1-1z" fill="#505050"/>
 <path d="m212 34l1 5c-6.178 1.317-10.596 17.343-11 23 5.668-3.9777 5.163-12.602 11-16 0.21201-4.1488 1.801-7.9122 1-12h-2z" fill="#9e9e9e"/>
 <path d="m509 34c-1.074 4.3092-5.083 12.011-1 15l4-15h-3m-166 1c0.482 2.364 0.63599 2.5175 3 3 0-1.7968-0.014008-1.5215-1-3h-2m152 9c2.924-2.7823 3.088-5.2054 2-9-4.303 2.3617-2.914 4.8289-2 9z" fill="#646464"/>
 <path d="m513 35c-2.001 7.0161-4.057 13.701-5 21 7.413-1.5805 7-14.997 7-21h-2z" fill="#505050"/>
 <path d="m266 36l-1 4c2.742 1.4284 4.912 1.9084 8 2 0-1.7968-0.014008-1.5215-1-3l-4 1c-0.51099-1.9522-0.733-2.457-2-4z" fill="#707070"/>
 <path d="m302 36c2.938 3.0457 5.929 6.7372 10 8-2.973-3.8844-4.912-7.2061-10-8z" fill="#141414"/>
 <path d="m307 37l1 1-1-1z" fill="#aeaeae"/>
 <path d="m308.67 38.333c-0.44501 0.4444 0.61102 0.3889 0.66602 0.3334 0.44501-0.4445-0.61102-0.3889-0.66602-0.3334z" fill="#878787"/>
 <path d="m310 39l1 1-1-1z" fill="#919191"/>
 <path d="m493 40v5h2v-5h-2z" fill="#7d7d7d"/>
 <path d="m318.33 41.667c-0.054993 0.055603-0.11102 1.111 0.33398 0.6666 0.054993-0.0555 0.11102-1.1111-0.33398-0.6666z" fill="#9e9e9e"/>
 <path d="m676 48l4 1v-7c-2.85 1.5564-3.503 2.7929-4 6z" fill="#707070"/>
 <path d="m349 44v2c1.801 0.5618 3.122 0.8241 5 1v-4c-1.878 0.1759-3.199 0.4382-5 1z" fill="#878787"/>
 <path d="m520 43l1 61h2c-0.55603-12.953-1.842-26.036-1.996-39-0.080017-6.7318 1.615-15.758-1.004-22z" fill="#646464"/>
 <path d="m318 45l1 1-1-1z" fill="#505050"/>
 <path d="m320 50c0.093994 2.2049 0.35599 3.8941 1 6 1.607-1.0043 2.035-1.1965 4-1-0.948-3.0503-2.003-3.9124-5-5z" fill="#141414"/>
 <path d="m686 52c-2.883 5.4015-1.607 11.083-2.17 17-1.22 12.819-2.83 25.082-2.83 38 3.088-7.3587-2.999-21.967 7-25 0.82202 6.9575 0.28003 14.108-1 21 4.946-4.3221 4.143-21.368 5-28l-5-1c0.15802-7.6567 3.163-14.965-1-22z" fill="#7d7d7d"/>
 <path d="m285 54c0.006989 5.0707 2.929 7.9926 8 8-2.291-3.2451-4.755-5.7091-8-8z" fill="#646464"/>
 <path d="m435 54c12.328 7.103 30.511 3.7 44 8.7222 8.051 2.9976 12.699 9.7318 17.722 15.944 2.121 2.6231 4.072 0.1661 5.278-1.6667 1.475 3.0312 3.159 5.7269 4 9l6 2c-2.958-5.7073-11.167-17.496-16.529-20.972-4.588-2.974-9.453 0.6189-11.471-6.0278h-10c-0.38901-1.7879-0.681-4.2614-3.059-4.385-2.393-0.1244-4.246 2.0068-6.786 1.7862-9.95-0.8642-19.167-4.4012-29.155-4.4012z" fill="#2c2c2c"/>
 <path d="m352 55c0.168 2.4025 0.19699 3.4602 2 5-1.061 4.6175-2.085 8.0475 3 10 0-5.0438 0.62399-9.2319 0-15h-5z" fill="#919191"/>
 <path d="m415 58l3-1c-1.778-0.9554-2.021-0.7662-3 1z" fill="#595959"/>
 <path d="m415 60c3.835-0.9167 7.461-1.1578 11-3-4.245-1.7771-8.626-1.0641-11 3z" fill="#373737"/>
 <path d="m424 57c2.613 1.0977 5.165 0.9928 8 1v-2c-2.784 0.0583-5.291 0.3521-8 1z" fill="#1d1d1d"/>
 <path d="m444 56c3.328 5.1932 11.487 4 17 4-5.267-2.8002-11.463-1.6538-17-4z" fill="#141414"/>
 <path d="m331 57c1.223 1.1952 1.42 1.3164 3 2-1.223-1.1952-1.42-1.3164-3-2z" fill="#9e9e9e"/>
 <path d="m340.67 58.333c-0.44501 0.4445 0.61102 0.3889 0.66602 0.3334 0.44501-0.4444-0.61102-0.3889-0.66602-0.3334z" fill="#707070"/>
 <path d="m342 58l1 1-1-1z" fill="#9e9e9e"/>
 <path d="m329 60c1.341 1.274 2.403 2.0407 4 3 0.98599-1.4786 1-1.2031 1-3-2.027-0.468-2.991-0.4995-5 0z" fill="#141414"/>
 <path d="m408 65c4.57 0.9748 9.156-4.2376 14-5-5.761-2.3435-9.315 2.4076-14 5z" fill="#1d1d1d"/>
 <path d="m474 60c3.163 1.3274 6.586 0.9996 10 1v4c0.87399-2.0521 0.953-3.7472 1-6-3.735 0.030899-7.305 0.533-11 1z" fill="#373737"/>
 <path d="m694 65l5 1v-5c-3.066 0.497-4.032 1.0359-5 4z" fill="#7d7d7d"/>
 <path d="m289 62l1 1-1-1z" fill="#9e9e9e"/>
 <path d="m408 65c2.132-0.7765 2.771-1.1302 4-3-2.209 0.6839-2.703 1.0799-4 3z" fill="#373737"/>
 <path d="m472 62c3.227 1.9508 7.322 3.1329 11 4-2.495-4.079-6.545-3.9626-11-4z" fill="#1d1d1d"/>
 <path d="m345 64c0.768 1.3141 0.686 1.2321 2 2-0.98599 1.4785-1 1.2032-1 3l4 1c-0.768-1.3141-0.686-1.2321-2-2l1-2-4-2z" fill="#707070"/>
 <path d="m488 68c1.76 3.8954 4.118 7.0993 8 9-1.233-4.3299-3.982-7.0544-8-9z" fill="#141414"/>
 <path d="m345 69c1.506 0.683 2.315 0.8259 4 1-1.506-0.683-2.315-0.8259-4-1z" fill="#505050"/>
 <path d="m401 69v3c1.015-1.1393 1.309-1.6116 2-3h-2z" fill="#1d1d1d"/>
 <path d="m697 69l-1 6h4v-6h-3z" fill="#7d7d7d"/>
 <path d="m60 70c-1.3718 3.3666-2.6277 6.3625-3 10 3.7399-2.3339 4.6173-5.7513 5-10h-2z" fill="#595959"/>
 <path d="m399 72c-5.439 5.8398-10.6 12.285-13 20 4.713-3.658 13.501-13.909 13-20z" fill="#2c2c2c"/>
 <path d="m66 73c-1.8929 4.0563-2.9039 7.5121-3 12 3.6042-3.2402 5.2606-7.2423 6-12h-3z" fill="#7d7d7d"/>
 <path d="m692 75c-1.475 7.6057-7.169 26.495 1 31-0.93402 1.723-1.535 3.106-2 5l5 1c-3.361 4.844-5.929 7.933-6 14h3l-8.444 78.907c-1.544 12.165-6.968 26.66-2.556 39.093 1.226-3.143-0.69-5.558-0.16101-8.754 2.783-16.82 6.514-30.96 5.161-48.246l1 2c2.823-6.543 2.064-15.923 3-23h3c-0.59399-4.49-1.984-8.363-2-13l3 1c-0.76898-6.116-2.236-15.562 4-19-0.94098-2.827-2.123-4.673-4-7h5c-0.42999-5.251-2.078-8.7-5-13 5.758-1.234 6.937-20.334 1-22l-3 3 2-5c-1.598-1.481-2.108-2.0615-3-4l6-1v-2c-1.478-0.9856-1.203-1-3-1 0.19098-3.6094-0.41302-5.4658-3-8z" fill="#707070"/>
 <path d="m501 77c-2.281 6.5608 2.175 14.877 9 17 0.46799 6.08 6.09 10.412 9.153 15.576 3.595 6.06 7.165 17.415 7.959 24.424 1.809 15.972-11.792 25.296-3.112 41 1.819-1.364 1.031-1.492 3-1-5.483-14.025 3.281-23.285 3.956-37 0.59302-12.035-5.963-24.918-9.956-36-8.177-2.5015-6.446-13.743-15-15-0.57501-3.9373-2.054-6.3468-5-9z" fill="#141414"/>
 <path d="m701 84c1.584-0.7824 2.6-1.8699 4-3-2.654-0.6147-3.209 0.5331-4 3z" fill="#7d7d7d"/>
 <path d="m703 81v3h2v-3h-2z" fill="#9e9e9e"/>
 <path d="m0 82c0.78243 1.584 1.8699 2.6 3 4 0.61467-2.6538-0.53306-3.2086-3-4z" fill="#2c2c2c"/>
 <path d="m683 86l4-3c0.10901 2.442 0.42798 4.6228 1 7 1.077-2.7564 0.53198-5.1068 0-8-3.066 0.497-4.032 1.0359-5 4z" fill="#919191"/>
 <path d="m685 83c-1.478 3.0678-1.921 5.6024-2 9l5-1-1-8h-2z" fill="#9e9e9e"/>
 <path d="m699 83v4h3c0.30701 2.1227 0.38202 2.686 2 4-0.077026-2.3536 0.20898-3.7679 1-6-2.172-0.4637-3.958-1.1055-6-2z" fill="#505050"/>
 <path d="m767 83v11c1.431-3.4099 1.431-7.5901 0-11m-767 1v6c1.7324-1.9779 2.4024-3.4344 3-6h-3z" fill="#141414"/>
 <path d="m694 84v2h2v-2h-2z" fill="#878787"/>
 <path d="m9 88c2.511-1.5694 4.9628-1 8-1-2.5615-2.5615-7.0961-3.2182-8 1z" fill="#373737"/>
 <path d="m3 86c0.4109 4.0597 1.0576 7.8943 1 12h5c-0.2574-5.5204-2.4724-7.9997-6-12z" fill="#424242"/>
 <path d="m4 86c0.83871 2.6265 1.3735 3.1613 4 4-0.83871-2.6265-1.3735-3.1613-4-4z" fill="#595959"/>
 <path d="m10 86c-2.2254 6.2911-0.15428 9.56 6 12 1.5456-2.961 3.0101-5.81 4-9-3.2753-1.3972-6.5565-2.142-10-3z" fill="#2c2c2c"/>
 <path d="m2 87c-1.4776 3.0678-1.9212 5.6025-2 9l3-1v4l11 1-1 4 3 1-2 4 7 2c-0.9857 1.479-1 1.203-1 3 2.5002-1.687 3.2097-3.088 4-6l-4 1c1.8724-3.248 3.1493-6.343 4-10-2.8567-3.0783-1.7462-6.127-1-10l-5-1c1.1185 3.6556-0.7362 6.5377-2 10l-7-4v4h-5c0.28825-4.2464 0.52119-7.3947-2-11m35 9l2-8c-3.5866 1.8833-6.0872 5.2588-2 8z" fill="#373737"/>
 <path d="m323 90c0.504 2.1458 0.35727 4.4139 1.2383 6.4353 2.399-1.3064 5.0647-3.1553 2.7617-5.4353 1.478-0.9857 1.203-1 3-1-2.694-1.4312-4.192-1.1224-7 0m66-2c-2.737 4.5513-5.303 8.942-7 14 4.048-2.526 7.601-9.4651 9-14h-2z" fill="#141414"/>
 <path d="m682 88l-1 36c2.748-6.548 1.714-15.926 2.019-22.999 0.11804-2.715 1.226-7.5891 3.981-4.001 0.87402-2.0521 0.953-3.7472 1-6l-5 1c-0.17401-1.6853-0.31702-2.4939-1-4z" fill="#919191"/>
 <path d="m512 89c1.053 5.0406 2.772 10.297 8 12-1.024-5.0758-4.149-8.6575-8-12z" fill="#2c2c2c"/>
 <path d="m39 90c-1.9422 3.5372-3.3219 7.016-4 11 4.2139-2.5044 5.57-6.2549 6-11h-2z" fill="#595959"/>
 <path d="m30 95c-3.5529-0.9687-5.6873-0.5872-9 1 1.0012 1.9239 1.0775 2.0985 3 3l-4 10 4-1-1 3c11.555-0.28 11.63-10.979 12-20-2.712 0.8228-3.5382 1.5669-5 4m355-4c-0.56201 1.8005-0.824 3.1219-1 5 1.318-1.9261 1.651-2.7659 1-5z" fill="#424242"/>
 <path d="m684 94l2 3c-5.483 3.954-3.558 17.6-4.17 24-1.552 16.24-3.455 33.817-3.647 50-0.088989 7.467 2.796 14.527 2.817 22h2c1.011-12.378 3-23.443 3-36-5.971-0.276-4.145-5.462-4.014-10 0.23498-8.147-2.143-32.621 5.014-37l-1 38c3.985-9.474 2.883-22.846 3.004-33 0.052002-4.364 2.099-9.309-2.004-12 0.92999-3.874 1.385-7.7172-3-9z" fill="#9e9e9e"/>
 <path d="m1 95c-0.64378 2.1059-0.90587 3.7951-1 6 2.442-0.11 4.6228-0.428 7-1 0.67327 3.449 0.26491 6.522 0 10-7.6903 2.601-7 11.301-7 18 5.5917-0.046997 10.179-0.625 14-5h-6l1-6c-3.0695-4.496 1.1086-8.11 5-4 1.6352-0.545 1.4549-0.365 2-2 1.1864 1.036 1.6036 1.339 3 2v2c-1.3142 0.768-1.2321 0.686-2 2 2.4184-1.681 3.0842-3.198 4-6l-7-2 2-4c-1.4785-0.986-1.2032-1-3-1l1-4c-3.6955-0.467-7.2648-0.9691-11-1v-4h-2z" fill="#1d1d1d"/>
 <path d="m683 98c2.124-0.8993 2.101-0.8764 3-3-2.364 0.4824-2.518 0.636-3 3z" fill="#aeaeae"/>
 <path d="m701 95c0.56 4.5969 1.675 9.569 3 14 5.217-2.214 5.511-5.874 4-11l-4 1-1-1 1-3h-3m-318 1l-1 3c1.766-0.9786 1.955-1.2218 1-3z" fill="#424242"/>
 <path d="m767 96v23c2.284-5.443 2.284-17.557 0-23m-767 5v15c2.4323-2.03 4.2311-4.455 7-6 0.45024-3.577 0.96536-6.49 0-10l-7 1z" fill="#141414"/>
 <path d="m381 101c-0.41598 3.083-1.158 6.006-2 9 2.992-2.336 4.149-5.78 2-9z" fill="#1d1d1d"/>
 <path d="m699 102c-0.039001 4.675 0.258 10.271-4 13 2.121 4.5 4.312 7.924 5 13h-5l4 7c-6.555 2.176-5.03 13.449-4 19-1.478-0.98599-1.203-1-3-1 0.004028 4.724 0.98999 8.47 2 13h-3c-1.717 7.704-1.935 15.021-2 23l-1-2c-3.168 8.098-1.074 21.969-2.184 31-2.876 23.388-7.555 45.382-7.816 69h3v4c2.251-5.83-2.69-9.358 3-15v-2h-2c0.70898-4.327 4.805-16.97 0-18l1-6h4c-1.228-3.995-3.663-7.279-1-11-0.84003-1.916-0.98498-2.223 0-4l1-10c1.111 1.743 1.27 2.119 3 3 0.33398-5.327-4.384-11.981 1-15-0.52502-7.909-4.003-18.085 5-23-0.59802-1.195-0.466-0.977-2-2 3.083-3.683 2.182-8.319 5-12-2.267-2.417-2.118-3.679 1-5-0.75098-2.692-1.232-3.083-4-3l-1-5c1.797 0 1.521-0.014008 3-1-0.768-1.314-0.68597-1.232-2-2 6.059-18.622 6-38.361 6-58h-3z" fill="#595959"/>
 <path d="m330 103l-1 5c1.318-1.926 1.651-2.766 1-5z" fill="#707070"/>
 <path d="m331 103l-3 9c2.338-2.718 3.761-5.642 5-9h-2z" fill="#505050"/>
 <path d="m332 104c-1.918 5.282-3.949 9.243-4 15 1.98-4.021 5.425-10.662 4-15z" fill="#1d1d1d"/>
 <path d="m690 105c-0.99597 5.387-0.18201 8.123 2 13 1.776-1.889 2.878-3.657 4-6l-5-1c1.002-2.989 1.88-4.19-1-6z" fill="#7d7d7d"/>
 <path d="m379 106l-3 4c2.467-0.791 3.615-1.346 3-4z" fill="#505050"/>
 <path d="m7 117c2.3753-1.147 4.4404-2.333 7-3-2.2718-7.428-6.7076-2.294-7 3m517-8c0.16803 2.402 0.19702 3.46 2 5-0.47998-1.96-0.93799-3.307-2-5z" fill="#373737"/>
 <path d="m368 110c-0.54501 5.47-1.996 10.416-2 16 2.03-4.51 5.548-12.029 2-16z" fill="#424242"/>
 <path d="m371 114c1.312 1.459 2.231 2.157 4 3 1.318-2.327 2.261-4.433 3-7-2.854 0.806-4.66 2.183-7 4z" fill="#646464"/>
 <path d="m378 110c-0.57199 2.377-0.89002 4.558-1 7 1.258-2.228 2.096-4.597 3-7h-2z" fill="#424242"/>
 <path d="m525.33 110.67c-0.054993 0.055-0.11102 1.111 0.33398 0.666 0.054993-0.055 0.11102-1.111-0.33398-0.666z" fill="#595959"/>
 <path d="m684 110c-1.449 7.807-5.109 33.52 2 38l1-38h-3z" fill="#b7b7b7"/>
 <path d="m16 111c-4.9864 3.791-7.6905 5.344-8 12h7c0.4516-3.45 1.4808-5.597 4-8v-2l-3-2z" fill="#141414"/>
 <path d="m379 111c-1.009 3.227-2.54 5.981-4 9 3.878-1.359 5.17-5.145 4-9z" fill="#2c2c2c"/>
 <path d="m327 112l-1 4c1.303-1.668 1.553-1.992 1-4z" fill="#595959"/>
 <path d="m367 112l-1 5c1.318-1.926 1.651-2.766 1-5z" fill="#1d1d1d"/>
 <g fill="#505050">
  <path d="m526 112v3c0.69598-1.554 0.69598-1.446 0-3z"/>
  <path d="m20 114c-0.545 1.635-0.3648 1.455-2 2 2.0335 0.785 2.7852 0.032997 2-2z"/>
 </g>
 <path d="m689 114v9c1.978-3.341 3.451-6.407 0-9z" fill="#878787"/>
 <path d="m327 115c-0.64401 2.106-0.90601 3.795-1 6h2c-0.046997-2.253-0.12601-3.948-1-6m199 0c3.635 11.35 4.242 20.287 4 32 3.764-8.384 2.877-25.453-4-32z" fill="#373737"/>
 <path d="m703 115v5c3.844-1.277 3.844-3.723 0-5z" fill="#707070"/>
 <path d="m365 117c-2.854 3.903-4.286 9.234-5 14 3.15-3.047 6.199-9.63 5-14z" fill="#141414"/>
 <path d="m15 118v4c0.7102-1.759 0.7102-2.241 0-4z" fill="#2c2c2c"/>
 <path d="m16 118c-1.0423 3.877-3.394 6.981-4 11h2c1.0236-3.947 3.6658-6.915 2-11z" fill="#505050"/>
 <path d="m14 130h5c-1.506-0.683-2.3148-0.826-4-1v-4c2.2974 0.674 2.7741 0.965 4 3 6.1083-11.984-4.2188-8.648-5 2z" fill="#7d7d7d"/>
 <path d="m318 121c3.511 0 7.146 0.987 8-3-3.388 0.265-5.95 0.070999-8 3z" fill="#646464"/>
 <path d="m365 120c-1.332 3.626-2.262 7.21-3 11 3.079-3.085 4.713-6.79 3-11z" fill="#2c2c2c"/>
 <path d="m372 173c6.783-16.164-5.568-37.426 3-53-5.049 2.784-4.326 8.796-3.83 14 1.232 12.951 0.82999 25.981 0.82999 39z" fill="#1d1d1d"/>
 <path d="m373 145c3.59-8.556-3.582-17.197 5-24-9.698-1.978-5.014 18.837-5 24z" fill="#141414"/>
 <path d="m20 128c0.683-1.506 0.8259-2.315 1-4 0.5618 1.801 0.8241 3.122 1 5 1.1394-2.535 1.4818-5.256 2-8-3.1678 1.743-3.7312 3.435-4 7z" fill="#424242"/>
 <path d="m314 125c3.822-1.493 6.827-2.878 11-3-4.245-1.777-8.626-1.064-11 3z" fill="#595959"/>
 <path d="m325 121c-2.057 1.582-3.388 1.826-6 2 3.375 1.405 5.853 0.977 8-2h-2z" fill="#2c2c2c"/>
 <path d="m327 121c-6.387 6.032-11.762 3.884-12 15h2c0.036011-3.254-0.096985-7.025 2.573-9.397 2.614-2.323 8.484-0.896 7.427-5.603z" fill="#1d1d1d"/>
 <path d="m318 124c2.377-0.572 4.558-0.89 7-1-2.734-1.14-4.997-1.293-7 1z" fill="#424242"/>
 <path d="m530 122v6c0.95099-2.285 0.95099-3.715 0-6z" fill="#505050"/>
 <path d="m21 124c-1.0847 4.367-3.5953 8.095-7 11-0.4824-2.364-0.636-2.518-3-3l-2 10c1.7295-0.881 1.8887-1.258 3-3 0.9857 1.479 1 1.203 1 3l8-2c-0.4057-2.092-0.2167-2.02-2-3v-2c3.0272-2.547 3.4546-7.434 2-11z" fill="#2c2c2c"/>
 <path d="m314 128l4-3c-2.654-0.615-3.209 0.533-4 3z" fill="#424242"/>
 <path d="m15 125v4h4v-4h-4z" fill="#919191"/>
 <path d="m316 125c-3.241 6.182-2.808 11.733-11 12 9.749 4.082 9.963-5.492 13-12h-2z" fill="#2c2c2c"/>
 <path d="m370 125c0 7.101 0.44299 13.945 1 21 2.175-5.184 1.152-15.872-1-21z" fill="#424242"/>
 <path d="m0 128v2h7c-1.9119 4.754-0.53241 10.243-7 10l1 4c4.3955-0.81599 12.036 0.392 15-3-2.0868-0.189-2.4864-0.546-4-2l-3 3 2-10c2.1236 0.899 2.1007 0.87601 3 3 2.133-1.155 2.7824-1.882 4-4-3.2336-0.842-4.6043-1.963-6-5-4.0633 0.929-7.806 1.911-12 2z" fill="#373737"/>
 <path d="m273 130c8.105-2.576 14.771 0.977 23 1-5.054-3.601-19.475-7.33-23-1z" fill="#505050"/>
 <path d="m278 126c2.052 0.874 3.747 0.953 6 1-2.052-0.874-3.747-0.953-6-1z" fill="#646464"/>
 <path d="m365 126c-2.794 11.185-10.805 18.689-13 30 4.031-2.278 2.585-5.304 4.602-9 4.101-7.517 8.428-12.388 10.398-21h-2z" fill="#505050"/>
 <path d="m284 127c1.769 0.779 3.036 0.912 5 1-1.769-0.779-3.036-0.912-5-1z" fill="#707070"/>
 <path d="m271 128v6c1.063-1.969 1.532-3.798 2-6h-2z" fill="#646464"/>
 <path d="m269 142c3.674-2.619 3.815-6.703 4-11l4 1c2.244-2.116 3.931-2.668 7-3-10.44-4.196-12.571 5.284-15 13z" fill="#373737"/>
 <path d="m290 128c1.506 0.683 2.315 0.826 4 1-1.506-0.683-2.315-0.826-4-1z" fill="#707070"/>
 <path d="m312 128c-0.17099 5.256-1.572 7.586-7 8 6.6 2.74 8.275-2.422 9-8h-2z" fill="#505050"/>
 <path d="m680 128v18c1.952-4.651 1.952-13.349 0-18z" fill="#878787"/>
 <path d="m22 129v10c1.5064-3.363 1.9795-6.819 0-10z" fill="#595959"/>
 <path d="m277 132c2.355-0.868 4.531-1.574 7-2-3.037-1.177-5.122-0.661-7 2z" fill="#1d1d1d"/>
 <path d="m0 130v6l4-1v5h2c-0.11752-3.536 0.06173-6.577 1-10h-7z" fill="#424242"/>
 <path d="m14 130c1.506 0.683 2.3148 0.826 4 1-1.5061-0.683-2.3148-0.826-4-1z" fill="#595959"/>
 <path d="m21 130c-0.3026 2.294-0.5785 3.211-2 5v2c1.1952 1.223 1.3164 1.42 2 3 1.3457-3.207 1.3457-6.793 0-10z" fill="#424242"/>
 <path d="m267 130v4c-1.186-1.186-1.528-1.584-2-3-2.464 5.127-3.832 13.297-4 19h3c0 4.239 0.638 8.518-2 12l1 4c4.296-5.365 1.414-9.892 2.274-16 0.80301-5.7 4.027-10.62 5.726-16-1.267-1.543-1.489-2.048-2-4h-2z" fill="#707070"/>
 <path d="m284 130c1.506 0.683 2.315 0.826 4 1-1.506-0.683-2.315-0.826-4-1m77 0c-3.008 4.599-6.213 9.503-7 15-3.643 1.215-4.499 3.293-5 7 5.41-3.431 13.608-15.372 12-22z" fill="#1d1d1d"/>
 <path d="m363 130c-2.404 3.806-4.481 7.762-6 12 3.767-2.244 7.57-7.521 6-12z" fill="#373737"/>
 <path d="m273 131c-0.46701 5.854-3.633 8.886-5.137 14.103-1.725 5.979-1.429 16.36-1.863 22.897 6.43-6.121 3.98-13.329 5.225-20.985 0.798-4.912 3.546-10.582 5.775-15.015l-4-1z" fill="#2c2c2c"/>
 <path d="m290 131c3.71 3.476 10.067 3.987 15 5-4.509-4.527-8.857-4.996-15-5z" fill="#373737"/>
 <path d="m299 131c1.904 1.884 3.534 2.953 6 4-1.906-2.323-3.108-3.194-6-4z" fill="#505050"/>
 <path d="m679 133v32c2.857-6.809 2.857-25.191 0-32z" fill="#7d7d7d"/>
 <path d="m4 141c-1.9149-2.766-1.2866-3.193 0-6-4.035 1.625-4.3016 4.581 0 6m266-5c-4.851 9.636-4.213 16.665-4 27 1.817-4.333-0.125-8.53 0.54599-13 0.69101-4.614 4.52-9.461 3.454-14z" fill="#595959"/>
 <path d="m1 137c0.8993 2.124 0.87636 2.101 3 3-0.48245-2.364-0.63598-2.518-3-3z" fill="#646464"/>
 <path d="m305 138c3.349 1.405 6.564 1.015 10 0-3.171-0.76199-6.694-0.026993-10 0z" fill="#141414"/>
 <path d="m1 142c-0.68304 1.506-0.82589 2.315-1 4 9.0757-0.005997 13.306-1.116 21-5-6.0537-1.981-13.009 4.454-20 1z" fill="#424242"/>
 <path d="m531 141v5c0.83002-2.03 0.83002-2.97 0-5z" fill="#505050"/>
 <path d="m704 141v4l4-1v-2l-4-1z" fill="#707070"/>
 <path d="m677 142c-1.561 6.79-1.039 15.117 0 22h-3c1.593 19.058 3.452 42.299-1 61 2.474 3.266 2 7.01 2 11h-3c0.672 12.153 1.795 24.105-1 36 6.173-5.872 4.873-26.131 3-34 5.058-4.42 2.998-19.624 3-26 0.008972-23.482 2-46.56 2-70h-2z" fill="#646464"/>
 <path d="m529 143c-0.67297 4.947-2.953 8.82-3 14 2.302-4.189 4.945-9.328 3-14z" fill="#1d1d1d"/>
 <path d="m682 143c-0.007996 2.99-2.255 12.01 0.54901 13.824 5.888 3.81 0.466-12.24-0.54901-13.824z" fill="#aeaeae"/>
 <path d="m16 144c-4.04 2.624-11.166 1.987-16 2v14c5.5477-0.001007 10.706-0.20799 16-2v-2c-2.3772-0.57201-4.558-0.89-7-1v-6l10-1-1-4h-2z" fill="#505050"/>
 <path d="m371 146c-2.095 7.087 0.15799 13.867-0.20902 21-1.015 19.736-4.146 46.183 12.209 62-3.219-13.907-10.061-25.462-10.907-40-0.73898-12.713 3.916-31.063-1.093-43z" fill="#2c2c2c"/>
 <path d="m353 147c-0.72198 2.418-0.948 4.472-1 7 1.145-2.39 1.613-4.422 1-7z" fill="#373737"/>
 <path d="m530 147v3c0.69598-1.554 0.69598-1.446 0-3z" fill="#595959"/>
 <path d="m266 148l1 15c2.348-5.23 2.04-10.183-1-15z" fill="#505050"/>
 <path d="m351 150c-3.46 5.081-8.351 10.809-9.546 17-0.99902 5.179 0.20499 9.681-1.454 15 5.647-3.563 3.908-9.659 2-15 3.639-2.218 10.405-12.833 9-17z" fill="#2c2c2c"/>
 <path d="m359 150c0.78101 2.943 1.395 4.421 4 6-0.49701-3.207-1.15-4.444-4-6z" fill="#7d7d7d"/>
 <path d="m528 150c-1.285 6.146-3.865 11.647-4 18 2.502-5.523 4.623-12.053 6-18h-2z" fill="#505050"/>
 <path d="m271 152c0.29599 4.631-1.374 8.476-2 13 3.588-3.493 7.096-9.395 2-13z" fill="#1d1d1d"/>
 <path d="m347 152c-1.243 2.653-2.288 5.158-3 8 2.451-2.383 3.822-4.793 5-8h-2z" fill="#141414"/>
 <path d="m369 152c-0.072998 8.202-0.024994 18.016-1 26 5.077-4.431 3.393-20.3 1-26z" fill="#505050"/>
 <path d="m350 154c-1.714 2.624-3.056 5.013-4 8 2.881-2.285 4.943-4.448 6-8h-2z" fill="#424242"/>
 <path d="m342 160c-2.26 7.353-1.175 11.514-1 19 2.195-5.244 1.678-13.145 3-19h-2z" fill="#141414"/>
 <path d="m699 166c3.127-0.93401 4.066-1.873 5-5-3.474 0.577-4.423 1.526-5 5z" fill="#595959"/>
 <path d="m525 162c0.020996 2.85 0.19 5.271 1 8 0.66803-2.787 0.172-5.387-1-8z" fill="#707070"/>
 <path d="m264 163l-3 8c3.209-2.041 4.487-4.241 5-8h-2z" fill="#595959"/>
 <path d="m682 165c-1.139 3.654-2.003 6.241-1 10 4.602-1.85 3.997-5.557 4-10h-3z" fill="#aeaeae"/>
 <path d="m264 167v3c1.015-1.139 1.309-1.612 2-3h-2z" fill="#505050"/>
 <path d="m265 168l-3 8c3.218-2.177 4.164-4.246 5-8h-2z" fill="#141414"/>
 <path d="m524 168c0.93597 1.949 1.392 2.55 3 4-0.93597-1.949-1.392-2.55-3-4z" fill="#2c2c2c"/>
 <path d="m677 168v6c0.95099-2.285 0.95099-3.715 0-6z" fill="#7d7d7d"/>
 <path d="m239 176v2c6.146-0.003998 22.92-1.732 25-8-8.283 1.815-16.466 5.457-25 6z" fill="#373737"/>
 <path d="m231 178c-0.446 8.269-5.469 15.665-6 24 5.07-6.097 13.394-17.931 14-26 6.498-0.188 12.43-2.864 19-3-9.786-4.106-17.724 4.054-27 5z" fill="#646464"/>
 <path d="m368 172v4c0.70999-1.759 0.70999-2.241 0-4z" fill="#595959"/>
 <path d="m527 172c0.68402 1.58 0.80499 1.777 2 3-0.68402-1.58-0.80499-1.777-2-3z" fill="#424242"/>
 <path d="m248 177c4.075 1.005 9.557-0.99699 14-1v-2c-5.124 0.042007-9.311 0.916-14 3z" fill="#1d1d1d"/>
 <path d="m529.33 174.67c-0.054993 0.054993-0.11102 1.111 0.33398 0.66598 0.054993-0.054993 0.11102-1.111-0.33398-0.66598z" fill="#646464"/>
 <path d="m678 174l-1 36h2c0-10.387 3.011-26.441-1-36z" fill="#7d7d7d"/>
 <path d="m367 176l-1 10c1.703-3.204 2.389-6.593 1-10z" fill="#646464"/>
 <path d="m529.33 176.67c-0.054993 0.054993-0.11102 1.111 0.33398 0.66598 0.054993-0.054993 0.11102-1.111-0.33398-0.66598z" fill="#424242"/>
 <path d="m685 176c-0.047974 5.8-1.749 11.241-2 17h-2c-0.002991-3.786-0.12097-7.306-1-11-4.766 11.359-2 31.662-2 44 3.387-1.957 4.98-6.005 4.861-9.94-0.41705-13.832 3.711-26.351 4.139-40.06h-2z" fill="#919191"/>
 <path d="m239 178c-5.827 16.131-19.964 29.737-20 47-3.224-0.338-5.837 0.768-9 1-9.201 14.518-23.914 24.96-13.346 43.576 2.142 3.771 4.106 7.152 8.346 8.424 0.357 6.609 6.438 23.818 13 26v6c1.098-2.613 0.993-5.164 1-8-2.011-0.81-3.031-2.059-5-2-0.007004-9.202-6.036-14.333-8-23-7.555-4.449-13.188-17.157-6-24-0.203-7.476 10.581-18.375 14-26 1.867 0.289 4.53 1.105 5.97-0.643 1.781-2.162 0.271-5.51 1.764-7.902 4.774-7.648 11.977-11.5 12.266-21.455h5c1.722-5.981 4.273-13.872 9-18-2.89-1.213-5.874-0.998-9-1z" fill="#141414"/>
 <path d="m530 178c-0.002991 4.422-0.44702 8.623-1 13 2.5-3.659 2.707-8.931 1-13z" fill="#2c2c2c"/>
 <path d="m339 179c-1.79 2.438-3.605 4.143-6 6 4.3 0.993 6.5-2.356 8-6h-2z" fill="#1d1d1d"/>
 <path d="m687 179c-0.57202 2.377-0.89099 4.558-1 7 1.289-2.43 1.806-4.361 1-7z" fill="#878787"/>
 <path d="m531 180c-0.01001 3.763-0.31299 7.299-1 11 2.424-3.199 2.547-7.313 1-11z" fill="#646464"/>
 <path d="m236 182v4c0.71001-1.759 0.71001-2.241 0-4z" fill="#373737"/>
 <path d="m312 216c7.644-6.7 6.581-17.695 12.702-24.686 4.552-5.199 13.054-2.904 17.298-9.314-4.957 1.862-13.668 3.703-17.701 6.893-5.268 4.168-10.596 20.603-12.299 27.107m55-34c0.001007 4.982 0.039001 9.353 2 14 1.77-4.252-0.21701-9.921-2-14z" fill="#424242"/>
 <path d="m341 183c-1.223 1.195-1.42 1.316-3 2 2.139 0.952 3.976 0.577 3-2m-107 3c-0.881 2.021-1.496 3.854-2 6 1.769-1.868 2.837-3.692 4-6h-2z" fill="#505050"/>
 <path d="m320 195c3.844-4.393 5.669-7.575 12-8-6.323-2.623-11.514 1.612-12 8z" fill="#1d1d1d"/>
 <path d="m321 203c2.343-3.791 3.498-7.786 7.174-10.721 3.024-2.415 6.677-1.961 8.826-5.279-10.596 1.427-15.486 4.753-16 16z" fill="#505050"/>
 <path d="m372 189c0.383 4.809 0.44199 15.891 4 19-1.16-6.251-0.647-13.438-4-19z" fill="#141414"/>
 <path d="m684 189c-0.56403 7.082-1.833 13.848-2 21 4.239-4.033 4.193-15.773 2-21z" fill="#878787"/>
 <path d="m693 190v5c3.064-0.86301 4.137-1.935 5-5h-5z" fill="#424242"/>
 <path d="m529 191v3c0.69598-1.554 0.69598-1.446 0-3z" fill="#505050"/>
 <path d="m231 192c-3.328 3.603-4.55 8.332-7.729 12.08-7.49 8.83-16.818 15.716-19.271 27.92 1.666-1.255 3.099-2.159 5-3 0.69501-4.637 2.123-10.221 5.302-13.816 5.361-6.06 19.67-13.107 16.698-23.184z" fill="#424242"/>
 <path d="m528 194l-8 17c3.755-3.376 9.366-11.856 8-17z" fill="#2c2c2c"/>
 <path d="m319 195c-0.81 2.729-0.979 5.15-1 8 1.172-2.613 1.668-5.213 1-8z" fill="#141414"/>
 <path d="m694 199h4v-4c-2.626 0.839-3.161 1.374-4 4z" fill="#646464"/>
 <path d="m369 196v4c0.70999-1.759 0.70999-2.241 0-4z" fill="#707070"/>
 <path d="m370 197v9c1.256-2.994 1.256-6.006 0-9z" fill="#595959"/>
 <path d="m527 199c-0.98602 1.479-1 1.203-1 3 1.289-1.443 1.401-1.234 1-3z" fill="#646464"/>
 <path d="m525.33 202.67c-0.054993 0.054993-0.11102 1.111 0.33398 0.66598 0.054993-0.054993 0.11102-1.111-0.33398-0.66598z" fill="#595959"/>
 <path d="m316 203c-1.962 5.069-5.62 8.345-6 14 3.939-3.921 6.223-8.781 8-14h-2z" fill="#1d1d1d"/>
 <path d="m371 206v4c0.70999-1.759 0.70999-2.241 0-4z" fill="#707070"/>
 <path d="m372 206v4c0.70999-1.759 0.70999-2.24 0-4z" fill="#505050"/>
 <path d="m223 207c-7.107 6.488-11.696 10.272-14 20 3.391-0.633 6.554-1.803 10-2 0.048996-6.36 4.193-12.484 4-18z" fill="#1d1d1d"/>
 <path d="m317 208l-2 6c1.915-2.032 2.744-3.265 2-6z" fill="#595959"/>
 <path d="m517 214c1.457-1.103 1.897-1.543 3-3-2.124 0.899-2.101 0.87601-3 3z" fill="#1d1d1d"/>
 <path d="m673 211c-0.30102 3.847-0.82898 7.185 0 11-13.729-3.023-28.733-4.021-42-1v19h-5c2.042 1.416 3.511 1.745 6 2 0-6.848-2.06-18.096 6.04-21.254 9.297-3.624 45.074 14.356 34.96-9.746z" fill="#707070"/>
 <path d="m207 214c-0.52901 7.289-5.831 13.134-8 20 7.558-2.272 11.153-15.501 15-22l-7 2z" fill="#646464"/>
 <path d="m374 213c0.093994 2.205 0.35599 3.894 1 6 0.552-2.359 0.138-3.854-1-6z" fill="#595959"/>
 <path d="m313 214c-4.582 10.728-15.987 15.869-19 28 8.374-7.41 16.785-18.102 22-28h-3z" fill="#646464"/>
 <path d="m677 214c0 10.066-2.121 21.292 1 31 3.994-1.343 3.587-16.77 4-22-1.584 0.782-2.6 1.87-4 3 0-3.983 0.552-8.303-1-12z" fill="#878787"/>
 <path d="m301 229c4.257-3.763 8.874-8.253 12-13-5.471 2.633-10.071 7.2-12 13z" fill="#505050"/>
 <path d="m306 221c2.001-1.215 2.785-1.999 4-4-2.249 1.154-2.846 1.751-4 4z" fill="#2c2c2c"/>
 <path d="m209 218l-1 6c1.293-1.923 2.142-3.84 3-6h-2z" fill="#505050"/>
 <path d="m376 218c1.801 5.769 2.665 11.43 8 15-1.925-5.058-3.929-11.411-8-15z" fill="#424242"/>
 <g fill="#1d1d1d">
  <path d="m299 227c2.809-2.368 5.292-4.744 7-8-4.054 1.502-5.909 3.844-7 8z"/>
  <path d="m382 224c0.48999 3.76 0.819 6.732 4 9-0.72699-3.393-1.874-6.252-4-9z"/>
  <path d="m206 229c-1.621 2.979-3.174 5.709-4 9 2.746-2.569 4.545-5.534 6-9h-2m91 0c-7.355 10.541-11.933 22.811-26 25-1.857 2.717-3.463 4.723-4 8l5 2c-2.11-8.807 5.952-7.579 11.076-11.893 6.426-5.408 12.492-15.485 15.924-23.107h-2z"/>
 </g>
 <path d="m226 230v5c3.176-0.50301 4.331-1.255 6-4l-6-1z" fill="#141414"/>
 <path d="m511 230c-1.098 2.082-1.685 3.67-2 6 1.777-2.05 2.64-3.34 2-6z" fill="#373737"/>
 <path d="m198 241c3.38-2.1 5.025-5.596 7-9-3.98 1.984-5.573 4.861-7 9m186-9c0.42499 6.319 4.605 10.926 10 14-2.211-4.864-5.394-11.162-10-14z" fill="#2c2c2c"/>
 <path d="m591 232c1.506 0.683 2.315 0.826 4 1-1.506-0.683-2.315-0.826-4-1z" fill="#505050"/>
 <path d="m676 232c-0.17401 2.613-0.41803 3.943-2 6 0.81097 4.369 1 8.564 1 13 0.68298-1.506 0.82599-2.315 1-4 3.052 2.764 3.289 4.974 3 9 2.979-3.502 2.329-6.647 2-11-5.546-3.134-2.908-8.01-5-13z" fill="#707070"/>
 <path d="m198 234c-2.159 5.134-6.578 8.18-8.86 13.019-4.082 8.653 2.272 15.711 5.86 22.981 1.83-6.208-4.934-10.844-4.647-17 0.334-7.13 8.234-12.367 10.647-19h-3z" fill="#595959"/>
 <path d="m295 234l-2 6c2.323-1.906 3.194-3.108 4-6h-2z" fill="#373737"/>
 <path d="m684 235v3h3v-3h-3z" fill="#646464"/>
 <path d="m610 238c2.052 0.87399 3.747 0.953 6 1-2.052-0.87399-3.747-0.953-6-1z" fill="#424242"/>
 <path d="m616 239c3.785 2.123 7.682 2.899 12 3-3.586-2.555-7.669-2.91-12-3z" fill="#505050"/>
 <path d="m292 240c-2.328 2.899-4.488 5.603-6 9 3.076-2.273 6.333-4.943 6-9z" fill="#424242"/>
 <path d="m293 240c-3.032 5.242-8.197 8.746-11 14 4.917-2.386 12.457-7.775 11-14z" fill="#595959"/>
 <path d="m194 243c-3.221 6.43-2.546 11.088-2 18 2.286-5.447 1.889-12.136 4-18h-2z" fill="#373737"/>
 <path d="m293 243c-0.89002 1.745-1.453 3.125-2 5 1.848-1.78 2.566-2.491 2-5z" fill="#646464"/>
 <path d="m394 246v2h4v-2h-4z" fill="#1d1d1d"/>
 <path d="m536 250c4.063-0.929 7.806-1.911 12-2-3.973-1.667-9.369-1.724-12 2z" fill="#646464"/>
 <path d="m676 247l-1.647 6.171c-0.15503 1.808 1.919 8.617 4.563 5.167 2.211-2.884 0.38599-8.529-0.91602-11.338h-2z" fill="#878787"/>
 <path d="m289 248c-3.644 4.063-8.693 7.608-14 9 6.214 2.394 12.895-4.096 16-9h-2z" fill="#646464"/>
 <path d="m395 248c2.867 3.216 5.755 5.155 10 6-2.923-2.902-5.932-5.157-10-6z" fill="#2c2c2c"/>
 <path d="m541 248c2.613 1.098 5.164 0.993 8 1-2.613-1.098-5.165-0.993-8-1z" fill="#424242"/>
 <path d="m549 248c2.89 1.213 5.874 0.998 9 1-2.89-1.213-5.874-0.998-9-1z" fill="#595959"/>
 <path d="m633 248c-0.012024 18.175 0.664 35.795 1.911 54 0.66797 9.764-0.914 19.502 2.089 29 1.488-6.201-1-14.46-1-21l-1-37c0.012024-7.594 0.95599-17.956-2-25z" fill="#2c2c2c"/>
 <path d="m538 249c4.85 2.035 10.806 0.733 16 1.09 7.809 0.535 15.292 2.872 23 3.91-9.908-7.045-27.401-5-39-5z" fill="#1d1d1d"/>
 <path d="m558 249c2.332 0.985 4.457 0.981 7 1-2.331-0.985-4.457-0.981-7-1m-368 1c0.020996 2.85 0.19 5.271 1 8 0.668-2.787 0.172-5.387-1-8m344.67 0.333c-0.44501 0.44501 0.61102 0.38901 0.66602 0.33402 0.44501-0.44501-0.61102-0.38901-0.66602-0.33402z" fill="#505050"/>
 <path d="m566 250c2.331 0.985 4.457 0.981 7 1-2.332-0.985-4.457-0.981-7-1z" fill="#595959"/>
 <path d="m527 256c3.648 0.82501 5.912-2.279 8-5-3.043 1.222-5.33 3.122-8 5z" fill="#2c2c2c"/>
 <path d="m573 251c2.159 2.022 4.199 3.036 7 4-2.147-2.338-3.924-3.201-7-4z" fill="#595959"/>
 <path d="m275 255c1.769 0.77901 3.036 0.912 5 1v-2c-1.878 0.176-3.199 0.438-5 1m131 0c3.163 1.327 6.586 1 10 1-3.163-1.327-6.586-1-10-1z" fill="#2c2c2c"/>
 <path d="m518 255c1.376 4.868 5.874 6.336 9 2-3.051-0.953-5.799-1.796-9-2z" fill="#1d1d1d"/>
 <g fill="#505050">
  <path d="m275 256c1.506 0.68301 2.315 0.82599 4 1-1.506-0.68301-2.315-0.82599-4-1z"/>
  <path d="m580.67 256.33c-0.44501 0.44501 0.61102 0.38898 0.66602 0.33398 0.44501-0.44501-0.61102-0.38898-0.66602-0.33398z"/>
 </g>
 <path d="m674 256c0.83698 14.367-2.887 29.203-3 44 2.126-0.23099 3.879-0.246 6 0 0.164-5.053 3.222-8.249 4-13h-3c0.30902-10.699 3.632-21.717-4-31z" fill="#707070"/>
 <path d="m283 268c-1.91-3.322-13.58-6.587-8-10-3.134-1.028-5.753 1.403-3.087 4.42 2.359 2.67 7.846 4.193 11.087 5.58z" fill="#2c2c2c"/>
 <path d="m582 257c1.45 1.608 2.051 2.064 4 3-1.45-1.608-2.051-2.064-4-3z" fill="#646464"/>
 <path d="m272 258c0.827 3.795 2.171 4.696 6 5-1.971-1.738-3.799-3.597-6-5z" fill="#595959"/>
 <path d="m417 258v7c1.059-2.534 1.059-4.466 0-7z" fill="#1d1d1d"/>
 <path d="m302 264c2.471-1.281 3.256-2.32 4-5-2.964 0.96799-3.503 1.934-4 5z" fill="#919191"/>
 <path d="m682 259v2h2v-2h-2z" fill="#7d7d7d"/>
 <path d="m584.67 260.33c-0.44501 0.44501 0.61102 0.38898 0.66602 0.33398 0.44501-0.44501-0.61102-0.38898-0.66602-0.33398z" fill="#424242"/>
 <path d="m586.33 261.67c-0.054993 0.054993-0.11102 1.111 0.33398 0.66602 0.054993-0.054993 0.11102-1.111-0.33398-0.66602z" fill="#2c2c2c"/>
 <path d="m272 264c4.107 6.599 15.132 9.925 22 13-1.296-2.716-3.08-4.685-5-7-5.472 1.617-10.859-5.592-17-6z" fill="#141414"/>
 <path d="m280 265c3.797 3.041 8.249 3.624 13 4-3.753-2.266-8.656-3.47-13-4z" fill="#595959"/>
 <path d="m417 265c-0.68399 1.58-0.80499 1.777-2 3 2.577 0.97601 2.952-0.86099 2-3z" fill="#373737"/>
 <path d="m285 266c8.62 4.186 13.432 12.451 24 13v-2c-10.447-1.359-14.003-10.786-24-11z" fill="#646464"/>
 <path d="m283 268c2.052 0.87399 3.747 0.953 6 1-2.052-0.87399-3.747-0.953-6-1z" fill="#373737"/>
 <path d="m414 268c-2.158 2.357-3.483 3.794-4 7 1.866-2.118 4.719-4.105 4-7z" fill="#505050"/>
 <path d="m283 269c1.849 1.739 3.017 2.861 5 1 1.616 1.64 3.042 2.794 5 4-1.556-4.926-5.336-4.958-10-5z" fill="#2c2c2c"/>
 <path d="m290 269c6.712 9.137 13.344 12 25 12-7.026-3.154-19.467-2.377-21-12h-4z" fill="#424242"/>
 <path d="m196 270c0.301 4.033 1.872 6.618 4 10 1.273-3.632-0.954-7.896-4-10z" fill="#595959"/>
 <path d="m672 274h6v-3c-3.007 0.22101-4.365 0.45499-6 3z" fill="#878787"/>
 <path d="m411 272v3c0.69601-1.554 0.69601-1.446 0-3z" fill="#2c2c2c"/>
 <path d="m199 273v3c0.696-1.554 0.696-1.446 0-3z" fill="#373737"/>
 <path d="m201 277c0.651 2.434 1.16 3.283 3 5-0.801-2.104-1.497-3.337-3-5z" fill="#424242"/>
 <path d="m294 277c3.423 3.118 7.847 3.934 11.575 6.531 4.218 2.938 7.754 8.3 12.711 9.96 4.199 1.405 10.132 2.229 11.714-2.491-4.006 1.798-7.778 0.34399-12 0-0.948-3.517-2.727-6.276-3-10-7.655-0.001007-13.59-3.656-21-4m-92 1l2 5c0.77901-1.769 0.912-3.036 1-5h-3z" fill="#1d1d1d"/>
 <path d="m201 280c1.543 4.518 3.912 8.707 6 13 1.879-5.014-2.233-9.976-6-13z" fill="#505050"/>
 <path d="m342 281v6l-5-1c3.08 2.292 6.202 2.826 10 3-2.508-2.533-3.518-4.857-5-8z" fill="#707070"/>
 <path d="m315 282c0.168 2.403 0.19699 3.46 2 5-0.551-1.825-1.076-3.352-2-5z" fill="#424242"/>
 <path d="m316 282v4c0.70999-1.76 0.70999-2.24 0-4z" fill="#595959"/>
 <path d="m415 282l1 6c0.88901-2.508 0.495-3.815-1-6z" fill="#373737"/>
 <path d="m205 283c0.651 2.434 1.16 3.283 3 5-0.801-2.104-1.497-3.337-3-5z" fill="#2c2c2c"/>
 <path d="m322 290c4.592 1.593 9.909-2.877 15-3-5.88-2.462-9.618 1.501-15 3z" fill="#595959"/>
 <path d="m322 291c2.283 1.222 4.428 1.652 7 2 2.331-3.063 4.177-4.411 8-5-5.628-2.339-9.638 1.945-15 3z" fill="#2c2c2c"/>
 <path d="m337 287c1.789 1.422 2.706 1.697 5 2-1.693-1.062-3.04-1.52-5-2z" fill="#424242"/>
 <path d="m208 288l1 4c0.393-1.924 0.146-2.36-1-4z" fill="#2c2c2c"/>
 <path d="m318 288c0.578 2.697 1.261 2.789 4 3-1.45-1.608-2.051-2.064-4-3z" fill="#373737"/>
 <path d="m336 288v4c2.743-0.43799 4.325-0.77899 6-3l-6-1z" fill="#1d1d1d"/>
 <path d="m342 289c1.769 0.77899 3.036 0.91199 5 1-1.769-0.77899-3.036-0.91199-5-1z" fill="#505050"/>
 <path d="m342 290c2.283 1.222 4.428 1.652 7 2-2.314-1.591-4.19-1.858-7-2z" fill="#373737"/>
 <path d="m347 290c3.163 1.327 6.586 1 10 1-3.163-1.327-6.586-1-10-1z" fill="#707070"/>
 <path d="m421 290c-0.72601 2.179-0.439 1.78-2 1l3 10c0.676-2.164 0.38699-3.732 0-6l1 2c1.065-2.587 0.78101-4.321 0-7h-2z" fill="#141414"/>
 <path d="m208 291l4 10c1.262-4.169-0.817-7.375-4-10z" fill="#424242"/>
 <path d="m349 291c4.36 1.83 10.244 1.399 15 2-4.275-2.92-9.992-2-15-2z" fill="#646464"/>
 <path d="m346 292c3.343 4.372 8.855 0.909 13 4 3.031-0.33899 5.954-0.10501 9 0-6.08-3.666-15.047-3.451-22-4z" fill="#1d1d1d"/>
 <path d="m350 292c4.065 1.706 9.566 1.65 14 2-4.24-2.54-9.195-2-14-2z" fill="#373737"/>
 <path d="m208 293c0.40601 2.092 0.217 2.02 2 3-0.68401-1.58-0.80499-1.777-2-3z" fill="#595959"/>
 <path d="m364 293c1.543 1.267 2.048 1.489 4 2-1.458-1.081-2.248-1.436-4-2z" fill="#505050"/>
 <path d="m677 293c0 11.425 1.936 34.845-5 44 0.94501 5.749-0.68701 11.178 0 17 5.589-13.196 4.78-30.07 5.054-44 0.11096-5.646 2.219-11.583-0.054016-17z" fill="#595959"/>
 <path d="m346 294c4.134 4.222 17.025 6.149 23 7 1.175 4.788 3.521 8.793 8 11l-1 6c3.461-0.73801 4.229-4.682 7-7-0.29901-2.392-0.32001-3.044 1-5-6.756-5.85-15.632-12.03-25-10-2.813-3.215-8.928-1.66-13-2z" fill="#141414"/>
 <path d="m378 294l-1 5c-1.801-0.56201-3.122-0.824-5-1 2.179 1.727 4.302 2.273 7 3-0.019012-2.543-0.015015-4.668-1-7z" fill="#1d1d1d"/>
 <path d="m379 294c0.029999 10.37 4.262 11.994 14 12-8.017-3.49-10.38-3.706-14-12z" fill="#373737"/>
 <path d="m420 294v4c0.70999-1.76 0.70999-2.241 0-4z" fill="#2c2c2c"/>
 <path d="m368.67 295.33c-0.44501 0.44501 0.61102 0.38898 0.66602 0.33398 0.44501-0.44501-0.61102-0.38898-0.66602-0.33398z" fill="#424242"/>
 <path d="m208 296l3 8c1.077-2.756 0.532-5.107 0-8h-3z" fill="#646464"/>
 <path d="m677 305c-0.77301-9.916-10.095-0.785 0 0z" fill="#7d7d7d"/>
 <path d="m670 300c-0.52301 4.29-2.146 7.702-1 12 1.623-3.615 2.52-8.274 1-12z" fill="#646464"/>
 <path d="m212 301c0.815 4.48 3.596 7.753 5 12 1.742-4.653-1.863-8.748-5-12z" fill="#595959"/>
 <path d="m213 301c0.68401 1.58 0.80499 1.777 2 3-0.68401-1.58-0.80499-1.777-2-3z" fill="#2c2c2c"/>
 <path d="m672 301v3h4v-3h-4z" fill="#919191"/>
 <path d="m423 302c-2.905 2.984-5.868 4.459-10 5v2c3.768-0.27301 11.144-2.104 10-7z" fill="#373737"/>
 <path d="m215 304c0.936 1.949 1.392 2.55 3 4v-4h-3z" fill="#2c2c2c"/>
 <path d="m671 304l-1 4 5 1c-1.094 2.239-1.592 3.4-4 4-5.9 16.519-4.986 39.489-5 57 3.125-2.023 6.369-9.231 7-13-8.334-4.51 0.28998-12.919-1-20 6.536-5.711 3.999-23.895 4-32l-5-1z" fill="#707070"/>
 <path d="m394 307c4.871 3.633 13.247 0.45401 19 0-5.796-2.432-12.875-0.050995-19 0m24 1l-4 1 1 3c2.219-1.008 3.639-1.495 3-4z" fill="#1d1d1d"/>
 <path d="m670 308c0.22498 2.996 0.552 4.249 3 6 0.89002-1.745 1.453-3.125 2-5-1.801-0.56201-3.122-0.824-5-1z" fill="#7d7d7d"/>
 <path d="m218 310c0.651 2.434 1.16 3.283 3 5-0.617-2.303-1.257-3.372-3-5z" fill="#373737"/>
 <path d="m220 315c1.013 2.485 1.726 3.598 4 5-1.104-2.357-1.956-3.376-4-5z" fill="#595959"/>
 <path d="m224 320l3 6c0.41-2.888-0.847-4.115-3-6z" fill="#424242"/>
 <path d="m224 322c1.16 4.668 4.35 8.078 7 12 0.918-4.484-3.746-9.24-7-12z" fill="#707070"/>
 <path d="m670 325c-0.71002 3.058-0.66901 4.268 2 6v-6h-2z" fill="#878787"/>
 <path d="m228 326c0.936 1.949 1.392 2.55 3 4-0.936-1.949-1.392-2.55-3-4z" fill="#505050"/>
 <path d="m231 328c1.354 4.846 5.097 8.918 8 13 0.668-4.868-4.402-10.073-8-13z" fill="#2c2c2c"/>
 <path d="m232 332c0.68401 2.209 1.08 2.703 3 4-0.776-2.132-1.13-2.771-3-4z" fill="#595959"/>
 <path d="m235 336c0.936 1.949 1.392 2.55 3 4-0.936-1.949-1.392-2.55-3-4z" fill="#646464"/>
 <path d="m641 339c-0.32398 2.539-1.082 4.618-2 7 2.444 1.424 1.85 2.411 1 5h4c-1.009 7.986 0.18701 13.468 3 21 8.352-3.36-2.961-26.83-6-33z" fill="#141414"/>
 <path d="m687 339c1.547 4.838 2.24 9.504 7 12 0.56201-1.801 0.82398-3.122 1-5-4.036-1.273-4.636-4.894-8-7z" fill="#2c2c2c"/>
 <path d="m238 340c0.776 2.132 1.13 2.771 3 4-0.936-1.949-1.392-2.55-3-4m428 1c-0.54498 1.635-0.36499 1.455-2 2 3.316 13.927-0.60199 28.971-1.015 43-0.10199 3.463-3.392 9.569-1.776 12.638 2.284 4.338 5.373-1.482 5.722-3.653 1.359-8.465 1.702-17.431 2.069-25.985l-3 1c0.028992-8.555 4.577-21.348 0-29z" fill="#595959"/>
 <path d="m241.33 342.67c-0.054993 0.054993-0.11099 1.111 0.33402 0.66602 0.054993-0.054993 0.11099-1.111-0.33402-0.66602z" fill="#373737"/>
 <path d="m242 342c0.651 2.434 1.16 3.283 3 5-0.801-2.104-1.497-3.337-3-5z" fill="#1d1d1d"/>
 <path d="m671 342c-0.63898 5.052-1 9.899-1 15h2c-0.039978-5.25-0.13702-9.839 1-15h-2m-430 2c0.936 1.949 1.392 2.55 3 4-0.936-1.949-1.392-2.55-3-4z" fill="#646464"/>
 <path d="m44 346c-2.1398 7.291-3.3972 16.324-3.9105 24-0.2739 4.097 1.175 8.492-1.0895 12l1 5 5-1c-7.0889 7.507-8.887 20.85-9 31-2.7941-5.236-1.9459-11.364-4-17-4.3801 5.47-2.4564 12.517-4 19-0.8996-3.041-0.9919-5.831-1-9h-5c2.5988-5.4-4.2185-16.997-10-18 0.9341-1.723 1.5354-3.106 2-5-3.3367 1.948-3.7942 4.239-4 8h-3c-0.04137-5.065-0.35782-9.935 0-15h-2v4l-3-3c-0.9061 3.062 0.29585 5.914 1 9-4.2209 0.90399-3 5.346-3 9v25l66-1c-3.1333-4.485-4.326-10.581-4-16-1.9817 0.465-2.4056 0.703-4 2-0.0956-3.277 1.2546-5.87 2-9-2.8063-1.765-3.2964-3.799-4-7-5.0338-1.05-7.3378-4.569-4-9l-2-6 4 2 2-10c-4.0937 1.393-5.4468 5.26-10 6 4.0988-4.796 0.5353-8.414 1.159-13.961 0.4174-3.713 2.8448-7.377 3.841-11.039-3.062-1.087-4.7511-2.698-7-5z" fill="#424242"/>
 <path d="m244 347c0.68401 1.58 0.80499 1.777 2 3-0.68401-1.58-0.80499-1.777-2-3z" fill="#505050"/>
 <path d="m650 347v3h3v-3h-3z" fill="#646464"/>
 <path d="m246 350v2h2v-2h-2z" fill="#505050"/>
 <path d="m248 350c3.717 8.789 14.465 26.064 24 29-3.496-7.846-10.479-12.348-15.316-19.129-2.974-4.168-3.212-8.363-8.684-9.871z" fill="#141414"/>
 <path d="m668 350v4h2v-4h-2z" fill="#7d7d7d"/>
 <path d="m248 352v3h2v-3h-2z" fill="#595959"/>
 <path d="m651 352c-2.461 7.077-9.77e-4 14.562 0 22 2.219-5.287 2.219-16.713 0-22z" fill="#424242"/>
 <path d="m251 356c0.936 1.949 1.392 2.55 3 4-0.936-1.949-1.392-2.55-3-4m3.333 4.667c-0.054993 0.054993-0.11099 1.111 0.33402 0.66602 0.054993-0.054993 0.11099-1.111-0.33402-0.66602z" fill="#595959"/>
 <path d="m666 403h2v-11c1.186 1.186 1.584 1.528 3 2 0.11298-10.861-2.589-22.17 2-33-5 2.01-3.735 6.336-4.286 11-1.197 10.141-2.276 20.793-2.714 31z" fill="#424242"/>
 <path d="m255 362c0.936 1.949 1.392 2.55 3 4-0.936-1.949-1.392-2.55-3-4z" fill="#595959"/>
 <path d="m258 366c0.211 2.739 0.30301 3.422 3 4-0.84299-1.769-1.541-2.688-3-4z" fill="#646464"/>
 <path d="m259.33 366.67c-0.054993 0.054993-0.11102 1.111 0.33398 0.66602 0.054993-0.054993 0.11102-1.111-0.33398-0.66602z" fill="#424242"/>
 <path d="m263.33 372.67c-0.054993 0.054993-0.11102 1.111 0.33398 0.66602 0.054993-0.054993 0.11102-1.111-0.33398-0.66602z" fill="#595959"/>
 <path d="m265.33 374.67c-0.054993 0.054993-0.11102 1.111 0.33398 0.66602 0.054993-0.054993 0.11102-1.111-0.33398-0.66602z" fill="#505050"/>
 <path d="m266.33 374.67c-0.054993 0.054993-0.11102 1.111 0.33398 0.66602 0.054993-0.054993 0.11102-1.111-0.33398-0.66602z" fill="#373737"/>
 <path d="m652 374v5c0.83002-2.03 0.83002-2.97 0-5z" fill="#2c2c2c"/>
 <path d="m267 376c0.651 2.434 1.16 3.283 3 5-0.801-2.104-1.497-3.337-3-5z" fill="#424242"/>
 <path d="m270 379c0.70999 2.944 1.427 4.392 4 6-0.93701-2.664-1.694-4.375-4-6z" fill="#2c2c2c"/>
 <path d="m653 379c0.026001 3.122 0.276 5.96 1 9 1.104-3.08 0.40399-6.078-1-9z" fill="#1d1d1d"/>
 <path d="m654 380v4c0.71002-1.759 0.71002-2.241 0-4z" fill="#373737"/>
 <path d="m269 381c0.776 2.132 1.13 2.771 3 4-0.936-1.949-1.392-2.55-3-4z" fill="#646464"/>
 <path d="m273 385c0.68399 1.58 0.80499 1.777 2 3-0.68399-1.58-0.80499-1.777-2-3z" fill="#505050"/>
 <path d="m655 385c0.059998 7.304 2.975 13.749 3 21 2.644-6.301-0.112-15.135-3-21z" fill="#373737"/>
 <path d="m275.33 388.67c-0.054993 0.054993-0.11102 1.111 0.33398 0.66602 0.054993-0.054993 0.11102-1.111-0.33398-0.66602z" fill="#595959"/>
 <path d="m276 389c2.482 4.163 5.106 8.08 9 11-1.806-4.763-4.358-8.731-9-11z" fill="#2c2c2c"/>
 <path d="m277.33 391.67c-0.054993 0.054993-0.11102 1.111 0.33398 0.66602 0.054993-0.054993 0.11102-1.111-0.33398-0.66602z" fill="#646464"/>
 <path d="m278.67 393.33c-0.44501 0.44501 0.61102 0.38898 0.66602 0.33398 0.44501-0.44501-0.61102-0.38898-0.66602-0.33398z" fill="#424242"/>
 <path d="m279 394c0.40601 2.092 0.21701 2.02 2 3-0.69101-1.388-0.98498-1.861-2-3m2 3c1.299 2.763 2.553 4.164 5 6-1.299-2.763-2.553-4.164-5-6z" fill="#646464"/>
 <path d="m286 401c0.40601 2.092 0.21701 2.02 2 3-0.69101-1.388-0.98498-1.861-2-3z" fill="#505050"/>
 <path d="m288.33 404.67c-0.054993 0.054993-0.11102 1.111 0.33398 0.66602 0.054993-0.054993 0.11102-1.111-0.33398-0.66602z" fill="#595959"/>
 <path d="m289 404c1.057 3.764 2.855 5.713 6 8-1.479-3.225-3.412-5.573-6-8z" fill="#373737"/>
 <path d="m661 404v5h3v7c2.208-4.192 0.89002-7.607 0-12h-3z" fill="#646464"/>
 <path d="m658 406v19c2.02-4.813 2.02-14.187 0-19z" fill="#1d1d1d"/>
 <path d="m659 406v19c5.907-0.45999 5.981-3.738 6-9-2.542 2.417-2.896 4.55-3 8h-2c0-5.632 1.191-12.778-1-18z" fill="#424242"/>
 <path d="m290 408c1.299 2.763 2.553 4.164 5 6-1.299-2.763-2.553-4.164-5-6m371 1v7h3v-7h-3z" fill="#707070"/>
 <path d="m295.33 412.67c-0.054993 0.054993-0.11102 1.111 0.33398 0.66602 0.054993-0.054993 0.11102-1.111-0.33398-0.66602z" fill="#505050"/>
 <path d="m296 414c1.809 2.277 3.388 3.73 6 5-1.722-2.667-3.02-3.901-6-5z" fill="#1d1d1d"/>
 <path d="m298.33 416.67c-0.054993 0.054993-0.11102 1.111 0.33398 0.66602 0.054993-0.054993 0.11102-1.111-0.33398-0.66602z" fill="#595959"/>
 <path d="m299 418l1 6c0.99399-2.575 0.65399-3.823-1-6z" fill="#646464"/>
 <path d="m301 419v4c0.70999-1.759 0.70999-2.241 0-4z" fill="#424242"/>
 <path d="m277 423c2.613 1.098 5.165 0.99301 8 1-2.613-1.098-5.164-0.99301-8-1z" fill="#878787"/>
 <path d="m301 423l-1 2h2c0-1.853 0.29999-1.35-1-2z" fill="#2c2c2c"/>
 <path d="m0 424c5.951 2.497 14.58 1 21 1h47c-5.951-2.497-14.58-1-21-1h-47z" fill="#373737"/>
</svg>
