<?xml version="1.0" encoding="UTF-8"?>
<svg viewBox="0 0 1024 768" xmlns="http://www.w3.org/2000/svg">
 <g fill-rule="evenodd">
  <path d="m592 381q2-1 3 2t-3 3q-3 0-3-2t3-3z" fill="#bf9994" stroke="#bf9994"/>
  <path d="m111 573l4-1v1h1v1h2l1 1h1v3l-2 1q-3 1-4 1h-2v-1h-1v-1h1l-2-1h-2v-1t-1 0v-1q1-1 4-2z" fill="#c38784" stroke="#c38784"/>
  <path d="m615 240q0-1 4-1t4 1q0 2-4 2-3 0-4-2z" fill="#cbb5b3" stroke="#cbb5b3"/>
  <path d="m277 466v-1h1q1 0 1 1t2 1h2l-1 1q0 1 0 2h1q1 1 1 2t-1 3l-1 2v1h-2q-2 0-2 0h-1q-1 0-2-2-2-2-3-2h-3v-1h1v-1l1-1q1-1 3-3 3-1 3-2z" fill="#a32d2c" stroke="#a32d2c"/>
  <path d="m394 417h2t-1 1 1 1l1 1h1v1l2 1q2 2 2 1t2-1h1v1l-1 1v2q0 1-2 2-2 2-2 2v1h1v1h1v2q0 3 2 3 1 0 0-3-1-4 0-4 2 0 3-1t0-3q-1-3 1-2 2 0 5 1 3 0 3-1t-3-2l-3-2h4q5 0 7 2 3 1 3 0t4-1q4 1 5 1 1 1 2 2l-1 1q0 1-1 1t-1-1-2-1q-2 1-2 2 0 2-1 2t1 1 3 2 1 2v1l1 2q0 2 1 2 2 0 2 1h1l4 1q5 1 5 2t1 1v1h-1v3l1 1 1 2v1h1q0-1 1-1h1v2l-1 1v1h1l1 1q1 0 1 1 1 1 1 1 0 1 0 1h1l1 2q2 2 2 2v1q0 1 0 1h1q1 0 1 0v2h-1q-1-1-2 1v2l-1 3q-2 4-1 6v2l-1 1q0 1-1 2l-1 1v1l-1 1h-3q-2 0-3 0t-3-3q-1-3-4-3-2 0-3 2t-4 3l-3 1h-2v-1h-1v-1h-1v-1h-1v-1h-1v-2q0-2 1-3t2-4l1-3h-3v1l-1 1h-2v-2h-1v-1h1v-3h-2v1h-1v1h-1v3q-1 3-1 4h-1v1h-1v1h-1q-1 1-3 0-2 0-3 2-1 3-5 3l-4 1v-1q-1 0-1-3-1-3-2-3h-2q0-1-1-2 0-2-1-2t-1-4v-4q1 0 2 1t2 0q1-2 3-7 1-5 0-5-2-1-2-4-1-3-2-3t-1-2q-1-1-2-2l-2-2q-1-1-1-1v-1q0-1-1-1h-1t-1-2l-1-2v-5h1q1 0 1-1l1 1q1 0 1 2v1h1v-1h1v-1q0-1-1-5 0-4 3-5 2-1 4-2zm10 38q1-2 2-2t2 5q2 4-1 4-2 0-2 1t1 1q0 1-1 2-1 2-3-2-2-3-1-5 1-3 3-4z" fill="#b21111" stroke="#b21111"/>
  <path d="m430 262v-1l2 1q2 2 4 2h1t1 1v1l-2 4q-2 3 0 3h1l1 1q2 0 2 2 0 1 1 1h1q0 1-2 0l-2-1h-5v1h-1v1l-1 2v2q-1 0-1-2v-1h-1v-1h-2v3h-1l-1-1h-1l1-1h1v-1q0-2 2-2t2-4v-4h-1v-1h-1v-2l1-1v-2q1 0 1 0z" fill="#bd4343" stroke="#bd4343"/>
  <path d="m419 166h2v1h1v2h2l1 1h1v4h-1q-1 0-2 1h-1v-1t-1 0q-1-1-3-4l-2-2v-1q1-1 3-1z" fill="#7d4142" stroke="#7d4142"/>
  <path d="m114 442l2-1q0 1 0 1h1l-1 2q0 2-1 2l-1 1h-2v-1t-1 0v-2q1-2 3-2z" fill="#903e3f" stroke="#903e3f"/>
  <path d="m140 108l-1-2 3 1q3 1 6 0 2-1 4-1h1l2 3q2 3 3 3h1v1q0 1-2 2l-2 1h-1t0 1h-1q-1 1-1 1-1 0-5 0h-9v-1h1v-1h1t0-1 1-3-1-4z" fill="#c54545" stroke="#c54545"/>
  <path d="m561 380h1l2 2q3 2 4 2v1q0 1-6 1l-5-1v-1q-1 0-1 0v-1l2-1q2-2 3-2z" fill="#a53e3b" stroke="#a53e3b"/>
  <path d="m99 244l-1-2h1q1 1 2 6 1 6 0 7 0 1-1 1h-1v-1q1-1 1-3 0-1-3-1-3-1-4-2l-1-1v-1q0-1 4-1t3-2z" fill="#b35756" stroke="#b35756"/>
  <path d="m723 191q2-1 3 1 0 1 2 1 1 1 2 2 0 1-2 2t-2-1-2-2-2-1q0-2 1-2z" fill="#7b5a5b" stroke="#7b5a5b"/>
  <path d="m209 365l-1 2q0 2-1 5-1 4-3 7t-2 3v1h-1v1h-1v2q-1 0-4-1-4-1-4-2v-2q0-1 0-3l-1-1q1 0 1-1t5-3q4-3 4-4v-2h3q3-1 4-1 0-1 1-1z" fill="#c23535" stroke="#c23535"/>
  <path d="m389 583l-1-3h1q1 0 2 0h3t1 1v1h2q1 0 5 2 3 2 4 2h1v1q0 1 1 1v3l-1 2q-1 2-1 3v1h-1l-1 1t-2 0h-2v2h-2q-1-1-1 2l1 3v3h-2v-3l-1-3q-1-2-3-9t-3-10z" fill="#b11e1f" stroke="#b11e1f"/>
  <path d="m451 522v2q-1 0-1 1-1 1-4 1t-4-2v-3l2-2q2-1 4 0t3 3z" fill="#993a3c" stroke="#993a3c"/>
  <path d="m23 268v-2h7v3l-1 1q-1 0-2 1h-4v-1q-1 0 0-2z" fill="#9d575b" stroke="#9d575b"/>
  <path d="m332 524v6q0 3-3 3-3-1-7-1-3 0-3-2 0-1-1-1l-2-1v-2h3v1h1v1l1-1q1 0 4-3 3-2 5-2 2 1 2 2z" fill="#a13838" stroke="#a13838"/>
  <path d="m319 606h4q5 1 5 2t0 1q0 1-2 1h-2q0-1-1 0h-3q-2 0-2-2v-2t1 0z" fill="#ab3b3c" stroke="#ab3b3c"/>
  <path d="m69 137l4-2 2 1q2 2 2 6 0 3-1 3-2 1-2 1h-1l-1 1-1 1h-1t-2-4l-1-3h-2v-1q1-1 4-3z" fill="#b72625" stroke="#b72625"/>
  <path d="m458 464v-1h1q1 0 1 1v1q-1 1 0 1h1q1 1 1 2v2q0 2 0 4v1t-1-1v-2h-3v1l-1-2v-4q1-2 1-3z" fill="#ce8888" stroke="#ce8888"/>
  <path d="m307 168h7l2 4q2 3 2 4 0 2 3 3t4 2v1h2l1 1 1 1h1l3 1q3 1 5 1 1 2 0 2-2 0-2 1t1 1h3l2 1 1 1h-1v1h-1v1h1v1h-2q-3-1-4-1t-2 5q0 5-1 5t-2 2-1 2q-1 0-1 1 0 2-1 2t-2 1v2h-4v-1h-1v-1h-1v1h-1v-2h-1l-2-1h-1l-1-1v-2h1q0-1 1-1t1-2q1-2 2-8l2-6h-1q-1 0-3-2-2 0-7-2l-5-1h-1q0-1-2-2t-2-2-2-1-2 1l1 1q-1 1-1 2h-2v-2q0-1 0-2 0 0-1 0t-2-2q-1-1-2-2h-1v-2h-3l-1-1v-1l1-1v-1h4l3 1q4 0 5-2 1-1 3-1t7 0zm17 45q0-1 0-1 0 1 0 1z" fill="#9f1415" stroke="#9f1415"/>
  <path d="m382 443h1q0 1 1 1t1 0h1q1 0 1 1t-1 1-2 2q0 2-1 2t-1 1l-1 2q-1 2-3 2h-3v-1q1-2 1-7v-5h1q1 0 3 0t2 1z" fill="#9b322f" stroke="#9b322f"/>
  <path d="m360 589v-1l4 1q3 1 2 4 0 2-1 2t-1 1v2q0 2-3 0-2-2-2-4-1-2-2-2l-1 1v-1q0-1 2-1 3-1 2-2z" fill="#bc8382" stroke="#bc8382"/>
  <path d="m194 67l-1-4h1l2 5q2 4 2 4 0 1-1 1h-1q-1 1-2 1h-1v-1q-1 0-1-1t1-1 1-4z" fill="#a37678" stroke="#a37678"/>
  <path d="m339 650q1-3 1-2t2 0q3-1 3 0 0 2 1 2 0 1-2 1t-3 1q0 1-1 1-2 0-1-3z" fill="#e0acaa" stroke="#e0acaa"/>
  <path d="m362 143l1 2q1 2 1 4v2q-1-1-1-1-1 0-2 3t-3 1q-2 0-3-4l-1-3v-1h1v-1h2q2-1 3 0h1v-1q1-1 1-1z" fill="#913131" stroke="#913131"/>
  <path d="m110 314v1l-1 3q-1 2-2 2t-1 1v1l2 2q2 2 3 3v1h-1q-1 0-2 0t-4-4q-2-4-3-4h-1v-1l4-1q3 0 3-1v-1q1 0 1 0t1-1 1-1z" fill="#d25f61" stroke="#d25f61"/>
  <path d="m104 493v-1h2l2 2q1 2 2 2h2v1h1l1 1q0 1 0 2v3h-1v1h-4l-1-1h-1v-1l-1-1v-1h-3v-1q1-1 1-2t0-2v-2z" fill="#a04345" stroke="#a04345"/>
  <path d="m218 633v1q0 1 0 2v2q0 2 0 4 1 2 0 2t-1 1h-2v-1q-1-1-1-1v-1q0-1-2-6l-1-4h1q1 0 4 0 2 0 2 1z" fill="#c93b3c" stroke="#c93b3c"/>
  <path d="m320 589v-2h4t1 2v2q-1 0-1 1h-1q-1 0-2-1-1 0-1-2z" fill="#974343" stroke="#974343"/>
  <path d="m104 290v1l-2 3q-2 2-4 2-2 1 0 2 1 2 0 2h-2q-1 0-2-1v-1t0-2 2-4l2-1 3-1q3 0 3 0z" fill="#8a4545" stroke="#8a4545"/>
  <path d="m218 281l-1-1h2q1 0 1 1v2q-1 1 0 1h1v2q-1 1-1 1v-1q0-1-3 2l-2 2h-1q-2 0-2-2 0-1 1-1h1v-2q0-2 2-3 2 0 2-1z" fill="#8e4641" stroke="#8e4641"/>
  <path d="m164 261h3l1 2q0 2 0 3 0 0-1 0v1q-1 0-1 1h-2t-2-3l-1-2 1-1q0-1 2-1z" fill="#8d2d2b" stroke="#8d2d2b"/>
  <path d="m570 298h1v2q-1 1-2 2-1 0-2-2l-1-3h2q2 1 2 1z" fill="#84403f" stroke="#84403f"/>
  <path d="m482 460v-1h9v6h-1q-1-1-4-1-2 0-3-2-1-1-1-2z" fill="#ed6a68" stroke="#ed6a68"/>
  <path d="m317 573h2v1q0 1 2 2 1 0 1 1v3h-3q-3 0-4-1-1 0-1-1v-2h-1v-1l1-1q1-2 3-1z" fill="#953636" stroke="#953636"/>
  <path d="m405 78v-1l2 1q1 1 1 3-1 3-2 2-2 0-2 0v-1t0-2v-2t1 0z" fill="#844f50" stroke="#844f50"/>
  <path d="m119 459q1-3 3-2 2 0 2 2 0 3-3 3t-2-3z" fill="#843a39" stroke="#843a39"/>
  <path d="m253 588l1-1 1 5q1 4 2 6t-1 2h-1v2h2l-3 1q-2 1-2 2 0 0-1-1 0-2-3-2-2 0-2-2l-1-1h1q0-1 0-1 0-1 1-2l1-1v-1t1 0v-1q1 0 2-1 1 0 1-1v-1l1-2z" fill="#ab3233" stroke="#ab3233"/>
  <path d="m134 572l1 1 3 3q4 2 3 6-1 3-2 6-1 2-3 2h-1q-1-1-3-5t-3-9q0-4 1-4 2 0 4 0z" fill="#a62927" stroke="#a62927"/>
  <path d="m198 577v1q1 2 2 1h1v1q0 1-1 1t-1 2q0 1-1 2h-3l-3-1-1-2q0-2 3-2 2 0 2-1v-1q1 0 2-1z" fill="#ca6864" stroke="#ca6864"/>
  <path d="m438 249t1 1q0 1-2 2l-2 1h-1q0-1 0 0l-1 1-2-2q-2-1-2-4-1-2 1-2t3 3q1 2 3 1 1 0 2-1z" fill="#cc8d8a" stroke="#cc8d8a"/>
  <path d="m216 583h1l2 2q3 2 3 3v1h-1q-1-1-1-1h-1v-1h-1v-1h-2l-2 1h-3q-2-1-2-1h-1q0-1-2-4l-1-3h2q3 0 3 1 0 2 2 2 3 0 4 1z" fill="#c77f7f" stroke="#c77f7f"/>
  <path d="m137 341v1l-3 4q-2 3-3 4v2h-1v-3q0-2 1-3 0-1-1-1h-2v-1l4-3q3-3 4-2 0 1 1 2z" fill="#e35f5a" stroke="#e35f5a"/>
  <path d="m117 338v-2h5l1 1h2l1 1 2 1q1 2 0 2t-1 1q1 2 1 2v1h-2q-2 1-2 1t-1 0v1h-1q-1-1-2-2l-2-1q0-1 0-2l-1-2v-2z" fill="#d24948" stroke="#d24948"/>
  <path d="m181 442l-1-3 1 1q1 2 3 2h2v2q0 2 0 2v1t-1 1q-1 0-1 0v1h-1v-3q-1-2-2-4z" fill="#d56b75" stroke="#d56b75"/>
  <path d="m592 404l6 1q5 1 6 3 0 1 1 3v2l1 11q0 11 2 18 2 6 1 10t-1 5q-1 1-2 2l-2 1-1 2-1 2v3l-1 1h-3v-1h-1v1h-4v-1h-1v-1h-2v-1h-1v-1h-1v-7q0-1 1-2v-1q-1-1-1-1v-1q0-1-2-9t-2-15l-1-6v-1q-1-1-1-7v-6t1 0v-1q1 0 1-1h1q1 0 3-1h3q1-1 1-1z" fill="#c81112" stroke="#c81112"/>
  <path d="m365 24h-1v-1l-2-3q0-3 2-4 2-2 3 0t1 4q-1 2-2 3 0 1-1 1z" fill="#824640" stroke="#824640"/>
  <path d="m78 583h-2v-3q0-2 2-3 3-1 6-1 2 0 4 2 1 2 3 2 1 0 1 2-1 2-6 2-6-2-8-1z" fill="#bb7974" stroke="#bb7974"/>
  <path d="m552 535q2-1 2 2 0 2-2 2-2 1-2-2 0-2 2-2z" fill="#9a5660" stroke="#9a5660"/>
  <path d="m546 314q-2 0-2-4t0-3q1 1 3 2 1 1 1 3t-2 2z" fill="#844f52" stroke="#844f52"/>
  <path d="m880 31q1-1 2 0 2 1 2 2 0 2-2 2-3 1-3-1t1-3z" fill="#815358" stroke="#815358"/>
  <path d="m47 222q0-2 2-2 3 1 2 3-1 3-3 2t-1-3z" fill="#93545a" stroke="#93545a"/>
  <path d="m594 266l5-4 2 4q3 4 3 6t1 8l1 6v4l1 6q1 5 0 11-1 7-3 8t-4 4q-1 3-1 3h-1t-2 1q-2 0-3-3l-1-3-1-3q-1-4-1-12-2-7-4-14t-2-12q0-4 2-5t8-5z" fill="#c01719" stroke="#c01719"/>
  <path d="m658 510q2 0 4 2 2 3 0 3-3-1-4-3t0-2z" fill="#cfaeab" stroke="#cfaeab"/>
  <path d="m176 442l3-3h1l1 3q1 2 2 4v3l-2 2q-2 1-2 2h-1q-2-1-3-1t-1-3l-1-2v-1q1 0 3-4z" fill="#b11b1b" stroke="#b11b1b"/>
  <path d="m194 467l1-2h1q0 1 1 1h5v2q0 1 0 4v5q0 1-2 1-1 0-2-3-2-2-3-3l-2-1h-2v-1q0-1 1-1 1-1 2-2z" fill="#c97d79" stroke="#c97d79"/>
  <path d="m588 91q2-1 3 1t-2 2-3-1q0-2 2-2z" fill="#76514f" stroke="#76514f"/>
  <path d="m264 517v-1l3 2q3 0 5 1h1v1q-1 0-1 0l2 1q1 1 1 1h-4v-1h-1v1h-2q0-1-1-1h-1q-2-1-2-1l-1-1v-1l1-1z" fill="#b98d8b" stroke="#b98d8b"/>
  <path d="m423 483h1v1h1v1h1v1h2t-1 1-1 3q-1 2-4 2h-2v-1t-1-1l-1-2v-2t1 0v-1l2-1q2 0 2-1z" fill="#a33b40" stroke="#a33b40"/>
  <path d="m90 486l-1-2h4l1 1 2 1h1q1 1 1 3 0 1-1 2h-3l-2-1h-1q-1-1-1-4z" fill="#9f4647" stroke="#9f4647"/>
  <path d="m414 544l2-1v6l1 3q1 2 0 4v2t-3 1h-2l-1-1-1-1v-2h-1v1h-1v-1q0-1-1-1t-1-1v-1h1q1 0 1-1v-2l1-1q1 0 1 0h2v-2q0-2 2-2z" fill="#aa2d2d" stroke="#aa2d2d"/>
  <path d="m287 287h-1q0 1 0 1h-1l-1-1q0-1 1-1t1-2 2-2q2 1 2 2 0 2-1 2-1 1-2 1z" fill="#d8867e" stroke="#d8867e"/>
  <path d="m138 400q1-4 3-3 3 1 2 4 0 3-3 3t-2-4z" fill="#8d4544" stroke="#8d4544"/>
  <path d="m452 285h2v4h2q3 1 6 1h2l-1 2q-1 3-2 3l-4 1q-3 2-3 6 2 3 2 5v2q0 1-2 0t-5 0l-3 1q0-1-1-3t-3-5l-2-2v-1q0-1 1-1h1t0-1h2q1-1 2-2 0-1 2-2t1-4l-1-3q1 0 4-1z" fill="#a32728" stroke="#a32728"/>
  <path d="m482 235h5v1q1 0 1 0v1h-1q-1-1-3-1-3 0-4 2v1q-1 1-4 1h-3l2-2q3-1 3-2t4-1z" fill="#d66f6b" stroke="#d66f6b"/>
  <path d="m472 232v1q0 1-2 1-1 2-4 2-3 2-4 1v-1l3-2q3-1 4-2 0-1 1 0 2 0 2 0z" fill="#933d3b" stroke="#933d3b"/>
  <path d="m361 99v-1l4 2q4 2 4 3l1 3q1 2 2 6 2 4 2 4v1q0 1-4 2l-3 1-1 1-2 1h-1q-1 0-1 1h-1q-1-1-3-2-3-1-5-4-3-3-4-4l-2-1h1v-3h1v-1h1q1 0 1-2 1-2 1-3v-1l2-1q2-1 4-1 3 0 3-1z" fill="#991010" stroke="#991010"/>
  <path d="m202 116h1q1 1 2 2v9h3v2h-1v1h1v1l1 1 1 2q2 2 2 5v3q-1 0-1 1v1q1 2 1 4v1q-1 1-1 1h-1q-2 0-5-1-3 0-3 3v3l-1 1v1h-1v1h-3v-1h-1v-1l-1-3v-4q1-1 1-3t-2-2q-2-1 0-2 1-1 1-2 0-2-1-2t-2-3l-2-3h1v-1h1v-1h2v-1h2q2 0 2-3v-4q0-1 1-1 1-1 1-2l1-2q1 0 1-1z" fill="#9d1c1c" stroke="#9d1c1c"/>
  <path d="m421 542v-1h2l-1 2q0 2 2 2h1v1h2t1 0v-1h1q1 0 1 1 0 2-1 2h-1v2q-1 2-2 3h-1q-1-1-1-1t-3-4l-2-5h1q1 0 1-1z" fill="#994644" stroke="#994644"/>
  <path d="m468 588h4v4q0 3 0 6 1 3 4 3t3 1 1 1 1 1q1 2 1 4v1t-1 1h-2q-2 0-2 2 0 3-2 3l-2-1h-3q-2 0-4-1t-2-3q0-3-1-6-1-4-2-7l-1-3v-1l1-1h1l2-1q2-1 3-2v-1h1z" fill="#b22221" stroke="#b22221"/>
  <path d="m502 646v5q0 2-2 2l-2-1h-4v-1h-1v-1h-1v-3l1-2q1-3 5-2t4 3z" fill="#a42c2c" stroke="#a42c2c"/>
  <path d="m297 668v-1h5l1 1q1 1 0 4-1 4-1 6-1 2-2 2t-1 1h-5q0-1-2-2t-2-3v-2h1t3-2l3-2q1 0 0-2z" fill="#cb3331" stroke="#cb3331"/>
  <path d="m380 519v2q-1 2-2 2-2 0-2 1t1 1l1 1h-3q-1 0-2-3l-2-3 3-1q4-1 4-1 1 0 2 1z" fill="#a23c36" stroke="#a23c36"/>
  <path d="m206 354v-3h1q1 0 1 3v3h-1v1h1v2h-2q-3 0-4 0 0 0 0-2l-1-2v-1h1q1 0 1 1t1 0q2 0 2-2z" fill="#de5353" stroke="#de5353"/>
  <path d="m154 440h1l1 2q2 2 5 3h3v8l1 1 1 1 2 1q2 1 3 4 1 4 2 6 1 1 2 1t1 1v1h-4v-1t-1 0q-1-1-1-2-1-2-4-3l-3-1v2q-1 1-4 2-3 2-3 4 0 1-1 1t-1-1-2 0q-3 0-3-1t-2-3q-3-2-5-2h-2v-1l-1-1-1-1v-1h-2v-3l1-1v-1h3q4 0 4-1 0-2 2-4l2-1q1-1 3-1 1-1 1-3-1-1-2-4l-1-3v-1q0-1 1-1 2 0 3 2t1 2z" fill="#b21919" stroke="#b21919"/>
  <path d="m305 692h1l2 1 1 1h2l1 3q2 3 1 3t-1 1-1 1 0 1q-1 0-4 1-4 0-5-1l-2-2v-1t-1 0v-1q1-1 1-3 0-1 3-2l2-2z" fill="#b02d2f" stroke="#b02d2f"/>
  <path d="m307 597h3q0-1 0-1l1 1q1 1 2 2l1 1v4q-1 0-2 1l-1 1h-2v-1h-1v-1h-1q-1 0-1-4 0-3 1-3z" fill="#9c4441" stroke="#9c4441"/>
  <path d="m349 556v-2h1v2h1l3-1q2-1 2-1t1 1v1t-1 2-4 2l-3-1q-1 0 0-3z" fill="#a13d41" stroke="#a13d41"/>
  <path d="m110 163v2h-1v1h-3q-4 0-5-4-1-3 0-4 1-2 3-1 3 1 4 2 0 1 1 1t1 3z" fill="#c17879" stroke="#c17879"/>
  <path d="m571 375h1v1q0 1 0 2 0 0-3 0h-4v-1h-1v-1t-1 0v-1q0-1 3-1 4 0 5 1z" fill="#a04847" stroke="#a04847"/>
  <path d="m496 237v-1l2 1q1 1 2 1h1l2 2q1 1 1 3t-1 3v1h-1q0 1-6 1l-6 1v3l1 1v1h-2v-4q0-4 4-4 4-1 5-4t0-3q-1-1-2-2z" fill="#c94a4a" stroke="#c94a4a"/>
  <path d="m124 470l-1 2v1h-1v1t-3 0q-2 0-3-1-2-1-1-3t5-2 4 2z" fill="#973239" stroke="#973239"/>
  <path d="m533 260h1v1h-2q-3 1-8 0h-5v-1q0-1 3-2 4-1 4-3 1-2 2-2t2 3q1 2 2 3 0 1 1 1z" fill="#d89090" stroke="#d89090"/>
  <path d="m571 188l1-3 2 3q1 4 6 5 4 1 4 2h1v1l2 1q1 1 1 2v1q-1 0-4 3l-3 2h-2q-2 1-2 1h-1v-1q0-1 1-3v-2h-1q-1 0-1 1-1 0-2 0h-1v-1t-1 0v-1h-1v-1q0-1 0-2v-3q0-1 1-5z" fill="#cb3e3d" stroke="#cb3e3d"/>
  <path d="m595 612l3-1h3l2 1q2 2 2 2h1v1h1v1h1v7h-2l-2 1h-4l-1-1q-1-1-3-4l-3-4v-1q1-1 1-1v-1h1z" fill="#ab2d2f" stroke="#ab2d2f"/>
  <path d="m718 570h4v5h-2q-2-1-2-1h-1v-3q1 0 1-1z" fill="#894f4d" stroke="#894f4d"/>
  <path d="m413 482h2l2 2q1 1 2 1v1q-1 0-1 0v1h-1q0-1-1-1-2 0-4-2t1-2z" fill="#985258" stroke="#985258"/>
  <path d="m464 499h1l1 1q1 0 0 1 0 1 0 3v1h-1q-1 0-1-1t-2-2q-1 0-1 1-1 1-4 2l-3 1q-1 0-1-1h-1v-4q0-4 3-5 2 0 5 2 2 2 2 2 1 0 2-1z" fill="#9e302e" stroke="#9e302e"/>
  <path d="m237 631h2v1l-1 1-1 1q-1 0-1 1-1 1-2 2-1 0-1 2 1 2 0 2v-1q-1 0-1-1-1-1-3 0l-2 1h-1t0-1q-1-1-4-1l-4-1v-2h-2v-2h4l2 1 8-2q7 0 7-1z" fill="#d73332" stroke="#d73332"/>
  <path d="m135 593l2 2q3 2 2 4 0 1-1 1h-2t-2-2l-1-3h1q0-1 0-1 1 0 1-1z" fill="#91524f" stroke="#91524f"/>
  <path d="m290 550h1t1 1q0 1 0 1h1t1 1q0 1-4 1l-5 1h-1q-2 0-2-1l-1-2 3-2q3-3 4-2 0 2 2 2z" fill="#a94040" stroke="#a94040"/>
  <path d="m459 302l2-3h1q1 0 1 1t5 2q5 0 6 0v2h-1v1h-1v1t-1 1-6 1h-5q0-1-1-1v-1q-1 0-1 0 0-1 1-4z" fill="#9f403f" stroke="#9f403f"/>
  <path d="m219 155v-1h1l1 1 1 1 1 1 1 1v1l-1 1q-1 2-1 2t-1 1l-1 1t-2-3l-2-2q0-1 1-2l1-2h1z" fill="#cc8b8c" stroke="#cc8b8c"/>
  <path d="m265 157h1q0 1 0 1l1 2 1 2 2 3q3 3 3 4h1v1h1v1h1v1h1q1 0 1-1t2-1h3q1 0 1 0h1v1l-1 1v1l1 1h-2q-2 0-5 1-2 1-2 2t-4 2l-3 1v1h-1v1h-4v-1h-1v-1l1-2 2 1h1l-1-2q0-2 2-2h3v-1q-1-1-3-6l-4-5q0-1-1-2l-1-1v-1q0-1 2-1 1 0 1-1z" fill="#8e2523" stroke="#8e2523"/>
  <path d="m80 211h1q1 0 0 2t-1 3v2h-6l-1-2v-1h1v-1l1-1v-1h5t0-1z" fill="#873f3f" stroke="#873f3f"/>
  <path d="m179 456l1-2h1q1 0 1 1l1 1v2t-2 0-3 0q0-1 1-2z" fill="#874442" stroke="#874442"/>
  <path d="m932 474q-2 1-3-2t1-4q2 0 3 0 1 1 1 4 0 2-2 2z" fill="#8b4a50" stroke="#8b4a50"/>
  <path d="m704 574h2q1 0 2 1l1 1q1 2 1 2v1q0 1-1 1v1h-1v1h-2l-1-1-1-1-1-2q0-3 1-4z" fill="#974b4c" stroke="#974b4c"/>
  <path d="m392 90h2v5q0 5 0 6v1h-2v1h-1v1h-4v-1h-1v-1l-1-1-1-1 1-2q1-3 1-4h1q1 0 2-2t3-2z" fill="#8a3031" stroke="#8a3031"/>
  <path d="m488 365h4q2 0 2 3 0 2 1 3t1 2 0 2v1q-1 0-3 2l-2 1h-2l-2-1h-1v-1l-1-1-1-1v-1l-1-1q-1-1-1-1v-1l2-3q1-4 4-3z" fill="#9d2b2b" stroke="#9d2b2b"/>
  <path d="m416 176h1t1 1v1q1 2 2 2v1q0 1-1 1 0 0-7-1l-6-1v-2q1-3 6-3 4 1 4 1z" fill="#872c2b" stroke="#872c2b"/>
  <path d="m347 642v-2h2q2 0 3 1h4q2-1 3-1h1v4h-1q-1 0-1 2t-1 2v1q-1 0-1 1h-1q-1 0-4-3l-3-2v-1t-1 0v-2z" fill="#b6393b" stroke="#b6393b"/>
  <path d="m52 472h1l2 1q3 1 2 3t-4 2-2-2q1-3 1-4z" fill="#924141" stroke="#924141"/>
  <path d="m432 573v-1l4 1q4 1 6 5 4 3 4 3l1 3q1 3 2 4v1l-1 3q-1 4-2 4-2 0-2 0v1l1 3q1 3 1 6v4h-1l-1-1h-2v2h-1v-1h-2l-1-1q-1-1-2-1t-3-3q-1-3-4-5t-5-5l-2-3-1-2v-1q1 0 1-2l1-2h1v1l1-4q1-4 3-5t2-3l1-1h1zm2 21h-3l-1-2q0-3 4-3t6 2 2 3q-1 2-2 0-2 0-6 0z" fill="#b41d1d" stroke="#b41d1d"/>
  <path d="m230 330l1-3 1 3q1 4 2 4 0 0 2 1h1l1 1q0 1 0 2 0 2-1 2v1h-1q-1 0-1-1-1-1-1 0t-1 4v2q-1 0-1-2 0-1-2-6 0-5 0-8z" fill="#d87978" stroke="#d87978"/>
  <path d="m252 358v-2h5q5 0 5 1h3v1q0 1 2 1h2l-1 3q0 4 0 5-1 1 0 1 0 1-2 4-2 2-3 4 0 1-1 2-2 0-2 0h-3q-1 0-1 0h-1q1-1 0-3 0-2-3-1h-2q0-1-1 0-1 0-1 0v1h-5v-1h1l1-1 1-1h2q1 0 2-5l1-4h1q1 0 0-1v-4z" fill="#ad2e2d" stroke="#ad2e2d"/>
  <path d="m606 346q2 0 2 2 0 3-2 3-2 1-2-2 0-2 2-3z" fill="#824049" stroke="#824049"/>
  <path d="m573 31q3-1 5 4 1 5-1 6-1 1-6 1t-5-4q0-5 2-6t5-1z" fill="#942c2c" stroke="#942c2c"/>
  <path d="m282 306l2 2v-1h1v-1h1v1h1v1h1v3l-1 1-1 1v1h-1q-1-1-1-1v-1t-1 0v-1q-1-1-1-1v-1t-1-1 0-2 1 0z" fill="#e49f97" stroke="#e49f97"/>
  <path d="m136 608q0-2 3 0 3 3 2 6-1 2-2 2t-3-3q0-3 0-5z" fill="#99484d" stroke="#99484d"/>
  <path d="m140 329h3q0 1 1 1h1v1q0 1-3 2t-3 0q-1-1-3-1l-2-1v-2h2q1-1 4 0z" fill="#f07170" stroke="#f07170"/>
  <path d="m1004 293q2 0 3 3 0 4-3 5t-4-2q0-3 1-5 1-1 3-1z" fill="#874142" stroke="#874142"/>
  <path d="m552 340q2 0 2 2 0 3-1 4-1 0-2 0t-1-3 2-3z" fill="#8b4e52" stroke="#8b4e52"/>
  <path d="m143 330v-1h1l1 1h1v4h-3v1h-1l-2 1q-3 1-3 4 1 2 0 2v-1q-1-1-1-2-1-1-4 2l-4 3t-1-2q0-1 1-1t0-2l-2-1-1-1h-1v-1l1-1 1-1v-1h1v1l3-1q2 0 3-1t1-1l2 1q2 0 3 1 0 1 2 0 1-1 2-3z" fill="#cd2f30" stroke="#cd2f30" vector-effect="non-scaling-stroke"/>
  <path d="m162 500l2-1t-1 1h-1t0 1h-1q0 1-1 1 0 0 0 1h-1l3 3q2 2 2 4-1 1-3 2-3 0-3 2 0 3-1 3v-3q0-3-1-4l-2-1h2l1-1h-1v-2h1q1 0 1-1 0 0 0-3 2-2 4-2z" fill="#9f4a4b" stroke="#9f4a4b"/>
  <path d="m681 214l2-1h1v1l2 1q2 1 3 3v3q-1 0-1 1t-4 0q-4 0-4-3t1-5z" fill="#933638" stroke="#933638"/>
  <path d="m308 572l1 3v1l-1 1v2l-1 1h-2v-1h-1v-1q0-1-2-5t2-4q3-1 4 3z" fill="#a84040" stroke="#a84040"/>
  <path d="m541 360l1 2q1 2 2 2t1 1h-1q-2 0-1 2t2 4l1 2v1h5t-5 0q-4 0-6-2l-1-2h1q1 0 1-1 1 0 0-3v-2q-1-1-1-1v-1q0-1 1-2z" fill="#c48580" stroke="#c48580"/>
  <path d="m439 292h2l1 2q0 2 1 2v1h-1q0 1 0 1-1 0-1 1h-1q0 1 0 1t-2 1h-2v-1t-2-2q0-2-3-2h-5q-1 0-2-2l-1-3h1v-2q0-1-1-3-1-1 2-1 3 1 8 3 5 3 5 3 0 1 1 1z" fill="#9d2827" stroke="#9d2827"/>
  <path d="m444 431v-1h1v1h1v1h3l1 1h2v2l-2 2q-2 1-1 2 1 0 1 1t-1 1l-1 1h-1v1q-1 0-1-1t-5-2l-4-1h3v-2h2v2l1-3q1-3 0-4v-1h1z" fill="#a64e4d" stroke="#a64e4d"/>
  <path d="m356 95v2h2l2 1h1l1 1v1h-2q-3 0-4 0 0 0-2 1l-2 1v1q0 1-1 3 0 2-1 2h-1v1h-1v3h-2v-2q0-1-2-2 0-2-3-3-2-1-2-3-1-1-4-4-4-2-7-3-2-1-2 2-1 2-2 2-1-1-6 2l-6 3h-2q-2 0-5 1l-3 1h-8l-2-1q-3-1-5-1t-7-4l-4-3-4-5q-3-6-4-6-2 0-3-15t1-19q1-4 4-6 4-1 6-3 2-3 8-5t10-2 12 0 13 3 7 9q2 7 4 14 2 8 2 14t2 7q1 1 4 3 2 1 4 4 2 2 4 3 2 0 2 1 1 0 4 0t3-1q1 0 1 2z" fill="#99090a" stroke="#99090a"/>
  <path d="m310 403v-3h2q3 1 3 2-1 1-1 3v2q-1-1-2-1h-2q-1 0 0-3z" fill="#e6a59c" stroke="#e6a59c"/>
  <path d="m231 72q-1 1-2 2-1 2-2 7l-1 5-1 2v2h-4v-1l-1-1v-4q0-4-1-4v-2q-1-3-1-4-2-2-2-6v-3h1l3-1q3 0 2 3t4 2q4-1 4 1t1 2z" fill="#bc2121" stroke="#bc2121"/>
  <path d="m580 564h-4l-1-1q-1-2 0-3 0-1 4-2 4 0 5 3t-4 3z" fill="#9d3d3f" stroke="#9d3d3f"/>
  <path d="m176 305l1-1h9v4q0 3-1 4v1q-1 0-1 1v1h1v1h2l1-1h1l-1 3q0 2 0 2 0 1-1 2v1h-1q0-1-2 1l-3 1h-1q0 1-2 1-3 0-5-3l-2-2v-1q-1 0-1 0 0-1-2-2h-1v-1h-1v-2h-1v-1h-1v-3l1-1 1-2v-1h1v-1h9t0-1z" fill="#a01819" stroke="#a01819"/>
  <path d="m297 198l1-1v3h1v1q-1 0-1 1v2h-2v1l1 1q0 1 4 2 3 2 4 4 0 1-1 1t-1 3q-1 4-2 6-1 3-2 3h-1q0-1-2-2t-4-10-2-9h2v-1l1-1q1-2 1-2l1-1v1h1v-1l1-1z" fill="#a52525" stroke="#a52525"/>
  <path d="m576 206h1l-1 4q0 5 1 5l1 1 1 1q1 2 2 2v3q-1 3-4 6l-4 2v-1q1-1 1-4v-5q0-1 0-3v-2l1-5q1-4 1-4z" fill="#be3836" stroke="#be3836"/>
  <path d="m468 229h3q0 1 1 1v2q0 1 0 1v-1t-2 0q-1-1-1 0v2h-3q-3 0-4 1v1h-2v-2l2-1q3-1 3-3 0-1 1-1 2 1 2 0z" fill="#d1908a" stroke="#d1908a"/>
  <path d="m831 16v-4h12t0 5q0 4-1 4-1 1-5 1h-4v-1h-1v-1t-1-4z" fill="#882225" stroke="#882225"/>
  <path d="m297 182l1 2q0 2 4 2 3 1 3 0v-1l5 1q5 2 7 2 2 2 3 2h1l-2 6q-1 6-2 8 0 2-1 2t-1 1h-1v2l1 1v2q-1 2-2 2-2 0-1-2 0-3-1-4-1 0-1-4 0-3 2-4 2-2 0-2-1 0-3 1-1 2-3-1l-2-3h-1v-1h-2v1h-1v3q0 3-1 3v-1h-1v-3l-1 1-1 1v1h-1v-2l1-1v-3q0-2-1-6v-4h1q0-1 1-2z" fill="#a32b2b" stroke="#a32b2b"/>
  <path d="m493 579h2l1 1q2 0 2 2 0 3 0 4v1h-2q-3-1-3-4v-4z" fill="#9d3d40" stroke="#9d3d40"/>
  <path d="m514 114v-1l3 1q3 0 3 3v3h-9v-1h-1v-1h1v-1h1v-2l1-1q1 0 1 0z" fill="#823636" stroke="#823636"/>
  <path d="m235 358l1-3 2 1q2 0 2 1h1v3q-1 2-1 3-1 1-3 0-3 0-3 0v-1t1-4z" fill="#a23d3d" stroke="#a23d3d"/>
  <path d="m460 593v1h-1q-1 0-3 0-1 0-2-2l-1-3h1q2-1 3 0t2 3q1 1 1 1z" fill="#a15151" stroke="#a15151"/>
  <path d="m345 542v-1h3l1 5q1 6 0 7v3q-1 3 0 3v2q-1 2-1 6v4h-1v-1h-1v-1h-1v-1h-1v2q-1 0-2-1h-2v-1q1 0 1-1v-1h-1v-2l-1-1v-1q-1-1-1-1v-5q0-4 2-6l1-2q1-1 1-1v-1h2q2 0 2-1v-1l-1-2z" fill="#ad2425" stroke="#ad2425"/>
  <path d="m235 436v2q1 2 1 3 2 1 1 3t-3 3h-1v-1q-1 0-1 0h-1v-1q-1 0-1-3 0-2-2-2-1-1-1-2v-1h3q3-1 4-1 0-1 1 0z" fill="#9c3a3b" stroke="#9c3a3b"/>
  <path d="m93 333v-1h1q1 0 1 1t1 1 1 1h-1q-1 1-2 1h-1l-3 1q-3 0-3-1 1-2 3-2 3 0 3-1z" fill="#995354" stroke="#995354"/>
  <path d="m685 697q0-3 2-2 1 1 2 3 0 1-2 1-3 0-2-2z" fill="#915b5d" stroke="#915b5d"/>
  <path d="m959 483q3 0 3 3t-2 4q-1 0-3 0-1-1-1-4t3-3z" fill="#984245" stroke="#984245"/>
  <path d="m190 313v-1h1q1 0 1 1t1 1l2 2q3 2 5 6 4 4 4 4v2q0 1-1 2h-3q-3 0-4-2 0-2-2-2h-1q-1 0-1 1t-2-2l-2-3h-1v-2q1-1 1-2 0 0 0-2l1-3h1z" fill="#9e1e1e" stroke="#9e1e1e"/>
  <path d="m331 551l1 1q2 1 1 3-1 1-2 2h-1v-1t-1 0q-1-1-1-1v-1h1v-1h1q0-1 0-1 1 0 1-1z" fill="#8f4347" stroke="#8f4347"/>
  <path d="m474 457h1l1 1q1 0 4 1h2v1q0 1 1 2 1 2 3 2 3 0 4 1h1v1h-4q-1 0-1 4-1 4-4 4-2 0-4 0h-2v-1q0-1 1-1t0-2q-1-1-3-2-3 0-3-1t-1-1h-2l-1 1h-1v-1h-1l-1-1v-1l1-1 1-1h2q3-1 4-3 2-1 2-2zm1 4q0-1 1-1 0 1 0 2 0 0-1-1z" fill="#ca2e2d" stroke="#ca2e2d"/>
  <path d="m415 598v2q-1 0-1 0v2q0 2-1 3v1q-1 0-1 0t-4 1q-3 1-4-3-2-3-3-4h-1v-2h2q2 0 2 0l4-1q5-1 6-1 0 1 1 2z" fill="#ac2929" stroke="#ac2929"/>
  <path d="m431 93h4l1 1q1 0 1 3v3h-2v1h-1v-1h-6l1-3q1-3 2-4z" fill="#803437" stroke="#803437"/>
  <path d="m684 584h2v1l1 1v2h-2l-2 1q-2 0-3-1v-3l1-1q1 0 3 0z" fill="#905258" stroke="#905258"/>
  <path d="m583 142h1v-1h2l1 1v2q-1 2-1 2t0 1h-2l-2-1v-4h1z" fill="#835759" stroke="#835759"/>
  <path d="m403 223v-1h1v9-1q0-1-3-1t-3 1-1 0q-1 0 1-2 0-3 3-4 2 0 2-1z" fill="#924242" stroke="#924242"/>
  <path d="m757 415q2-1 3 2t-2 3-3-3q0-2 2-2z" fill="#8c5155" stroke="#8c5155"/>
  <path d="m220 61v-1h6l2 1 1 1 3 1q2 1 2 3 0 3-1 3h-1q0 1 0 2l-1 1q-1 0-1-2t-4-1q-5 1-4-2t-2-3l-3 1v-2h1l1-1h1v-1z" fill="#cc5153" stroke="#cc5153"/>
  <path d="m96 376h-4l-1-3q-1-3 0-5t5-2 4 5-4 5z" fill="#952c2d" stroke="#952c2d"/>
  <path d="m148 298h4l1 2q1 3 1 4v1h-1v1h-3q-1 0-2 0v-1h-1v-1h-1v-1l-1-3q0-2 3-2z" fill="#932f2f" stroke="#932f2f"/>
  <path d="m260 537l2 1q3 0 3 2v3q-1 0-1 1 0 0-1 0v1q-1 0-1 1h-1q-1 0-1 1-1-1-1-1h-1v-7q1-1 1-1h1t0-1z" fill="#973531" stroke="#973531"/>
  <path d="m416 304h1l1 2q1 2 2 2 2 0 2 0 1 0 2 1v2q0 2 1 3v2l-1-1q-2-1-3 2t-1 5v2h-2q0-1-1-1v-1q-1-2-1-2 0-1 0-4 0-2-2-2h-1l-1-1v-1q0-2 1-2t2-3 1-3z" fill="#9f312f" stroke="#9f312f"/>
  <path d="m549 196h-1t0 1q-1 1-2 1 0 1-1 4l-1 3h-2q-1 0-1-1 0-2-1-2t-1-2q-1-1 1-2l2-1q1-1 2-1l3-1q3-1 3 0t-1 1z" fill="#a06b6c" stroke="#a06b6c"/>
  <path d="m552 498h2v-1h1v1l1 2q0 1 1 2v2l-1 1v1q0 1-1 2-1 2-4 3l-3 1h-2l-1-1h-1v-2h-1v-1q-1 0-1 0v-2q0-1 1-2h2l1-1 2-1h2v-2h1v-2h1z" fill="#c63438" stroke="#c63438"/>
  <path d="m466 472l-2-7 2 1q2 1 2 1v-1h2q1 0 1 1t3 1q2 1 3 3 0 1 0 2h-1q0 1 0 1l-1 2q-1 1-1 3v2t-1-2q0-2-1-2h-1v1q0 1-1 1t-4-7z" fill="#d64748" stroke="#d64748"/>
  <path d="m129 425h1q0 1 0 1h1t1 1q0 1 0 1h1v4q0 3-1 3l-2 1h-4t-1-1-1-3v-4h1l1-1 1-1h2v-1z" fill="#9e2b28" stroke="#9e2b28"/>
  <path d="m191 743h-1q-1-1-2-1v-2q0-2 2-2 2 1 2 3 0 1-1 2z" fill="#865055" stroke="#865055"/>
  <path d="m530 116h-1v1h-1l-2-1q-2-1-2-4 0-4 3-4t4 1 0 3q-1 3-1 3 0 1 0 1z" fill="#88302f" stroke="#88302f"/>
  <path d="m122 101q2-1 2 1 0 1-2 2-3 1-3-1 1-2 3-2z" fill="#c5656d" stroke="#c5656d"/>
  <path d="m232 69h1v3q1 2 0 3v1l-1 1q0 1 1 2t1 2q-1 1-1 1h-1t0 1h-1q-1 0-1 4l-1 4v-1q-1 0-2-2l-1-2 1-5q1-5 2-7 1-1 2-2l1-1q0-1 0-2z" fill="#d8797b" stroke="#d8797b"/>
  <path d="m376 588v2t-1 0v1h-1q-2-1-3-3-1-3 1-3 4 0 4 3z" fill="#914645" stroke="#914645"/>
  <path d="m259 425h1v1l1 1v1h-2v1h-1v1h-2v3q-1 3-2 3h-2t1-1q1 0 1-1 0-2-2-2-1 0-2-2v-1l1 1q1 0 1-2 0-1 1-1 1-1 2-1h4v-1z" fill="#dd908f" stroke="#dd908f"/>
  <path d="m82 256l1 2v1l-1 1-1 1-1 1h-1v-1h-1v-3q0-2 2-2 2-1 2 0z" fill="#9c4d52" stroke="#9c4d52"/>
  <path d="m117 283h2v-5h2v4q1 4 1 4v1h-4q-4-1-6-2l-3-2-1-3q-1-2 1-1 1 1 2 2 0 1 2 1t4 1z" fill="#c68786" stroke="#c68786"/>
  <path d="m638 61v7q0 1-1 2h-1v1t-1 1l-1 1v1h-1v1h-1v1h-12v-1h-1v-1h-1t-1-2h-1v-1l-1-4q-1-3-1-7 1-4 4-4 2-1 2-3-1-2 0-2t1 1 2 0q2 0 3 0 1 2 4 2 2 0 4 1t2 3q2 3 2 3z" fill="#8c1a1a" stroke="#8c1a1a"/>
  <path d="m144 253v1q0 2 0 2h1v1q1 1 1 1v6t-1 0v1h-1q-1 1-4 1l-2 1v-1h-1v-1h-1v-9h2q2-2 4-2h1l1-1z" fill="#902724" stroke="#902724"/>
  <path d="m98 667l-1-1-1-3q0-4 4-5 4 0 5 1t1 5q0 3-4 4-4 0-4-1z" fill="#a83538" stroke="#a83538"/>
  <path d="m145 310h2l4 2q5 3 5 4v1h-1q-1-1-5 0t-4 3-4 2l-3-1h3l2-1t-1-2-3-2h-2q0-1 2-2 1 0 2-2 0-2 3-2z" fill="#c24446" stroke="#c24446"/>
  <path d="m252 136h1l2 9q3 9 3 9t2 1l1 1h1l2 1h1q0 1-1 1-2 0-2 1v1h-2q-3 0-2 4 0 4 0 8v5l1 3v2h4l-1 1v1l-1 1v1h-2q-2 0-3 1t-2 2v1h-1l-2 1q-2 1-2 1h-1v1h-2v-1h-1v-1q-1 0-2-5-1-4-2-4l-1 1v-1q0-2-1-2-1 1-3-2-2-2-4-2l-2-1v-1q0-1 0-2 0 0 2-2 2-3 2-8l1-5q0-1 0-3-1-3-1-6 0-4 1-6l1-2h1l4-2q4-2 7-2t4 0z" fill="#ae1011" stroke="#ae1011"/>
  <path d="m128 357h1q0 1 1 1h1q1 1 1 4v3t-1 1q-1 0-5 1t-5-1h-1v-1h-1v-1h-1q0-1 2-4 1-2 4-3t4 0z" fill="#952324" stroke="#952324"/>
  <path d="m290 564h2t0-1l2 1q2 1 3 2v1q-1 0-1 1 0 0-1 0v1l-1 1t0 2v6l-1 1v1l-1 2q0 3-2 3-2-1-4 0h-4q-2-1-3-2l-1-2-1-5-1-4v-3l5-1q5-2 5-3 1-1 2-1t2 0z" fill="#b11e1f" stroke="#b11e1f"/>
  <path d="m733 564q1 0 2 2t-1 2-2-2 1-2z" fill="#8b5a61" stroke="#8b5a61"/>
  <path d="m212 108h2t0 1h1l1 1q2 2 2 4v2l-1 1-1 1-1 1q-1 1-3 1l-3 1v-1q-1-2-1-2v-4q0-4 1-5t3-1z" fill="#8f2423" stroke="#8f2423"/>
  <path d="m489 546h1t1 0q1 1 1 4t-3 3q-2 1-3-1t-2-2-1-2v-1h3q2-1 3-1z" fill="#9f3d3d" stroke="#9f3d3d"/>
  <path d="m72 347l2 1h1v1h1v3h-1v1h-1v1h-2q-2 2-2 2h-1t-1 1 0-2v-2q1-1 2-1t1-2q0-3 1-3z" fill="#904c50" stroke="#904c50"/>
  <path d="m464 670h-2q-2 0-3-1t0-3q1-1 3-1t2 2q0 3 0 3z" fill="#98535a" stroke="#98535a"/>
  <path d="m97 533l7-1 2 2q1 2 2 3 1 0 2 3 2 2 2 4v1l1 1 1 2v3l-1 5q-1 5-5 9-4 3-4 4h-1q0-1-5-1l-4-1q0-1-2-1l-2-1v-1t-1 0q-1-1-1-1v-1t-1 0q-1-1-1-1v-1t-1 0v-1q-1-1-1-1 0-1-2-4l-1-3v-3q-1-3-1-5t5-6q5-3 12-4z" fill="#b70e0f" stroke="#b70e0f"/>
  <path d="m283 532v1l-1 4q0 4-1 4 0 1 0 1h-1v3q0 3-1 3t-1 1h-1l-1-1h-1q-1 0-2-3l-1-3v-2q0-1 1-2l1-2q1 0 1-1v-2l1-1q2-2 4-1t3 1z" fill="#a32e2a" stroke="#a32e2a"/>
  <path d="m548 214h2v1h1v1h1v3h-1v1h-3q-1 0-2-1v-4q1-1 2-1z" fill="#804945" stroke="#804945"/>
  <path d="m151 542h4q3 1 3 3v2l-2 2q-1 1-3 1h-4v-1q-1-1 0-3 1-3 2-4z" fill="#a13434" stroke="#a13434"/>
  <path d="m142 447v-2h1v1l1 2 2 1h2l-2 1q-2 2-2 4 0 1-4 2-3 0-4 1v-1q0-2 2-2 1 0 1-2 0-1 1-1 1-1 0-1v-1h1q1 0 1-2z" fill="#ce5e63" stroke="#ce5e63"/>
  <path d="m185 460h2t1 1q0 1 0 1h1l2 1 2 1h1q1 0 2-2v-1 1l1 2q1 1 1 2l-2 1q-2 1-3 3v1h-3q-1-1-2-1 0 0-3-1h-3v-1q0-2-1-2 0 0 0-1-1-1 1-1 1-1 1-2 1-1 2-2z" fill="#a03837" stroke="#a03837"/>
  <path d="m603 471h1l3 1q3 2 4 4v2q-1 1-1 2-2 1-5-2l-4-2v-1h-1v-3q0-2 1-2t2 1z" fill="#aa3c39" stroke="#aa3c39"/>
  <path d="m579 205h5l-1 3q-1 4 1 6 0 2 1 2v1h-1q-1-1-2-1-2 0-2 1l1 2q-1 0-2-2l-1-1-1-1q-1 0-1-4v-4t1-1 2-1z" fill="#e16d6e" stroke="#e16d6e"/>
  <path d="m337 666q1 1 1 3t-2 2q-3 0-2-3 1-2 3-2z" fill="#8d474a" stroke="#8d474a"/>
  <path d="m220 293v-5l2 2q2 1 3 3 0 2 2 2 1 0 1 7 0 6 1 6t1 3q1 3 6 5 4 2 4 3t-2 1-2 0v1q-1-1-5-3-5-2-7-3l-3-1v-3h-2l-1 3q0 4-1 4l-1 1-1 1h-2v-1h-1v-3h-1v-1h-1v-2l1-1v-1h1q0-1 2-3l2-2q1 0 0-1v-2q0-2 1-3 1-2 2-2t1-5z" fill="#a11210" stroke="#a11210"/>
  <path d="m206 640l2 4q2 4 2 4v1l-2 1q-2 1-3 3v2q-1 0-1-3t-2-4q-2-2-2-3 1-1 2-1t1-1v-1h1t0-1h1q1-1 1-1z" fill="#d87577" stroke="#d87577"/>
  <path d="m569 258v-1h2q2 0 2 2 0 3 1 3h1t0 2q1 2-1 3l-2 1v-1q0-1-4-2l-5-1h-2v-1q0-1 3-1 4-1 4-2 0-2 1-2z" fill="#de9896" stroke="#de9896"/>
  <path d="m316 561h4q0 1 0 1h1t1 1v2h-1v1h-5q-1 0-4-2l-3-2v-1q0-1 3-1 2 0 4 1z" fill="#a03d3c" stroke="#a03d3c"/>
  <path d="m370 192l1-1v1h3q3 0 6 4 2 3 3 2v-1l3 1q2 0 0 5-2 4-2 5 0 2 1 2v1h-1q0 1 0 1 0 1 0 2v1h-1q-1-1-1-1h-3q-2 0-3 1t-3 2l-2 2h-1q-1 0-1-1 0-2-1-2t-1-1q-1-1-3-2l-2-1h-2v-1h1v-1h-3v-2h2v1h5v-1q1-1 1-3l1-2h2q2-1 3-2 0-1-1-1t-2-4q-1-3 1-4z" fill="#9b1616" stroke="#9b1616"/>
  <path d="m55 496h7v2q0 1 0 2-2 2-2 2v1h-2l-1 1h-1v-1h-1v-1h-1v-6h1z" fill="#963b36" stroke="#963b36"/>
  <path d="m379 399h2v1q-1 0-1 0v1l-2 1q-2 0-2 2 0 1 1 2 2 1 2 2v1h-1q-2 0-2 1 1 2 2 1 1 0 1 1-1 1-1 2v3l3 5q3 4 3 4v1q0 1-1 1h-1v5l1 2q1 2 1 2v1q0 2-1 2t-1-2q0-1-4-1-3 0-3 1t-1 1l-2 1h-2q-1 1-2 6 0 4 1 4 1-1 1-2 0 0 2 0 2 1 1 4-1 4 0 4v1l1 1v5h1v1h1v1h1v1l5 1q6 2 6 0t1-2v3q0 4 1 4t1 2q1 1 1 2l-1 2q-1 3 1 3t2 1v2h-1q-1 0-1 1l-1 1h-1v1h1v1h1v1q0 1-1 1v1l-1 1q-2 0-2 2-1 2-4 2-2 0-2 1t-1 2-1 3q1 2 0 2h-5l-2 2q-1 2-2 2v1l-3 6q-4 5-5 6-1 0-2 2t-1 3v1h1v1h1v4h-1v1h-1l-1 1h-1l-1-1-1-1t-2-1q-1-1-2-1t-1 0q0-2-1-2-2 0-2 1-1 1-4 1h-2l-1-3q-1-3-1-5l-1-2v-1q-1-1-2-1-2 0-9-3l-6-2v-1q0-1-1-2l-1-1v-1q0-1 1-2 0-1-3-2-4 0-4-2v-1h-2l-1 2q-1 1 0 2t0 1 0 1h-1v1h-2v-1h-1v-2h-2v-2q-1-2-1-6l-1-4v-1q-1-2-2-6l-2-3v-1q1-1 1-2t2-2h2l-1-1q-1-1-1-1h-1q-1-1-1-1v-1t-2-1q-1-1-2-3t-2-2q-2 0-2-2v-2q0-1 1-2 0-1-2-2-2 0-1-4l1-3v-4q0-4-1-5l-2-1v-1h6v-2h1v-1h1v-1h3v1h-1l-1 1h-1l1 4q0 3 3 4 2 0 2 2v1h1v1h7v-2q0-1 0-3v-2q1-1 1-1h1v-1h1v1h1v1l1-1 1-1v3h2v1h2v3q0 1-1 2v1h-1l-1 1h-1v2h1v1h1v1h2l3 1h3v-3q0-1 0-1v1h3v1h1v1h2v-2h-1v-1h1v-1l-1-1-1-1t-2 0q-2 1-3 0l-1-2v-4h1v-1h1q0-1 1-1 1-2 4-3 3-2 3-3l-1-2h1t2-1q1 0 1-1 1-2 3-4l2-3v-3l1-2q1-2 3-2 1 0 2-3t4-1q2 2 4-1t4-3q3 0 4-3 2-3 4-5t3-1 1 0v-1h1l2-2q2 0 4-1zm-66 71q2-1 3 2 0 2-4 2-3 0-2-2t3-2zm11 12q0-2 2 0 3 0 0 1t-2-1z" fill="#b9090a" stroke="#b9090a"/>
  <path d="m522 296v1h-2q0 1-2 1l-2 1q-1-1-1-1h-1v-1q0-1-2-1l-1-1h2l2-1h1v-4q0-4 1-5l1-1h2q3 0 3 6-1 5-1 6z" fill="#932f31" stroke="#932f31"/>
  <path d="m132 109l1-4h5q0 1 0 1h1l1 2q2 1 1 4t-1 3q0 1 0 1h-1v1h-1v1h-2t-2-3q-2-2-2-6z" fill="#a51412" stroke="#a51412"/>
  <path d="m576 200h1v2q-1 2-1 3v2t-1 4l-1 4v2q0 2 0 3v5q0 3-1 4v4l-1 3v2h-2q-1 0-3-7-1-6-2-7h-1q0-1 0-3t2-3q2 0 2-8l-1-7h1v-2h5q1 0 2 0 0-1 1-1z" fill="#b0211f" stroke="#b0211f"/>
  <path d="m290 467l2-2v1q0 2 2 2 1 0 2 2t3 3 2 2v1h-1q-1 0-2 0h-4l-2 1h-2v-5h-2l-1-1q-1 0-1-1v-1h1q1-1 3-2z" fill="#9e3632" stroke="#9e3632"/>
  <path d="m223 136v4q-1 1-1 2v1q-1 1-2 1t-2-2q0-1-2-1-3 0-3 1t-1 1h-1v-1l1-1v-3q0-2-2-4l-1-2h1v1h1v1h1l1-1q1-1 3-1 1 0 2 1 0 1 2 2 2 0 3 1z" fill="#c14648" stroke="#c14648"/>
  <path d="m96 387l5 1h1l1 1q1 0 1 1v1l3 1q3 0 2 2 0 2 0 3h1v1h1v1h1v2h-1v1h-1v1t1 3 2 3q1 1 1 2t-2 2-2 2-4 4q-3 3-8 3-6 0-8-1-3-2-3-3t-1-1-3-7q-3-7-1-13t5-8q3-3 9-2z" fill="#a91213" stroke="#a91213"/>
  <path d="m89 308l2 1 1 3q1 2 4 4t4 3v1h1q1 0 3 4 3 4 4 4l-1 4q-1 4-2 4h-7v-1t-1 0q0-1-1-1t-1-1-1-1h-2q-1 0-1-2 1-1-2-2h-3v-2h-1v-1h-1v-1h1v-1h1v1q0 1 2 1h2v-3h-2q-1 0-1-1 1 0-1-3 0-4 0-5t0-4q-1-3 0-3t1 1q1 1 2 1z" fill="#9f2324" stroke="#9f2324"/>
  <path d="m521 368v-1l3 2q2 2 3 2v-1h1q1 0 1 0 0 2-2 2-1 1-3 5-1 3-2 4-1 0 0 1 0 2 0 2h1v1h1v1h1l3 1 4 1h-1l-1 1-1 1-2 2q-3 2-3 4-1 2-2 3-1 0 0 2 0 2-1 2t-2 2q-1 3-2 4t-1 7q2 7 2 8 2 2 1 6t-3 6q-2 3-2 3-1-1-4 1-2 0-6-1l-4-1v-1q0-1 2-3l1-3v-1q-1 0-1 0v-1q0-1 1-2t3-3 1-6l-1-3v-1l-1-2v-2h-2v-1h-1v-1h-2v-1h-1v1h-1v8q0 6-2 7t-2 1h-2q-1 0-1 9 1 9 1 10v1h1t0 1h1v2h-1v1h-1t-2-1l-3-1-1 1-2 1-1 1v1l-1 1-2 1-1-1-1-1-2-1h-2v-1h-1v-1h1v-1q0-1 1-2 1-2 1-7v-5q0-1-1-1v-1q-1 0-1 0v-2q0-2 1-4l1-2t1 0 1-2q0-2-3-9-4-7-7-8h-4q0 1 0 1h-2v-6h1v-1h1v-3h3q1 0 1-1v-2h1q0 1 2 1h2l1-1h1v1q0 1-1 1t0 1q0 2 1 1 0-1 1-1h3q1 0 1 1h1q1 0 1 3v2h8v-1t1-1h8v-1h1v-1h1t0-1q1 0 3-1 3-2 2-6l-1-3v-1l3 1q3 1 5 0 3-2 3-5 0-2-1-4v-3l1-2q2-3 3-3h1t1 0z" fill="#ac1212" stroke="#ac1212"/>
  <path d="m459 622q0-2 3-2 2 1 3 4 1 2-1 2-3 0-4-1-1 0-1-3z" fill="#93423f" stroke="#93423f"/>
  <path d="m225 116h2q1 1 2 3 1 1-1 2h-3v-1q-1 0-1 0v-2q0-2 1-2z" fill="#c28c8c" stroke="#c28c8c"/>
  <path d="m175 562l-1-3h2q1 1 2 0h1l1 1q0 2 0 4v2h-3q-1 0-2-4z" fill="#9e433e" stroke="#9e433e"/>
  <path d="m588 200l3 2q3 3 4 4 0 1 1 2 2 0 2 1v1h-1q-1 0-1 1v2q0 1-1 1t-1 2v2t-1-2q0-1-4 0l-4 1v-1q-1 0-1-2-2-2-1-6l1-3h-3l3-2q3-3 4-3z" fill="#aa2827" stroke="#aa2827"/>
  <path d="m541 112h4l5 3q4 3 4 3t1 2l1 1v5q0 4-2 6-2 3-5 4-2 0-3 2 0 1-6 1-7 1-10-6-4-7-2-11l2-4v-1l2-1q2-1 2-2t2-1q1-1 5-1z" fill="#981615" stroke="#981615"/>
  <path d="m571 298h-1t-2-1h-2v-1q0-1 0-2v-4q0-3 2-4 2 0 3 2t1 6q-1 4-1 4z" fill="#cf8d8d" stroke="#cf8d8d"/>
  <path d="m417 583l1-1h4v1l1 1v1l-1 2q0 2-1 2h-1q0-1-2 0t-5 1-4 0l-1 1v-3q-1 0-1-1h1q1-1 2-1h1v-1q0-1 1-1h4l1-1z" fill="#a63032" stroke="#a63032"/>
  <path d="m549 252v-1l2 1q3 0 3 1v1q-1 0-1 1v1q-1 0 0 2 1 3-2 4l-2 2v-1h-1v-3q0-4 0-5v-2q0-1 1-1z" fill="#b03131" stroke="#b03131"/>
  <path d="m233 515h2q1 1 1 1l1 2v2l-1 1q0 1-2 1h-1l-1-1v-1q0-1-2 0h-1v-4h1q2 0 3-1z" fill="#a43838" stroke="#a43838"/>
  <path d="m199 158h1v-1h1v2l5 1q4 0 4 0h2l1 1q1 1 1 3 0 3 0 4v1l-2 3q-2 3-2 6v2l-2 4q-2 3-5 4-3 2-3 4v3h-1l-1-1h-2v1-1q0-1 0-2 0-2-3-3t-3-3q0-1-2-2h-1l-2-1h-2v-1h-1 2q3 0 4 0 2 0 2-4 1-3 2-3 1-1 1-2-1-2 0-7l1-4 2-2q2-1 2-2h1z" fill="#961819" stroke="#961819"/>
  <path d="m480 239l1 2q1 2 1 4v2q-1-1-4 0-2 0-2 1l1 2h-1q-1 0-4-1l-3-1h3v-3h-1v-1h-1v-2h1v-1h1q0-1 0-1h4q3 0 4-1z" fill="#cb3a3b" stroke="#cb3a3b"/>
  <path d="m503 237h3q0 1 0 1h1t1 1v1q0 1 0 2t-2 3l-3 2v-1q1-1 1-3t-1-3l-2-2t2-1z" fill="#e3979b" stroke="#e3979b"/>
  <path d="m447 238h3q2 1 3 4 1 2 4 4 3 0 4 1h1v1h-2v1q-1-1-2-1t-4 1l-4 2h-2q-1-1-2-1-2-2-3-3l-1-2v-1h-3v-1h-1v-1h2q2 0 2-2-1-2 2-2 2 0 3 0z" fill="#912727" stroke="#912727"/>
  <path d="m231 178l-1-3 2 1q2 0 4 2 2 3 3 2 1 0 1 2v1l-2 5q-2 4-2 5-1 1-1 1h-1q-2 0-6 1l-3 1h-2v-1h-1v-4l1-1v-2h1q2 0 3-1 1 0 1-3 1-2 2-2t1-1q1-1 0-3z" fill="#961b1c" stroke="#961b1c"/>
  <path d="m368 604l3 1-1 3q-2 2-2 4v2l1 1q1 1 1 2t0 4v3h-1v-1h-1v-1h-1l-1 1q-1 0-2-1l-1-2v-2l-1-1v-3q0-1 0-2 0 0 0-3-1-3 1-4t5-1z" fill="#a83434" stroke="#a83434"/>
  <path d="m173 519l3 1q4 1 4 2t1 1h1l-1 1q-1 1-1 2v2h-1l-1 1v-1q0-2-3-1t-3-1l-1-2q-1-1-1-2 0 0 1-1l1-1q1 0 1-1z" fill="#aa3e3c" stroke="#aa3e3c"/>
  <path d="m177 547h1v2q0 1-1 3v1q0 1 1 1 0 1 1 3v2h-1q-1 1-2 0h-2t-1-1q0-1-3 0l-3 1v-2h1v-1h2v-2q0-2 2-3l2-1v-1h1v-1h2v-1z" fill="#a4413a" stroke="#a4413a"/>
  <path d="m281 125q2-1 5 2 2 3 3 5 1 3 0 4-1 0-5-3-3-3-4-6 0-2 1-2z" fill="#bb7471" stroke="#bb7471"/>
  <path d="m492 281v-1h4v1l1 1q1 2 0 3l-1 1v2q0 1-1 0-1 0-3 0l-2-1q0-1 1-3l1-2v-1z" fill="#923f41" stroke="#923f41"/>
  <path d="m411 491v2l1 2q0 3 1 3 1 1 2 2 1 2 1 4v1h-1v1h-1v1h-1v1h-1v1h-1v1h-1v-2h-1v-1q-1 0-2-3-1-2-4-2h-3l-2-1q-2 0-1 1 1 2 1 4v1h-1v-1h-3v-3h-1v-1h-2v-1h-1v-2h-1v-1q1 0 2-3t1-3l-1-1v-1q1 0 1-1v-1h-1v-1h-1v-1h2v1h1v1h1l8-2q7-1 8 1 0 2 1 4z" fill="#aa1e1f" stroke="#aa1e1f"/>
  <path d="m129 550v1q-1 0-1 1v1h-2q-2-1-4-4l-1-4h3q3 1 4 2 0 1 1 3z" fill="#9b3e41" stroke="#9b3e41"/>
  <path d="m221 318v-4l3 1q2 1 7 3 4 2 5 3l1 1q1 1 1 2h-2q-2 0-2 1t-2 1l-1 1-1 3q0 3 0 8 2 5 2 6 0 2 1 2l1 1q0 1 2 1h1v2l-1 1v4l-1 3q-1 4-1 4v1l-2 3q-2 2-1 4 0 2 1 2t2-2q1-3 2-3t1 5q0 4 1 3 2-1 4-1h1v1l-1 1q-2 2-2 2h-1l-1 2q-2 2-4 2-2 1-2 2v1h-1v1h-1v2l-1 2v2l-2 3q-1 3-2 3v-1q-1-1-1-2t-2-2q-3-1-2-2v-1t1-1 1-5q0-5-2-6l-2-1q1-1 1-1h1t0-1h-1v-1q0-1-1-1-1-1-2-2-1-2-2-2t-1-1 1-1q1-1-2-1l-3-1q-1 0-4 1l-3 2v-1h-2v-1h-1v-1h1v-9h2v2q0 2 0 2 1 0 4 0h2v-2h-1v-1h1v-5h-1l-1-1h-3l-5 1q-4 0-5 3t-1 4v1h-8v1t-3 0h-3q-2 0-2-3-1-2-2-2h-1q-1 0-1 0v1t-1 1h-7l-1 1-1 1h-1l-1 1-2 1h-2q-1 0-1 1h-1q-2 1-6 2l-4 2v-1q0-1 0-2 0 0-2-2-3-1-4-3 0-2-4-3l-3-2v-6h1t2-3l3-3q1 0 0-2 0-3 3-4l2-1h1v-1h3v-4h-1l-1-1h-4q-3-1-4 0h-2v-1h1v-1h-1v-1h-1v-1h-1v-1h1v-1h1v-2h5l3 1q4 0 4-2t2-3 4-1h3t1 1l1 1q1 0 1 2v2l-1 1v1h2v-1q1 0 1-1t3-2h3q1 0 1 1l-1 2q0 2 2 3 3 0 3 2-1 3-1 4v1h1v1h3l4-2q4 0 4-1h1q0-1 0-1 1 0 1-2v-1l1 1 1 1v1h2v2q0 1-1 4v2h2v-1h1v-1q0-2 2-3l1-1 2 1q2 1 5 1 2 0 2-1 1-1 1-1h1q1 0 0-1v-2h1q1 0 1-1 0-2 2-4l2-1q1-1 1-1h3q3 0 5 0t2-4z" fill="#b10d0d" stroke="#b10d0d"/>
  <path d="m638 606l-1 2h-2q-3-1-3-2 0-2 2-3t3-1q1 1 1 4z" fill="#934f4f" stroke="#934f4f"/>
  <path d="m200 93l1-1h5l1 1 1 1 1 1q1 1 1 4v3t-1 1v1h-1t-4 1l-3 1q-1-1-1-1-1-1-2-2 0-1-1-3l-1-3 1-1 1-1v-2h2z" fill="#8b1f24" stroke="#8b1f24"/>
  <path d="m574 418h2q2 0 2 2-1 2-2 2t-2 0h-1v-3q0-1 1-1z" fill="#96454e" stroke="#96454e"/>
  <path d="m138 486h2-2q-2 1-2 2 0 2-1 2h-1l-2 1q-1 0-1 1-1 1-1 2v1t0-2v-3h-1q-1 0-2-3l-1-2v-1q1 0 6 0 5 2 6 2z" fill="#b76d6d" stroke="#b76d6d"/>
  <path d="m354 161v-1h4q5 0 5 1t1 1 2 2q0 2 0 2h2l-1 2q-1 3 0 4 1 2 5 2 3 1 3 2 1 1 1 4v3q-1 1-4 1-3 1-3 3l1 2h-1v1h-1t-1 0-1-2-1-4q-2-1-3 2-2 3-1 4v1h-2q-2 1-3 2 0 1-4 0-5-1-4 1l2 1h-2l-2-1h-1l-1 1h-2v-1h-1v-1h1v-1h2v-2l-1-2v-1l1-1q2 0 3-3t2-4 3-1h4v-1l-1-1-1-1q0-1-1-1t-3-5l-2-4h1q1 0 1 1v1l1-1q0-2 1-2t1-1v-1h1v-1z" fill="#971e1e" stroke="#971e1e"/>
  <path d="m384 612h1v-1h1v1h3v1h1v1h1v1h1l-1 5q-1 4-2 5t-3 1h-4t-1-1l-1-1h-1v-1h-1v-8l3-2q3-1 3-1z" fill="#b02023" stroke="#b02023"/>
  <path d="m153 183h1v1l6 1q5 1 8 4 2 3 3 3v1q0 1 1 1v2q0 3-1 4v1l-1 3q0 3-1 6l-1 2 1 2q1 1 1 2h-2q-1 0-4 0h-2t-1 0v1h-1q-1 1-5 0l-4-1q-1-1-3-3-2-1-4-5l-1-4q-1-1-3-3t-2-5q0-4 0-6l2-1v-2h1v-1l5-1q6-1 7-2z" fill="#9f1212" stroke="#9f1212"/>
  <path d="m462 450h4l1 1q1 1 5 1t4-1v-1h2v2h-1l-1 1-1 1h-1v1l1 1v1h-3q-1-1-4-1h-4v-1h-1v-1h-1l-2-1q-2 0-2-1t4-2z" fill="#bf3433" stroke="#bf3433"/>
  <path d="m233 640v1l-1 3q0 2 0 3 0 0 1 1h-1q-1 0-2-1l-2-1t-2-1h-1v-1q1-1 1-2l1-2 2-1q2-1 3 0 0 1 1 1z" fill="#e86665" stroke="#e86665"/>
  <path d="m406 76h-2q0-1-1-1v1-4q1-3 3-3t2 3q0 2 0 3-1 1-2 1z" fill="#86403b" stroke="#86403b"/>
  <path d="m538 384v-4q1 0 3 1h2q0 1 1 1t1 2q1 1-3 2l-4 1t0-3z" fill="#a64245" stroke="#a64245"/>
  <path d="m164 682q0-2 2-1 2 0 1 2 0 1-2 1-1 0-1-2z" fill="#8a5556" stroke="#8a5556"/>
  <path d="m420 131q4-1 5 1 1 1 0 4-1 2-5 2-3 0-3-3-1-4 3-4z" fill="#842f30" stroke="#842f30"/>
  <path d="m486 561q0-3 1-2 0 1 1 1 2 0 2 2 0 3-2 2-2 0-2-3z" fill="#915053" stroke="#915053"/>
  <path d="m668 592l2-1h1v1h1v1l1 1 1 1v1h-1v1h-1l-1-1h-3v-4z" fill="#965560" stroke="#965560"/>
  <path d="m67 156v-1l4 3q3 4 4 4 0 0 1 1v1h1v1q1 0 1 1 0 0 0 1h1l1 3q2 2 2 3h1v1t1 1q0 1 0 1h1l3 5q2 5 4 6 3 1 4 2h2q0 1 0 1h1l6 2q6 2 7 3h1v2h-1v-1h-2v2l1 1 1 1v1l1 1 1 1 1 2q1 1 3 2t2 3q2 1 2 4 0 2-1 2t-1 1h-1q-1 0 0 3t1 4v2l1 1 1 1t0 1h1q0 1 1 1l1 5q1 5 1 7v3h1l2 7q1 7 2 8l1 2v2l1 2 1 2h3v2h2l-1 3q-2 3 1 7t3 4l1 2q1 1 0 2t-1 6v6l1 2 1 1v1h1v3h2v3h-2q-3 0-3 2-1 2-2 2-2 1-2 2l-3 2q-3 2-4 2h-5v-2l-1-1-1-1v-1h1v-1q1 0 1-1t-2-2-2-3l-1-2q1-1 1-2t3-2q2-2 2-6v-4q-1 0-1-2v-1h-1v-1h-1q-1 0-2-1v-1t-1-4l-1-3v-1t-1 0v-7h-1q-2 1-6 1t-8-1l-4-2v-1l-1-1q-1-1-2-2l-1-1v-4q0-2 2-3l1-1h1t0-1q1-1 1-3 1-3 0-6l-1-2q0-1-1-1v-1q-1 0-1 0t-1-1q0-1-3-1-2 0-2-1 0-2-1-3l-1-2v-1h-1v-1h-2q-1-1-1-2l-2-1v-4t4-1q3-1 3-4-1-2-5-10l-4-7v-1q0-1-1-4 0-4 3-5 2-1 1-5-1-5-2-5-1-1-5-10-5-9-6-9t-2-2l-1-2q-1-1-1-1v-1q0-1-1-2z" fill="#a30f0f" stroke="#a30f0f"/>
  <path d="m191 80v2q0 1-2 1-1 0-3-3l-2-4v-1q0-1 3 2t4 3z" fill="#753f3c" stroke="#753f3c"/>
  <path d="m552 228v6l2 1q2 1 3 1h1v3h-1v1h-6l-1-1h-1v-1q0-1-3-2t-4 1v1l-1 1q-1 0-1-2l1-2q1 0 2-5l1-5h3q3 1 4 1 1 1 1 2z" fill="#953030" stroke="#953030"/>
  <path d="m522 273l1 1h2v2h2l1-1h1v2h-1l-1 1h-1q-1 0-1 1-1 1-3 1h-3l-1-1h-2v-1h-1q-1 0-1-1v-1l2-2q1-2 3-2t3 1z" fill="#973b3d" stroke="#973b3d"/>
  <path d="m531 299h1v2h2l2 1v3h-1v1h-1v1h-1v-1h-2l-1-1q-2-1-1-2l1-2h-1v-1h-3q0-1-1-1v-1q0-1 3 0 2 0 3 1z" fill="#b79e9e" stroke="#b79e9e"/>
  <path d="m462 118q4-1 4 0t-1 1-1 1q-1 2-4 2-2 0-2-2 1-2 4-2z" fill="#834f4f" stroke="#834f4f"/>
  <path d="m428 242h2t1 1h1l2 1q1 0 2 2 0 2 1 3h1v1h-1q-1 0-2 1-1 0-2-2-1-3-3-3t-1 2q0 3 2 4l2 2q-1 1-5 4l-4 2h-1q-1 0 0-1l1-1t0-1 1-6 1-7l1-1h1q0-1 0-1z" fill="#873436" stroke="#873436"/>
  <path d="m860 448h2q2 1 3 1v1h1v2h-1v1h-1v1h-2v-1h-1v-1q-1 0-1 0l-1-1v-1q1-2 1-2z" fill="#87585b" stroke="#87585b"/>
  <path d="m390 671q0-1 2-1 2 1 2 2-1 2-3 1-1 0-1-2z" fill="#885158" stroke="#885158"/>
  <path d="m459 322h1v2q0 1-2 0-1 0-2 1 0 1 1 1t1 1v4l1 1 1 1v1q0 1 4 1 3 0 3 3-1 2-1 3v1l1 2v2h3v1l-1 1q-1 0-1 4 2 5 3 7t2 3v2l1 3q0 3 1 8l1 5 2 6q2 7 3 8v1h-1q0-1-1-1h-3q-1 0-1 1-1 1-2 0t-3-2l-2-2v2q0 1-1 1h-3v3l-1 3q-1 2 0 2t1 1h1v3h-3v1h-1v1h-2l-1-1-1-1h-1v-1h-1q0-1-2-2-1-1-2-2l-1-1q0-1-1-1t-2-1l-2-2v-3l1-3q2-4 4-4 3-2 3-2 1 0 1 0v-1t0-5v-6q0-2 0-3-1-1-2 0 0 1-1-1-1-1-3-1t-3 0h-3q0-1-3-3l-3-2-1-1h-1v2q0 2-1 3-1 2-5 2l-4 1v-1h-1l-1-1v-8h1v-1h1v-1l1-1v-1h1q0 1 2 1h1l3-1q3-1 4-1h1v-1h1v-1h1v-1h1v-2l-1-1v-2q-1-1-2-2l-1-2q0-1-1-1h-1q0 1-1 1t-1-4l1-3q1 0 1 1 0 0 1-4 0-4 1-4t2-2v-1h1v-1h1l2-1 1-1h1v1h1v-1h1l1-1 1-1t1 0v-1h3q3 1 4 1 2 2 3 2zm15 69h1v1q0 1-1 1-2-1-2-1h1l1-1z" fill="#ae0b0b" stroke="#ae0b0b"/>
  <path d="m201 619l3-1h8t0 1h1l1 1q1 0 2 1h1v1h2v2h-2v1h-9q-3-1-4-1h-1t-3-2l-3-1v-1q1 0 1 0v-1h3z" fill="#cb5051" stroke="#cb5051"/>
  <path d="m388 630h2l1 2q0 3-2 3h-2q-1 0-1-1v-2q0-2 2-2z" fill="#8e3d4a" stroke="#8e3d4a"/>
  <path d="m40 499q4 0 4 3t-4 4q-3 0-3-4 1-3 3-3z" fill="#a04748" stroke="#a04748"/>
  <path d="m417 289l-1-4h1q0 1 1 1l1 1 1 1h1v1h1v1h1v1l1 3q1 2 2 2h2l2 3q1 3 1 4h2q2-1 2 0l-1 1q-2 1-1 2 0 1 2 2 3 1 3 2v1q0 1 0 1h1l1 2q0 2 2 4 1 0 1 1h1v1h4l-1 1-1 1h-1v1h-1v-1h-1l-1 1-2 1h-1v1h-1q0-1-2-1h-1t0-3q1-2-4-2h-5v-1t-1 0v-4t1-1q0-1-1-3l-1-1q-1-1-2-1v-1q0-1 1-3 0-1-2-2h-2t0-3l1-2v-1q0-1-1-1t-1-1v-1t-1-4z" fill="#a71d1d" stroke="#a71d1d"/>
  <path d="m387 116v1l-1 1q-1 0 0 1h1q0 1 1 1v2h2q2 0 3 1t3 2q1 0 2 2 0 1 2 2t3 3q0 1 1 1t1 1v2l1 4q1 3 2 3 1 1 1 1h-1t0 1h1q0 1 1 1v2q-1 1 0 2 0 0 0 2-2 1-1 2 0 2-1 2-2 0-2 2v1l-1 1q-1 2-1 4 0 1 0 2v2q-1 0-1 1h-2q-2-1-4 1-2 0-2-2t-1-2-2 2l-1 2h-1t-2 0h-1v-1q-1-1-2-1-1-1-1 0t-2 0q-3 0-8-1l-6-1q0-1-1-1v-1q1-1 1-3t-2-2-2-1q1-2 0-4v-5q0-2-1-4l-1-2v-1q0-2 0-10 2-8 1-8l-1-1q0-1 1-1h1l2-1 1-1 3-1q2-1 2-2h1v1q1 0 1 0v-1l2-4q2-3 6-3 3 0 4 2 2 3 1 4z" fill="#980e0e" stroke="#980e0e"/>
  <path d="m180 282q4 0 4 2t-2 2q-3 0-4-2t2-2z" fill="#833e3f" stroke="#833e3f"/>
  <path d="m218 84l1-4q1 0 1 4v4l1 1v1h4v-2l1-2 1 2q1 2 2 2v1l-1 3q0 4 0 4-1 0-1 1h-3q-3-1-5-3l-2-2v-2q-1-1-1-2v-1h1q0-1 1-5z" fill="#bb3e3c" stroke="#bb3e3c"/>
  <path d="m485 606l1-1 1 1q1 1 2 1h1l1 2q1 2 2 2h1v1q1 1 2 1 0 0 0 4t-2 4q-3 0-6-2-3-4-4-6l-2-3v-1l1-1q1-1 2-2z" fill="#a73130" stroke="#a73130"/>
  <path d="m653 454q2 0 3 2 0 2-3 2t-3-2 3-2z" fill="#c0898a" stroke="#c0898a"/>
  <path d="m131 330l3-1v2t-1 1-3 1l-3 1v-2q1-2 4-2z" fill="#f27d7b" stroke="#f27d7b"/>
  <path d="m518 346l3-1 1 1q2 0 2 1t2 1 2 1 0 2q-1 1 0 1v1q0 1 1 1h1l1 2q1 1 1 2v2q-1 0-4 2-2 2-6 2l-3 1h-1v-1l-1-1-1-1v-10q0-5 2-6z" fill="#a01e1d" stroke="#a01e1d"/>
  <path d="m572 436l4 1q4 1 5 3 0 1-5 1t-5-1v-3q1 0 1-1z" fill="#a34344" stroke="#a34344"/>
  <path d="m132 105h1l-1 4q0 4 2 6 2 3 2 3h1t-3 0h-8q-3 0-3-1h-1v-1q0-2-1-2-1-1-1-2 0 0 0-1l1-1h2l3-2q4-1 4-2t2-1z" fill="#cc5857" stroke="#cc5857"/>
  <path d="m256 546h3t1 1l-1 3q-1 4-1 4t-1 1l-1 1q-1 0-2-1v-7q1 0 1-1t1-1z" fill="#9c2e2a" stroke="#9c2e2a"/>
  <path d="m544 365h1l3 2q2 3 4 3t2-1 1-1h1q2 1 2 2v1h-1v1h-1q-1 0-3 1l-2 1h-5v-1l-1-2q-1-2-2-4t1-2z" fill="#a94647" stroke="#a94647"/>
  <path d="m182 375l3-2 3 2q2 1 2 2h1l1 1q0 2 0 3v2q0 1 4 2 3 1 4 1h4l5 2q5 2 6 2h5v1q-1 1 2 2 2 1 2 2t1 2v1q-1 1-1 2 0 0-1 0v1q-1 0-1 1h-2q-1 0-2 1-2 1-3-1-1-3-5-4h-4t-4-2l-5-2h-1v1h1v1l2 1q3 1 3 2v1h-1l-1 1-2 1q-3 2-3 2h-1v1h-1v1h-1l-1 1h-4v-1l-1-1v-1h-3v-1q-1 0-1 0 0-1 2-1 1 0 2-2v-1q0-1-1-1t-1-3q0-2-2-2-2-1-4 1l-2 1v-1t1 0v-2q-1 0-1 0v-1q0-1-2-3v-2h-1l-1-1v-1h1q1 0 1-2v-3h1l1-1h1v-1h1q0-1 4-2z" fill="#a61717" stroke="#a61717"/>
  <path d="m63 198h1l1 1 1 1h2l2 4q2 4 2 5t0 3v2h-1q-1 0-1 1l-1 1q-1 0-3 1h-1q-1 0-1 1h-1q-1 0-4-2-3 0-4-2l-1-1v-4h-1v-1h1v-8h5l2-1 2-1z" fill="#971d1c" stroke="#971d1c"/>
  <path d="m390 170h1q-1 1-2 2-1 0-1 1v5h1l1 1 2 1h2l1 1h1v1t-2 0q-1 1-1 2t-3 3q-2 1-4 1h-3v-1q0-1-1-1h-2v-2h-1v-6l1-5v-1h3q3-1 4-2h1q2 0 2 0z" fill="#9d2c2e" stroke="#9d2c2e"/>
  <path d="m368 515l3-6v4l-1 4v1q0 2 1 2l2 3q1 3 2 3l1 1q0 1 4 1 3 0 4 1 0 1 0 1h1l2 4q1 5 2 5v1h1q2 0 2-1l1 1q1 0 1 0v3q1 3 2 3 2 1 2 4t1 3l1 1t2 0q2-1 3-2 1 0 1 0t0 1h1v1q1 0 1 1v2l-1 1v2h2v1h1v1h1v1h-1v1h-2l-2-1q-2-1-4 1l-2 1h-1q-1 0-1 5 0 6-1 6t-1-1l-1 1-1 2v2h-2l-2 1h-1v-1q-1 0-1 0-1 0-3 0t-3-1v-2q1-1 1-1 1 0 1-1v-1h-2l-2-1q-2 0-2 1t-3 1l-2 1v-1h-1v-3q0-3 2-3t2-1-2-2-2-2-1-6v-6q-1 0-1 0 0-1-1-1v-1q1-2 0-4v-2q-1-1-1-2 0-2 0-6l-2-5v-6h-2v4q0 1 0 2v1h-1v1h-1v1h-3l1-1v-1h2v-4h-1v-1h-1v-1q0-1 1-3t2-2q1-1 5-6z" fill="#b91313" stroke="#b91313"/>
  <path d="m493 444h2v1h1v5l2-2q1-2 2-2h1v1q-1 1-2 3-1 1-6 1l-4 1-3-1-2-1h-1v-1l1-1 2-1 1-1 3 1q2 1 2 1h1v-1h1v-2h-1q0-1 0-1z" fill="#e48078" stroke="#e48078"/>
  <path d="m716 572h1v2q-1 0-1 2 0 1-3 2h-3t-1-2l-1-1 2-2q1-2 3-2 2 1 3 1z" fill="#9f5050" stroke="#9f5050"/>
  <path d="m532 598t-4 1l-3 1h-7l-2-1q-1-1-4-3t-4-10q-2-7-1-7t1-1q0-2 1-5 2-3 3-3h1v-1h1q2 0 2-1t6-1q7 1 8 1 2 0 2 1t2 2 4 7q2 7 1 11t-2 4-3 2q-1 3-2 3z" fill="#bb1315" stroke="#bb1315"/>
  <path d="m734 84v-1h-1v-1h-1v-3q0-3 2-5t6 0q4 0 4 5t-1 6-5 0q-4 0-4-1z" fill="#842526" stroke="#842526"/>
  <path d="m286 483l2-1 2-1q1 0 0 5 0 4 0 5 2 1 2 0v-1h2q2 0 2 2 0 0-2 1-2 0-2 1v2q0 1 1 2v1h-1q-1 0-2-3 0-2-1-2t-1-1-4-1h-5v-1h1l1-1h1v-1l1-2q1-2 3-4z" fill="#9e2a29" stroke="#9e2a29"/>
  <path d="m268 362l1-3h2l1 1q1 0 1 1h1v2h1v1h1v-1h1v-1h2v1h1v2q1 1 3 3 3 2 3 3t2 1q1 0 2 2 2 2 1 2t1 1q1 0 1-1t1 0q2 0 2 2 1 2 4 2t4 1q0 1 2 2 2 0 2 1v1t-3 1h-2l-1 2q-2 2 1 3t4 4q2 3 3 4v4q-1 3 0 3h2v1q0 1-1 1t-3 0h-1v1h-1v1h-1v1h-1v2l1 1v1h2l1 1q2 1 0 4 0 2-1 2v1q0 1-1 1h-1l2 6q3 7 3 10v3t-1 1h-2q-2 0-3 0-2 0-2-3 0-2-2-2h-1v-1h-3v1h-1v1h-1v2h-6v1l-2 2q-2 2-2 5 0 2-1 2 0 0-1 1h-1l-4 1q-3 2-4 4t-1 4v2h-2v2l-1 4v4h1v3l-1 1-1 2v1l1 1v2h2v2q0 2-1 2t-1-1-1-1h-1v1h-1v5l1 1 1 1v3h1l1-1h3q3 0 3-3 1-2 2-2h1v1h5q4 0 4 1t1 1 1 2q1 2 2 2 0 0 0 1h1l1 1q1 2 3 2h2v1h1v4h-1v1h-1v3h-1l-1-1h-2v1h-1v1h-1l-1 1-1 1h-4q-2 0-4-1-3-1-3-3t-1-2 0-1v-2h1v-1h-2v-1h-1v1h-1v1h-1l-2 3q-2 3-3 3t-2-2-1 1q-2 2-2 2v1h-1v1h-4v1h-1q-1 1-2 1-2 2-6 0l-5-2q-1-1-3-4l-3-3v-3q-1-2-3-3t-2-7q0-5-2-4-1 0-3 0l-2-1v-1q1-2 1-6 0-3-3-6-3-4-7-4t-6-3q-1-3-6-3h-8l-1-1h-1v-6l1-1 1-1v-1h5q3 0 7 0 5 0 6 0 1-2 0-2t0-1q0-1 6 0 7 1 8 1h2v-2h1v-1h1q0-1 0-1h3l3 1h3v2h-1l-1 1h-1q-1 0-2 0h-2v1h-1v1h-1v1h1v1h1l4 1 4 1h9v-2l-1-1v-2h-3q-3 0-3-1v-2t1-2q1-3-2-6l-2-2h1t4-3l4-3h2q1 0 2-3v-3h2v-1h1v-1h2v-1l-1-1v-1h-1v1h-4q-1 0-2 1-1 0-1 1 0 2-1 2l-1-1v-1h-3v-1h-1v-2q0-1-1-1-1-1 0-2l1-2q1 0 2-1 2-1 1-1-1-1-3-4t2-8l3-4 1-2q2-2 4-2 1 0 1 0h1v-1h-1q0-1-1-3t-2-2l-2-1v-1q0-2-1-2 1-1 1-1h1q1 0 1-5l1-4h1t1 0h3t2 0q1-1 1-2 1-2 3-4 2-3 2-4-1 0 0-1 0-1 0-5zm-22 107q2-1 2 3t0 6q-2 2-2 4 0 1-1 0 0-1-2-2-3-1-2-3 1-3 2-4t1-2 2-2z" fill="#b41111" stroke="#b41111"/>
  <path d="m547 435l1-1 4 1q4 1 6 2t2 3v5q0 3-3 5-2 2-2 3l-1 1-1 1q-1 1-1 1h-4q-3 0-6-3l-3-2v-1q-1-1 0-4l1-4v-1l2-2q2-3 3-3h1l1-1z" fill="#ac1719" stroke="#ac1719"/>
  <path d="m821 394q0-2 2-2 3 1 2 3 0 1-2 2-2 0-2-3z" fill="#745054" stroke="#745054"/>
  <path d="m520 242v-1l3 1q3 1 3 2 0 0 1 0v2h2t1 1q0 1 0 1h1l2 2q3 3 2 6-1 4-1 4h-1q-1 0-1-1-1-1-2-3-1-3-2-3t-2 2q0 2-4 3-3 1-3 2v2q-1 1-1 2h-1v1h-1v-1h-2l-1 1-1 1h-2v-4h-1v-1h-1v-4l4-5q3-4 4-5 1 0 1-2t1-3q2 0 2 0z" fill="#971e1f" stroke="#971e1f"/>
  <path d="m578 630h-2v-3q0-3 3-3t3 3-1 3-3 0z" fill="#9e474c" stroke="#9e474c"/>
  <path d="m151 484v2l-1 6q0 7 2 7 1 0 1 3-1 2-1 2t-1 1l-1 1h1v1h1v1h1l1 1 2 1q1 1 1 4v3l-1 1q0 2-1 4l-1 1v2l-1 3q-1 2-2 3h-1v2h-1v1h-1v1l-4 2q-4 1-6 2h-2v-1t-4-2l-3-1v-1q-1 0-1 0-1 0-2-1 0-1-2-5l-2-5v-3q0-2 0-4 0-1 2-6t5-7l4-3h3v-2h-2q-2 0-3-1-1 0-1-1v-4h1l1-1 2-1h1q1 0 1-2 0-1 2-2h2l2-1q2-1 2-2t3-1 4 2z" fill="#b51110" stroke="#b51110"/>
  <path d="m771 398q2 0 2 1 1 2-2 2-2 1-2-1 1-2 2-2z" fill="#865f60" stroke="#865f60"/>
  <path d="m605 487q2-1 2 2-1 3-1 3-2 0-2-2 0-3 1-3z" fill="#a6595e" stroke="#a6595e"/>
  <path d="m406 97q0-3 4-6 4-2 2 3t-4 6q-2 0-2-3z" fill="#853f3f" stroke="#853f3f"/>
  <path d="m417 519h1v1h3v1h1v3h-1v1h1v2l-1 1-1 1-1 1q-1 2-1 2h-1q-1 0-1 0v1q-1-1-2 0-2 0-2-2v-2h-1v-3q0-2 1-2t2-2v-2h3v-1z" fill="#a33432" stroke="#a33432"/>
  <path d="m155 478v-1h2l-1 3q0 2 0 3t5 1 5 1 1 1v1q-1 0-1 0 0 1-6 1-6 1-6 0v-3q0-1 0-1v-5l1-1z" fill="#8f3939" stroke="#8f3939"/>
  <path d="m137 467h1q2 0 2 1 0 2-1 2t-1 2q0 1 2 1l2 1h1v1h1v3h-8v-1q0-1-1-1 0 0-4-1l-4-1v-1l-1-1v-1h-1v-2h1l1 1 5-1q4 0 4-1t1-1z" fill="#933e3b" stroke="#933e3b"/>
  <path d="m234 206h1t1 1v4q-1 5-2 5-2 0-2 3v3h-1v1h1v1h-1q-1 0-1 1t-2 1q-1 1-1 0-1-1-7-1l-6-1v-2h5q1 0 4-4 3-2 3-5v-3l4-2q3-2 4-2z" fill="#932626" stroke="#932626"/>
  <path d="m269 592l2-1h2l1 2q0 1 1 2h1q0 1 1 1h1l-1 4q-1 4-2 4h-2q-1 0-1-2l-1-3v-1h1t-2-1q-1-1-1-3l-1-2h1z" fill="#983934" stroke="#983934"/>
  <path d="m52 137v-1h2q2 1 2 2t1 1h1q0 1 0 1h1t1 1q0 1 0 1h1q1 1 1 2l1 2q1 1 1 2v2h-1q-1 0-1 1-1-1-3-2l-2-2v-1q-1 0-2-2l-2-3v-1q-1-2-1-3z" fill="#9f3638" stroke="#9f3638"/>
  <path d="m165 554q-1 1-1 2v2q-1 2-3 2t-2 2q-1 1-1 1v1h-1v-1h-1v-1q0-2-1-2h-1v1l-1-1q-1-2-1-4l-1-2h1t1 0h4l1 1q0 2 1 2t2-2q1-3 2-3t1 1 1 1z" fill="#b27c7c" stroke="#b27c7c"/>
  <path d="m217 96v-2l2 2q2 2 5 2 2 0 3 0h1v1q0 1-4 2-3 1-4 0l-1-1q-1-1-1-1v-1t-1-2z" fill="#cb7173" stroke="#cb7173"/>
  <path d="m340 571v-2h2q1 1 2 1l1 1h1v2h3q3 1 5 1 2 1 4 5t2 7v3q1 1-1 2-1 0-2 1-1 0-1 0v1l-2 1q-2 1-1 6 1 4 1 6 2 1 2 4v2l1 2v6q1 6 1 6v1q0 1-2 3t-2 3v1l-1 1q-1 1-2 1l-5 1h-6v-1t-1 0-1-1-2-4q-2-3-2-7v-3l-1 1q-1 0-1 1h-5v-1l1-2v-1q0-1 1-1t1-2l-1-1h1q1-1 1-6 1-5-1-8l-1-3h1t0-1v-1t-1-6l-1-6v-2q0-3 1-4t6-3q6-2 5-4z" fill="#cc1010" stroke="#cc1010"/>
  <path d="m283 174h5v2h1q1 1 2 2 1 2 2 2t1 0q0 1 0 2v2h1v4q1 4 1 6v3l-1 1v1l-1 1t-1 2l-1 1v1h-2t2 9 3 10q2 1 3 1t1 0v2h1l1 1 1 1h2q3 0 5-1 2 0 3-2 0-1 1-2 1 0 3-4 1-5 2-5 0 0 0-1h2v-1h1v1h1v1h1l1 1q1 0 0-1 0-2 3-4t5-4 2-7q1-5 2-5t4 1h4l1-1h1l2 1h2t1 0v1h1q2 1 3 4t2 3h1v5t0 1h1q0 1 1 1h1v1h-1v1h2l2 1q2 1 3 2 0 1 1 1t1 2q0 1 1 1h1l1 5q2 6 3 6t1-1h1v1h1v1l1 1q0 2 2 2 2 1 2 2 1 1 1 1v1h-1 3l2 1q3 0 3 1t1 1h1v3q0 2-1 2t-1-1-1-1q-2 1-2 2t4 2q5 1 6-1 0-1 2-2 2 0 2-3-1-2-4-2t-3-1 1-1l1-3q1-3 3-2 3 0 3-1 1-1 1-1v-9h-4q-1 0-4 2l-4 1h-1v-1q-1 0-1 0t0-3q-1-2-2-2-2-1-1-2 1-2-1-3l-2-2v-2q0-3 2-7 2-5 0-5l-3-1q-1 0-1-2v-4h1v-1h-2v-1h1v-1h4q2 0 4-1 3-2 3-3t1-2q2 0 2 0v-1l1-1q1 0 2 0v2h4q1-1 1-2h1v2q-1 1-1 2v1h2q1 0 1 3l1 3v-1l2-2q1-2 5-2t5 0h2v-1h1v1l-1 1v1t0 1h1l2 3q3 2 1 4-1 2-1 4 0 0 1 3 0 2-2 2-1 1-2 1h-1v2h3q2 1 4 3 0 2 0 5v2t-1 2v1h-1v4h1v1h1v1l1 1 1 1v1q2 1 2 2 0 2 2 1t2-1v-1h3v1l-1 1v2h-1v1h-1v1t-3 0l-3-1v4l2-1q1 0 1 1v1h-2q-2 1-2 1h-1t0 1h-1q0-1-1-1t-3 5q-3 4-2 5 1 2-2 2-2 0-2 1l-1 1v6h1l1 1 1 1h1v1l1-1h1q1 0 4-1h2v-2h2v2l-1 1-1 1v2h1v1h1v4q0 4-2 4t-2 2v2h-1q-1-1-1-1v1q-1 0-2-1h-1v1l-1 1v1h-3v1q1 1 1 2v1h-1q-1 0-1-1-1-1-1-1v-2q0-1-3-1-2-1-3-1l-1-2h-2v-2h-1l-1-1h-1v1l-1 1v4h1v1h1v1l1 1 1 1v1t1 0v1l3 4q3 3 4 3 2 0 3-1h1q0 1 0 1h1v1h1v2l-1 2q0 3 0 3-1 1-1 2h-2t-1 3-2 3-1 2v1l1 1-1 1q-2 0-2-1 0-2-2-2-1 0-1 1l-1 1v1h-1v1h-1v1h-1v1h-1v1l-1 1v1l3-1q4 0 4 0h3l-1 1h-1v2h-1l-1 1h-3q-2 1-2 2-1 2-2 2-2 0-2 4t-2 3-3 2-1 4 0 2v1h-1v1h-3q-4 0-4-3 0-2-8-3-7-1-8 0 0 1-3 1-2 0-4 3l-1 3-1 1v1h-2v-2q-1-2-1-4-1-2-6-2-6 0-8 0-3-2-8 0-4 0-7 3-3 2-9 3-6 2-8 2t-3 3-4 4q-2 1-5-1l-2-1v-1t-1 0h-1q-1 0-2 0t0-2q0-3-2-2h-3v-4h1q1 0 1-3-1-3-3-5-2-1-1-4 1-2 2-2 2-1 1-3 0-2-2-2-1 0 1-3 1-2 1-4 0-1-2-1-1 1-1-1v-2h1v-1l1-1 1-1v-3h-1v-1h-1v-1h-1v1h-1v1h-1v1h-1v1t1 1v1t1 1v2h-1l-1-1-1-2q-1-1-2-2-2 0-2-1l-1-1v1h-1v1h-1v1l-1-1-1-1v3q-2 4-2 6v2h-1v-1q-1 0-1 1 0 2-1 2t-1-2-1 0-6 2q-6 0-9 1t-4 3q0 1 1 1 1 1 1 4v5h-1v1h-1v1h-2v-1h-1v-1h-1v-1h-1v-1h-1v-2q0-1-1-4l-1-3v-1q0-1-1-2l-1-1v-1t1-2q1-1-3-2-3-2-4-5 0-3-1-3t-1-6q0-7-1-7-2 0-2-2-1-2-3-3l-2-2v-1t1-1v-3q-1-1-1-1 0-1-1-1v-1h2q2 0 3 0h1q-1 0-1 0t0-2 1-2 1-4q0-3 3-4 2 0 5-1 2-1 5-2 3-2 3-3 0-2 1-6 1-5 1-4 1 2 2 0l2-1h2q2-1 8-1 5 0 6 1 0 1 2 1h1v-2l1-1v-2h-1v-1h-1v-3q0-3 1-3 1-1-3-9-2-8-7-10t-8-7-3-9-2-5h-2v-1h-1v-1l1-2v-1l2 1q2 0 2-1 1-1 1-2h1l-1-1q0-2 1-2t3 0h3v-1q1-1 2-2t3-1h2v-1l1-1v-1l1-1v-1h1v1h4v-1h1v-1l3-1q4-1 4-2t2-2q3-1 5-1zm104 37q0-1 1-1 2 0 2 1-1 1-2 1t-1-1zm14 61q1 0 1 0 0 1-1 1-1 1-1 0t1-1zm-114 15l1 2q0 2 1 3h5q2 0 3 2t0 3q-1 0-1 1t-1 1q-1 1-2 1h-2q-1 0-1-1-1-1-1-1h-1q-2 0-2-1-1-1-3 0t-3-1v-3h-1v-1h4q1 0 1-2l1-2h-1t0-1h1l1-3q0-2 2-2 2 1 2 2 0 2-1 2-1 1-2 1zm101 13q1-2 3 0 2 0 3 0 2 0 4 0t-1 3-5 2-2-3q0-1-1-1t-1-1zm-107 6q1-1 1 0t-1 0q-1 0 0 0z" fill="#a50606" stroke="#a50606"/>
  <path d="m596 213l2 1q2 0 3 1 0 1 1 1t2 2 4 4q2 2 4 3l1 1h1v1l1 1 1 1v2q0 1-1 2t-3 1q-3 0-5-1-3-1-5-7-3-5-4-5l-2-1h-1t-1-1v-3q0-2 1-2t1-1z" fill="#982929" stroke="#982929"/>
  <path d="m547 656v-3h4v5h-2q-2 0-2-2z" fill="#886060" stroke="#886060"/>
  <path d="m154 363h1l1 2q0 1 4 3 5 2 5 3t1 2 2 1v1h-2q-1 1-1 1-1 0-1 0t-4 1q-4 0-4-1-1-2-6 0h-5v-1h1v-2h-1v-1h-1v-5q1-1 1-1l3-1q4-1 6-2z" fill="#9f1e1c" stroke="#9f1e1c"/>
  <path d="m732 90q3 0 4 0 0 1 0 5t-3 4q-4 1-5-3 0-4 0-5 1-1 4-1z" fill="#812e2c" stroke="#812e2c"/>
  <path d="m238 380l1-2-1 2q0 2 1 2 1 1 0 2t0 1q0 1 1 1h1q1 0 1 0v2l1 2q1 2 3 4 3 0 2 2-1 0 0 1 2 1 2 3v2h-1q-1 0-2-1t-1 1q0 3-2 3l-1-1h-1l-1-1q-1-1-1-1-1 0-2-3v-2q0-1-1-1t-2-2-1-4q-1-2-2 0 0 1-1 1l-1 1h-1v-2l1-2v-2h1v-1h1v-1q0-1 2-2 2 0 4-2z" fill="#a42220" stroke="#a42220"/>
  <path d="m480 109q1-1 2 0 2 1 2 3 0 4-2 4-3 0-5-1-1-2 0-4 1-1 3-2z" fill="#833738" stroke="#833738"/>
  <path d="m574 16v-4h19q-1 1-1 5v4t-1 1v1h-1q0 1-3 1h-4t-4-2-5-6z" fill="#961e1f" stroke="#961e1f"/>
  <path d="m515 610v4t0 1h-1v1h-1l-1 1-1 1h-9q-1 0-2-1v-2q0-1-2-5l-2-3v-1t-1 0v-1q0-1 5-2 4-1 9 1t5 2q0 1 1 4z" fill="#af1e1d" stroke="#af1e1d"/>
  <path d="m280 628q2-2 3-1 1 0 1 1 0 2-2 2-3 0-2-2z" fill="#d1a3a2" stroke="#d1a3a2"/>
  <path d="m495 578v1h-4l-2-1-1-3q0-3 0-4 1-1 4 0 4 1 4 4t-1 3z" fill="#a13435" stroke="#a13435"/>
  <path d="m194 542l-1-1 2 1q1 2 3 5t2 4v1q0 2 0 2v-1q0-1-4-2-3-1-3 1-1 1-2 1h-2v-1h1v-1h1v-1h-1t0-1l-1-1h1l1-1q1-1 3-1h1v-1q-1-1-1-3z" fill="#d16d72" stroke="#d16d72"/>
  <path d="m214 416v-3h4q1 0 1 2l-1 2v3h-3v-1h-1v-1t0-2z" fill="#ed9992" stroke="#ed9992"/>
  <path d="m8 496v-3h6q5 1 6 1h2l2 1 1 1h1v3h-1v1h-6q-6 0-9-1l-2-1v-2z" fill="#b03436" stroke="#b03436"/>
  <path d="m404 325l3-1 1-1h2v2q-1 1-1 1h-1t0 1h-1v1h-1l-2 1-2 1h-1v1h1v1l1 1 1 1 1 1q1 1 2 3 1 3 4 4 3 2 3 2t1 1h1v5l2 2q3 2 4 2v2q-1 3-4 3-2 0-2 2 1 2-2 4-4 2-4 3t1 1l1 1h-2v1h-1v-1q-1 0-1 0v-2q0-1-3-2-3 0-5 0 0 0-2 0h-1l-1-1-1-1h-1v-3h1q0 1 1 1 2 0 2-4l1-3h-1l-1-1h-1v-1h1v-1h1-2q-1 0-4 0l-2 1v2h-2v-2h1v-1h1v-1l1-1q1-2 0-4v-2h1v-1q0-1 0-2t1-4 3-2 2-3 1-4 1-1 4-2z" fill="#ab1010" stroke="#ab1010"/>
  <path d="m454 382v1q-1 1-1 1t-3 2q-2 0-4 4l-1 3v-3q1-2-1-4l-1-1 2-1q3 0 3-4t1-4 1 2 2 3 2 1z" fill="#dd6f73" stroke="#dd6f73"/>
  <path d="m235 616h4t1 3q0 2-4 2-5-1-6-1l-2-1v-1h1l1-1q1-1 5-1z" fill="#ec696a" stroke="#ec696a"/>
  <path d="m381 217v-3h1t1 1h1v3q0 4 1 4 0 0 1 1h2l1 2q1 2 1 1v-2h1q1 0 1 1v2q0 2-3 2t-2 3 0 3l-1 1h-1v1h-1t-1-1q0-1-2-2-2 0-2-2l-1-1v-1h-1v-2h-1v-3l2-1q2 0 2-2v-2l1-3z" fill="#9d3f3c" stroke="#9d3f3c"/>
  <path d="m245 379l3-2 2 4q1 5 1 5h1v5t-1-2l-1-2q-1-1-1-1h-1q-2 0-4 1l-1 1q-1-1-1-1v-1t-1 0q1-1 1-1 0-1 0-2 0-2 3-4z" fill="#953131" stroke="#953131"/>
  <path d="m182 264h2t1 1l1 1v2q0 2-1 2v1h-1q0-1-2-1-1-2-1-3-1-2 1-3z" fill="#773c3c" stroke="#773c3c"/>
  <path d="m254 332q0-2 2-2t2 2q0 1-2 2-2 0-2-2z" fill="#df7976" stroke="#df7976"/>
  <path d="m15 286l1 2v1h1v1h1v2h-1v1h-1v1h-1q-1 0-1-1 0 0-3-1l-3-2v-4h1l3-1q3 0 3 1z" fill="#ad4e54" stroke="#ad4e54"/>
  <path d="m93 282v-2h3v2q0 2 1 2 0 0 1 1h1v1q-1 0-1 0v1h-1q-1-1-2-1-1-1-2-4z" fill="#db9291" stroke="#db9291"/>
  <path d="m368 197v1h-1v1h-1v1q0 2 1 2v1l-1 2q0 2-1 3v1h-4v-3q-1-2-1-4-1-3 1-4l2-1 2-1q2 0 2 0 1 0 1 1z" fill="#9d4641" stroke="#9d4641"/>
  <path d="m360 51q2 0 3 3 0 3-2 3-2-1-3-2 0-1 0-3 0-1 2-1z" fill="#804a4d" stroke="#804a4d"/>
  <path d="m214 224l6 1q6 0 7 1 0 1 1 0 2 0 2-1t1-1h2v1h1v1l2-1q1-1 6 0 6 1 7 3 1 3 2 4l1 2v6q-1 3-2 4 0 0-1 1 0 1 0 1h-1v2q0 1 0 2v1l-2 2q-2 2-2 5-2 3-4 6-3 2-6 3t-5 1q-3 1-3 4 0 4-1 4t-1 2 0 2 1 0h-1q-1 0-3 0h-8q-4 0-4-1-1 0-3 0t-2-1-1-1-1 1-2 1q-1 0-1-3 1-2 0-3t-3 0h-2v-1q0-2-1-2 0 0-1-1t0-2q2-1-2-3l-5-2v-2h1q1 0 1-2v-2q1 0 1-1v-3q0-1-1-2v-1q-1-1-1-1v-2t-1 0 2 0 3-3q1-4 2-4 1-1 1-3v-2l1-1q1-1 3 0 1 0 2-3 1-2 3-3 3-1 4-3t2-2 2 1q0 1 2 1t2 0z" fill="#a20a0b" stroke="#a20a0b"/>
  <path d="m796 534v-1l1-4q1-3 3-4t4 1 1 4-3 3-3 3q0 1-1 0-2 0-2-2z" fill="#9b3d3e" stroke="#9b3d3e"/>
  <path d="m682 105h1q0 1 0 1h1l1 1 1 1 6 2q6 3 8 5 2 3 2 3h1t1 1l1 2q1 2 1 3 2 2 2 5t0 4q1 1 2 1l3 4q3 4 3 9t0 6v1l1 1 1 1v6q0 6-1 8-1 1-6 8l-5 7q-1 1-1 1-1 0-7 3-7 3-9 9-1 6-3 8-2 1-5 2l-3 2h-2q-1 0-5 2-4 0-5-1-2-1-8-3l-6-1v-1t-2 0q-2-1-2-2 0-2-8-3t-10 1l-2 2v1h-1v1h-1v1h-1v1h-4v-2l1-1v-1h1l3-2q2-2 2-4v-2h-1v-1h-1v-1h-2v-1h-1v-1h-1l-4-1h-4v3q0 2 0 6-2 3-6 5-5 1-8 3l-2 2q0-1-1-1v-1q-1 0-1 0 0-1-4-4l-4-4v-1q0-1-1-2l-2-1v-5h1v-1l2-1q1-1 4-1h4v-4l-1-1q-1-1-1-2t-1-1-1-2q-1-1-2-1t-2-4v-4l2-5q2-4 5-7t3-4v-1t1 0v-1q0-1 2-9 3-8 3-16v-8l4-4q3-4 5-4 1-1 2-3 1-3 3-3 3-2 9-2h6q1 0 1 0v-1h14q14 1 24 2 9 1 10 2z" fill="#a10405" stroke="#a10405"/>
  <path d="m74 594l5 1q0 1 1 1h1q1 1 1 3-1 3-2 3 0 0-2 1l-1 1h-3q-3 0-6 1-3 0-3-1v-2l1-1q0-1 1-1 1-1 2-4 1-2 5-2z" fill="#b23939" stroke="#b23939"/>
  <path d="m363 552l-1 2q-2 2-4 2h-1v-1q-1-1-1-1v-2q0-2 3-3 3 0 3 1 0 2 1 2z" fill="#923c3e" stroke="#923c3e"/>
  <path d="m123 566q3 0 3 2-1 2-4 2t-3-2q1-2 4-2z" fill="#a6544e" stroke="#a6544e"/>
  <path d="m508 636t-1 1-5 1h-5v-1h-1v-1l-1-1-1-1v-6l2-2q2-2 6-2 3 0 4 0t2 2q2 2 1 6-1 3-1 4z" fill="#b12121" stroke="#b12121"/>
  <path d="m388 345h3v1q1 2 0 4l-1 1v1l-1 1v1h-1t0 1h-5l-1 3q-2 4-1 6 1 1 3 3t3 3q1 2 2 1 1 0 1-2t1-2 1 1q1 2 2 2t2-1l6 1q6 2 6 1v-1t1 0v1h1v-1h2l3 1q3 1 3 2h1q0 1 1 1l2 2q1 3 5 3 5 0 5 2 1 1 2 2h1l1 1q2 0 2 1t1 1l-1 3q0 3-4 4t-2 3q0 1 0 5t4 2q3-3 8-2 4 0 5-1v-1h1q1 0 2 2 0 3 2 3 1 0 1 1h1v1h1l1 1 1 1h2v-1h1v-1h4v4h-4v3h1v1h1v1h-1v1h-1t0 1q-1 1-1 1v2q-1 1-4 1-3-1-7-1-5 0-9 2l-4 2h-2q-1-1-2-2-1 0-5-1-4 0-4 1t-3 0q-2-2-7-2h-6q-1 0-4-3l-3-2h-1q0-1-3-4l-3-4v-1q0-1-1-3 0-2-3-3h-4l-1-1-1-1h-2v1h-5v2h3l1 3q1 2 2 3l1 1v1l-1 2v2h-2v-1l-1-1v-1h-1v-2q-1 0-1 0 0-1-1-2-1 0-1-2v-2h-4v2q0 1-1 1-1-1-3 1-2 0-4 3-1 3-4 3-2 0-4 3t-4 1q-3-2-4 1t-2 3q-2 0-3 2l-1 2v2-1h-1v-1h-1l-1-1h-1v-1q0-2-2-2l-1 1v-1q1-1 2-2 1 0 1-2v-3h-2v2q0 2-3 0-3-1-5-1h-1q-1-1-1-2l-1-1v-1q1 0-1-1 0-1 0-3l2-1v-1h-1v-1h-1v-1h-1v-1h-1v3q-1 2-2 3l-1 1h-2v-1h-1v1h-2v-3q0-2 1-3 0-1-3-2h-2v-1t1-1q0-2-1-2t-1-2 3-4l3-2v-1h-1v-5h-1v-1h-1v1h-1l-1 2q-1 0-2 1v-1q0-1-2-1-2-1-2-2-1-1-4-1t-4-2q0-2-2-2-1-1-1 0t-1 1q-2-1-1-1t-1-2q-1-2-2-2-2 0-2-1t-3-3q-2-2-3-3v-2h-1v-2l1-1v-3l1-1 1-1v-1h5l4 1q4 0 4-1v-2h1q1 0 1 1t3 2q4 1 5-1 1-1 2-3 1-3 3-3t8-2q6-1 9-3 3-3 7-3 5-2 8 0 2 0 8 0 5 0 6 2 0 2 1 4v2h2v-1l1-1 1-3q2-3 4-3 3 0 3-1 1-1 8 0 8 1 8 3 0 3 4 3zm-18 57t1 0-1 0zm57 8q-3 0-5-4-3-4 1-2 4 0 5 0 2 0 2 2 0 3-3 4z" fill="#af0607" stroke="#af0607"/>
  <path d="m253 230h1l1-1h1l1 4q1 4 1 7 2 3 2 3v1h1l1 1h2v2h1v1h3t0 1-2 1q-3 0-8 0-6 0-8 1h-2v-1q0-1 0-2v-2h1t0-1q1-1 1-1 1-1 2-4v-5q0-3 0-4v-1h1z" fill="#9c2f2e" stroke="#9c2f2e"/>
  <path d="m12 310h4v1h1v1h-1v2h-1l-2 2q-2 0-3 1h-2v-5q1 0 2-1 0-1 2-1z" fill="#9e4445" stroke="#9e4445"/>
  <path d="m434 343l1-2h1q1 0 2 2 0 2 1 3v1h-1q0-1-1 1t-4 1-2-3l1-1t2-2z" fill="#993b38" stroke="#993b38"/>
  <path d="m117 340l1 1q0 1 1 1t1 1-1 1h-1q-1 0-2 1h-1q0-1-1-1-2 0-3 2-1 1-1 0v-2h-1t-2-1l-2-1q-1-1-1-1v-3t1 0v-1h3q4-1 5 0t2 3q0 1 1 1 1-1 1-1z" fill="#a53030" stroke="#a53030"/>
  <path d="m348 122h2q3 0 4 3 1 4-4 3-4-1-3-4 1-2 1-2z" fill="#843c3c" stroke="#843c3c"/>
  <path d="m210 601l2 1q2 1 1 3 0 2-1 2h-2q-1-1-2-1v-2q0-2 1-2h1t0-1z" fill="#8e4446" stroke="#8e4446"/>
  <path d="m18 274h4l1 1q1 1 2 2v1h-8q-1-1-2-2-1 0-1-1t4-1z" fill="#c58a90" stroke="#c58a90"/>
  <path d="m688 404h-4v-4q0-4 4-4 3 0 3 4t-3 4z" fill="#933a37" stroke="#933a37"/>
  <path d="m176 292h2v3l-2 4q-2 3-3 4l-1 1h-2q-2 0-4-2l-2-2t-1-2v-3q1-1 1-3 1-1 2-1h5q4 1 5 1z" fill="#972425" stroke="#972425"/>
  <path d="m312 550h1t1 1v1h3q3 1 3 2v2t-1 0v1h-1q0-1-6-1t-8-2l-1-2 1-1q2-1 4-1 3 0 4 0z" fill="#a5403e" stroke="#a5403e"/>
  <path d="m312 542h1l2 1q2 1 2 1h1v1h1v1h1l-1 1-1 1h-6t-1-3q-1-2 1-3z" fill="#a54c4d" stroke="#a54c4d"/>
  <path d="m568 240h8q6 0 7 0h1v1q1 1 0 1-2-1-2 0 0 2 1 3v1q-1 1-2 2-1 0-3 1-3 1-6-2-2-3-4-3h-2q0-1-1-1l-1-1q0-2 2-2 1 0 2 0z" fill="#972827" stroke="#972827"/>
  <path d="m465 534v1h-1q-1 1-1 1h-2v-1q-1 0-1-1-2-2-1-4v-1l3-1q2 0 3 2 1 3 0 4z" fill="#9a383d" stroke="#9a383d"/>
  <path d="m421 346h2v-1h1v1q0 2 1 4v3h-1q-2 1-2 1-1 0-4-2l-2-2 2-2q1-2 3-2z" fill="#a43f3c" stroke="#a43f3c"/>
  <path d="m150 711q2 0 2 3t-3 3q-3-1-3-3 0-3 4-3z" fill="#9a4545" stroke="#9a4545"/>
  <path d="m425 322l2 1q2 1 5 1h4q2 0 2 1v1q-1 2-2 2t-1 4q-1 4-1 4 0-1-1-1l-1-1q0-1-2-1t-2 4 1 5 0 1h-1q-1-1-4 0t-5-2q-1-2-3-3-1-1 0 3v4h-1q-1-1-1-1t-3-2q-3-1-4-4-1-2-2-3l-1-1-1-1-1-1v-1h-1v-1h1l2-1 2-1h1v-1h1v-2h1v-1h2v1l-1 1v1t-1 1h-1t0 1v3h4v-1l1-3q1-2 3-2h1t1 1h1q1 0 1-1t-2-1q-1 0-1-1v-1h1q1 1 2 1h4v-1t1-1z" fill="#a41b1b" stroke="#a41b1b"/>
  <path d="m466 278h8q8 1 8 6 0 4-1 4 0 0 0 1h-1q-2 0-3 3-1 2-2 4t1 2q2-1 2 0 0 2-2 3t-2 1q-1 0-6-1l-6-1q0-1-1-1v-4q1 0 2-3l1-2v1q1 1 3 1t2-2l1-2v-1h1v-1h1l1-1h1v-2h-1l-1-1h-10v1h-1v-1h-1v-2t1 0v-1h1q2-1 4-1z" fill="#952728" stroke="#952728"/>
  <path d="m68 518h4v1h1v1h1v10h-1l-1 1q-1 1-4-1l-3-1v-1q-1 0-1-2l-1-3v-3h1q1 0 4-2z" fill="#a12c2c" stroke="#a12c2c"/>
  <path d="m96 282v-2h3l2 2q1 2 1 2t-2 1h-2q-1-1-1-1-1 0-1-2z" fill="#ba5356" stroke="#ba5356"/>
  <path d="m447 15v1h1v2h3q2 0 4 0 2-2 7 0 4 0 5-1t3-1h2v1q0 1 4 3 4 3 6 6 2 2 2 3 0 0 0 3v6q0 2-1 2l-1 1q-1 1-1 12 1 11-3 17t-6 8q-3 2-9 2t-9-1l-4-1-1-1h-1q0-1-4-5-5-6-6-9-2-3-5-6l-3-3h-1v-1h-1v-6h1v-1h2l1-1h2l3 1q3 0 3-2 1-2 2-2h3v-1h1v-5h-5v-1h-1v-3h3q2 0 5 0h2v-3l-1-2q-1-2-2-7l-2-4 1-1q0-1 0 0 0 0 1 0z" fill="#930b0d" stroke="#930b0d"/>
  <path d="m96 473v-3h1q1 0 1 2 0 1 3 2 3 0 3 2t0 2l-1 1h-2l-1-1h-1q-1 0-2-1t-1-4z" fill="#9d524f" stroke="#9d524f"/>
  <path d="m357 620v-5 2h1l2 1h1l1 1q0 1 0 1h1l-3 2q-2 2-2 3v1t-1-6z" fill="#b63f41" stroke="#b63f41"/>
  <path d="m252 558l2-3q1 1 2 1h2q3 1 4 2 0 2 1 4v3q1 2 1 1t2 0q2 0 2 2t1 2v2q0 3-5 3-4 1-6 6t-3 4-1 1v1l-1 1-1 2v-1h-1v-1h-3v-2h-1q-1-1-1-2l-2-2v-1t-1-1l-1-2q1 0 2-2 0-1 1-1 1-1 3-7 1-7 2-7 1-1 2-3z" fill="#b41d1e" stroke="#b41d1e"/>
  <path d="m172 220h1l5-1q5 0 6 3 2 2 2 5 0 2 0 3v1t-1 1v1h-5l-4-1t-2-1-2-6l-1-5h1z" fill="#921e20" stroke="#921e20"/>
  <path d="m172 472l-1-4h2q1 0 2 0 0 0 1 1v1l1 1 1 1v1h1v1h1v1l1 1 1 1v1l1-1q1-1 3-2l3-1 2 4q1 5 2 8 1 2 1 4 2 1 4-4t3-5h1q0 1 0 1h1l4-1q4-1 7 1 4 1 5 4 1 2 3 2h3v1h1v1l-2 3q-1 3-3 5-2 0-3 0h-1v1h-1v1h-1v1h-1v3l1 1 1 1 1 1 1 1 5 2q5 2 5 4 0 1 1 2v4l-3 2q-3 2-2 5 0 3 0 4h1l1 1q2 0 3 4 1 3 1 3v3q0 2 2 4 3 2 4 2 0 0 0 1h1q0 1 1 1v2h1l-1 4q0 4 1 6t1 6q0 5 1 5t1 1-1 1-1 1q1 2 2 2l1 2q1 1 1 1v1l2 2q0 1 1 2h-1q-1 0 0 1 0 1 0 2h-1l-2 1q-3 0-3 2 0 1 0 2 0 0 1 2v3q0 1 1 1v1q0 1 1 3v1l-1 3q-1 2-2 3-1 0-1 1v4h-4q-4 0-5 1l-1 1h-1v1h-6l-1-1-1-1v-2l1-1q1-1 1-2t1-6q1-6 0-12l-1-5v-1t-1 0q-1-1-1-1v-1t-1 0q-1-1-1-2l-1-1v-3q-1-2-1-6l-1-3-4 1q-4 0-5 2-2 3-2 4h-2v1h-2v1h-2v-4h1v-1q1 0 1-1t-2-3-4-7l-2-4v-1q0-1 1-2t4-2l3-1t0-2v-1q0-1-2-4l-3-4v-1q-1 0-1 0 0-1-1-1v-1q-1 0-3-2-2-3-6-4l-4-2h-1v-1h-1v-2l1-1h1v-2q0-1 1-2l1-1h1q1-1 3-1h1v-2l-1-1v-3l-1-1-1-1t-1 0-5-2l-5-1h-2v-2h1q1-1 2-3l2-3v-5h-1v1h-1l-2 1q-3 2-4 2h-1v-4l1-2v-1h-1v-1h-1v-3h3l3 1q3 2 4 2h1v-1q-1-1-1-1 0-1 0-3l1-1v-1h1v-1h2v-2q0-1-1-2-1 0-2-4-2-3-3-3t-2-3zm58 100q0-3 2-2t2 6q2 4 0 4t-2-2q-2-3-2-6z" fill="#bd0f0e" stroke="#bd0f0e"/>
  <path d="m356 64q2-2 5 0t3 3q0 2-2 3-3 0-4-2t-2-2q-2 0 0-2z" fill="#86474a" stroke="#86474a"/>
  <path d="m505 217l2-1 2 2q3 2 3 6 1 3 0 3l-2 1h-3t-1-1h-1v-1q-1-1-1-4 0-4 1-5z" fill="#893133" stroke="#893133"/>
  <path d="m487 535v2l2 1q1 1 2 2v2q-1 1-1 2v2h-1q-1 0-3 1h-3v-1q1 0 0-2-1-1 0-4l1-3 1-1q1-1 2-1z" fill="#a84140" stroke="#a84140"/>
  <path d="m178 432h1t1 1v2q0 2-1 3-1 0 0 0v1l-3 3q-2 4-3 4v1h-1l-4 1q-3 0-3 1-1 1-1 1v-5t0-1q0-2-1-3t-1-2v-2h1q1-1 1-2v-4h7q7 1 7 1z" fill="#b92322" stroke="#b92322"/>
  <path d="m504 209v2q-1 1-2 1-2 1-2 2t-2 2l-2 1v-3l1-3q1-3 4-4 3 0 3 2z" fill="#83383a" stroke="#83383a"/>
  <path d="m476 308h4q4 0 7 0 4 0 4 1 1 1 1 1v2t-1 0v1h-1q0 1-6 1h-8t0-1-1-2v-3h1z" fill="#8b3330" stroke="#8b3330"/>
  <path d="m198 402l2-1v1q0 2 2 2 1 0 2 1h1v4l-1 2q-2 3-4 3h-2t-2-1l-3-1h-1v-1l-1-1-1-2v-1h1l1-1h1v-1h1v-1h1t3-2z" fill="#a72424" stroke="#a72424"/>
  <path d="m406 526v2q-1 2-2 2-2 0-2 3v3h1v1h1v1h-1q-1 0-3 0h-3l-1 1q-1 1-2 2v-1t-1 0l-1-1v-1q0-1 0-4 0-2-3-3-2-1-3-1h-2t0-1v-1t2-4v-4h2l1-1q1 0 1-2 1-1 8-1 6 0 7 2t1 4q0 3 0 4z" fill="#b01b19" stroke="#b01b19"/>
  <path d="m477 578h-8v-1h-1q0-1-4-2t-6-4q-2-2-4-4l-3-1-1-1-2-1v-2q0-2 4-4 3-2 10 5 6 6 7 8 1 1 4 3 3 1 4 2 1 2 0 2z" fill="#a12b27" stroke="#a12b27"/>
  <path d="m578 427h1q0 1 1 1v4h-2q-3 0-4-2l-1-2 1-1q0-1 2-1 1 0 2 1z" fill="#9d393f" stroke="#9d393f"/>
  <path d="m50 550l3-1h1q1 1 2 1h1v2l-1 1v1q-1 0-4 1h-4v-3q0-2 2-2z" fill="#a55056" stroke="#a55056"/>
  <path d="m284 518v1t-1 1q-1 2-2 3t-3 0l-3-1t-1-1l-2-1t1 0v-1l2-1q2-2 5-1 4 1 4 1z" fill="#923d3d" stroke="#923d3d"/>
  <path d="m449 275v1q0 2 4 2 3 0 4 0v1q0 1 1 1v2q0 1-2 2l-2 1h-2q-3 1-4 1 0 0-1-1-1 0-1 2t-3 3l-2 2q-1-1-1-1v-1q0-1-1-2h-1v-1q0-1-2-1h-3v-1h-1v-1l-1-1v-3l1-2v-1h1v-1h5l2 1q2 1 2 0l2-2q2-1 4-1 1 0 1 1z" fill="#9c2122" stroke="#9c2122"/>
  <path d="m212 716v-6h2q1 0 2 3 0 3 0 5 0 3-1 5 0 2-1 2h-2v-3q0-1 0-6z" fill="#904f4b" stroke="#904f4b"/>
  <path d="m525 488h-4v1h-1v1l1 2q1 3 1 3v1h-1v1h-1v1h-2q-1 0-2-1v-1q0-1-1-1v-1q-1 0-3-1l-2-1 1-1q1-1 7-3 7 0 7 0z" fill="#d26b6a" stroke="#d26b6a"/>
  <path d="m327 156l2-3 4 1q4 0 5 1 0 1 0 5v4h-1v1h-1q0 1-3 1t-4 0q-1-1-1 1l-1 2h-2v-2l1-2v-3q0-2 1-6z" fill="#8d2022" stroke="#8d2022"/>
  <path d="m1010 298q3 0 3 3t-3 3q-2 0-2-2 0-3 2-4z" fill="#814549" stroke="#814549"/>
  <path d="m162 395l2-1q1 0 2 1 0 1 0 2 0 2-2 3-2 0-3-2t1-3z" fill="#8d484e" stroke="#8d484e"/>
  <path d="m112 588t0 1h1v1h1v1l-1 1-1 1v1h1v2q-1 1-2 1-1 1-1-3-1-2-5-3l-4-1h-1v-1h-1v-2q0-1 6-2 5 0 6 1 1 2 1 2z" fill="#aa4f4e" stroke="#aa4f4e"/>
  <path d="m48 261l3-1h1l1 1 1 1h2q1 0 1 1 1 1 1 1v1q0 1 0 1-1 0-5 0l-4-1v-1q-1 0-2-1t1-2z" fill="#8b3f40" stroke="#8b3f40"/>
  <path d="m1013 274q1-2 3-2 3 0 2 2 0 2-3 2t-2-2z" fill="#7b4852" stroke="#7b4852"/>
  <path d="m170 702q1-2 4-2 2 0 2 2 0 3-2 4-2 0-3-1t-1-3z" fill="#9f4043" stroke="#9f4043"/>
  <path d="m545 282q-1-6 1-6 3 0 4 2 0 1 0 5 0 5-2 4-2 0-3-5z" fill="#a03d3c" stroke="#a03d3c"/>
  <path d="m500 438v-1l4 2q4 1 6 1 3-2 4-1l-2 3q-1 2 0 3 2 0 4 8t2 9v1h1l1 1h4l2-1h1l1 1q1 0 2 1v1q1 0 2 1l2 1h8q6 0 9-3 3-2 3-3v-1l2-3q1-4 8-5 6-2 7-5v-3h1q1 1 6 1h4l1 2q1 1 1 2l-2 1q-2 1-3 0-1 0-1 3 0 2 1 5v3l1 6q0 6 1 7l1 1t0 1h1q0 1 1 1v1q0 1 1 4v7q-1 0-1 2v1l-2 3q-2 2-3 3l-1 1v1h-1v1h-3v1h-1v-1h-3v-1q0-1-3-5-2-3-7-1l-4 2h-2v1h-4v-1h-1v-3q1-4 3-4t3-1l1-1v-6h-2l-2-1h-2l-1 1h-1q-1 0-3 0t-3 3v3l-1 1-1 1h-6v1h-2q-1 1-1 1-1 0-3-2l-3-2t-7 0q-6 2-7 3l-1 1h-2q-2 0-4 1l-2 1h-1v1h-1v1l-1 1q0 1 2 1 1-1 2 2v2h-2q-1 1-2 4-1 4-6 9t-6 6v1h-1q-1 0-6-1-6-1-7 1l-1 1v-1q0-1-2-1-1 0-1-1t-1-1h-1v-1q-1 0-1-2-2-1 0-4 1-3-1-2h-2v-1q1-1 2-3l1-1v-1t-1 0q1-1 1-2 0 0 0-1 1-1 0-1l-1-1 4-3q4-4 4-4v-1q1-1 2-5 1-3 0-3t-1-1v-3q0-2 1-3l1-2t1 0v-1l3 1q4 0 5 0 1-1 1-4 0-4 1-4h4v-7h-15v-1h-1v-2l-1-1v-1h1l1-1 1-1h1v-1h-1v-1h-3v-1h2q3 0 3 1l1 2 2-1 1-1h1l2 1 3 1 4-1q5 0 5-1v-1t1-1q1 0 1 0v-1t1-1v-1q1-1 1-2t-1-3q-2-1-1-2z" fill="#bd0c0d" stroke="#bd0c0d"/>
  <path d="m275 617l2-3h3q1 0 0 5t-2 5q-2 0-2 1-1 1-2 2h-1v-2q-1-1-1-1v-2q0-3 3-5z" fill="#a22e2f" stroke="#a22e2f"/>
  <path d="m487 237h3q1-1 4-1h2t0 1h1q0 1 1 1 0 0 0 1 0 0 0 3-1 3-5 4-4 0-3 4v3q0 1 0 1h1l3 2q2 1 1 3-1 3-1 3h-1q-1 0-8 1-7 0-7-1 0-2-3-2-4 0-5-5-2-4-4-5h-2l-2-1h-2v-1h2v-1h2l2-1h1v1h1v1h1l3 1q3 1 4 1h4l2 1h1v-1l-1-2t0-1v-2q0-2-1-4l-1-2v-1q1-2 4-2 2 0 3 1z" fill="#9d1717" stroke="#9d1717"/>
  <path d="m121 389l4-1 1 1 1 1h1v1h1v1h1v6q0 5-1 6h-2q-2 0-5 0h-2l-1-1q-1 0-2-3l-1-4h-1v-1q1-1 1-3 2-2 5-3z" fill="#9f2122" stroke="#9f2122"/>
  <path d="m325 411l1 1q0 1 1 2v2q-1 1-1 3v2h3v3l3-1q2-1 3-1 0 0 0-1h1q0-1 0-1 1 0 1-1 1 0 1 2v2h1l1 1h1v1h1v2h-3q-3 0-2 2 0 2-2 3-3 2-3 2v1l-1 1q-1 2-5 2-4-1-5 1t-2 2-1 1 1 2v3h-1v-1h-2v-3l-1 1-1 1v-1h-1v-1h-1v2h-2v-1h-1q1-1 1-1v-3q0-3-3-10l-2-6h1q1 0 1-1h1q2-1 3-1t2-1h3q1-1 1-1h1v-3h1q0-1 1-2v-1q1 0 1-1v-1h1q1 0 1 2 1 1 1-1 1-1 1-2z" fill="#b51919" stroke="#b51919"/>
  <path d="m445 86v-1l5 1q4 1 6 3 0 2 0 5v6h-1v1h-1v1h-1v1h-1v-1h-5l-1-1q-1-1-2-1t-3-4l-2-4q1 0 1 0v-1t1-1l2-2q1-2 2-2z" fill="#8a2224" stroke="#8a2224"/>
  <path d="m229 664h3l2 1q2 2 2 4v2t-1 1l-1 1q-2 1-4 1h-4v-1l-1-1q-1-1-1-2v-3q0-1 1-1 1-1 4-2z" fill="#af3033" stroke="#af3033"/>
  <path d="m488 529v5h-1v1q-1 0-2 1l-1 1v-1t-1 0-5-2l-5-1q0-1-1 0h-2q0-1 0-1t1-4l2-3h4q4 1 7 2 2 1 3 1 0 0 1 1z" fill="#a72b2b" stroke="#a72b2b"/>
  <path d="m1010 282q1 0 3 2 1 2 1 4t-2 2q-2 1-2 0t-2-2-1-4q1-2 3-2z" fill="#874649" stroke="#874649"/>
  <path d="m522 309h1v1q0 1 2 2 1 0 0 3t-3 4q-2 2-3 2v1h1l1 6q1 6 1 7 2 1 2 3v2q-1 0-1 1h-1q0 1 0 1h-1q-1-1-1 0h-1q-1 0-1 2-1 1-4 1-2 1-4 2-3 1-6 0l-4-1q0-1-4-3-3-2-3-1-1 2-3 4l-2 2v2q0 1 0 2v1h-2v-2h-1v-1h-1v-2h-3v1h-1v-1h-2l-1-1-1-1v-7h1v-1h4q2 0 2 0h1t2-1h1v-1l1-1v-3l-1 1-1 1v1h-1v1h-3v-1h-1v-1h-1v-3l1-1v-1h-1l-1 1h-1v1l-1 1-1 1-2 3q-2 4-3 7v3h-4v-2l-1-2v-1q0-1 1-3 0-3-3-3-4 0-4-1v-1l-1-1-1-1v-3h1t1 1q0 1 2 1t2-5l-1-5h2v-1h1v-1h4q2 0 2 2 1 1 4 0 3 0 4-1l4 1q4 0 8-3 2-3 2-4-1-1-1-2 1 0 1-1h1v-1h1l1 1 5 2q5 2 7 3 3 1 3-1t2-4q3-2 6-2 2 0 2 1z" fill="#a61413" stroke="#a61413"/>
  <path d="m234 401l1 3q1 2 2 2l1 3q0 3 0 5v3h-2v2h1l1-1 1 2q1 2 2 1 1 0 3-1 1 0 2 0l-1 2q-1 1 0 2 1 0 1 1v1h-4q-4-1-4 0t2 3q2 1 3 2h1l-1 3q-1 2-4 3h-3v-1t-1 0q-1-1-1 0-1 0-4 1h-6q-2-1-3-1t-1-3q0-2-4-3-3 0-5 0t-5-1l-4-1h-1v-1h-1v-1l-1-4v-3h1v-2h2l1-1h1v-1l1-1 1-1v-1h2q1 0 3 1h3v3q0 2 0 2v1h1v1h3v-3l1-2q0-2-1-2h-2v-1t0-1 2-1q3-1 3-3t1-2h1v1l1 1q0 1 1-1t3-2q2-1 2-2 1-2 2-2t2 1z" fill="#b01919" stroke="#b01919"/>
  <path d="m412 137h1v1h1v2q0 1-2 2t-2 2v2q-1 0-1-1-1 0-2-5l-2-4h3q4 0 4 1z" fill="#954344" stroke="#954344"/>
  <path d="m276 309v-1h2q1 0 2 2 0 1 1 2l1 2h1q1 0 1-1l-1-1h1q1 0 1 1v3q0 2 1 1 2 0 2 1 0 2 0 4-2 1 0 4 1 3-1 4-1 0-2 2-1 3 1 4 2 2 3 5 0 3-1 3h-1v4h-1v-1q0-1-1-2 0-1-2-1h-3v2h2l-2 2q-2 1-2 2v2h2q1-1 1 0 1 2 1 2v1l-1 1-1 1v3l-1 1v1h-2v1h-1v1h-1v-1h-1v-2h-1q0-1-1-1l-1-1v-1q1 0-3 0l-3-1h-2v-1q1 0 0-1 0-1-3-3l-3-2h-1l-2 2q-2 1-2 2v6l-1-1v-1h-3v-1h-1v-1h-1v-3h-1v-1q-1 0-2-4l-1-3q1-1 1-1 1-1 3-4 2-2 1-2h-1v-1h1v-1h1v-5q0-3-1-4-1 0-1-1 1-2 4-3t9-1q5 0 6-2t1 0 1 2 1-2q0-1 1-1v1h1v-2q0-2 2-6v-3l1 1 1 1v-1h1v-1h1zm-22 23q0-2 2-2t2 2q0 1-2 2-2 0-2-2z" fill="#af1616" stroke="#af1616" vector-effect="non-scaling-stroke"/>
  <path d="m320 596l4-1q0 1 0 1h2t0 1h1v2q0 2-5 2l-4-1-1 1h-1v-1q0-1-1-2 0-2 5-2z" fill="#a73835" stroke="#a73835"/>
  <path d="m567 182h2t1 1h1v1q1 0 1 0v1l-1 3q-1 4-1 5v3q0 1 0 2v1h1v1q1 0 1 0v1h-4v2h-2q0-1-1-2t-4-2-4-2q-1-2-1-5l1-3h2q2 0 3-3 1-2 2-3t3-1z" fill="#a22626" stroke="#a22626"/>
  <path d="m97 456h3q2 1 2 2v2h-2q-2 0-3 0l-1-1v-1q0-1 1-2z" fill="#965253" stroke="#965253"/>
  <path d="m576 323l-3 3h-1q-2-1 0-3 1-3 4-3 2 0 0 3z" fill="#a14c51" stroke="#a14c51"/>
  <path d="m576 396v3q0 3-2 3h-3v-2q-1-1-4-4l-4-3-1-1t4 0q3 0 6 2 2 0 3 1 1 0 1 1z" fill="#bc7674" stroke="#bc7674"/>
  <path d="m587 56q2 0 2 2-1 2-3 2-2 1-2-1t3-3z" fill="#7b5353" stroke="#7b5353"/>
  <path d="m130 439l2-1h2q3 1 3 2t1 1 1 1q1 1 1 1 0 1 1 1h1v3q0 2-1 2h-4q-3 1-5 1h-2v-1h-1v-1h-1v-7q1-1 2-2z" fill="#a4221f" stroke="#a4221f"/>
  <path d="m75 136l-2-1h8l1 1q2 2 2 2t0 1h1q0 1 1 1v2q0 1 2 1 3 0 3 2-1 2-1 3 0 0-1 0v1h-3q-2 0-2 1 0 2-1 2h-1v-1q0-1-2-2-1-1-5-1h-4l1-1 1-1h1t2-1q1 0 1-3 0-4-2-6z" fill="#ce5f60" stroke="#ce5f60"/>
  <path d="m108 97h1q0 1 1 1h1t1 1l1 5q1 5 0 6-1 2-1 2h-1v1h-1v1h-1v1h-1v1t-1 0-5 1l-4 1-1-1-1-1h-1v-1h-1v-1h-1v-1h-1v-8l1-1 1-1v-1l1-1 1-1v-1h1v-1h2q2-2 5-2t4 1z" fill="#911615" stroke="#911615"/>
  <path d="m117 542l2-2v2q1 1 1 1v2q-1 1-2 1h-1q-1 0-1-2 0-1 1-2z" fill="#8f5252" stroke="#8f5252"/>
  <path d="m637 266l-3-1-2-3q-4-3-4-5t4-1q3 2 5 4 1 2 2 4 0 2-2 2z" fill="#c27977" stroke="#c27977"/>
  <path d="m454 372v1l1 5q0 6-1 6h-1v-2q-1-1-2-2-1 0-1-2t-1-2-1 4-3 4l-2 1h-1v-1h-2q-1 0-1 1v1q-1 0-1-1t-2-1l-1-1h2q2-1 3-1 0-1 0-6t2-7l1-2h2q1 0 5 0 2 0 4 1 0 2 0 4z" fill="#ac1a1a" stroke="#ac1a1a"/>
  <path d="m320 613l3-2q0 1 1 1l2 1q1 1 2 2h1l1 1q0 2-1 2t-1 1v1l-1 2v1h4l-1 1q-2 1-2 2v2h1q1 0 1 1v1l-2 2q-2 1-2 4 0 2 1 3l1 1v2q1 2 2 3l1 2q1 2 1 4v2l-2 5q-1 6-2 8-2 2-1 7t-1 6q-1 1-2 1h-4q-2 0-2-1h-1v-1h-1t0-5-3-7-7-1q-3 1-4 1v1h-5v-1h-1v-4q0-3 3-3t3-1v-2h1v-1h1v-3h-1l-1-1-1-1h-5v1l-1 1h-3q-3 0-3 2-1 3-1 4v1h-1v1h-10q-3 0-4-2t-3-2l-1 1h-1q-1 1-6 1-4 2-9 2l-5 1h-1q-1-1-1-1h-1q1-1 1-2t-1-1q-1-1-2-3-1-3-6-4l-4-2q-1-1-1-1 0-1 0-3l1-3q1 0 0-2 0-2 1-2 1-1 2-2 0-1 1-1l1-1 1-1v-1h-2v-1l-1-2h-8q-5 0-6-2h-2l-2-1h-1v-1h2v-2h-2v-1h5v-2h6l2 1q1 0 6 1 4 0 4-2-1-3-1-3v-2h2v1h1v1l2 3q2 3 8 4 6 0 6 0l2 2q2 1 2 1t1 2l1 2v1h1v1h1l2 1q1 0 2-2l2-2h2l1 1h1v1l1 2 1 2v1h2q1 0 6 1t10-2q4-2 5-6t5-6q3-1 4-3l1-2h1q1 0 1-1h1q0-1 0-1h2q2 0 4-3z" fill="#cd0e0f" stroke="#cd0e0f"/>
  <path d="m403 538h3v1l1 1 1 2v1l1 1 1 2v2t-1 0l-1 1v-1q0-1-3 0l-3 2q0-1 0-4t-3-6l-2-2h3q2 0 3 0z" fill="#a83433" stroke="#a83433"/>
  <path d="m275 614l2-2h1q0 1 1 2h-2l-2 3q-3 2-3 4t1 3v2h-1v-1l-1-4q-1-4-1-7t2-1 3 1z" fill="#daa4a2" stroke="#daa4a2"/>
  <path d="m304 536h1v2q0 3-3 3-2 0-2 1-1 2-4 2h-4q-1 0-2-1-1 0-1-3v-4l-1-1q-1-1 2-1 4 0 5 2t5 1q3-1 4-1z" fill="#b14140" stroke="#b14140"/>
  <path d="m475 224v-1h2q0 1 1 1t1 1q-1 1-2 2-2 1-3-1v-2t1 0z" fill="#c89898" stroke="#c89898"/>
  <path d="m281 152h3v5h-1v1h-3q0-1-1-1v-2l1-2v-1h1z" fill="#824543" stroke="#824543"/>
  <path d="m447 227q-1 0-1 1t-5 2l-4 1h-1v1t-2 1-2-1q0-1-2-2v-1l-1-1-1-1v-1h-1v-1h-1v-4h2v-3l2-2q3-2 7-1t6 2q1 2 2 5 0 2 2 2 1 1 1 2-1 0-1 1z" fill="#a02a29" stroke="#a02a29"/>
  <path d="m283 466v1h-2q-2-1-3-1 0-1-1-1l1-3q1-2 4-2 2 0 2 3t-1 3z" fill="#942c2d" stroke="#942c2d"/>
  <path d="m396 367v-2h1q1 0 1 1 1 0 2 0t4 0q4 1 4 2v3q0 1-6-1l-6-1t0-2z" fill="#cb2f30" stroke="#cb2f30"/>
  <path d="m406 563l2 1h2v-1h1l3 1q2 2 2 5t-2 3q-1 1-1 2t1 1 1 1q1 2 0 4-1 1-1 2 0 0-1 0v1h-1q-1-1-2-1-2-1-2-4 0-2-3-4t-4-6l-1-3 2-1q2-2 4-1z" fill="#af1f1f" stroke="#af1f1f"/>
  <path d="m647 270v-3h2q2 1 3 1 0 0 0 1h1v3q0 1-3 0-3 0-3-2z" fill="#c19291" stroke="#c19291"/>
  <path d="m556 204q2-1 2 2-1 2-4 4-4 2-4 1t2-4 4-3z" fill="#7d4541" stroke="#7d4541"/>
  <path d="m445 177q0-1 1-1 2 0 2 3t-3 5-1-2 1-5z" fill="#afa1a6" stroke="#afa1a6"/>
  <path d="m59 397q1-1 4 1 3 0 3 4 0 3-4 3t-4-4q0-3 1-4z" fill="#922d29" stroke="#922d29"/>
  <path d="m552 246h5v2l-1 1v1h-1l1 1 1 1q1 0-2 2l-2 1v-1q1-1 1-2 0 0-3 0l-2-1 1-1q2-2 2-3t0-1z" fill="#cc958f" stroke="#cc958f"/>
  <path d="m996 420q4 0 4 7 0 6-3 7-2 2-3 3-2 2-3 3-2 0-2-1-1-1 1-5t2-8q-1-5 0-5 1-1 4-1z" fill="#993132" stroke="#993132"/>
  <path d="m217 205q2-1 3-1 0 1 1 2 1 0 2 4 0 4-3 3t-4-4q0-2 1-4z" fill="#8b3336" stroke="#8b3336"/>
  <path d="m319 511l1-2 1 1q1 1 1 2v1l-1 1q-1 2-1 4 1 2 1 4t-1 2h-2t-1-1v-1q1 0 0-1v-1t-1-1q-2 0-2-1t2-3q2-1 3-4z" fill="#964243" stroke="#964243"/>
  <path d="m156 269l1-1h3q3 0 4 1v2h3l3 1h2l-3 1q-3 1-4 1t-1 1v1h-1q-1 0-5 1-3 0-3-3v-4q0-1 1-1z" fill="#8d3431" stroke="#8d3431"/>
  <path d="m218 638v-1l4 1q3 0 4 1 0 1 0 1h1l-1 2q0 1-1 2v1h-1q-2-1-4 0l-1 1h-1q-1 0-1-1t1-1 0-2q0-2 0-4z" fill="#e15353" stroke="#e15353"/>
  <path d="m457 655q0-3 1-2 2 0 2 1 0 2-1 3t-2 1q-1-1 0-3z" fill="#894f56" stroke="#894f56"/>
  <path d="m112 613v1l-2 1q-2 1-4 1-3 0-3-2 1-2 3-4 3-2 6 0 3 0 2 1-2 1-2 2z" fill="#ab5050" stroke="#ab5050"/>
  <path d="m254 603l3-1h2l1 1h1v3q-1 3-1 4-2 1 0 8t2 8-2-1l-2-2v-1q0-1-3-6l-2-5v-1l-1-1v-4q0-1 2-2z" fill="#a33031" stroke="#a33031"/>
  <path d="m67 354l1-1v1q0 1 1 2 0 0-1 1v2q0 2 0 5t-2 6q-2 4-5 6t-6 2-7 0q-5-2-8-4-4-2-5-9-1-6 2-12t5-7q2 0 8-1 5-1 10 1t6 5q0 3 1 3z" fill="#ac0f10" stroke="#ac0f10"/>
  <path d="m240 528h1v2q0 3 2 4 1 2 1 4 0 3-4 6t-3 4v1h-1q-1 0-1-1-1-1-3-2-2-2-2-4v-3t1-3q1-2 4-3t3-3q1-2 2-2z" fill="#b52323" stroke="#b52323"/>
  <path d="m133 219h2l1 1h1t1 1q0 1 0 1h1l-1 2q0 1-1 2h-1l-1 1h-6v-1h-1v-4t1-1l1-1h1q1 0 2-1z" fill="#8c3330" stroke="#8c3330"/>
  <path d="m114 314h1t1 1h2q0 1 0 1h4q2 0 2 0l1 1 1 1v2h4t2 1h2v2h-1v1h-1v1h1v1h1v1h1v1h-1v1l-3 1q-3 0-4 2v1h-1v1l-1 1-1 1v1h-1l-1-1h-6t0-4q0-3-3-4h-2q-1-1-1-1v-1t-1 0q-1-1-1-2l-2-2v-2h1v-1h1v-2h1q1 0 1-1v-1l2 1q1 0 1-1t1-1z" fill="#af1313" stroke="#af1313"/>
  <path d="m562 264v-1l5 1q5 2 5 3v6l-1 1v1h-1l-2-1t-4-2l-3-3v-1q-1 0 0-2v-2q1 0 1 0z" fill="#c95a58" stroke="#c95a58"/>
  <path d="m501 282h1q2 0 1 2-1 3 1 5 2 3 4 3 3 0 3 2v1l1 1q2 0 2 1v1h1t1 1v1q0 2-10-1-9-3-13-3l-4-1v-2h-2l-2-1-1-1v-1h1l3-1q2 0 2-1v-1l2 1q2 0 3 0 1 1 1 0h2v-1l1-1q1-2 1-2v-1t1-1z" fill="#992b2c" stroke="#992b2c"/>
  <path d="m476 422q0-1-1-2l-1-1v-1t-5 0-6 0h-2v-1q1-1 1-2l2-1h-1v-1h-1v-3h4v-4h-1q-1-1-1-2 0 0 1 0v-1h3q3 1 7 8 3 7 3 9-1 2-1 2-1 0-1 0z" fill="#bd3f3e" stroke="#bd3f3e"/>
  <path d="m174 695q0-3 2-2 2 0 2 2-1 3-3 2-2 0-1-2z" fill="#954c53" stroke="#954c53"/>
  <path d="m482 247q0 1 0 1l1 2v1h-1l-2-1h-3l-1-2q0-1 2-1 3-1 4 0z" fill="#e8655f" stroke="#e8655f"/>
  <path d="m411 651h-1q-1-1-2-2l-1-2 2-1q2 0 3 2 0 2 0 2t-1 1z" fill="#8a6262" stroke="#8a6262"/>
  <path d="m421 636q-2 0-2 1t-2 0 0-3q2-4 4-3 1 1 2 3 0 1-2 2z" fill="#95585b" stroke="#95585b"/>
  <path d="m553 256l2 2q1 1 2 7t1 6q0 1 0 1h1v1q-1 1-2 1h-3v-2q0-1-1-2h-1t-1-2-2-2q-1-1-1-2v-1h1v1l2-2q3-1 2-4-1-2 0-2z" fill="#ce8281" stroke="#ce8281"/>
  <path d="m118 187v-1h3l1 1 1 1h1v5l-1 1q-1 2-2 2-1 1-1 2 0 0 1 1v1h-1q-1 0-4-2h-2v-1h-1v-2h1v-2q0-2 2-4l2-2z" fill="#993c3b" stroke="#993c3b"/>
  <path d="m166 375h2v1h2l1 1 1 1h2v6l-1 1v1h-3q-3 0-4-3l-1-3v-1q1-1 1-1 0-1 0-2h-1t1-1z" fill="#a33433" stroke="#a33433"/>
  <path d="m249 402h2l-3 4q-4 5-2 8t3 4q1 0-1 1-1 1-2 1t-2 0q-2 1-3 1-1 1-2-1l-1-2-1 1h-1v-2h2v-3q0-2 0-5l-1-3q1 0 1 0v1h1v1h1q1 0 2-2v-2h1l1 1q2 0 2-3 0-2 1-1t2 1z" fill="#d03c38" stroke="#d03c38"/>
  <path d="m216 736h2v7h-1v1h-5v-1l-1-2v-2h1q0-1 1-2t3-1z" fill="#a74044" stroke="#a74044"/>
  <path d="m470 241h1v1h-1v2h1v1h1v3h-4v-1h-1v-1h-1l-2 1h-1v-1q-1 0 0-2v-1h1v-1q0-1 1 0 0 1 1 2 2 0 2-1 1-1 2-2z" fill="#e8a5a3" stroke="#e8a5a3"/>
  <path d="m215 174l2-2h3l1 2q1 1 1 4t0 4v2h2v2l-1 1-1 1q-1 0-2 0-2 0-3-1-1-2-1-3l-1-2q-1-1-1-1v-1q0-2 0-3t1-3z" fill="#8e2c2b" stroke="#8e2c2b"/>
 </g>
</svg>
