<?xml version="1.0" encoding="UTF-8"?>
<svg viewBox="0 0 640 480" xmlns="http://www.w3.org/2000/svg">
 <g fill="#7f0000">
  <path d="m365.14 415.63c-3.3918-3.5403-3.4775-7.4958-0.23254-10.741 3.8614-3.8614 8.6361-2.926 11.382 2.2297 1.6968 3.1859 1.4332 5.703-0.90924 8.6809-2.7847 3.5402-6.7489 3.4744-10.24-0.16986z"/>
  <path d="m345.77 411.31c-4.1106-1.1574-7.3129-5.2704-7.3129-9.3926 0-2.3633-0.68213-3.6971-2.5-4.8882-1.375-0.90094-2.5-2.3327-2.5-3.1817 0-2.1404 4.9343-8.4102 6.6187-8.4102 2.5795 0 1.3963-1.747-1.5875-2.3438-1.6328-0.32654-3.931-1.556-5.1071-2.7321-1.8868-1.8868-2.3124-1.9644-3.6166-0.66028-1.3042 1.3042-2.0085 1.2768-5.9848-0.23257-2.4786-0.94086-4.8858-2.3241-5.3492-3.0739-2.0003-3.2366 1.7922-11.114 5.9927-12.447 1.2759-0.40494 1.5962-1.5992 1.4126-5.2672-0.39871-7.9658-0.93552-9.7731-5.0149-16.884-2.1643-3.7727-4.7673-9.1094-5.7844-11.859-1.0171-2.75-5.9007-14.675-10.852-26.5-4.9517-11.825-11.673-28.25-14.936-36.5-3.2632-8.25-7.1788-17.7-8.7014-21-1.5225-3.3-4.4278-10.578-6.4562-16.174-2.2381-6.1738-4.8442-11.411-6.6288-13.322-3.4335-3.6755-5.0136-9.7518-2.8864-11.099 2.1115-1.3373 3.292-1.1038 6.984 1.3815 6.1903 4.1671 7.2091 10.527 1.9535 12.195-1.854 0.58844-1.7812 1.0079 1.5287 8.8177 1.9114 4.51 3.5953 8.9435 3.7421 9.8524 0.14679 0.90888 0.71326 2.2589 1.2588 3 1.1265 1.5303 3.5019 6.8216 12.95 28.848 8.4748 19.756 24.011 53.001 27.807 59.5 1.606 2.75 3.4688 6.575 4.1396 8.5 0.67081 1.925 1.6994 3.5 2.2857 3.5 1.7648 0 2.7578 1.5575 1.4918 2.3399-0.862 0.53274-0.49994 2.2054 1.3345 6.1648 1.5229 3.2871 2.8029 4.9718 3.2399 4.2646 0.46146-0.74667 1.7963 0.43076 3.6945 3.2588 2.8379 4.2281 5.6417 5.6243 6.972 3.4718 0.97266-1.5738 5.2219-1.167 5.886 0.56338 0.32996 0.85986 0.97284 1.3329 1.4286 1.0512 1.2191-0.75345 4.3623 3.2902 3.563 4.5836-0.46848 0.75803-1.0272 0.6377-1.7802-0.38333-1.061-1.4388-4.8394-3.8148-6.0664-3.8148-0.33029 0 0.93704 1.35 2.8163 3 1.8792 1.65 3.968 3 4.6418 3 0.67374 0 0.97821 0.64304 0.6766 1.429-1.4467 3.7699-1.7524 8.5405-0.67612 10.551 1.5732 2.9397 0.49542 3.7685-1.9834 1.5252-1.9674-1.7805-2.0061-1.7553-2.0061 1.3043 0 2.8819-2.8614 5.9954-4.2415 4.6153-0.27747-0.27747-0.73489 0.37668-1.0165 1.4536-0.45047 1.7227-0.11505 1.8937 2.7896 1.4224 3.5215-0.57147 4.4768-0.047577 10.154 5.5692 1.8738 1.8537 3.6558 3.1213 3.9601 2.817 0.83911-0.83911-1.5501-7.3629-3.1971-8.7298-1.682-1.3959-1.9059-2.9576-0.4241-2.9576 0.56363 0 1.4165 1.0125 1.8954 2.25 0.47882 1.2375 2.5272 3.7046 4.5519 5.4826 4.0536 3.5594 4.3799 6.5717 0.76773 7.087-1.2319 0.17575-2.2398-0.16174-2.2398-0.75 0-1.7626-1.8215-1.2073-2.4408 0.74402-0.94662 2.9825-6.8777 8.8199-9.5592 9.4082-1.375 0.30164-3.9342 0.14459-5.6871-0.34894z"/>
  <path d="m330.46 409.93c-0.9932-1.1967-0.9932-1.8033 0-3 1.6316-1.9659 3.6293-1.9085 4.4103 0.12677 0.61191 1.5946-0.9195 4.3732-2.4103 4.3732-0.41531 0-1.3153-0.67499-2-1.5z"/>
  <path d="m369.96 400.43c0.33994-0.54999 1.0415-1 1.559-1 0.51755 0 0.94098 0.45001 0.94098 1 0 0.55002-0.70154 1-1.559 1-0.85745 0-1.2809-0.44998-0.94098-1z"/>
  <path d="m355.96 385.43c-0.3399-0.54999-0.14148-1 0.44098-1s1.059 0.45001 1.059 1c0 0.55002-0.19842 1-0.44098 1-0.24252 0-0.71909-0.44998-1.059-1z"/>
  <path d="m318.46 356.43c0-0.54999 0.45001-1 1-1 0.55002 0 1 0.45001 1 1 0 0.55002-0.44998 1-1 1-0.54999 0-1-0.44998-1-1z"/>
  <path d="m336.71 352.77c-1.7152-0.69214-1.5688-2.8282 0.3002-4.3794 1.2777-1.0604 1.829-1.0077 3.1368 0.29999 2.7878 2.7879 0.39648 5.6262-3.437 4.0794z"/>
  <path d="m321.46 349.43c0-0.54999 0.42346-1 0.94098-1 0.51755 0 1.2191 0.45001 1.559 1 0.33994 0.55002-0.083527 1-0.94098 1s-1.559-0.44998-1.559-1z"/>
  <path d="m299.63 346.7c-2.5315-2.8421-2.1902-5.7366 1.0021-8.499 1.8163-1.5717 2.2678-1.5923 4.9131-0.2243 2.1447 1.1091 2.909 2.2249 2.8977 4.2307-0.01889 3.3571-0.76953 4.4518-4.0331 5.8814-2.217 0.97122-2.8386 0.79065-4.7798-1.3888z"/>
  <path d="m318.43 346.9c-1.7365-2.0924-0.28836-3.211 1.649-1.2736 0.93518 0.93518 1.174 1.8182 0.58951 2.1794-0.54047 0.33404-1.5478-0.073608-2.2385-0.90582z"/>
  <path d="m283.03 340.86c-0.86429-0.86429-1.5714-1.9572-1.5714-2.4286 0-0.91269 2.8073-4 3.6372-4 1.5065 0 4.3628 2.2677 4.3628 3.4638 0 1.5348-2.6466 4.5362-4 4.5362-0.47144 0-1.5643-0.70712-2.4286-1.5714z"/>
  <path d="m331.02 339.73c-0.54269-1.4252-0.42783-1.5401 0.55978-0.55981 0.68344 0.67834 0.99069 1.4852 0.6828 1.7931-0.30789 0.30789-0.86706-0.2471-1.2426-1.2333z"/>
  <path d="m346.67 338.28c0.51953-1.5586 2.6634-1.8126 3.0318-0.35922 0.13751 0.54248-0.58932 1.148-1.6152 1.3455-1.2146 0.23392-1.7087-0.11011-1.4167-0.9863z"/>
  <path d="m306.04 335.57c-0.43076-0.69699-0.51315-1.5373-0.18308-1.8674 0.89496-0.89496 1.8708 0.4213 1.3874 1.8715-0.33872 1.0161-0.57428 1.0154-1.2043-0.004059z"/>
  <path d="m339.57 335.07c-0.85852-1.0344-0.79746-1.6473 0.25082-2.5172 1.863-1.5461 4.6391-0.35434 4.6391 1.9916 0 2.2372-3.1853 2.5796-4.8899 0.5257z"/>
  <path d="m328.54 324.59c-1.1658-2.1782 0.33185-4.1532 3.1494-4.1532 2.3474 0 3.3555 2.5879 1.7581 4.5127-1.6762 2.0198-3.714 1.8705-4.9074-0.35953z"/>
  <path d="m292.8 323.89c-0.32568-0.84872-0.32245-1.8128 0.007202-2.1425 0.71222-0.71225 3.6477 1.5476 3.6477 2.808 0 1.5091-3.0323 0.95691-3.6549-0.66556z"/>
  <path d="m339.96 323.79c-1.8219-1.8219-1.3338-5.8686 0.99481-8.2486 1.1589-1.1845 1.6711-0.88592 3.4304 2 2.5712 4.2176 2.5985 5.5422 0.14136 6.8572-2.5113 1.344-2.6298 1.3282-4.5666-0.60858z"/>
  <path d="m359.46 314.51c0-1.4311 0.64224-2.0733 2.0733-2.0733 2.5626 0 2.2719 3.3098-0.33481 3.8119-1.2 0.23108-1.7385-0.30743-1.7385-1.7385z"/>
  <path d="m310.8 298.89c-0.32568-0.84872-0.32684-1.8085-0.002533-2.1328 0.32428-0.32431-0.52011-1.4626-1.8765-2.5294-2.5711-2.0224-3.2546-5.1894-1.3711-6.3534 0.62109-0.38388-0.60199-1.4365-2.8262-2.4323-3.6529-1.6354-5.6767-4.4723-6.427-9.009-0.39548-2.391 2.754-7.4456 5.5824-8.9594 1.9049-1.0195 3.5638-1.143 6.2395-0.46463 7.5878 1.9238 10.425 11.37 4.8545 16.162-2.5526 2.1957-2.6897 2.5864-1.2 3.4201 2.0264 1.134 2.2115 5.2682 0.31519 7.0397-1.1528 1.0768-1.1274 1.4517 0.16248 2.3948 1.8371 1.3433 0.93622 4.4074-1.2958 4.4074-0.8595 0-1.8292-0.6944-2.1549-1.5431z"/>
  <path d="m355.71 259.71c-2.1074-0.75598-1.4899-4.2817 0.75-4.2817 1.3131 0 2 0.66669 2 1.941 0 2.2047-0.9278 2.9944-2.75 2.3408z"/>
  <path d="m302.67 257.25c-1.8762-1.8762-1.4395-2.9838 1.0375-2.632 1.2375 0.17575 2.25 0.95706 2.25 1.7362 0 1.9039-1.7913 2.392-3.2875 0.89581z"/>
  <path d="m346.05 256.81c-0.3736-0.97357-0.1029-2.072 0.62415-2.5328 1.877-1.1896 3.2839-0.45126 3.2839 1.7234 0 2.4408-3.0404 3.0705-3.908 0.80942z"/>
  <path d="m267.46 255.43c0-0.54999 0.67502-1 1.5-1 0.82501 0 1.5 0.45001 1.5 1 0 0.55002-0.67499 1-1.5 1-0.82498 0-1.5-0.44998-1.5-1z"/>
  <path d="m318.87 255.06c-0.83554-2.1774-0.25073-2.7622 1.6114-1.6114 1.1436 0.70679 1.199 1.1677 0.25382 2.1128-0.94513 0.94516-1.352 0.83575-1.8652-0.50146z"/>
  <path d="m336.46 253.85c0-1.7659 2.1528-1.4584 2.7708 0.39581 0.21771 0.65314-0.31665 1.1875-1.1875 1.1875s-1.5833-0.71249-1.5833-1.5833z"/>
  <path d="m340.46 254.43c0-0.54999 0.19846-1 0.44098-1 0.24255 0 0.71912 0.45001 1.059 1 0.33994 0.55002 0.14148 1-0.44098 1s-1.059-0.44998-1.059-1z"/>
  <path d="m259.18 251.66c-1.9579-1.2136-2.955-2.8294-3.3778-5.4734-0.35518-2.2212-1.1596-3.7515-1.9721-3.7515-0.7547 0-1.3722-0.44998-1.3722-1 0-0.926 1.7061-1.3817 4.75-1.2686 1.4854 0.055145 1.6862-3.3438 0.25-4.2314-0.55002-0.3399-1-1.068-1-1.618 0-0.55002 0.54596-0.66257 1.2133-0.25015 0.66736 0.41242 2.8048 0.89554 4.75 1.0736 4.744 0.43424 7.5865 2.011 8.9263 4.9515 1.8576 4.0769 1.2947 7.3127-1.8126 10.42-3.3142 3.3142-6.3222 3.6476-10.355 1.1479z"/>
  <path d="m328.46 250.93c0-0.82498 0.67502-1.5 1.5-1.5 0.82501 0 1.5 0.67502 1.5 1.5 0 0.82501-0.67499 1.5-1.5 1.5-0.82498 0-1.5-0.67499-1.5-1.5z"/>
  <path d="m246.46 249.93c0-0.91666 0.5625-1.4792 1.25-1.25 1.4157 0.47189 1.26 2.08-0.25 2.5833-0.55 0.18335-1-0.41666-1-1.3333z"/>
  <path d="m290.85 247.91c-1.5496-2.365-1.5413-2.6512 0.13193-4.5 3.1397-3.4693 7.4768-1.9087 7.4768 2.6904 0 2.1117-2.5189 4.3352-4.9112 4.3352-0.57349 0-1.7874-1.1365-2.6975-2.5256z"/>
  <path d="m318.98 248.81c-2.3004-2.3004-1.4887-4.8225 1.6698-5.1885 1.8552-0.21503 3 0.29877 3.7379 1.6776 2.2783 4.257-1.9296 6.9891-5.4077 3.511z"/>
  <path d="m246.81 238.92c-0.66274-1.7271 1.2707-4.4873 3.1433-4.4873 0.69031 0 1.8557 0.72372 2.5898 1.6082 1.134 1.3664 1.0485 1.8175-0.56868 3-2.4791 1.8128-4.44 1.7668-5.1644-0.12094z"/>
  <path d="m254.19 233.83c-0.40105-0.40103-0.72916-1.4192-0.72916-2.2625 0-1.1256 0.29582-1.2375 1.1125-0.42081 0.61188 0.61188 0.94 1.63 0.72917 2.2625-0.21083 0.63251-0.71146 0.8219-1.1125 0.42084z"/>
  <path d="m299.02 216.49c0.21579-3.0297-0.27841-4.5425-2.1403-6.5515-3.0939-3.3384-3.07-6.5843 0.076172-10.323 5.3993-6.4167 11.958-4.2726 11.958 3.9094 0 3.4246-0.54266 4.5281-3.3556 6.8239-1.8459 1.5065-3.4654 3.828-3.5996 5.1597-0.13422 1.3316-0.30148 2.9835-0.37167 3.671s-0.73947 1.25-1.4873 1.25c-0.96365 0-1.278-1.1475-1.0791-3.9393z"/>
  <path d="m321.46 216.43c-2.4912-2.4912-2.554-5.1886-0.17126-7.345 4.5186-4.0893 11.821 0.35007 9.0926 5.528-2.2924 4.351-5.6945 5.0439-8.9214 1.817z"/>
  <path d="m244.97 211.45c-0.34546-0.55899 0.073441-1.0163 0.93091-1.0163 1.7565 0 2.0152 0.60007 0.62811 1.4573-0.51199 0.31644-1.2136 0.11798-1.559-0.44098z"/>
  <path d="m254.03 181.58c-0.86556-1.6738-1.5538-3.6281-1.5295-4.3429 0.024307-0.71481 0.95685 0.4303 2.0723 2.5447s1.8037 4.0687 1.5295 4.3429c-0.27418 0.2742-1.2067-0.87091-2.0723-2.5447z"/>
  <path d="m249.63 172.92c-0.6873-1.5085-1.0442-2.9481-0.79321-3.1991 0.67891-0.67889 2.8049 3.6555 2.3955 4.8838-0.19397 0.58188-0.91499-0.17621-1.6023-1.6847z"/>
  <path d="m321.46 168.49c0-0.58246 0.45001-1.059 1-1.059 0.55002 0 1 0.19846 1 0.44098 0 0.24255-0.44998 0.71912-1 1.059-0.54999 0.33994-1 0.14148-1-0.44098z"/>
  <path d="m243.14 158.89c-0.90675-1.9014-1.2174-3.4572-0.69048-3.4572 1.333 0 4.1912 5.7697 3.1706 6.4004-0.45735 0.28268-1.5734-1.0418-2.4802-2.9432z"/>
  <path d="m336.15 155.79c-0.79892-0.79892 0.10419-2.3605 1.3652-2.3605 0.51755 0 0.94098 0.67502 0.94098 1.5 0 1.5464-1.18 1.9867-2.3062 0.86054z"/>
  <path d="m340.15 154.79c-0.93323-0.93326 0.19452-2.3605 1.8652-2.3605 0.79254 0 1.441 0.67502 1.441 1.5 0 1.5062-2.111 2.0557-3.3062 0.86054z"/>
 </g>
</svg>
