<?xml version="1.0" encoding="UTF-8"?>
<!DOCTYPE svg  PUBLIC '-//W3C//DTD SVG 1.1//EN'  'http://www.w3.org/Graphics/SVG/1.1/DTD/svg11.dtd'>
<svg enable-background="new 0 0 612 792" version="1.1" viewBox="0 0 612 792" xmlns="http://www.w3.org/2000/svg">
 <g fill="none">
  <path d="m258.16 306.74l-0.117 1.626-0.081 1.553c-0.041 1.042-0.057 2.085-0.047 3.131 0.02 2.092 0.142 4.192 0.37 6.289 0.456 4.195 1.336 8.384 2.641 12.485 2.604 8.203 6.93 16.046 12.733 22.867 5.797 6.823 13.069 12.617 21.353 16.818 6.028 3.068 12.595 5.266 19.427 6.513l1.737-1.003c0.256-0.853 0.499-1.708 0.781-2.554 0.459-1.381 0.953-2.754 1.48-4.115l0.82-2.04 0.83-1.948 0.025-0.058c2.409-5.653 8.944-8.283 14.598-5.874 1.784 0.76 3.265 1.933 4.383 3.357l49.095-28.345c-12.102 0.495-24.434-1.137-36.216-4.978-13.112-4.253-25.52-11.199-36.237-20.388-10.722-9.18-19.751-20.604-26.274-33.519-2.446-4.836-4.541-9.877-6.258-15.068l-25.074 43.431c0.06 0.59 0.07 1.23 0.04 1.81z"/>
  <path d="m239.17 317.74c-5.726 2.945-11.884 5.204-18.317 6.621-9.929 2.202-20.466 2.431-30.808 0.567-10.341-1.856-20.488-5.805-29.613-11.705-0.823-0.531-1.627-1.096-2.433-1.658v146.78l81.173-140.6z"/>
  <path d="m318.27 432.8c-4.009-10.26-6.039-21.496-5.768-32.885 0.075-3.226 0.354-6.46 0.797-9.686l-141.64 81.77h178.72c-5.303-3.355-10.271-7.359-14.718-11.975-7.41-7.66-13.39-16.96-17.39-27.22z"/>
  <path d="m161.53 290.83c2.488 3.515 5.351 6.813 8.549 9.822 6.392 6.021 14.14 10.869 22.7 14.071 8.555 3.207 17.913 4.765 27.384 4.401 6.233-0.23 12.504-1.32 18.607-3.206-0.046-0.229-0.106-0.454-0.15-0.684-0.26-1.335-0.487-2.679-0.682-4.03l-0.269-2.037-0.217-1.967-7e-3 -0.058c-0.631-5.709 3.485-10.848 9.193-11.479 1.726-0.191 3.397 0.058 4.91 0.648l28.059-48.6c-0.142-0.733-0.282-1.467-0.409-2.204-0.068-0.396-0.127-0.795-0.191-1.193-8.856 4.605-18.442 8.004-28.421 9.951-13.801 2.713-28.312 2.676-42.427-0.199-14.115-2.866-27.834-8.572-40.058-16.851-3.5-2.367-6.872-4.95-10.102-7.718v55.758c0.028 0.05 0.052 0.101 0.081 0.15 1.07 1.86 2.22 3.67 3.46 5.43z"/>
  <path d="m414.62 448.19c-9.99-10.85-17.91-23.841-23.075-38.036-5.175-14.188-7.593-29.579-6.892-45.043 0.258-5.772 0.949-11.551 2.067-17.271l-45.879 26.489c-0.082 0.235-0.16 0.471-0.259 0.704-0.261 0.611-0.605 1.239-0.957 1.778l-0.963 1.455-0.891 1.405c-0.585 0.95-1.148 1.915-1.688 2.895-1.081 1.96-2.069 3.982-2.958 6.057-1.778 4.149-3.158 8.517-4.095 13.025-1.879 9.014-1.966 18.597-0.138 28.004 1.822 9.404 5.56 18.624 11.074 26.89 3.784 5.689 8.433 10.899 13.748 15.462h92.359c-11.65-5.9-22.4-13.95-31.44-23.8z"/>
  <path d="m266.45 362.13c-7.971-6.517-14.778-14.734-19.781-24.134-1.259-2.362-2.403-4.798-3.428-7.294l-76.58 132.63 145.42-83.956c-6.35-0.197-12.746-1.196-18.974-3.062-9.56-2.84-18.69-7.67-26.66-14.19z"/>
 </g>
 <path d="m258.12 304.85c2e-3 0.022 2e-3 0.046 4e-3 0.069l25.074-43.431c-0.574-1.736-1.106-3.489-1.594-5.256-0.776-2.808-1.438-5.654-1.995-8.526l-28.059 48.6c3.5 1.37 6.14 4.57 6.58 8.55z"/>
 <path d="m148.46 479.07c0.043 0.096 0.093 0.188 0.143 0.281-0.019-0.035-0.03-0.071-0.048-0.106-0.03-0.06-0.06-0.11-0.09-0.17z"/>
 <path d="m150.5 481.33l0.012 6e-3c-0.015-8e-3 -0.028-0.019-0.042-0.028 0.01 6e-3 0.019 0.016 0.03 0.022z"/>
 <path d="m148.15 478.15c0.022 0.093 0.047 0.185 0.074 0.276-0.014-0.046-0.02-0.093-0.032-0.14s-0.03-0.09-0.04-0.14z"/>
 <path d="m149.77 480.8c-0.051-0.043-0.103-0.085-0.151-0.13 0.048 0.044 0.099 0.086 0.151 0.13z"/>
 <path d="m148.02 477.16c3e-3 0.105 6e-3 0.209 0.017 0.314-6e-3 -0.066-1e-3 -0.133-5e-3 -0.199-0.01-0.03-0.02-0.07-0.02-0.11z"/>
 <path d="m298.52 232.78c0.038 0.432 0.05 0.86 0.035 1.282l-4e-3 0.09-0.034 0.81 20.813-36.049c1.381-2.392 0.562-5.449-1.83-6.83-2.392-1.38-5.45-0.561-6.83 1.83l-17.667 30.601c3.01 1.59 5.19 4.62 5.51 8.27z"/>
 <path d="m152.1 481.91c0.298 0.055 0.598 0.092 0.897 0.092h5e-3c-0.3 0-0.597-0.037-0.891-0.09h-0.01z"/>
 <path d="m151.33 481.7c0.191 0.068 0.383 0.125 0.577 0.168-3e-3 0-6e-3 -2e-3 -9e-3 -2e-3 -0.193-0.044-0.381-0.1-0.568-0.166z"/>
 <path d="m151.08 481.62c0.011 5e-3 0.022 0.01 0.034 0.015-9e-3 -4e-3 -0.018-9e-3 -0.027-0.013v-0.01z"/>
 <polygon points="150.95 481.55 150.97 481.56 150.96 481.56"/>
 <path d="m149.03 480.04c-0.03-0.039-0.054-0.083-0.083-0.123 0.03 0.04 0.05 0.08 0.08 0.12z"/>
 <path d="m166.66 463.34l76.581-132.64c-1.013-2.468-1.909-4.994-2.679-7.569-0.53-1.772-0.979-3.573-1.389-5.385l-81.17 140.6v10l8.66-5z"/>
 <path d="m148.03 477.48c0.011 0.115 0.03 0.228 0.049 0.342-6e-3 -0.039-6e-3 -0.081-0.012-0.12-0.01-0.08-0.03-0.15-0.04-0.22z"/>
 <path d="m151.33 481.7c-0.071-0.026-0.145-0.043-0.216-0.073 0.071 0.029 0.145 0.047 0.216 0.073z"/>
 <path d="m148.22 478.43c0.032 0.108 0.071 0.214 0.111 0.32-0.016-0.043-0.026-0.09-0.042-0.134-0.02-0.07-0.05-0.13-0.07-0.19z"/>
 <path d="m314.62 382.85c0.26-1.149 0.559-2.292 0.866-3.432-1.133 0.017-2.268 4e-3 -3.405-0.031l-145.42 83.95-5 8.66h10l141.64-81.775c0.34-2.46 0.76-4.93 1.32-7.37z"/>
 <path d="m340.84 374.32l45.879-26.489c0.379-1.94 0.807-3.875 1.285-5.799 0.556-2.238 1.186-4.462 1.872-6.671-0.563 0.032-1.127 0.054-1.691 0.077l-49.095 28.345c2.29 2.91 3.04 6.87 1.76 10.54z"/>
 <polygon points="153 482 153 482 153.02 482 153.01 482"/>
 <path d="m150.95 481.55c-0.148-0.067-0.296-0.134-0.44-0.217 0.142 0.082 0.291 0.15 0.44 0.217z"/>
 <path d="m149.03 480.04c0.126 0.166 0.263 0.319 0.406 0.464-0.07-0.071-0.125-0.155-0.19-0.23-0.07-0.08-0.15-0.15-0.22-0.23z"/>
 <path d="m149.77 480.8c0.119 0.101 0.241 0.198 0.368 0.287-0.074-0.051-0.137-0.116-0.208-0.171-0.05-0.04-0.11-0.07-0.16-0.12z"/>
 <path d="m150.31 481.2c0.055 0.035 0.107 0.074 0.164 0.107-0.038-0.022-0.066-0.051-0.103-0.074-0.02-0.02-0.05-0.03-0.06-0.04z"/>
 <path d="m148.93 479.89c7e-3 9e-3 0.013 0.019 0.019 0.028-5e-3 -6e-3 -8e-3 -0.014-0.013-0.02 0-0.01-0.01-0.01-0.01-0.01z"/>
 <path d="m316.17 377.02l-1.737 1.003c0.452 0.083 0.906 0.159 1.36 0.232 0.117-0.413 0.253-0.822 0.377-1.235z"/>
 <path d="m149.47 480.54c0.047 0.047 0.098 0.088 0.147 0.133-0.017-0.015-0.028-0.033-0.044-0.048-0.04-0.02-0.08-0.05-0.11-0.08z"/>
 <path d="m148.6 479.35c0.026 0.049 0.04 0.101 0.067 0.149 0.038 0.065 0.083 0.121 0.124 0.184-0.04-0.062-0.068-0.13-0.105-0.193-0.02-0.05-0.05-0.09-0.08-0.14z"/>
 <path d="m390.22 334.27l-1.244 0.718c0.331 0.026 0.662 0.056 0.993 0.079 0.084-0.266 0.166-0.532 0.251-0.797z"/>
 <path d="m416.09 329.05c-0.191 0.423-0.406 0.828-0.641 1.213l-0.051 0.082-0.897 1.449 21.591-12.465c2.392-1.381 3.211-4.438 1.83-6.83-1.38-2.391-4.439-3.21-6.83-1.83l-15.22 8.788c1.47 2.9 1.66 6.41 0.22 9.6z"/>
 <path d="m153 482c-0.305 0-0.601-0.038-0.891-0.09 0.29 0.05 0.59 0.09 0.89 0.09h0.01-0.01z"/>
 <polygon points="158 472 161.66 472 166.66 463.34 158 468.34"/>
 <path d="m148.94 479.9c5e-3 6e-3 8e-3 0.014 0.013 0.02 0.029 0.04 0.053 0.084 0.083 0.123 0.064 0.083 0.146 0.154 0.216 0.234-0.108-0.123-0.217-0.244-0.312-0.377z"/>
 <path d="m150.37 481.23c0.037 0.023 0.065 0.052 0.103 0.074 0.015 9e-3 0.028 0.02 0.042 0.028 0.144 0.083 0.292 0.15 0.44 0.217 4e-3 2e-3 7e-3 4e-3 0.011 5e-3 -0.207-0.093-0.404-0.204-0.596-0.324z"/>
 <path d="m148.56 479.24c0.018 0.035 0.029 0.072 0.048 0.106 0.026 0.048 0.059 0.093 0.086 0.14-0.047-0.08-0.092-0.162-0.134-0.246z"/>
 <path d="m148.03 477.28c4e-3 0.066-1e-3 0.133 5e-3 0.199 7e-3 0.075 0.027 0.147 0.037 0.222-0.019-0.138-0.034-0.279-0.042-0.421z"/>
 <path d="m148.19 478.29c0.012 0.046 0.018 0.094 0.032 0.14 0.019 0.063 0.048 0.124 0.069 0.187-0.037-0.108-0.071-0.217-0.101-0.327z"/>
 <path d="m149.58 480.63c0.016 0.015 0.028 0.033 0.044 0.048 0.049 0.045 0.101 0.087 0.151 0.13 0.05 0.042 0.109 0.075 0.16 0.115-0.12-0.094-0.243-0.187-0.355-0.293z"/>
 <path d="m151.08 481.62c9e-3 4e-3 0.018 9e-3 0.027 0.013 0.071 0.029 0.145 0.047 0.216 0.073 0.187 0.066 0.375 0.122 0.567 0.166-0.278-0.064-0.551-0.144-0.81-0.252z"/>
 <path d="m477 472h-30.013c0.894 0.599 1.794 1.189 2.707 1.762-1.218-0.562-2.423-1.154-3.623-1.762h-92.359c2.413 2.072 4.951 4.024 7.63 5.804-3.774-1.625-7.44-3.576-10.963-5.804h-178.73l-16.16 9.33-0.012 6e-3c-0.14 0.08-0.285 0.146-0.431 0.212-8e-3 3e-3 -0.016 8e-3 -0.024 0.012-0.038 0.017-0.072 0.039-0.111 0.055-0.012 5e-3 -0.023 0.011-0.035 0.016-0.063 0.025-0.128 0.042-0.191 0.064-0.198 0.072-0.398 0.131-0.601 0.176-0.063 0.015-0.127 0.026-0.192 0.038-0.293 0.054-0.588 0.09-0.882 0.091h323.96c2.761 0 5-2.239 5-5s-2.24-5.01-5-5.01z"/>
 <path d="m154.89 481.63c-0.063 0.026-0.128 0.042-0.191 0.064 0.063-0.022 0.128-0.038 0.191-0.064z"/>
 <path d="m155.49 481.34c-0.141 0.081-0.286 0.146-0.431 0.212 0.146-0.066 0.291-0.132 0.431-0.212z"/>
 <path d="m157.33 479.5c-0.038 0.065-0.083 0.122-0.124 0.184-0.044 0.069-0.089 0.137-0.137 0.204-0.157 0.221-0.325 0.43-0.51 0.618-0.011 0.011-0.02 0.024-0.031 0.035-0.207 0.206-0.432 0.386-0.667 0.551-0.055 0.038-0.111 0.073-0.167 0.109-0.069 0.044-0.136 0.094-0.207 0.135 4e-3 -2e-3 8e-3 -3e-3 0.012-6e-3l16.16-9.33h-10l-4.32 7.5z"/>
 <path d="m154.89 481.63c0.012-5e-3 0.023-0.011 0.035-0.016-2e-3 1e-3 -5e-3 1e-3 -7e-3 2e-3 -0.01 5e-3 -0.019 0.01-0.028 0.014z"/>
 <path d="m154.1 481.87c0.202-0.045 0.402-0.104 0.601-0.176-0.194 0.07-0.39 0.128-0.591 0.173-4e-3 1e-3 -7e-3 3e-3 -0.01 3e-3z"/>
 <path d="m155.03 481.56c8e-3 -3e-3 0.016-8e-3 0.024-0.012-7e-3 3e-3 -0.013 6e-3 -0.02 0.01 0.01 0 0 0 0 0z"/>
 <path d="m153.89 481.91c-0.29 0.053-0.583 0.089-0.88 0.09h0.01c0.294-1e-3 0.589-0.037 0.882-0.091h-0.01z"/>
 <path d="m156.53 480.54c-0.204 0.204-0.43 0.385-0.667 0.551 0.236-0.165 0.461-0.345 0.667-0.551z"/>
 <path d="m158 477c0 0.99-0.297 1.908-0.793 2.684 0.04-0.063 0.086-0.119 0.124-0.184l4.33-7.5h-3.66v5z"/>
 <path d="m154.1 481.87c0.201-0.045 0.397-0.104 0.591-0.173 0.063-0.023 0.128-0.039 0.191-0.064 0.01-4e-3 0.019-0.01 0.028-0.014-0.25 0.09-0.53 0.17-0.81 0.24z"/>
 <path d="m153.01 482c0.296-1e-3 0.59-0.037 0.88-0.09-0.29 0.052-0.585 0.09-0.89 0.09h0.01z"/>
 <path d="m157.07 479.89c-0.155 0.218-0.323 0.428-0.51 0.618 0.185-0.188 0.353-0.397 0.51-0.618z"/>
 <path d="m155.04 481.56c7e-3 -3e-3 0.013-7e-3 0.02-0.01 0.145-0.066 0.29-0.131 0.431-0.212 0.071-0.041 0.137-0.091 0.207-0.135-0.22 0.14-0.43 0.26-0.66 0.36z"/>
 <path d="m148.03 476.52c0.011-0.115 0.03-0.228 0.049-0.342 0.019-0.113 0.038-0.223 0.064-0.333 0.022-0.093 0.047-0.185 0.074-0.276 0.032-0.108 0.071-0.214 0.111-0.32 0.041-0.108 0.081-0.216 0.128-0.32 0.043-0.096 0.093-0.188 0.143-0.281 0.026-0.049 0.04-0.101 0.067-0.149l9.33-16.16v-146.78c-3.519-2.456-6.87-5.195-10-8.207v173.65c0-0.056 0.015-0.107 0.017-0.163 0.01-0.11 0.01-0.21 0.02-0.32z"/>
 <path d="m154.2 277.99c0.368 0.517 0.706 1.11 0.968 1.664l0.703 1.508 0.699 1.425c0.454 0.898 0.934 1.786 1.431 2.666v-55.758c-2.411-2.066-4.746-4.233-6.983-6.507-1.03-1.047-2.025-2.131-3.017-3.22v54.056c2.42 0.58 4.65 1.99 6.2 4.17z"/>
 <path d="m154.46 193.68c0.249 0.366 0.471 0.742 0.667 1.126l0.041 0.083 1.077 2.138 1.087 2.046c0.213 0.389 0.449 0.766 0.668 1.152v-47.23c0-2.761-2.239-5-5-5s-5 2.239-5 5v36.297c2.53 0.56 4.87 2.05 6.45 4.38z"/>
 <path d="m148.08 476.18c-0.019 0.114-0.039 0.227-0.049 0.342 7e-3 -0.075 0.027-0.147 0.037-0.222 5e-3 -0.04 5e-3 -0.081 0.012-0.12z"/>
 <path d="m148.94 474.1c0.094-0.132 0.204-0.253 0.311-0.377 0.106-0.121 0.209-0.242 0.327-0.353 0.111-0.105 0.234-0.198 0.356-0.293 0.142-0.111 0.283-0.219 0.436-0.314 0.047-0.03 0.085-0.068 0.133-0.096l7.5-4.33v-10l-9.33 16.16c-0.028 0.048-0.041 0.101-0.067 0.149 0.026-0.048 0.059-0.093 0.086-0.14 0.07-0.14 0.14-0.28 0.24-0.41z"/>
 <path d="m148.33 475.25c-0.04 0.106-0.079 0.212-0.111 0.32 0.019-0.063 0.048-0.124 0.069-0.187 0.015-0.043 0.025-0.09 0.042-0.133z"/>
 <path d="m148.22 475.57c-0.027 0.092-0.052 0.183-0.074 0.276 0.011-0.047 0.03-0.09 0.042-0.137s0.02-0.09 0.03-0.14z"/>
 <path d="m148.03 476.52c-0.01 0.105-0.013 0.209-0.017 0.314 1e-3 -0.039 9e-3 -0.076 0.011-0.115 5e-3 -0.066 0-0.132 6e-3 -0.199z"/>
 <path d="m148.6 474.65c-0.05 0.093-0.099 0.185-0.143 0.281 0.027-0.061 0.065-0.116 0.095-0.175 0.017-0.034 0.029-0.071 0.048-0.106z"/>
 <path d="m149.58 473.37c0.112-0.105 0.235-0.199 0.356-0.293-0.122 0.094-0.245 0.188-0.356 0.293z"/>
 <path d="m148.29 475.38c-0.021 0.063-0.05 0.123-0.069 0.187-0.014 0.046-0.02 0.093-0.032 0.14 0.03-0.111 0.064-0.22 0.101-0.327z"/>
 <path d="m148.69 474.51c-0.027 0.047-0.06 0.092-0.086 0.14-0.019 0.035-0.03 0.071-0.048 0.106 0.043-0.083 0.088-0.165 0.134-0.246z"/>
 <path d="m150.5 472.67c-0.048 0.028-0.086 0.066-0.133 0.096 0.76-0.48 1.66-0.77 2.63-0.77h5v-3.66l-7.5 4.33z"/>
 <path d="m149.25 473.73c-0.107 0.124-0.217 0.245-0.311 0.377 0.095-0.133 0.204-0.254 0.311-0.377z"/>
 <path d="m148.07 476.3c-0.01 0.074-0.03 0.147-0.037 0.222-6e-3 0.066-1e-3 0.133-5e-3 0.199 8e-3 -0.142 0.023-0.283 0.042-0.421z"/>
 <path d="m155.03 481.56c-0.037 0.017-0.073 0.039-0.111 0.055 0.038-0.016 0.073-0.038 0.111-0.055z"/>
 <path d="m151.08 481.62c-0.039-0.016-0.075-0.039-0.113-0.055 0.038 0.017 0.074 0.039 0.113 0.055z"/>
 <path d="m154.1 481.87c-0.064 0.015-0.128 0.026-0.192 0.038 0.064-0.012 0.128-0.023 0.192-0.038z"/>
 <path d="m148.93 479.89c-0.047-0.067-0.093-0.135-0.137-0.205 0.044 0.069 0.089 0.137 0.137 0.205z"/>
 <path d="m152.1 481.91c-0.064-0.012-0.129-0.023-0.193-0.038 0.064 0.015 0.128 0.026 0.193 0.038z"/>
 <path d="m149.47 480.54c-0.012-0.012-0.022-0.025-0.034-0.038 0.013 0.012 0.022 0.026 0.034 0.038z"/>
 <path d="m150.31 481.2c-0.056-0.036-0.113-0.071-0.168-0.11 0.055 0.039 0.112 0.074 0.168 0.11z"/>
 <path d="m148.33 478.75c0.041 0.108 0.081 0.216 0.128 0.32-0.031-0.068-0.051-0.141-0.079-0.21-0.01-0.04-0.03-0.07-0.05-0.11z"/>
 <path d="m148.02 476.84c0 0.05-0.02 0.1-0.02 0.16s0.015 0.107 0.017 0.163c-2e-3 -0.054 4e-3 -0.109 4e-3 -0.163s0-0.11 0-0.16z"/>
 <path d="m148.08 477.82c0.019 0.113 0.038 0.223 0.064 0.333-0.015-0.064-0.02-0.131-0.033-0.196-0.01-0.04-0.02-0.09-0.03-0.13z"/>
 <path d="m148.15 475.85c-0.026 0.11-0.045 0.22-0.064 0.333 8e-3 -0.046 0.022-0.091 0.031-0.137 0.013-0.065 0.018-0.132 0.033-0.196z"/>
 <path d="m148.46 474.93c-0.048 0.104-0.088 0.212-0.128 0.32 0.014-0.037 0.035-0.073 0.049-0.11 0.028-0.069 0.048-0.142 0.079-0.21z"/>
 <path d="m148.02 477c0 0.054-6e-3 0.109-4e-3 0.163 1e-3 0.039 9e-3 0.076 0.011 0.115-0.01-0.1-0.01-0.19-0.01-0.28z"/>
 <path d="m148.94 474.1c-0.092 0.129-0.168 0.268-0.249 0.406 0.08-0.138 0.157-0.277 0.249-0.406z"/>
 <path d="m149.25 473.73c0.105-0.12 0.209-0.242 0.327-0.353-0.117 0.11-0.221 0.231-0.327 0.353z"/>
 <path d="m148.11 477.96c0.013 0.065 0.018 0.131 0.033 0.196 0.011 0.047 0.03 0.09 0.042 0.137-0.03-0.111-0.054-0.222-0.075-0.333z"/>
 <path d="m150.37 472.77c-0.153 0.095-0.294 0.203-0.436 0.314 0.14-0.11 0.281-0.218 0.436-0.314z"/>
 <path d="m150.96 481.56s1e-3 1e-3 2e-3 1e-3c0.038 0.017 0.074 0.039 0.113 0.055 2e-3 1e-3 4e-3 1e-3 7e-3 2e-3 -0.042-0.016-0.081-0.039-0.122-0.058z"/>
 <path d="m148.38 478.86c0.028 0.069 0.048 0.142 0.079 0.21 0.027 0.061 0.065 0.116 0.095 0.175-0.064-0.127-0.121-0.255-0.174-0.385z"/>
 <path d="m151.9 481.87c3e-3 0 6e-3 2e-3 9e-3 2e-3 0.064 0.015 0.128 0.026 0.193 0.038 4e-3 0 8e-3 0 0.012 1e-3 -0.072-0.013-0.143-0.025-0.214-0.041z"/>
 <path d="m148.11 476.04c-9e-3 0.046-0.023 0.091-0.031 0.137-6e-3 0.039-6e-3 0.081-0.012 0.12 0.012-0.086 0.026-0.171 0.043-0.257z"/>
 <path d="m148.38 475.14c-0.015 0.037-0.035 0.073-0.049 0.11-0.016 0.043-0.026 0.09-0.042 0.134 0.028-0.082 0.059-0.163 0.091-0.244z"/>
 <path d="m148.07 477.7c6e-3 0.04 6e-3 0.081 0.012 0.12 8e-3 0.046 0.022 0.091 0.031 0.137-0.016-0.085-0.03-0.17-0.043-0.257z"/>
 <path d="m157.21 479.68c-0.044 0.069-0.09 0.138-0.137 0.204 0.047-0.067 0.092-0.135 0.137-0.204z"/>
 <path d="m156.56 480.51c-0.011 0.011-0.02 0.024-0.031 0.035 0.011-0.011 0.02-0.024 0.031-0.035z"/>
 <path d="m148.02 476.84c-2e-3 0.054 4e-3 0.109 4e-3 0.163 0-0.093 2e-3 -0.185 7e-3 -0.278-2e-3 0.039-0.01 0.076-0.011 0.115z"/>
 <path d="m155.86 481.09c-0.055 0.038-0.111 0.073-0.167 0.109 0.056-0.036 0.113-0.071 0.167-0.109z"/>
 <path d="m149.93 480.92c0.071 0.056 0.134 0.12 0.208 0.171 0.055 0.039 0.112 0.074 0.168 0.11 0.019 0.012 0.041 0.021 0.061 0.033-0.156-0.096-0.297-0.204-0.437-0.314z"/>
 <path d="m153.89 481.91c4e-3 0 8e-3 0 0.012-1e-3 0.064-0.012 0.128-0.023 0.192-0.038 3e-3 0 6e-3 -2e-3 0.01-3e-3 -0.07 0.01-0.14 0.03-0.21 0.04z"/>
 <path d="m148.19 475.71c-0.012 0.046-0.031 0.09-0.042 0.137-0.015 0.064-0.02 0.131-0.033 0.196 0.021-0.112 0.045-0.223 0.075-0.333z"/>
 <path d="m148.56 474.76c-0.03 0.059-0.067 0.114-0.095 0.175-0.031 0.068-0.051 0.141-0.079 0.21 0.053-0.13 0.11-0.258 0.174-0.385z"/>
 <path d="m149.25 480.27c0.066 0.075 0.121 0.16 0.19 0.23 0.012 0.012 0.022 0.026 0.034 0.038 0.031 0.031 0.07 0.054 0.103 0.085-0.118-0.111-0.221-0.232-0.327-0.353z"/>
 <path d="m148.69 479.49c0.037 0.063 0.065 0.132 0.105 0.193 0.044 0.069 0.09 0.138 0.137 0.205 2e-3 2e-3 4e-3 5e-3 6e-3 8e-3 -0.091-0.13-0.168-0.269-0.248-0.406z"/>
 <path d="m148.29 478.62c0.015 0.044 0.025 0.09 0.042 0.134 0.014 0.037 0.035 0.073 0.049 0.11-0.032-0.081-0.063-0.162-0.091-0.244z"/>
 <path d="m154.92 481.62c2e-3 -1e-3 5e-3 -1e-3 7e-3 -2e-3 0.038-0.016 0.074-0.038 0.111-0.055 1e-3 0 2e-3 -1e-3 4e-3 -2e-3l-0.12 0.06z"/>
 <path d="m154.92 481.62c0.042-0.017 0.081-0.041 0.122-0.059 0.229-0.103 0.448-0.223 0.658-0.357 0.056-0.036 0.112-0.071 0.167-0.109 0.237-0.166 0.463-0.347 0.667-0.551 0.011-0.011 0.021-0.024 0.031-0.035 0.188-0.19 0.355-0.399 0.51-0.618 0.047-0.066 0.092-0.135 0.137-0.204 0.48-0.77 0.78-1.69 0.78-2.68v-5h-5c-0.97 0-1.867 0.288-2.633 0.766-0.154 0.096-0.296 0.204-0.436 0.314-0.121 0.095-0.244 0.188-0.356 0.293-0.118 0.111-0.221 0.233-0.327 0.353-0.107 0.123-0.216 0.244-0.311 0.377-0.092 0.13-0.169 0.269-0.249 0.406-0.047 0.081-0.091 0.163-0.134 0.247-0.064 0.127-0.121 0.255-0.174 0.385-0.032 0.081-0.063 0.162-0.091 0.244-0.037 0.107-0.071 0.216-0.101 0.326s-0.054 0.221-0.075 0.333c-0.017 0.085-0.031 0.171-0.043 0.257-0.02 0.139-0.034 0.279-0.042 0.421-5e-3 0.093-7e-3 0.186-7e-3 0.278s2e-3 0.185 7e-3 0.278c8e-3 0.142 0.023 0.282 0.042 0.421 0.013 0.086 0.026 0.172 0.043 0.257 0.021 0.111 0.045 0.222 0.075 0.333s0.064 0.219 0.101 0.326c0.028 0.082 0.059 0.163 0.091 0.244 0.053 0.13 0.11 0.258 0.174 0.385 0.042 0.084 0.087 0.166 0.134 0.247 0.079 0.137 0.156 0.276 0.249 0.406 0.095 0.133 0.204 0.254 0.311 0.377 0.105 0.12 0.209 0.242 0.327 0.353 0.112 0.105 0.235 0.199 0.356 0.293 0.14 0.11 0.282 0.218 0.436 0.314 0.192 0.12 0.389 0.231 0.597 0.324 0.041 0.019 0.08 0.042 0.122 0.059 0.259 0.108 0.531 0.188 0.81 0.252 0.071 0.016 0.143 0.029 0.214 0.042 0.29 0.052 0.585 0.09 0.891 0.09 0.305 0 0.601-0.038 0.89-0.09 0.072-0.013 0.143-0.025 0.214-0.042 0.27-0.06 0.55-0.14 0.81-0.24z"/>
 <path d="m168.1 237.21c12.224 8.279 25.943 13.985 40.058 16.851 14.115 2.875 28.625 2.912 42.427 0.199 9.979-1.947 19.564-5.346 28.421-9.951-0.08-0.49-0.163-0.979-0.236-1.47-9.351 3.463-19.109 5.557-28.875 6.184-13.344 0.876-26.675-0.947-39.002-5.167-12.333-4.212-23.654-10.816-33.145-19.218-4.749-4.198-9.042-8.839-12.816-13.824-1.887-2.492-3.645-5.071-5.268-7.721-0.579-0.946-1.121-1.911-1.666-2.875v29.273c3.23 2.77 6.6 5.35 10.1 7.72z"/>
 <path d="m158 229.49v-29.273c-0.219-0.386-0.455-0.763-0.668-1.152l-1.087-2.046-1.077-2.138-0.041-0.083c-0.197-0.384-0.419-0.76-0.667-1.126-1.577-2.325-3.918-3.813-6.459-4.379v30.47c0.991 1.088 1.986 2.173 3.017 3.22 2.24 2.28 4.58 4.45 6.99 6.51z"/>
 <path d="m190.05 324.92c10.342 1.863 20.879 1.634 30.808-0.567 6.433-1.417 12.591-3.676 18.317-6.621-0.137-0.606-0.277-1.212-0.4-1.822-6.103 1.885-12.374 2.976-18.607 3.206-9.471 0.364-18.829-1.194-27.384-4.401-8.56-3.203-16.308-8.05-22.7-14.071-3.198-3.009-6.061-6.308-8.549-9.822-1.244-1.757-2.395-3.568-3.451-5.423-0.028-0.049-0.053-0.101-0.081-0.15v26.31c0.806 0.563 1.61 1.127 2.433 1.658 9.12 5.89 19.26 9.84 29.61 11.69z"/>
 <path d="m158 285.25c-0.497-0.879-0.977-1.768-1.431-2.666l-0.699-1.425-0.703-1.508c-0.262-0.554-0.601-1.147-0.968-1.664-1.552-2.184-3.782-3.593-6.199-4.166v29.531c3.13 3.012 6.481 5.751 10 8.207v-26.31z"/>
 <path d="m384.65 365.11c-0.701 15.464 1.717 30.855 6.892 45.043 5.166 14.194 13.085 27.186 23.075 38.036 9.047 9.854 19.795 17.905 31.454 23.813h0.916c-11.034-7.393-20.594-16.701-28.066-27.301-8.097-11.449-13.773-24.365-16.758-37.697-2.995-13.333-3.296-27.073-0.987-40.162 1.149-6.545 2.946-12.928 5.333-19.033 1.194-3.053 2.536-6.037 4.015-8.94 0.739-1.453 1.514-2.884 2.321-4.295l1.232-2.093 0.424-0.685-27.784 16.041c-1.11 5.72-1.8 11.5-2.06 17.27z"/>
 <path d="m392.26 335.2c-0.795 0.064-1.591 0.118-2.388 0.164-0.687 2.209-1.316 4.433-1.872 6.671-0.478 1.925-0.906 3.859-1.285 5.799l27.784-16.041 0.897-1.449 0.051-0.082c0.235-0.386 0.45-0.791 0.641-1.213 1.442-3.188 1.248-6.697-0.219-9.593l-25.651 14.81c-0.085 0.265-0.167 0.531-0.251 0.797 0.76 0.05 1.53 0.1 2.29 0.13z"/>
 <path d="m449.69 473.76c-0.913-0.573-1.813-1.164-2.707-1.762h-0.916c1.2 0.608 2.405 1.2 3.623 1.762z"/>
 <path d="m339.96 456.54c-5.515-8.266-9.252-17.486-11.074-26.89-1.828-9.407-1.741-18.99 0.138-28.004 0.937-4.508 2.316-8.876 4.095-13.025 0.889-2.075 1.877-4.097 2.958-6.057 0.54-0.98 1.103-1.945 1.688-2.895l0.891-1.405 0.963-1.455c0.351-0.539 0.696-1.167 0.957-1.778 0.099-0.232 0.177-0.469 0.259-0.704l-27.539 15.899c-0.442 3.225-0.722 6.46-0.797 9.686-0.271 11.39 1.759 22.625 5.768 32.885 4.003 10.267 9.983 19.561 17.392 27.229 4.447 4.616 9.415 8.62 14.718 11.975h3.333c-5.31-4.56-9.96-9.77-13.75-15.46z"/>
 <path d="m339.09 363.79l-22.917 13.231c-0.124 0.413-0.26 0.822-0.377 1.235 2.105 0.343 4.231 0.609 6.376 0.767-2.212 0.236-4.446 0.36-6.689 0.394-0.307 1.141-0.606 2.283-0.866 3.432-0.553 2.446-0.978 4.909-1.316 7.377l27.539-15.899c1.29-3.68 0.54-7.64-1.74-10.54z"/>
 <path d="m361.34 477.8c-2.68-1.78-5.217-3.732-7.63-5.804h-3.333c3.52 2.23 7.19 4.18 10.96 5.8z"/>
 <path d="m279.61 247.71l3.138-5.435c-1.23 0.704-2.478 1.382-3.738 2.038 0.064 0.397 0.123 0.796 0.191 1.193 0.128 0.737 0.268 1.471 0.409 2.204z"/>
 <path d="m289.46 276.56c6.523 12.915 15.552 24.339 26.274 33.519 10.717 9.189 23.125 16.135 36.237 20.388 11.783 3.841 24.114 5.472 36.216 4.978l0.792-0.458c-12.28-0.984-24.237-4.168-35.104-9.333-11.844-5.609-22.392-13.523-30.938-23.01-8.555-9.484-15.103-20.534-19.226-32.251-2.066-5.857-3.532-11.878-4.387-17.946-0.428-3.034-0.705-6.079-0.833-9.122-0.063-1.522-0.089-3.042-0.079-4.562l0.043-2.27 0.063-1.534-15.319 26.533c1.73 5.18 3.82 10.22 6.27 15.06z"/>
 <path d="m288.87 238.49c-1.99 1.329-4.034 2.587-6.121 3.781l-3.138 5.435c0.557 2.872 1.219 5.718 1.995 8.526 0.488 1.768 1.021 3.521 1.594 5.256l15.319-26.533 0.034-0.81 4e-3 -0.09c0.015-0.422 3e-3 -0.851-0.035-1.282-0.323-3.647-2.5-6.679-5.517-8.266l-9.495 16.445c1.83-0.78 3.62-1.59 5.39-2.47z"/>
 <path d="m389.88 335.37c0.031-0.101 0.063-0.201 0.095-0.301-0.332-0.023-0.662-0.053-0.993-0.079l-0.792 0.458c0.55-0.03 1.11-0.05 1.68-0.08z"/>
 <path d="m282.75 242.27l0.762-1.319c-1.565 0.668-3.145 1.298-4.736 1.887 0.073 0.491 0.156 0.98 0.236 1.47 1.261-0.656 2.508-1.333 3.738-2.038z"/>
 <path d="m283.51 240.95l-0.762 1.319c2.086-1.194 4.13-2.453 6.121-3.781-1.765 0.875-3.554 1.692-5.359 2.462z"/>
 <path d="m389.97 335.06c-0.032 0.101-0.063 0.201-0.095 0.301 0.797-0.046 1.593-0.099 2.388-0.164-0.77-0.03-1.54-0.08-2.3-0.14z"/>
 <polygon points="239.17 317.74 239.17 317.74 239.18 317.73"/>
 <path d="m295.01 371.51c-8.284-4.202-15.556-9.996-21.353-16.818-5.804-6.821-10.129-14.664-12.733-22.867-1.305-4.101-2.185-8.29-2.641-12.485-0.228-2.097-0.35-4.197-0.37-6.289-0.01-1.046 6e-3 -2.09 0.047-3.131l0.081-1.553 0.117-1.626c0.038-0.578 0.03-1.219-0.032-1.818l-14.882 25.777c1.024 2.496 2.169 4.933 3.428 7.294 5.003 9.4 11.81 17.618 19.781 24.134 7.969 6.524 17.102 11.35 26.652 14.195 6.228 1.865 12.624 2.864 18.974 3.062l2.358-1.362c-6.85-1.24-13.41-3.44-19.44-6.51z"/>
 <path d="m258.12 304.85c-0.44-3.982-3.078-7.184-6.57-8.545l-10.987 19.03c2.555-0.861 5.079-1.851 7.549-2.997-2.826 1.992-5.817 3.789-8.931 5.391l-7e-3 0.013c0.411 1.812 0.859 3.613 1.389 5.385 0.77 2.575 1.666 5.101 2.679 7.569l14.882-25.777v-0.06z"/>
 <path d="m314.44 378.02l-2.358 1.362c1.137 0.035 2.272 0.048 3.405 0.031 0.104-0.387 0.204-0.774 0.313-1.161-0.45-0.07-0.9-0.15-1.35-0.23z"/>
 <path d="m240.56 315.34c-0.595 0.201-1.192 0.392-1.791 0.577 0.124 0.61 0.263 1.215 0.4 1.822 3e-3 -2e-3 6e-3 -3e-3 9e-3 -5e-3l1.38-2.4z"/>
 <path d="m248.11 312.34c-2.47 1.146-4.994 2.136-7.549 2.997l-1.381 2.394c3.11-1.6 6.1-3.4 8.93-5.39z"/>
 <path d="m315.79 378.25c-0.109 0.386-0.209 0.773-0.313 1.161 2.243-0.034 4.477-0.158 6.689-0.394-2.15-0.16-4.27-0.42-6.38-0.77z"/>
</svg>
