<?xml version="1.0" encoding="UTF-8"?>
<svg viewBox="0 0 191.40068 505.41125" xmlns="http://www.w3.org/2000/svg" xmlns:xlink="http://www.w3.org/1999/xlink">
 <defs>
  <filter id="bg">
   <feGaussianBlur stdDeviation=".3725"/>
  </filter>
  <filter id="bc">
   <feGaussianBlur stdDeviation=".5254"/>
  </filter>
  <filter id="ay">
   <feGaussianBlur stdDeviation=".3811"/>
  </filter>
  <filter id="aw">
   <feGaussianBlur stdDeviation=".3624"/>
  </filter>
  <filter id="at">
   <feGaussianBlur stdDeviation=".4552"/>
  </filter>
  <filter id="as">
   <feGaussianBlur stdDeviation="4.8751"/>
  </filter>
  <filter id="ap">
   <feGaussianBlur stdDeviation=".417"/>
  </filter>
  <filter id="ao">
   <feGaussianBlur stdDeviation=".2424"/>
  </filter>
  <filter id="am">
   <feGaussianBlur stdDeviation=".9912"/>
  </filter>
  <filter id="ac">
   <feGaussianBlur stdDeviation=".7226"/>
  </filter>
  <filter id="ab">
   <feGaussianBlur stdDeviation=".7928"/>
  </filter>
  <filter id="w">
   <feGaussianBlur stdDeviation="2.9735"/>
  </filter>
  <filter id="v">
   <feGaussianBlur stdDeviation="1.4625"/>
  </filter>
  <filter id="bf">
   <feGaussianBlur stdDeviation="1.1815"/>
  </filter>
  <filter id="be" x="-.4751" y="-.81399" width="1.9502" height="2.628">
   <feGaussianBlur stdDeviation="1.0656"/>
  </filter>
  <filter id="bd" x="-.30415" y="-1.0936" width="1.6083" height="3.1871">
   <feGaussianBlur stdDeviation="2.2052"/>
  </filter>
  <filter id="bb" x="-.53626" y="-.68094" width="2.0725" height="2.3619">
   <feGaussianBlur stdDeviation="1.337"/>
  </filter>
  <filter id="ba" x="-.52752" y="-.69558" width="2.055" height="2.3912">
   <feGaussianBlur stdDeviation="1.1358"/>
  </filter>
  <filter id="az" x="-.936" y="-.078" width="2.872" height="1.156">
   <feGaussianBlur stdDeviation=".7807"/>
  </filter>
  <filter id="ax" x="-.01334" y="-.11952" width="1.0267" height="1.239">
   <feGaussianBlur stdDeviation=".9337"/>
  </filter>
  <filter id="au" x="-.07667" y="-.276" width="1.1533" height="1.552">
   <feGaussianBlur stdDeviation=".5426"/>
  </filter>
  <filter id="ar" x="-.19042" y="-.0062" width="1.3808" height="1.0124">
   <feGaussianBlur stdDeviation=".4115"/>
  </filter>
  <filter id="aq" x="-.14124" y="-.00627" width="1.2825" height="1.0125">
   <feGaussianBlur stdDeviation=".4234"/>
  </filter>
  <filter id="an" x="-.21148" y="-.01272" width="1.423" height="1.0254">
   <feGaussianBlur stdDeviation=".4902"/>
  </filter>
  <filter id="al" x="-.67854" y="-.64245" width="2.3571" height="2.2849">
   <feGaussianBlur stdDeviation="1.4759"/>
  </filter>
  <filter id="ak" x="-.83215" y="-.55395" width="2.6643" height="2.1079">
   <feGaussianBlur stdDeviation="2.6411"/>
  </filter>
  <filter id="aj" x="-.47438" y="-1.0843" width="1.9488" height="3.1686">
   <feGaussianBlur stdDeviation="1.9895"/>
  </filter>
  <filter id="ai" x="-.50217" y="-.9625" width="2.0044" height="2.925">
   <feGaussianBlur stdDeviation="1.5137"/>
  </filter>
  <filter id="ah" x="-.435" y="-1.3671" width="1.87" height="3.7343">
   <feGaussianBlur stdDeviation="1.2542"/>
  </filter>
  <filter id="ag" x="-.44289" y="-1.2946" width="1.8858" height="3.5892">
   <feGaussianBlur stdDeviation="1.1029"/>
  </filter>
  <filter id="af" x="-.14068" y="-.03813" width="1.2814" height="1.0763">
   <feGaussianBlur stdDeviation=".7039"/>
  </filter>
  <filter id="ae" x="-.12037" y="-.03996" width="1.2407" height="1.0799">
   <feGaussianBlur stdDeviation=".8206"/>
  </filter>
  <filter id="ad" x="-.29035" y="-.03346" width="1.5807" height="1.0669">
   <feGaussianBlur stdDeviation=".6759"/>
  </filter>
  <filter id="aa" x="-.29033" y="-.03346" width="1.5807" height="1.0669">
   <feGaussianBlur stdDeviation=".3104"/>
  </filter>
  <filter id="z" x="-.17" y="-.03643" width="1.34" height="1.0729">
   <feGaussianBlur stdDeviation=".3308"/>
  </filter>
  <filter id="y" x="-.14519" y="-.02055" width="1.2904" height="1.0411">
   <feGaussianBlur stdDeviation="1.8108"/>
  </filter>
  <filter id="x" x="-.12952" y="-.02091" width="1.259" height="1.0418">
   <feGaussianBlur stdDeviation="1.4652"/>
  </filter>
  <filter id="av" x="-.01334" y="-.11935" width="1.0267" height="1.2387"/>
  <linearGradient id="b">
   <stop offset="0"/>
   <stop stop-color="#1a1a1a" stop-opacity="0" offset="1"/>
  </linearGradient>
  <linearGradient id="a">
   <stop stop-color="#1a1a1a" offset="0"/>
   <stop stop-color="#808080" offset="1"/>
  </linearGradient>
  <linearGradient id="c">
   <stop stop-color="#808080" offset="0"/>
   <stop stop-color="#333" offset="1"/>
  </linearGradient>
  <linearGradient id="p" x1="517.39" x2="544.83" y1="170.65" y2="220.14" gradientUnits="userSpaceOnUse">
   <stop stop-color="#333" offset="0"/>
   <stop stop-color="#808080" offset="1"/>
  </linearGradient>
  <linearGradient id="o" x1="432.39" x2="453.15" y1="411.77" y2="414.96" gradientUnits="userSpaceOnUse">
   <stop stop-color="#1a1a1a" offset="0"/>
   <stop stop-color="#4d4d4d" offset="1"/>
  </linearGradient>
  <linearGradient id="n" x1="476.43" x2="532.88" y1="343.24" y2="338.16" gradientUnits="userSpaceOnUse">
   <stop stop-color="#808080" stop-opacity=".7457" offset="0"/>
   <stop stop-color="#808080" stop-opacity="0" offset="1"/>
  </linearGradient>
  <linearGradient id="m" x1="483.2" x2="504.66" y1="251.25" y2="480.38" gradientUnits="userSpaceOnUse">
   <stop stop-color="#4d4d4d" offset="0"/>
   <stop stop-color="#808080" stop-opacity="0" offset="1"/>
  </linearGradient>
  <linearGradient id="j" x1="425.76" x2="425.41" y1="266.5" y2="275.3" gradientUnits="userSpaceOnUse">
   <stop offset="0"/>
   <stop stop-color="#4d4d4d" offset=".8145"/>
   <stop offset="1"/>
  </linearGradient>
  <linearGradient id="i" x1="538.99" x2="539.11" y1="257.95" y2="266.21" gradientUnits="userSpaceOnUse">
   <stop offset="0"/>
   <stop stop-color="#4d4d4d" offset=".8431"/>
   <stop offset="1"/>
  </linearGradient>
  <linearGradient id="h" x1="514.85" x2="512.25" y1="310.7" y2="333.58" gradientUnits="userSpaceOnUse">
   <stop offset="0"/>
   <stop stop-color="#2e2e2e" offset=".3872"/>
   <stop stop-color="#2f2f2f" offset=".47"/>
   <stop offset=".7999"/>
   <stop stop-color="#2b2b2b" offset="1"/>
  </linearGradient>
  <linearGradient id="g" x1="434.17" x2="458.76" y1="310.95" y2="299.39" gradientUnits="userSpaceOnUse">
   <stop stop-color="#5c4e50" offset="0"/>
   <stop stop-color="#5c4e50" offset=".5254"/>
   <stop offset="1"/>
  </linearGradient>
  <linearGradient id="f" x1="430.88" x2="461.59" y1="306.92" y2="306.7" gradientUnits="userSpaceOnUse">
   <stop stop-color="#353535" offset="0"/>
   <stop offset="1"/>
  </linearGradient>
  <linearGradient id="e" x1="516.17" x2="528.9" y1="312.04" y2="260.42" gradientUnits="userSpaceOnUse">
   <stop stop-color="#232020" offset="0"/>
   <stop stop-color="#5c4e50" offset=".6265"/>
   <stop offset="1"/>
  </linearGradient>
  <linearGradient id="d" x1="456.32" x2="456.1" y1="542.93" y2="538.49" gradientUnits="userSpaceOnUse">
   <stop offset="0"/>
   <stop stop-opacity="0" offset="1"/>
  </linearGradient>
  <linearGradient id="u" x1="489.69" x2="482.51" y1="320.14" y2="189.56" gradientUnits="userSpaceOnUse" xlink:href="#c"/>
  <linearGradient id="t" x1="430" x2="441.42" y1="207.5" y2="209.69" gradientUnits="userSpaceOnUse" xlink:href="#c"/>
  <linearGradient id="s" x1="545.18" x2="546.91" y1="489.81" y2="502.58" gradientUnits="userSpaceOnUse" xlink:href="#a"/>
  <linearGradient id="r" x1="535.09" x2="536.21" y1="493.8" y2="500.19" gradientUnits="userSpaceOnUse" xlink:href="#a"/>
  <linearGradient id="q" x1="417.01" x2="419.83" y1="495.65" y2="507.93" gradientUnits="userSpaceOnUse" xlink:href="#a"/>
  <linearGradient id="l" x2="0" y1="506.77" y2="542.36" gradientUnits="userSpaceOnUse" xlink:href="#b"/>
  <linearGradient id="k" x1="525.35" x2="531.81" y1="504.94" y2="552.09" gradientUnits="userSpaceOnUse" xlink:href="#b"/>
 </defs>
 <g transform="translate(-389.3 -50.297)">
  <path d="m467,62c-12.96026,2.73951-10.58584,6.95527-15,10-6.71983,2.9182-8.23897,9.17971-12,14 .0213,2.1047.0969,4.26354.1875,6.4375-.61235,1.29159-1.12725,2.48189-1.3125,3.1875-.72282,2.75326.17239,7.71992 1.4375,12.5625-.078.96371-.17391,1.90942-.3125,2.8125-.4934,6.51094-2.23425,13.56246-2.28125,19.875-1.46384,3.7903-1.99668,7.47132-2,11.0625-7.0749,1.74298-9.24887,5.60485-12.71875,9.0625-.64661,7.55187-1.0881,14.61144-5,30l-8,45-6,41c7.7426,7.2489 16.99546,10.53825 28,9.1875 .39051.84092.75041,1.68648 1.15625,2.59375l-.15625,1.21875c-8.13324,35.49629-17.62141,71.14312-20,106l-12,102h.78125l-.78125,6.59375h3.1875l-.1875,1.40625h.8125l-.8125,6.59375h21l-2.78125-2.09375 4.09375-.90625h2.6875l2,2h21l3-3 .3125.4375c.0869.9294.15818,1.85436.21875,2.8125 .009.13641.0231.26932.0312.40625 .0698,1.1703.11485,2.3612.15625,3.5625 .006.16673-.005.3328 0,.5 .0801,2.51939.12397,5.08434.15625,7.65625 .0123,1.00423.0161,1.99886.0312,3 .006.3651.0248.7296.0312,1.09375 .0474,2.69131.1221,5.36827.28125,7.9375-.0291.0884-.0641.16386-.0937.25-.62769.61433-1.24165,1.51369-1.6875,2.625-.21085.52556-.35709,1.04887-.46875,1.5625-2.14735,2.83994-4.5859,3.60461-5.71875,6.875-.7406.2598-2.26391.9598-2.625,1.78125-.61764,1.40504-.64165,2.87042.53125,3.6875 .161.11728.3404.22313.5625.3125l22.6876-.09375c.34873-.004.65308-.0425.9375-.0937 1.99093-.35883 2.52504-1.76223 3.4375-2.90625 .003-.01.34103.0865 0-.0312 .85107-3.22333.987-6.24725 0-8.96875l-2.1875-10c0,0-1.95468-5.25944-2.1875-8-.26058-3.06728.0774-7.38726.5625-11.40625h5.03125l3-5h11l1,3h15v-2l-5-1h15.125c-.0854,6.52254.73154,13.46358 1.34375,20.3125 .12244,1.36978.21437,2.73534.3125,4.09375-.3921,1.84117-.61503,4.03851 0,8v6c-.25171.6709-.39973,1.28681-.46875,1.84375-.0345.27847-.0369.52781-.0312.78125 .073,3.29475 3.36427,4.58141 5.84375,6.375h22.4375c.35018.007.69621.0126 1,0s.58234-.0323.84375-.0625c3.65968-.42253 3.36928-2.50226 4.59375-3.9375 .0668-.25.0987-.47461.125-.6875 .0178-.14346.0308-.27819.0312-.40625 .00012-.15353-.008-.3042-.0312-.4375-.006-.0357-.0236-.0594-.0312-.0937-.036-.15931-.0868-.30486-.15625-.4375-.0218-.0418-.0375-.0856-.0625-.125-.0715-.11262-.15407-.21747-.25-.3125l-.0312-.0312c-.257-.24334-.60134-.43297-1-.59375-.1058-.0423-.22952-.0861-.34375-.125-.10337-.0352-.23401-.0607-.34375-.0937l-.34375-.0937c-1.41291-.38622-3.22574-.70318-5.0625-1.5625-2.13746-1-3.53627-2.62634-5.34375-2l-.0312-.0312c-.11288-.14714-.23095-.29032-.34375-.4375-.38788-.50585-.75417-1.03426-1.15625-1.53125-.25075-.31033-.5178-.60384-.78125-.90625l-.0312-.0312-.0625-.0625c-.24816-.28108-.51669-.57289-.78125-.84375-.28862-.29615-.59242-.59458-.90625-.875l-.0312-.0312c-.31995-.28436-.64763-.54836-1-.8125-.70786-.53067-1.46809-1.0115-2.34375-1.4375-1.05011-2.61045-1.28239-5.67655-1.0625-9-.0804-6.33636.21548-12.07761.78125-17.40625h9.59375v-1l8.5625-1.71875 20.4375.71875c-.29902-2.18818-.57931-4.41198-.875-6.625l.8747.0308c-1.58289-11.58333-3.11311-23.29167-4.6875-35.0625-4.72317-35.3125-9.77745-71.1875-17.3125-105.9375l-2-4-5-35c-1.81884-12.93873-4.57867-25.87377-7.78125-38.8125 .71109-1.93727 1.44527-3.83556 2.1875-5.65625 7.92703.35638 13.41827-.64024 17.46875-2.4375 1.82702-.70462 3.38378-1.63127 4.65625-2.8125 .90034-.72141 1.71823-1.4766 2.46875-2.28125-.0408-.26208-.0848-.51936-.125-.78125 .0387-.074.0877-.14353.125-.21875-.0506-.0155-.10553-.016-.15625-.0312-6.15388-40.2835-5.07539-78.40101-18.84375-120.9688-1.52241-3.83374-2.73323-7.75836-20-7-4.8183-1.19412-10.3845-.66256-14.53125-1.21875-.16071-1.2528-.33305-2.50205-.46875-3.78125l-2-8c-.60111-2.08149-.94897-4.58505-1.125-7.375-.0587-.92998-.1006-1.88788-.125-2.875-.0976-3.94846.0582-8.31917.25-12.75-1.61384-3.31962-2.64805-6.71439-5.8125-9.8125-1.74301-7.88435-4.75513-15.31019-16.1875-20.1875-5.02718-2.28564-8.94311-1.97836-13-2zm-26.75,32.09375c.18322,4.29039.35278,8.55811.15625,12.46875-.83324-4.1704-1.09441-8.2368-.15625-12.46875zm-2.34375,40.25c.27607,2.40939.90325,4.65327 2.09375,6.65625 .0817.0736.14398.14635.21875.21875-1.13624.1093-2.16495.25291-3.125.4375-.00039-.0737 0-.14531 0-.21875-.00014-2.51906.22769-4.91334.8125-7.09375zm75.09375,61.84375c.0959-.0519.22037-.011.375.125 .65316,1.02792 1.30133,2.07053 1.9375,3.125 1.83972,3.51762 4.26319,8.97788 6.09375,12.71875 .004.008-.004.0229 0,.0312 .008.0222.0237.0403.0312.0625 .19386.57369.38248,1.15258.5625,1.75l-.125,5.59375c-.78165-1.24682-1.72537-2.67349-2.71875-4.25-.25197-4.69956-1.83008-8.98621-6.0625-12.46875-.2016-.74948-.39435-1.50052-.59375-2.25-.008-.0318-.0228-.062-.0312-.0937-.18985-1.5267-.0947-2.9514.40625-4.1875 .0316-.078.0771-.13033.125-.15625zm.1875,6.96875c2.80709,2.64734 4.21725,5.73934 4.78125,9.09375 .0831.49406.13811.99548.1875,1.5-1.64763-2.69913-3.32062-5.64959-4.4375-8.5-.0139-.0513-.0173-.105-.0312-.15625-.17507-.64442-.32643-1.29308-.5-1.9375zm-72.375,8.875c.57388.65135 1.10484,1.34012 1.59375,2.0625l-.71875,4.9375c-.0269-.49681-.0511-.99684-.0937-1.5-.15203-1.79348-.41192-3.61896-.78125-5.5zm75.78125,3.46875c.49351.65822 1.03967,1.3495 1.65625,2.09375-.0256.69389-.0636,1.3891-.125,2.09375-.0262.30002-.0622.60463-.0937.90625-.48289-1.69925-.95956-3.3945-1.4375-5.09375zm2.53125,3.125c.83987.956 1.76855,1.88744 2.71875,2.75 .005.005-.005.0265 0,.0312l-.25,10.6875c-.1518-.19265-.31849-.3689-.46875-.5625-.821-2.86599-1.6516-5.72776-2.46875-8.59375-.003-.01.003-.0216 0-.0312 .21876-1.45286.38603-2.87488.46875-4.28125z" filter="url(#as)"/>
 </g>
 <g transform="translate(-389.3 -50.297)">
  <path d="m454.02 491c1.3873 5.4622 1.6187 11.147 1.7571 16.781 0.14922 6.0735 0.0649 12.155 0.4405 18.219-0.83037 2.5261-2.3111 4.82-4.2721 6.6159-1.4919 1.3662-3.042 2.794-3.7041 4.7055v1e-5c-0.50278 0.17637-0.99061 0.39741-1.4496 0.66799s-0.94788 0.59534-1.165 1.0892c-0.32247 0.73357-0.5306 1.5528-0.37133 2.3382v1e-5c0.15371 0.75786 0.75275 1.3732 1.4701 1.6618l22.678-0.07864c1.0358-0.0132 2.0978-0.31384 2.8528-1.023 0.61019-0.57317 1.0205-1.3225 1.5425-1.977 0.78141-2.9455 1.039-6.1352 0-9v-1e-5l-2.1976-10-5e-5 -1.4e-4 -1.0161-2.987c-0.5146-1.6407-1.0359-3.2995-1.1815-5.0129-0.18435-2.17-0.0797-4.3547 0.0797-6.5267 0.17692-2.4117 0.45537-4.8152 0.78316-7.2111v-1e-5c0.2671-1.9523 0.569-3.8998 0.90116-5.8422 0.10077-0.58926 0.20435-1.178 0.31185-1.7661v-1e-5l0.0892-0.48202 0.0239-0.12671c3e-3 -0.0149 6e-3 -0.0302 9e-3 -0.0452z" fill="#5b4945"/>
  <path d="m522.13 544h22.443c1.7065 0.0328 3.6405-0.076 4.7825-1.3445 0.69715-0.77436 0.95366-1.8628 1.6299-2.6555 0.19401-0.72615 0.28582-1.5529-0.11689-2.1875l-1e-5 -1e-5c-0.35272-0.55585-0.99656-0.85044-1.6198-1.0625-1.898-0.64581-3.9285-0.9004-5.7444-1.75-0.97451-0.45592-1.848-1.1003-2.7956-1.6099-0.78138-0.42026-1.7098-0.68062-2.5481-0.39012-2.1012-2.7379-4.3776-5.4902-7.4811-7-1.1369-2.8262-1.2698-5.9603-1.0687-9-0.11474-9.0408 0.57604-18.094 2.1375-27l-16.031-1c-1.6845 10.566 0.2978 21.328 1.0687 32-0.55879 2.6239-0.41157 5.349 0 8v6c-0.40171 1.0707-0.64872 2.2351-0.44371 3.3601 0.15898 0.8725 0.61362 1.6739 1.216 2.3248 1.2816 1.3847 3.0426 2.2093 4.5713 3.3151z" fill="#5b4945"/>
  <path d="m454.02 491c2.2102 8.7018 1.6604 20.409 2.0259 31.125 2.9648-2.3482 6.4627-3.4836 10.164-4.1562l-0.75544 3.2188c-1.4837 3.8021-4.7809 7.6042-8.0694 11.406 3.3483-2.3168 6.656-4.1166 9.8207-4.0938 3.1378 1.7837 4.952 4.3706 5.8718 7.5-1.0473 1.5521 0.50817 3.1042-4.876 4.6562-2.8188 0.26111-5.3552 0.458-8.8592 0.875l2.7814 1.4688h7.2797c2.7899-0.0355 3.3525-1.6926 4.3953-3 0.85801-3.2342 0.98998-6.2703 0-9l-2.1976-10s-1.9648-5.2594-2.1976-8c-0.6237-7.3417 2.1976-22 2.1976-22z" fill="url(#l)" filter="url(#aw)"/>
  <path d="m515.72 489c-1.5578 9.7712 0.28366 21.133 1.0687 32-0.3921 1.8412-0.61503 4.0385 0 8v6c-2.0137 5.3672 2.292 6.7925 5.3437 9h12.624c-0.95434-1.5405-1.7581-3.2104-1.8369-5.4062 1.871-1.6258 5.2382-0.96453 7.8485-1.4375-3.4625-0.28265-6.6631-1.4163-10.587-0.1875-1.3917 1.9904-0.54734 2.9324 0.56776 3.75l-9.2512 0.1875 3.3398-3.3125c-1.8448 0.24187-3.6992 1.1447-5.544-0.15625-0.9731-2.0359-0.5893-5.3459 0.46757-9.2812 2.7145-1.3482 5.8209-1.4491 9.5518 0.53125l7.7149 5.0938 1.1021-0.8125c-2.0088-2.6184-3.9608-5.2724-7.4477-6.9688-1.0501-2.6104-1.2886-5.6766-1.0687-9-0.13091-10.315 0.74534-19.06 2.1375-27l-16.031-1zm32.429 47.438c0.7993 1.4591 1.4862 2.9159 1.1021 4.375-3.2246 0.87116-7.2276 0.69937-11.723-0.0937-1.6664 0.75224-1.802 2.0097-1.8035 3.2812l8.8504-5e-5c5.6028 0.10776 5.013-2.3597 6.4124-4 0.65673-2.458-0.69985-3.0243-2.8388-3.5625z" fill="url(#k)" filter="url(#at)"/>
  <path d="m470.62 539.53c-1.668 1.3347-3.127 3.338-6 0.65625l-2.2188 2c-2.1431-0.0856-5.1704 0.39987-6.4688-1.0938-2.454 0.73031-4.6377 1.8353-8.2188 0.875l-2.3738-0.70261c0.0723 0.77942 0.42762 1.4313 1.375 1.8125l22.686-0.07864c2.7899-0.0355 3.3322-1.6926 4.375-3 3e-3 -0.01 0.34103 0.0866 0-0.0312z" fill="url(#d)" filter="url(#av)"/>
  <path d="m467.56 535.52c-1.5709 0.92439-2.4413 2.6507-3.1487 4.3306l-5.1788-1.5918-5.9763 0.62909h-3.46l2.8309-3.46 5.0327 0.62908 2.5163-0.62908 2.5163 1.8873 1.5727-2.5164z" fill-rule="evenodd" filter="url(#au)" opacity=".5"/>
  <path transform="matrix(.74926 .66227 -.66227 .74926 473.04 -175.08)" d="m469.74 537.19c0 1.7811-0.89621 3.225-2.0017 3.225s-2.0017-1.4439-2.0017-3.225 0.89621-3.225 2.0017-3.225 2.0017 1.4439 2.0017 3.225z" fill="#fff" filter="url(#al)" opacity=".45"/>
  <path transform="matrix(.64866 .36991 -.31026 .77335 325.34 -47.945)" d="m458.92 529.53c0 3.2572-1.4787 5.8977-3.3027 5.8977s-3.3027-2.6405-3.3027-5.8977 1.4787-5.8977 3.3027-5.8977 3.3027 2.6405 3.3027 5.8977z" fill="#fff" filter="url(#ak)" opacity=".45"/>
  <path transform="translate(-1.5727 -.62909)" d="m454.83 541.71c0 0.60801-1.5491 1.1009-3.46 1.1009s-3.46-0.49289-3.46-1.1009 1.5491-1.1009 3.46-1.1009 3.46 0.49289 3.46 1.1009z" fill="#fff" filter="url(#ah)" opacity=".45"/>
  <path d="m463.01 541.32c0 0.56458-1.3378 1.0223-2.9882 1.0223s-2.9882-0.45768-2.9882-1.0223 1.3378-1.0223 2.9882-1.0223 2.9882 0.45768 2.9882 1.0223z" fill="#fff" filter="url(#ag)" opacity=".45"/>
  <path d="m529.38 540.46c0 1.0423-1.6195 1.8872-3.6172 1.8872s-3.6172-0.84495-3.6172-1.8872 1.6195-1.8873 3.6172-1.8873 3.6172 0.84495 3.6172 1.8873z" fill="#fff" filter="url(#ai)" opacity=".45"/>
  <path transform="translate(-2.2018 -2.5163)" d="m546.68 543.29c0 1.216-2.2532 2.2018-5.0327 2.2018s-5.0327-0.98578-5.0327-2.2018 2.2532-2.2018 5.0327-2.2018 5.0327 0.98578 5.0327 2.2018z" fill="#fff" filter="url(#aj)" opacity=".45"/>
 </g>
 <g transform="translate(-389.3 -50.297)">
  <path d="m402.25 483.86-1.25 10.75h4l-1 8h21l-4-3h8l2 2h21l3-3 2 3h18l3-5h11l1 3h15v-2l-5-1h23l-1 3h18v-3l29 1c-0.62077-4.5427-1.2318-9.1726-1.8438-13.75h-164.91z" filter="url(#ax)"/>
  <path d="m406 498 4 3h10l9-2v-7h-23z" fill="url(#q)"/>
  <path d="m540 497h-9l-1-6h10z" fill="url(#r)"/>
  <path d="m553 489v7l-15 3v-11z" fill="url(#s)"/>
  <path d="m500 126c0.67769 1.1526 1.9027 1.8888 3.1781 2.2904 1.5915 0.50126 3.2753 0.62757 4.9418 0.7123 3.9764 0.20219 8.0155 0.0395 11.88 0.99725 5.379-0.23625 11.118-0.68738 15.904 1.778l7e-5 4e-5c1.0962 0.56462 2.0722 1.3786 2.7567 2.4042 0.57844 0.86679 0.95453 1.8492 1.3391 2.8178 6.4813 20.038 10.012 40.918 12.332 61.85v3e-5c2.2228 20.053 3.563 40.215 6.6676 60.15-3.2333 3.4665-7.6119 5.7539-12.246 6.7523-8.4436 1.8191-17.242 0.71208-25.754-0.75227v-8l1-43c-2.5045-8.3114-7.3988-15.639-12-23 5.0508 20.133 11.111 39.997 16.654 60 5.476 19.759 10.491 39.696 13.346 60l1e-5 7e-5 5 35 2 4c10.083 46.502 15.558 93.856 22 141l-29-1v3h-18l0.99999-3 1e-5 -3e-5h-23l5 1v2h-15l-1-3h-11l-4e-5 6e-5 -2.9999 4.9999-4e-5 6e-5h-18l-2-3-3 3h-21l-2-2h-8l4 3h-21l1-8v-4e-5h-4l12-102v-7e-5c2.4508-35.914 11.96-70.911 20-106l12-84c-1.1429 4.1878-2.5421 8.3028-3.6607 12.497l-1e-5 7e-5c-0.91378 3.4264-1.5956 6.9658-1.3393 10.503v4e-5l9 52-6e-5 3e-5c-7.8953 3.6908-16.607 6.2067-25.277 5.3213-7.3686-0.75255-14.316-4.259-19.723-9.3213l6-41 8-45 2e-5 -7e-5c1.5053-5.9215 2.8369-11.894 3.7245-17.939 0.58743-4.0007 0.93056-8.0324 1.2755-12.061 2.3231-2.3149 4.3495-4.9921 7.1232-6.742 4.3503-2.7445 9.7331-3.258 14.877-3.258z" fill="#e6e6e6"/>
  <path d="m442 226 4.9375 33.125 2.0625 11.875-0.28125 0.125 3.2812 21.875 3-7 10 2 8 18v43h-6l7 7-12.018 139.47 13.263-0.0223 2.8884-4.9554 10.554 0.0446 1.0446 2.9554 15.67-0.0446 0.0446-2.8482-5.4464-0.59821h23l-1 3h18v-3l29 1c-6.3316-46.333-11.953-94.667-22-141l-2-4-5-35c-1.9653-13.98-6.4606-30.02-10-44l-10-2 1-32z" fill="url(#n)" fill-rule="evenodd" filter="url(#am)"/>
  <path d="m445 327.27c-5.2553 43.425-6.3681 116.5-17 158.73l1 6-0.12754 1.4722 1.9224 2.0013 21.473-5e-3 2.6652-2.6875 0.06696-1.781c-0.0325-45 2.2544-118.73-10-163.73z" fill="url(#o)" filter="url(#x)"/>
  <path d="m480 336c-2.2314 53.202-6.0445 107.62-5.0134 159.42h0.28125l3-4.9554 1.2857 0.0223c-3.3041-47.305 0.44451-103.33 0.44643-154.49z" fill="#4d4d4d" filter="url(#ar)"/>
  <path d="m525 341-5 30c2.7126 40.98 1.1537 79.828 0.25 119h2.75l-1 3h3.0938c0.37838-32.743 1.3441-66.073-0.0937-97l2.1949-65.176z" fill="#4d4d4d" filter="url(#aq)"/>
  <path d="m435 285c-10.374 70.333-12.558 141.13-29.933 211.46l21.468 0.0487-4.0202-3.0079 2.016 8e-3c-0.14705-68.422 6.5838-139.08 10.469-208.51z" fill="#4d4d4d" filter="url(#y)"/>
  <path d="m405 266c6.636-0.87354 13.346 0.2713 20 1 7.7452 2.3029 15.958 2.2179 24 3-7.5105 2.9288-15.348 5.5278-23.409 5.486-3.7217-0.0193-7.4611-0.68197-10.874-2.1655-3.7507-1.6302-7.038-4.23-9.7165-7.3205z" fill="url(#j)"/>
  <path d="m559 258c-1.0768 2.1728-2.8848 3.9439-5.0034 5.1236-2.4898 1.3864-5.3178 2.0654-8.1448 2.4254-7.9314 1.0101-15.98-0.15037-23.852-1.549v-9c6.2855 0.50964 12.603 0.39046 18.906 0.58574 6.0998 0.18898 12.257 0.63064 18.094 2.4143z" fill="url(#i)"/>
  <path d="m445 146h-10l0.42327 37.822c-0.90562-0.0838-1.6059-0.81986-2.198-1.5103-0.87868-1.0247-1.5888-2.1817-2.2773-3.3428l-1e-5 -1e-5c-1.4745-2.4863-2.7106-5.1322-4.4753-7.4218l-1e-5 -1e-5c2.1134 13.292 5.326 26.38 8.5273 39.453-3.4922-2.8094-5.6505-6.8835-7.9629-10.723v-1e-5l7.9629 25.723c-1.1452 0.0466-2.2003-0.61394-3.0589-1.3732-1.0234-0.90503-1.881-1.9786-2.7877-3.0006l0.84654 19.374 5 15-1 12v1e-5l14 1-9-51c0.39259-8.5901 3.5176-16.767 6-25z" fill="url(#t)" fill-rule="evenodd" filter="url(#ac)"/>
  <path d="m556 245c-11.216-1.9946-22.743-2.7506-34-1l1-30v-1e-5c-2.8223-8.1975-7.3241-15.699-12-23l14 15v-40c1.3427-5.5214 3.0142-11.024 5.8088-15.971 2.1516-3.8094 5.1549-7.3406 9.1912-9.0285 10.652 33.492 13.137 68.972 16 104z" fill="url(#p)" fill-rule="evenodd" filter="url(#bg)"/>
  <path d="m529.96 334.57 15.564 151.25-4.3897-81.409v-2e-5z" fill="#4d4d4d" filter="url(#ap)"/>
  <path d="m500 491v-45l6.1972-45.775-3.1972 89.775z" fill="#4d4d4d" fill-rule="evenodd" filter="url(#ao)"/>
  <path d="m506.38 397.53-4.0625 92.469h5.5625l-1.5-92.469z" fill="#efefef" fill-rule="evenodd" filter="url(#an)"/>
  <path d="m427 267.27c-3.1065-0.48414-6.1382-1.3716-9.2408-1.8804-4.1298-0.67716-8.357-0.59529-12.508-0.0651h-1e-5l14.566-82.008c0.38136 7.6987-0.6242 15.396-1.769 23.019-1.1917 7.9354-2.6476 15.838-3.4164 23.826v1e-5c-0.68756 7.1431-0.90623 14.466 0.97206 21.392v1e-5c0.84597 3.1194 2.159 6.1263 4.018 8.7704 1.9556 2.7816 4.5064 5.1266 7.3786 6.9465z" fill="#c5c5c5" filter="url(#ab)"/>
  <path d="m537.98 251.49c3.7251-6.9172 6.1363-14.477 7.8168-22.151 1.6073-7.3404 2.633-14.797 4.1759-22.151 0.0547 4.0847-0.0227 8.1778-0.49686 12.235-0.65546 5.6087-1.793 11.149-2.8893 16.688-1.8834 5.5914-5.0766 10.651-8.6065 15.379z" fill="#1a1a1a" fill-rule="evenodd" filter="url(#af)"/>
  <path d="m527.96 219.83c4.7792-5.4413 8.4283-11.847 10.745-18.708 3.322-9.8384 4.6045-20.242 5.6165-30.576-0.43593 5.5132-0.19297 11.056-0.35769 16.584-0.17124 5.7471-0.88678 11.528-2.8348 16.938-1.1831 3.1988-3.315 5.962-5.6662 8.4325-2.4107 2.5331-5.0682 4.8204-7.5029 7.3305z" fill="#1a1a1a" fill-rule="evenodd" filter="url(#ae)"/>
  <path d="m525.77 214.45c2.444-8.2033 3.9725-16.666 4.8897-25.176 0.46185-4.2852 0.74787-8.5944 0.68992-12.904v-1e-5c-0.0471-3.4997-0.27102-7.0288-1.19-10.406 0.32061 16.246-2.0894 32.401-4.3897 48.486z" fill="#1a1a1a" filter="url(#ad)"/>
  <path d="m442 226 4.9375 33.125 2.0625 11.875-0.28125 0.125 3.2812 21.875 3-7 10 2 8 18v43h-6l7 7-12.018 139.47 13.263-0.0223 2.8884-4.9554 10.554 0.0446 1.0446 2.9554 15.67-0.0446 0.0446-2.8482-5.4464-0.59821h23l-1 3h18v-3l29 1c-6.3316-46.333-11.953-94.667-22-141l-2-4-5-35c-1.9653-13.98-6.4606-30.02-10-44l-10-2 1-32z" fill="url(#m)" fill-rule="evenodd" filter="url(#w)"/>
  <path d="m455 151c-6.6081 23.775-11.278 48.594-13 75l8 25v-5l10 5 5-5 20 10v-10h9.4688l9.5312 21-0.9375-22.531 5.0625-2.5312 1.875 16.062 11-25c-7.6318-27.333-15.21-54.667-21-82z" fill="url(#u)" fill-rule="evenodd" filter="url(#v)"/>
  <path d="m520.01 131.17c-0.71289 7.4322-1.5727 15.003-4.6707 21.797 2.1356-2.8504 3.0678-6.423 3.6086-9.9434 0.60243-3.922 0.73864-7.8985 1.0621-11.853z" fill="#1a1a1a" fill-rule="evenodd" filter="url(#z)"/>
  <path d="m519.73 130.93c0.66378 7.4603 1.408 15.178-1.0031 22.269 2.1202-2.9994 2.7018-6.8379 2.5411-10.507-0.17307-3.952-1.0158-7.8403-1.538-11.761z" fill="#1a1a1a" fill-rule="evenodd" filter="url(#aa)"/>
 </g>
 <g transform="translate(-389.3 -50.297)">
  <path d="m524 256-7 18s-1.5886 1.8707-2 3c-1.0331 2.8362 0 5-1 9-1.4479 5.7917-4.3771 7.4591-7 17-0.15815 0.57528-0.30204 1.1285-0.4375 1.6875l-0.10798 1.603-0.23577 13.366s0.48078 1.8438 0.4375 2.7812c-0.0352 0.76217-0.5625 2.2188-0.5625 2.2188 0.62055 1.4151 1.5627 1.0614 2.4688 0.90625l0.59375 6 0.40625 1.4062c0.25734 0.90772 1.3055 0.6804 2.1562 0.375 0.40044-0.14376 0.65145-0.76445 0.71875-0.5625l0.6875 2.0938c0.57334 1.7209 2.5433 1.3224 2.6562-0.0937l0.21875-2.7813c0.0556-0.69632 0.51693 1.3708 1.4062 1.7188 0.99887 0.39083 1.879-0.5908 1.9062-1.4062 0.26786-8.011 2.393-14.983 5.6875-21.312l1 17c0.0932 1.5848 1.76 1.3983 2 0 0.9604-5.5956 1-11.371 1-19 0 0-1.529-17.469 0-26 1.6932-9.4469 10-27 10-27z" fill="url(#e)"/>
  <path d="m506.6 307.6c1.2753 7.9862 2.0221 15.972 2.5593 23.959l0.40625 1.4062c0.25734 0.90772 1.3055 0.6804 2.1562 0.375 0.40044-0.14376 0.65145-0.76445 0.71875-0.5625l0.6875 2.0938c0.57334 1.7209 2.5433 1.3223 2.6562-0.0937l0.21875-2.7813c0.0556-0.69632 0.51693 1.3708 1.4062 1.7188 0.99887 0.39083 1.879-0.5908 1.9062-1.4062 0.26786-8.011 2.393-14.983 5.6875-21.312l1 17c0.0932 1.5848 1.76 1.3983 2 0 0.94791-5.5228 0.99884-11.236 1-18.719l-0.1875 0.0312c-1.1866 0.36569-1.512 1.426-3.75 0.9375-2.0197-0.0747-2.827 2.2393-7.0625-0.125-1.3955-0.0292-1.9753 0.8882-4.5625-0.53125-1.1494 0.0192-2.09 0.90439-3.7188-1.0625-0.77795 0.10052-2.2993-0.0956-3.1218-0.92737z" fill="url(#h)" filter="url(#ay)"/>
  <path d="m513.24 311.79c-2.3528 6.5222-1.462 13.691-0.7929 20.593 0.27273-6.8803-0.77082-13.887 0.7929-20.593z" opacity=".8"/>
  <path d="m518.46 312.17c-2.001 6.301-2.8396 12.964-2.461 19.564 0.50203-6.56 1.1367-13.119 2.461-19.564z" opacity=".8"/>
  <path d="m447 270 1.0047 9.3822c0.35171 2.741 0.75306 5.4762 1.2498 8.1947 0.45722 2.502 0.97405 4.9994 1.7455 7.4231v1e-5c0.60178 1.8907 1.4135 3.7079 2.2611 5.5019 0.93994 1.9894 1.9504 3.9448 2.9945 5.8815l3.7444 6.6166 3e-5 5e-5 2 12c9e-3 0.83789-0.0126 1.6863 0.18755 2.5 0.25265 1.0273 0.90975 1.9483 1.8124 2.5 0 0.70218-0.18825 1.4537-0.74999 1.875l-1e-5 1e-5c-0.67179 0.50384-1.4989 0.74946-2.25 1.125 0.0917 3.4979 1.912 6.6744 3 10 0.18776 0.57393-0.14933 1.2356-0.63918 1.5888-0.72092 0.51971-1.7324 0.03967-2.3608-0.58875l-3-3v3c0 0.67709-0.34235 1.4408-1.0056 1.577l-1e-5 1e-5c-1.1439 0.23484-2.1687-0.75131-2.9944-1.577-0.32472-0.32472-0.51162-0.76098-0.69162-1.1835v-2e-5c-0.0791-0.18569-0.15252-0.3738-0.22103-0.56365l-0.0627-0.17881-0.0245-0.0735-1.5e-4 1.9994c0 0.78539-0.35486 1.721-1.125 1.875-0.94142 0.18828-1.5714-0.96421-1.875-1.875l-2-6c-0.0336-0.10083-0.11496-0.20269-0.22031-0.18861h-1e-5c-0.1358 0.0181-0.24491 0.11888-0.34855 0.20848-0.34034 0.29425-0.63573 0.63853-0.98521 0.92186-0.34483 0.27956-0.77229 0.53505-1.2082 0.451-0.63292-0.12206-0.98384-0.80026-1.2378-1.3927l-7e-5 -1.5e-4 -1.2388-2.6005c-0.65691-1.4377-1.3167-2.8824-1.7612-4.3994v-1e-5c-1.1422-3.8983-1.665-7.9516-2-12-0.33165-4.0073 0.0553-8.0341 0.32926-12.046 0.27245-3.9889 0.43932-8.0307-0.32926-11.954-0.5521-2.8185-1.4943-5.546-2.504-8.2346-1.1215-2.9862-2.3746-5.9217-3.6901-8.8276l-1e-5 -1e-5c-1.0722-2.3685-2.1886-4.717-3.343-7.0465-0.35009-0.70646-0.70371-1.4112-1.0622-2.1134v-1e-5l-0.29496-0.57439-0.078-0.1504-0.0203-0.039c-2e-3 -5e-3 -5e-3 -9e-3 -7e-3 -0.014l19 2" fill="url(#g)"/>
  <path d="m453.16 323.14c0.8415 6.165 1.8618 12.442 4.8473 17.901-1.0026-2.61-1.8338-5.2844-2.5079-7.9978-0.81779-3.2918-1.5315-6.6087-2.3394-9.903z" opacity=".8"/>
  <path d="m442.96 321.59c0.32238 2.8478 0.48553 5.7262 1.1357 8.5175 0.62115 2.6667 1.8724 5.1549 3.4402 7.3997-1.1611-2.2364-2.1877-4.5572-2.7942-7.003-0.72942-2.9413-1.1718-5.9458-1.7816-8.9142z" opacity=".8"/>
  <path d="m511.90275,333.16417c-.35861.32784-.83987.62286-1.30262.47472-.32518-.10411-.58262-.36453-.90841-.46672 .11934-.52473.0463-1.07357.0975-1.60926v-1e-005c.0431-.45172.2915-.94275.74348-.9831 .45799-.061.77116.43317.91051.87369 .17819.56326.24348,1.16068.45958,1.71051z" fill="#333"/>
  <path d="m515.63794,335.28733c-.35861.32784-.83987.62286-1.30262.47472-.32518-.10411-.58262-.36453-.90841-.46672 .11934-.52473.0463-1.07357.0975-1.60926v-1e-005c.0431-.45172.2915-.94275.74348-.9831 .45799-.061.77115.43317.91051.87369 .17819.56326.24348,1.16068.45958,1.71051z" fill="#333"/>
  <path d="m518.97996,333.08553c-.35861.32784-.83987.62286-1.30262.47471-.32518-.1041-.58262-.36452-.90841-.46671 .11934-.52473.0463-1.07357.0975-1.60927 .0431-.45172.2915-.94275.74348-.9831 .45799-.061.77115.43317.91051.87369 .17819.56326.24348,1.16068.45958,1.71051z" fill="#333"/>
  <path d="m527.68608,328.70788c-.28428.18514-.64932.33372-.95132.17917-.21218-.10857-.36001-.31713-.5729-.42429 .14179-.34795.15379-.73436.24986-1.0976 .081-.3063.30787-.61639.62383-.59287 .32244.01.48208.38599.52807.70529 .0588.40827.036.82726.12241,1.23059z" fill="#333"/>
  <path transform="matrix(.97937 .20209 -.20209 .97937 67.525 -100.76)" d="m528.36 281.02c0 0.82915-1.2224 1.5013-2.7303 1.5013s-2.7303-0.67215-2.7303-1.5013 1.2224-1.5013 2.7303-1.5013 2.7303 0.67215 2.7303 1.5013z" fill="#fff" filter="url(#be)" opacity=".2"/>
  <path d="m507.9375,306.28125c-.73843.0516-1.29681.37797-1.375.84375-.10425.62103.68909,1.28541 1.78125,1.46875 .60069.10084 1.15946.0233 1.5625-.15625 .12745.51346.78606,1.02108 1.65625,1.25 1.02638.27001 1.96833.0558 2.1875-.5 .1282.53447.95475,1.01851 2.03125,1.1875 .85626.13442 1.66758.0363 2.125-.25 .41431.42184 1.37941.79932 2.59375.9375 1.72706.19652 3.26042-.16152 3.4375-.78125s-1.05419-1.27223-2.78125-1.46875c-1.21545-.1383-2.34741-.0233-2.96875.28125-.28668-.43494-1.03542-.79589-1.9375-.9375-1.18712-.18635-2.25204.0964-2.46875.65625-.0924-.53119-.75456-1.0753-1.65625-1.3125-.62475-.16435-1.20171-.13633-1.625.0312-.11757-.53334-.84167-1.02977-1.78125-1.1875-.27304-.0458-.53511-.0797-.78125-.0625z" fill="#fff" filter="url(#bd)" opacity=".4364"/>
  <path d="m436 268.84 11.906 24.062 10.25 21.188c0.36019 2.2286 0.78402 4.3935 0.57219 7.1942-1.2277 3.2397-3.4847 3.1787-5.7909 0.32802l-1.5569 3.3474c-0.84683 0.96684-2.0152-0.51238-4.5864-2.9944l0.29958 13.531c-2.6451-2.1919-3.7564-9.456-3.4485-14.601l-2.6875-3.2812-1.6875 4.625c0.28014 1.5307 1.293 7.2666 1.7298 8.7571 0.71379 2.4362 3 7 3 7 1.5841 3.6963 3.605-1.185 4 0l2 6c1 3 3 2 3 0v-2l1 2c1.6771 3.3542 4 1.5537 4 0v-3l3 3c2 2 3.3281-0.10806 3-1-1.2371-3.3628-3.2289-6.8204-3-10 2-1 3-1 3-3-2.1815-1.3333-1.985-3.6667-2-5l-2-12s-6.9654-11.608-9-18c-2.6595-8.3556-4-25-4-25zm18.625 60.719c1.2538 0.93104 2.3551 1.2074 3.3125 0.65625 0.76782 3.5978 0.79476 7.3584 2.9062 10.688-0.24602 0.61921-0.79299 0.85547-2.2188 0-1.5124-3.6624-3.318-7.1277-4-11.344z" fill="url(#f)" filter="url(#bc)"/>
  <path d="m449.02 325.29c0.38999 2.8572 0.57086 5.7434 1.0701 8.5835h1e-5c0.46455 2.6428 1.3974 5.1928 2.6849 7.547-0.88366-2.3003-1.5395-4.685-1.9618-7.1127-0.52537-3.0204-1.0631-6.0403-1.7932-9.0178z" opacity=".8"/>
  <path transform="matrix(.87282 -.48805 .48805 .87282 -100.13 260.67)" d="m453.31 322.45c0 1.1055-1.4501 2.0017-3.2389 2.0017s-3.2389-0.89621-3.2389-2.0017 1.4501-2.0017 3.2389-2.0017 3.2389 0.8962 3.2389 2.0017z" fill="#fff" filter="url(#bb)" opacity=".2"/>
  <path transform="matrix(.88675 -.46224 .46224 .88675 -86.576 238.36)" d="m445.94 295.87c0 0.92127-1.2447 1.6681-2.7802 1.6681s-2.7802-0.74685-2.7802-1.6681 1.2447-1.6681 2.7802-1.6681 2.7802 0.74684 2.7802 1.6681z" filter="url(#ba)" opacity=".5"/>
  <path d="m528.35 295.42c0 6.6332-0.44811 12.01-1.0009 12.01s-1.0009-5.3772-1.0009-12.01 0.44811-12.01 1.0009-12.01 1.0009 5.3772 1.0009 12.01z" filter="url(#az)" opacity=".8"/>
  <path d="m462.13728,344.56299c.69039.0605 1.17468-.64652 1.4874-1.26499-.54303-.93407-1.53395-1.52399-2.61338-1.5708-.0468.69075-.14152,1.46121.25895,2.02596h1e-005c.22946.32358.61341.50481.86702.80983z" fill="#333" fill-rule="evenodd"/>
  <path d="m462.13728,344.56299c.69039.0605 1.17468-.64652 1.4874-1.26499-.54303-.93407-1.53395-1.52399-2.61338-1.5708-.0468.69075-.14152,1.46121.25895,2.02596h1e-005c.22946.32358.61341.50481.86702.80983z" fill="#333" fill-rule="evenodd"/>
  <path d="m455.4591,345.5c.65011.24011 1.30344-.31452 1.76792-.82887-.27802-1.04406-1.07872-1.874-2.10776-2.2033-.22694.65408-.52115,1.37243-.28346,2.02268 .13619.37257.45891.64847.6233,1.00949z" fill="#333" fill-rule="evenodd"/>
  <path d="m450.92739,345.36099c.65011.24011 1.30344-.31452 1.76792-.82887-.27802-1.04406-1.07872-1.874-2.10776-2.2033-.22694.65408-.52115,1.37243-.28346,2.02268 .13619.37257.45891.64847.6233,1.00949z" fill="#333" fill-rule="evenodd"/>
  <path d="m444.86657,339.03606c.65011.24011 1.30344-.31452 1.76792-.82887-.27802-1.04406-1.07872-1.874-2.10776-2.2033-.22694.65408-.52115,1.37243-.28346,2.02268 .13619.37257.45891.64847.6233,1.00949z" fill="#333" fill-rule="evenodd"/>
 </g>
 <g transform="translate(-389.3 -50.297)">
  <path d="m467.89 64.669c-12.96 2.7395-10.586 6.9553-15 10-6.7198 2.9182-8.239 9.1797-12 14 0.0213 2.1047 0.0969 4.2635 0.1875 6.4375-0.61235 1.2916-1.1272 2.4819-1.3125 3.1875-0.72282 2.7532 0.17239 7.7199 1.4375 12.562-0.078 0.96371-0.17391 1.9094-0.3125 2.8125-0.4934 6.5109-2.2342 13.562-2.2812 19.875-2.2942 5.9404-2.3406 11.59-1.5625 17.094-2.5159 4.9872-2.5477 12.955-1.5 22.219-0.24796 2.9221-0.50898 5.8633-0.75 8.7812-1.3678 6.6355-3.1462 13.238-6.2188 19.719 3.0618-4.7693 4.7548-9.9409 5.875-15.281-0.2383 3.5733-0.38347 7.0689-0.3125 10.375-1.7012 10.698-4.1349 21.42-8.25 32.219 3.9949-8.4013 6.6119-17.801 8.5-27.719 0.2631 2.7722 0.73365 5.3782 1.5 7.7188l0.21875 0.21875c-3.4184 11.346-0.75006 22.45 2.7188 33.531-1.0756 4.276-2.5219 8.524-4.2188 12.75 1.6344-3.8169 3.2258-7.6562 4.5625-11.594 0.7434 2.34 1.4987 4.6915 2.25 7.0312-0.516 3.983-0.67466 8.6786-1.25 14.844 0.35771-1.9026 1.1703-6.2469 2.5625-10.75 1.0308 3.3982 1.9541 6.8068 2.625 10.219-0.47448-3.8411-1.3173-7.6046-2.2812-11.344 1.3456-4.0772 3.1857-8.1223 5.5938-10.438 1.1363 3.8653 1.1131 8.9752 0.84375 14.312-0.53949 0.59136-1.0786 1.1566-1.6562 1.75 0.54816-0.46555 1.0939-0.93254 1.625-1.4062-0.22163 4.2487-0.57763 8.6243-0.59375 12.656 0.50057-4.5654 1.2302-9.1481 1.75-13.719 0.83386-0.7768 1.6356-1.568 2.4062-2.375-0.93483 6.879-2.8014 14.356-2.1562 19.312 1.4294-7.1473 2.8599-14.17 3.9062-21.219l0.0312-0.0312c0.88702-1.0446 1.6934-2.1371 2.4375-3.25-0.58087 4.648-1.46 9.3369-1.9375 13.969 1.021-6.0438 3.2741-11.819 4.125-17.906 1.8737-4.1234 2.6656-8.7614 1.75-14.219 4.5888 9.0476 0.87663 16.443-0.3125 27.656 2.4368-4.8737 4.7138-9.4019 6.5-14.25 0.85467 5.1087 2.5234 9.9158 4.5 14.625-0.095 0.81814-0.17153 1.6072-0.25 2.4062 0.083-0.78208 0.17423-1.5824 0.28125-2.375 0.92394 2.1992 1.9039 4.3919 2.9062 6.5625-1.0538-2.5941-1.9437-5.1853-2.7188-7.7812 0.4153-2.8531 0.92937-5.7411 1.3438-8.5938 1.1157 2.427 2.2946 4.812 3.5 7.1875-1.1772-2.8197-2.2711-5.6626-3.3125-8.5312 0.95246-7.1433 1.0717-13.928-2.7812-18.969 8e-3 -0.0952 0.0236-0.18551 0.0312-0.28125-0.15329-0.61315-0.28965-1.1508-0.4375-1.75 9.7767-3.0031 11.183-7.0723 12.062-11.188l0.3751 6.9374 0.6875 3.25c-1.0986 6.8305-3.4163 14.61-8.0312 24.188 3.2622-6.3563 6.5323-12.689 8.6562-21.094l0.125 0.59375c-0.25982 10.922-0.90295 21.955-5.75 34.406 4.3545-8.9761 6.4298-17.745 7.375-26.438l5.3438 25.969c1.1168-5.1044-2.9603-29.104-0.1875-36.625 0.48185 8.0315 2.2597 15.606 4.3438 22.781-0.30565 4.9926-0.68716 10.001-1.0312 15 0.52827-4.2873 1.1482-8.5589 1.6875-12.844 1.5232 5.0618 3.1349 9.9268 4.5 14.594-1.4212-5.417-2.9782-10.803-4.2812-16.312 0.65143-5.3539 1.1646-10.729 1.3438-16.188 2.3537 9.8412 1.4031 21.102 8.2188 34.719-2.1265-15.595-4.0386-28.349 0-44 0.52623 1.3061 0.95159 2.705 1.3125 4.1562-3.5911 11.299-0.67698 23.879 0.6875 36.031-0.77947-10.697-1.1042-23.312 0.3125-30.906 1.5216 10.413 1.0532 22.731 5.3125 31.781-0.52273-2.096-2.3985-17.661-0.1875-22.156l2.9062 21.25-1.625-22.438c0.17734-0.0325 0.36002-0.0441 0.5625 0 2.3948 4.483 6.3438 17.188 6.3438 17.188s-2.3204-11.311-4.2188-22.5c0.35989-1.8316 0.73821-3.6638 1.125-5.5 3.4215 4.6028 7.5458 8.6223 12.031 12.344-4.2665-4.4849-8.2391-9.1295-11.656-14.125 0.58246-2.8855 1.0569-5.7487 1.2188-8.5 1.3865 1.5782 2.9792 3.1624 4.5938 4.3125-0.50361-1.3777-2.4323-4.2131-4.5625-7.5938-0.25579-4.7709-1.871-9.1144-6.25-12.625-0.6338-2.3602-0.76523-4.5638-0.0312-6.375 1.0108-2.4948 10.667 22.523 11.031 19.469-2.9946-5.6132-6.2748-14.562-6.4688-19.781 5.4048 6.9654 9.0848 15.759 13.281 24-3.5873-8.8729-6.9783-17.762-13.031-26.438 0.0497-0.17115 0.0896-0.35223 0.15625-0.5 0.37126-0.82333 8.8215 13.711 9.1562 12.906l-7-15c-0.46289-1.7032-0.93983-3.3957-1.4062-5.0938 2.4004 2.673 5.5759 4.4386 9.1875 4.4375-3.2-0.31451-7.0849-2.9068-9.875-6.9688l-0.34375-1.25c0.44357-1.5839 0.75167-3.1204 0.96875-4.625 3.724 5.8821 7.8279 11.009 12.531 14.938-4.9689-5.4179-8.9357-10.965-12.312-16.594 0.61682-6.8026-1.2078-12.734-5.375-17.719 0.91976-5.5619 1.2101-10.904-3.1562-14.75-0.66219-2.4036-1.8581-4.605-3.5625-6.2812-0.29168-1.744-0.55987-3.5297-0.8125-5.3125 2.8942 3.5877 6.8326 5.6318 11.844 5.4375-2.6446-0.45202-7.8945-1.6895-12.094-7.3125-0.2143-1.6218-0.41774-3.247-0.59375-4.9062l-2-8c-1.603-5.5506-1.3837-14.138-1-23-1.6138-3.3196-2.648-6.7144-5.8125-9.8125-1.743-7.8844-4.7551-15.31-16.188-20.188-5.0272-2.2856-8.9431-1.9784-13-2zm45.625 201.06c0.0505 0.20238 0.10474 0.32161 0.125 0.25l-0.125-0.25zm-72.375-168.97c0.18322 4.2904 0.35278 8.5581 0.15625 12.469-0.83324-4.1704-1.0944-8.2368-0.15625-12.469zm-2.3438 40.25c0.27607 2.4094 0.90325 4.6533 2.0938 6.6562 0.83999 0.75663 1.313 1.4512 1.4688 2.0938-1.7209 0.60459-3.0846 1.6164-4.1562 3-0.36461-4.2574-0.34194-8.2613 0.59375-11.75zm68.969 4.0625c0.72844 1.1124 1.3435 2.3993 1.8438 3.8125-0.39615-0.25899-0.82834-0.50926-1.2812-0.75-0.18971-1.0174-0.38425-2.0335-0.5625-3.0625zm0.6875 3.8438c0.60878 0.47012 1.164 0.94078 1.6562 1.4375 0.70411 2.6126 0.92184 5.5577 0.46875 8.5625-0.756-3.2836-1.4807-6.6067-2.125-10zm-66.062 1.2812c0.0273 0.91061-0.54519 1.7218-1.5 2.4688-0.43117 3.4473-0.69291 6.9403-1.3438 10.344-0.46254-2.9146-0.88826-5.7999-1.1875-8.5938 0.98674-1.6857 2.3239-3.105 4.0312-4.2188zm69.125 1.8438c2.6633 3.6982 2.8522 7.9683 2.4375 12.375-0.8339-0.96041-1.7373-1.8944-2.75-2.7812-0.11085-0.46489-0.20312-0.93957-0.3125-1.4062 0.83722-2.611 1.0376-5.4703 0.625-8.1875zm-74.156 4.5312c0.48682 2.7873 1.1303 5.541 1.7812 8.2812-0.65618 2.6905-1.6173 5.3173-3.25 7.8125-0.0624 0.86759-0.14778 1.7501-0.21875 2.625-0.34274-6.9468-0.32925-13.645 1.6875-18.719zm38.531 1.0938c0 5.4596-0.89401 10.904-0.84375 15.906-3.0519 8.3347-0.1175 16.086 3.4062 23.781 0.46161 6.3876 1.5856 13.008 3.4375 19.844-1.3909 4.9374-2.4244 9.9363-11.469 13.5-0.47738-1.9383-0.96213-3.8745-1.375-5.6875 1.8542-7.6999 2.9478-15.333 0.8125-22.625 1.0933-7.3612 0.97922-14.193-1.75-19.906 0.7318-3.0928 1.6472-6.3268 2.7812-9.8125l5-15zm35.625 5.2812c0.84906 0.99913 1.5952 1.9837 2.2812 2.9688-0.0857 0.72669-0.18065 1.4581-0.28125 2.1875-0.28894-0.33466-0.6131-0.63737-0.9375-0.9375-0.35493-1.4036-0.71835-2.8004-1.0625-4.2188zm2.5 3.25c3.5668 5.2316 4.9273 10.289 4.9688 15.219-0.68909-1.1781-1.3564-2.3464-2-3.5312-0.10005-3.5474-1.205-7.0232-3.3438-9.5938 0.12179-0.69805 0.2501-1.3923 0.375-2.0938zm-1.0938 2.2812c0.14696 0.21663 0.29795 0.45716 0.4375 0.6875-0.0338 0.24991-0.0616 0.50033-0.0937 0.75-0.1236-0.47483-0.22179-0.96175-0.34375-1.4375zm0.5625 0.875c1.031 1.7561 1.8421 3.8604 2.2812 6.1875-0.74169-1.4321-1.4715-2.8736-2.1562-4.3125l-0.28125-1.0625c0.0438-0.27128 0.11061-0.54125 0.15625-0.8125zm-38.344 6.5938c0.27698 3.3395 1.1493 6.4274 3.2188 9.125-0.21701 3.719-0.21124 7.5061 0.0312 11.375-2.6851-6.4741-4.732-13.085-3.25-20.5zm39.906 0.6875c0.34721 0.64648 0.70899 1.272 1.0625 1.9062 0.0271 0.61954 0.0293 1.2414 0 1.875-0.35039-1.2616-0.71566-2.5152-1.0625-3.7812zm1.875 3.4062c0.66188 1.1518 1.346 2.2715 2.0312 3.375-0.0991 1.6097-0.35973 3.1912-0.6875 4.7812-0.5569-1.9876-1.1018-3.981-1.6562-5.9688 0.15594-0.72358 0.24659-1.4469 0.3125-2.1875zm-49.031 3.4375c1.3417 4.5221 1.3912 9.9722 0.84375 15.844-0.69563-1.6117-1.5398-3.2094-2.625-4.7812 0.31204-3.5283 0.90359-7.1775 1.7812-11.062zm11.156 2.4062c0.54617 0.61471 1.1501 1.2136 1.8438 1.7812l0.84375 16.5c-0.35702-0.85772-0.72327-1.7078-1.0938-2.5625-0.79816-5.2772-1.3648-10.52-1.5938-15.719zm-13.062 9.9688c0.98991 2.0936 1.7983 4.3337 2.4062 6.7188-0.42689 3.4289-1.0006 6.9613-1.625 10.531-0.86332-5.9005-1.1899-11.445-0.78125-17.25zm14.75 6.4688c0.34983 0.7618 0.69752 1.5179 1.0312 2.2812l0.25 5.0312c-0.4677-2.4439-0.90368-4.8794-1.2812-7.3125zm-11.562 4.0312c0.83756 5.2943 0.77935 11.258-0.28125 18-0.71901-3.1962-1.2978-6.2063-1.7812-9.125 0.76855-2.9954 1.493-5.9654 2.0625-8.875zm44.656 3.2188c3.4122 3.0861 4.8237 6.8076 5.2188 10.844-2.1053-3.4488-4.2334-7.3064-5.2188-10.844zm-76.125 4.9062 1.125 1.125c2.7878 9.6833 2.5624 19.133 0.53125 28.438-2.4869-9.4479-4.1945-19.068-1.6562-29.562zm4 4.2188c1.1361 1.2895 2.1084 2.7232 2.9062 4.2812 0.62654 4.2097 0.79161 8.1357-0.71875 15.688 1.936-2.3232 2.828-4.6456 3.1875-6.9688 0.31531 3.4801-0.0515 7.2002-1.1875 10.969-2.3709 3.1069-3.5 6.1988-4.1562 9.9062-0.6496-2.3159-1.3069-4.6176-1.9375-6.9375 2.5653-8.1936 3.876-16.905 1.9062-26.938zm73.781 0.625c0.40254 0.61317 1.7884 2.6829 3.6562 4.9375-0.10246 2.7756-0.52487 5.6479-1 8.5312-0.96098-1.4496-1.8925-2.9261-2.75-4.4375-0.63103-5.2465-0.77163-8.9902 0.0937-9.0312zm-59.594 8.3438c1.6461 1.7691 2.9582 3.4467 4 5.0625 0.94014 3.7673 0.87113 7.5995-0.125 11.469-0.0745-4.0528-1.0055-8.3048-3.5625-12.906-0.075-1.2027-0.18779-2.4114-0.3125-3.625zm37.906 1c0.0312 4e-3 0.0621-5e-3 0.0937 0 0.87801 1.3791 1.5961 2.7845 2.1875 4.2188 0.0922 6.0104-0.12927 12.074-0.46875 18.156-1.5086-7.0964-2.4264-14.439-1.8125-22.375zm22.031 3.0625c0.63055 1.0293 1.3046 2.0257 2 3-0.27544 1.6412-0.5321 3.2881-0.75 4.9062-0.45347-2.7249-0.90146-5.4219-1.25-7.9062zm-45.062 2.1562c3.2264 3.4675 3.2729 10.042 2.5625 17.281-1.3253-3.7142-2.4971-7.4926-3.4375-11.344 0.38615-1.8872 0.66782-3.8534 0.875-5.9375zm-14.406 1.9062c1.5385 4.5352 1.6831 9.28 1.2812 14.094-0.72249 1.4861-1.5764 2.9688-2.5625 4.4688 0.8377-6.1306 1.3744-12.287 1.2812-18.562zm12.938 6.5938c1.03 3.5901 2.3995 6.9892 3.9062 10.312-0.32871 2.9851-0.75886 6.0398-1.125 9.0312-1.7966-6.052-2.8597-12.109-3.0938-18.156 0.10757-0.3871 0.21232-0.7937 0.3125-1.1875zm-17.188 2.8438c1.6548 2.8773 1.6584 7.1175 1.125 11.719-0.7741 1.0272-1.6068 2.0915-2.5 3.125 0.53147-4.8707 0.78-9.7274 0.25-14.531 0.36044-0.14576 0.74359-0.24675 1.125-0.3125z" filter="url(#bf)"/>
  <path d="m467 62c-12.96 2.7395-10.586 6.9553-15 10-6.7198 2.9182-8.239 9.1797-12 14 0.0213 2.1047 0.0969 4.2635 0.1875 6.4375-0.61235 1.2916-1.1272 2.4819-1.3125 3.1875-0.72282 2.7533 0.17239 7.7199 1.4375 12.562-0.078 0.96371-0.17391 1.9094-0.3125 2.8125-0.4934 6.5109-2.2342 13.562-2.2812 19.875-2.2942 5.9404-2.3406 11.59-1.5625 17.094-2.5159 4.9872-2.5477 12.955-1.5 22.219-0.24796 2.9221-0.50898 5.8633-0.75 8.7812-1.3678 6.6355-3.1462 13.238-6.2188 19.719 3.0618-4.7693 4.7548-9.9409 5.875-15.281-0.2383 3.5733-0.38347 7.0689-0.3125 10.375-1.7012 10.698-4.1349 21.42-8.25 32.219 3.9949-8.4013 6.6119-17.801 8.5-27.719 0.2631 2.7722 0.73365 5.3782 1.5 7.7188l0.21875 0.21875c-3.4184 11.346-0.75006 22.45 2.7188 33.531-1.0756 4.276-2.5219 8.524-4.2188 12.75 1.6344-3.8169 3.2258-7.6562 4.5625-11.594 0.7434 2.34 1.4987 4.6915 2.25 7.0312-0.516 3.983-0.67466 8.6786-1.25 14.844 0.35771-1.9026 1.1703-6.2469 2.5625-10.75 1.0308 3.3982 1.9541 6.8068 2.625 10.219-0.47448-3.8411-1.3173-7.6046-2.2812-11.344 1.3456-4.0772 3.1857-8.1223 5.5938-10.438 1.1363 3.8653 1.1131 8.9752 0.84375 14.312-0.53949 0.59136-1.0786 1.1566-1.6562 1.75 0.54816-0.46555 1.0939-0.93254 1.625-1.4062-0.22163 4.2487-0.57763 8.6243-0.59375 12.656 0.50057-4.5654 1.2302-9.1481 1.75-13.719 0.83386-0.7768 1.6356-1.568 2.4062-2.375-0.93483 6.879-2.8014 14.356-2.1562 19.312 1.4294-7.1473 2.8599-14.17 3.9062-21.219l0.0312-0.0312c0.88702-1.0446 1.6934-2.1371 2.4375-3.25-0.58087 4.648-1.46 9.3369-1.9375 13.969 1.021-6.0438 3.2741-11.819 4.125-17.906 1.8737-4.1234 2.6656-8.7614 1.75-14.219 4.5888 9.0476 0.87663 16.443-0.3125 27.656 2.4368-4.8737 4.7138-9.4019 6.5-14.25 0.85467 5.1087 2.5234 9.9158 4.5 14.625-0.095 0.81814-0.17153 1.6072-0.25 2.4062 0.083-0.78208 0.17423-1.5824 0.28125-2.375 0.92394 2.1992 1.9039 4.3919 2.9062 6.5625-1.0538-2.5941-1.9437-5.1853-2.7188-7.7812 0.4153-2.8531 0.92937-5.7411 1.3438-8.5938 1.1157 2.427 2.2946 4.812 3.5 7.1875-1.1772-2.8197-2.2711-5.6626-3.3125-8.5312 0.95246-7.1433 1.0717-13.928-2.7812-18.969 8e-3 -0.0952 0.0236-0.18551 0.0312-0.28125-0.15329-0.61315-0.28965-1.1508-0.4375-1.75 9.7767-3.0031 11.183-7.0723 12.062-11.188l0.3751 6.9374 0.6875 3.25c-1.0986 6.8305-3.4163 14.61-8.0312 24.188 3.2622-6.3563 6.5323-12.689 8.6562-21.094l0.125 0.59375c-0.25982 10.922-0.90295 21.955-5.75 34.406 4.3545-8.9761 6.4298-17.745 7.375-26.438l5.3438 25.969c1.1168-5.1044-2.9603-29.104-0.1875-36.625 0.48185 8.0315 2.2597 15.606 4.3438 22.781-0.30565 4.9926-0.68716 10.001-1.0312 15 0.52827-4.2873 1.1482-8.5589 1.6875-12.844 1.5232 5.0618 3.1349 9.9268 4.5 14.594-1.4212-5.417-2.9782-10.803-4.2812-16.312 0.65143-5.3539 1.1646-10.729 1.3438-16.188 2.3537 9.8412 1.4031 21.102 8.2188 34.719-2.1265-15.595-4.0386-28.349 0-44 0.52623 1.3061 0.95159 2.705 1.3125 4.1562-3.5911 11.299-0.67698 23.879 0.6875 36.031-0.77947-10.697-1.1042-23.312 0.3125-30.906 1.5216 10.413 1.0532 22.731 5.3125 31.781-0.52273-2.096-2.3985-17.661-0.1875-22.156l2.9062 21.25-1.625-22.438c0.17734-0.0325 0.36002-0.0441 0.5625 0 2.3948 4.483 6.3438 17.188 6.3438 17.188s-2.3204-11.311-4.2188-22.5c0.35989-1.8316 0.73821-3.6638 1.125-5.5 3.4215 4.6028 7.5458 8.6223 12.031 12.344-4.2665-4.4849-8.2391-9.1295-11.656-14.125 0.58246-2.8855 1.0569-5.7487 1.2188-8.5 1.3865 1.5782 2.9792 3.1624 4.5938 4.3125-0.50361-1.3777-2.4323-4.2131-4.5625-7.5938-0.25579-4.7709-1.871-9.1144-6.25-12.625-0.6338-2.3602-0.76523-4.5638-0.0312-6.375 1.0108-2.4948 10.667 22.523 11.031 19.469-2.9946-5.6132-6.2748-14.562-6.4688-19.781 5.4048 6.9654 9.0848 15.759 13.281 24-3.5873-8.8729-6.9783-17.762-13.031-26.438 0.0497-0.17115 0.0896-0.35223 0.15625-0.5 0.37126-0.82333 8.8215 13.711 9.1562 12.906l-7-15c-0.46289-1.7032-0.93983-3.3957-1.4062-5.0938 2.4004 2.673 5.5759 4.4386 9.1875 4.4375-3.2-0.31451-7.0849-2.9068-9.875-6.9688l-0.34375-1.25c0.44357-1.5839 0.75167-3.1204 0.96875-4.625 3.724 5.8821 7.8279 11.009 12.531 14.938-4.9689-5.4179-8.9357-10.965-12.312-16.594 0.61682-6.8026-1.2078-12.734-5.375-17.719 0.91976-5.5619 1.2101-10.904-3.1562-14.75-0.66219-2.4036-1.8581-4.605-3.5625-6.2812-0.29168-1.744-0.55987-3.5297-0.8125-5.3125 2.8942 3.5877 6.8326 5.6318 11.844 5.4375-2.6446-0.45202-7.8945-1.6895-12.094-7.3125-0.2143-1.6218-0.41774-3.247-0.59375-4.9062l-2-8c-1.603-5.5506-1.3837-14.138-1-23-1.6138-3.3196-2.648-6.7144-5.8125-9.8125-1.743-7.8844-4.7551-15.31-16.188-20.188-5.0272-2.2856-8.9431-1.9784-13-2zm45.625 201.06c0.0505 0.20238 0.10474 0.32161 0.125 0.25l-0.125-0.25zm-72.375-168.97c0.18322 4.2904 0.35278 8.5581 0.15625 12.469-0.83324-4.1704-1.0944-8.2368-0.15625-12.469zm-2.3438 40.25c0.27607 2.4094 0.90325 4.6533 2.0938 6.6562 0.83999 0.75663 1.313 1.4512 1.4688 2.0938-1.7209 0.60459-3.0846 1.6164-4.1562 3-0.36461-4.2574-0.34194-8.2613 0.59375-11.75zm68.969 4.0625c0.72844 1.1124 1.3435 2.3993 1.8438 3.8125-0.39615-0.25899-0.82834-0.50926-1.2812-0.75-0.18971-1.0174-0.38425-2.0335-0.5625-3.0625zm0.6875 3.8438c0.60878 0.47012 1.164 0.94078 1.6562 1.4375 0.70411 2.6126 0.92184 5.5577 0.46875 8.5625-0.756-3.2836-1.4807-6.6067-2.125-10zm-66.062 1.2812c0.0273 0.91061-0.54519 1.7218-1.5 2.4688-0.43117 3.4473-0.69291 6.9403-1.3438 10.344-0.46254-2.9146-0.88826-5.7999-1.1875-8.5938 0.98674-1.6857 2.3239-3.105 4.0312-4.2188zm69.125 1.8438c2.6633 3.6982 2.8522 7.9683 2.4375 12.375-0.8339-0.96041-1.7373-1.8944-2.75-2.7812-0.11085-0.46489-0.20312-0.93957-0.3125-1.4062 0.83722-2.611 1.0376-5.4703 0.625-8.1875zm-74.156 4.5312c0.48682 2.7873 1.1303 5.541 1.7812 8.2812-0.65618 2.6905-1.6173 5.3173-3.25 7.8125-0.0624 0.86759-0.14778 1.7501-0.21875 2.625-0.34274-6.9468-0.32925-13.645 1.6875-18.719zm38.531 1.0938c0 5.4596-0.89401 10.904-0.84375 15.906-3.0519 8.3347-0.1175 16.086 3.4062 23.781 0.46161 6.3876 1.5856 13.008 3.4375 19.844-1.3909 4.9374-2.4244 9.9363-11.469 13.5-0.47738-1.9383-0.96213-3.8745-1.375-5.6875 1.8542-7.6999 2.9478-15.333 0.8125-22.625 1.0933-7.3612 0.97922-14.193-1.75-19.906 0.7318-3.0928 1.6472-6.3268 2.7812-9.8125l5-15zm35.625 5.2812c0.84906 0.99913 1.5952 1.9837 2.2812 2.9688-0.0857 0.72669-0.18065 1.4581-0.28125 2.1875-0.28894-0.33466-0.6131-0.63737-0.9375-0.9375-0.35493-1.4036-0.71835-2.8004-1.0625-4.2188zm2.5 3.25c3.5668 5.2316 4.9273 10.289 4.9688 15.219-0.68909-1.1781-1.3564-2.3464-2-3.5312-0.10005-3.5474-1.205-7.0232-3.3438-9.5938 0.12179-0.69805 0.2501-1.3923 0.375-2.0938zm-1.0938 2.2812c0.14696 0.21663 0.29795 0.45716 0.4375 0.6875-0.0338 0.24991-0.0616 0.50033-0.0937 0.75-0.1236-0.47483-0.22179-0.96175-0.34375-1.4375zm0.5625 0.875c1.031 1.7561 1.8421 3.8604 2.2812 6.1875-0.74169-1.4321-1.4715-2.8736-2.1562-4.3125l-0.28125-1.0625c0.0438-0.27128 0.11061-0.54125 0.15625-0.8125zm-38.344 6.5938c0.27698 3.3395 1.1493 6.4274 3.2188 9.125-0.21701 3.719-0.21124 7.5061 0.0312 11.375-2.6851-6.4741-4.732-13.085-3.25-20.5zm39.906 0.6875c0.34721 0.64648 0.70899 1.272 1.0625 1.9062 0.0271 0.61954 0.0293 1.2414 0 1.875-0.35039-1.2616-0.71566-2.5152-1.0625-3.7812zm1.875 3.4062c0.66188 1.1518 1.346 2.2715 2.0312 3.375-0.0991 1.6097-0.35973 3.1912-0.6875 4.7812-0.5569-1.9876-1.1018-3.981-1.6562-5.9688 0.15594-0.72358 0.24659-1.4469 0.3125-2.1875zm-49.031 3.4375c1.3417 4.5221 1.3912 9.9722 0.84375 15.844-0.69563-1.6117-1.5398-3.2094-2.625-4.7812 0.31204-3.5283 0.90359-7.1775 1.7812-11.062zm11.156 2.4062c0.54617 0.61471 1.1501 1.2136 1.8438 1.7812l0.84375 16.5c-0.35702-0.85772-0.72327-1.7078-1.0938-2.5625-0.79816-5.2772-1.3648-10.52-1.5938-15.719zm-13.062 9.9688c0.98991 2.0936 1.7983 4.3337 2.4062 6.7188-0.42689 3.4289-1.0006 6.9613-1.625 10.531-0.86332-5.9005-1.1899-11.445-0.78125-17.25zm14.75 6.4688c0.34983 0.7618 0.69752 1.5179 1.0312 2.2812l0.25 5.0312c-0.4677-2.4439-0.90368-4.8794-1.2812-7.3125zm-11.562 4.0312c0.83756 5.2943 0.77935 11.258-0.28125 18-0.71901-3.1962-1.2978-6.2063-1.7812-9.125 0.76855-2.9954 1.493-5.9654 2.0625-8.875zm44.656 3.2188c3.4122 3.0861 4.8237 6.8076 5.2188 10.844-2.1053-3.4488-4.2334-7.3064-5.2188-10.844zm-76.125 4.9062 1.125 1.125c2.7878 9.6833 2.5624 19.133 0.53125 28.438-2.4869-9.4479-4.1945-19.068-1.6562-29.562zm4 4.2188c1.1361 1.2895 2.1084 2.7232 2.9062 4.2812 0.62654 4.2097 0.79161 8.1357-0.71875 15.688 1.936-2.3232 2.828-4.6456 3.1875-6.9688 0.31531 3.4801-0.0515 7.2002-1.1875 10.969-2.3709 3.1069-3.5 6.1988-4.1562 9.9062-0.6496-2.3159-1.3069-4.6176-1.9375-6.9375 2.5653-8.1936 3.876-16.905 1.9062-26.938zm73.781 0.625c0.40254 0.61317 1.7884 2.6829 3.6562 4.9375-0.10246 2.7756-0.52487 5.6479-1 8.5312-0.96098-1.4496-1.8925-2.9261-2.75-4.4375-0.63103-5.2465-0.77163-8.9902 0.0937-9.0312zm-59.594 8.3438c1.6461 1.7691 2.9582 3.4467 4 5.0625 0.94014 3.7673 0.87113 7.5995-0.125 11.469-0.0745-4.0528-1.0055-8.3048-3.5625-12.906-0.075-1.2027-0.18779-2.4114-0.3125-3.625zm37.906 1c0.0312 4e-3 0.0621-5e-3 0.0937 0 0.87801 1.3791 1.5961 2.7845 2.1875 4.2188 0.0922 6.0104-0.12927 12.074-0.46875 18.156-1.5086-7.0964-2.4264-14.439-1.8125-22.375zm22.031 3.0625c0.63055 1.0293 1.3046 2.0257 2 3-0.27544 1.6412-0.5321 3.2881-0.75 4.9062-0.45347-2.7249-0.90146-5.4219-1.25-7.9062zm-45.062 2.1562c3.2264 3.4675 3.2729 10.042 2.5625 17.281-1.3253-3.7142-2.4971-7.4926-3.4375-11.344 0.38615-1.8872 0.66782-3.8534 0.875-5.9375zm-14.406 1.9062c1.5385 4.5352 1.6831 9.28 1.2812 14.094-0.72249 1.4861-1.5764 2.9688-2.5625 4.4688 0.8377-6.1306 1.3744-12.287 1.2812-18.562zm12.938 6.5938c1.03 3.5901 2.3995 6.9892 3.9062 10.312-0.32871 2.9851-0.75886 6.0398-1.125 9.0312-1.7966-6.052-2.8597-12.109-3.0938-18.156 0.10757-0.3871 0.21232-0.7937 0.3125-1.1875zm-17.188 2.8438c1.6548 2.8773 1.6584 7.1175 1.125 11.719-0.7741 1.0272-1.6068 2.0915-2.5 3.125 0.53147-4.8707 0.78-9.7274 0.25-14.531 0.36044-0.14576 0.74359-0.24675 1.125-0.3125z"/>
 </g>
</svg>
