<?xml version="1.0" encoding="UTF-8"?>
<svg viewBox="0 0 256 134.44788" xmlns="http://www.w3.org/2000/svg">
 <g transform="matrix(.19088 0 0 .19088 -167.82 62.152)">
  <path d="m1310.8-315.34c-68.047 27.978-128.9 72.108-180.67 124.09-41.026 42.653-79.129 92.41-90.927 151.71-8.4108 40.038 5.9365 84.286 38.275 109.85 4.0277 1.8708 7.5961-4.2578 3.9812-6.8371-28.424-23.483-41.713-62.278-34.905-98.349 10.301-57.468 52.481-107.29 91.723-148.76 47.076-48.311 75.119-70.558 136.16-99.465-38.765 44.813-55.177 77.843-66.135 137.47-8.26 42.088 7.0965 86.506 37.357 116.41 20.342 21.962 46.575 36.895 69.904 55.218 1.4569 5.1828 10.609 5.7919 9.7627-0.50778-8.009-11.6-22.1-17.644-33.025-26.284-35.749-24.318-70.314-57.892-76.741-102.69-7.1841-51.25 17.905-100.02 46.068-140.96 22.202-30.157 39.862-61.488 73.661-81.162-14.188 5.4956-19.79 8.0846-24.486 10.263z"/>
  <path d="m1121.8-108.43c-15.867 35.058-19.154 77.1-3.8503 112.9 6.5968 13.159 17.346 23.997 29.885 31.583-6.0337 7.6352-18.759 4.7257-27.046 2.9449-23.524-13.047-36.673-39.482-39.342-65.592 0.9279-45.172 6.9805-49.816 27.577-85.911 12.709-22.143 45.973-62.537 45.973-62.537s-28.41 59.149-33.197 66.609z" fill="#f00"/>
  <path d="m1788.7-315.34c68.047 27.978 128.9 72.108 180.67 124.09 41.026 42.653 79.129 92.41 90.927 151.71 8.4108 40.038-5.9365 84.286-38.275 109.85-4.0277 1.8708-7.5961-4.2578-3.9812-6.8371 28.424-23.483 41.713-62.278 34.905-98.349-10.301-57.468-52.481-107.29-91.723-148.76-47.076-48.311-75.119-70.558-136.16-99.465 38.765 44.813 55.177 77.843 66.135 137.47 8.26 42.088-7.0965 86.506-37.357 116.41-20.342 21.962-46.575 36.895-69.904 55.218-1.4569 5.1828-10.609 5.7919-9.7627-0.50778 8.009-11.6 22.1-17.644 33.025-26.284 35.749-24.318 70.314-57.892 76.741-102.69 7.1841-51.25-17.905-100.02-46.068-140.96-22.202-30.157-39.862-61.488-73.661-81.162 14.188 5.4956 19.79 8.0846 24.486 10.263z"/>
  <path d="m1977.8-108.43c15.867 35.058 19.154 77.1 3.8503 112.9-6.5968 13.159-17.346 23.997-29.885 31.583 6.0337 7.6352 18.759 4.7257 27.046 2.9449 23.524-13.047 36.673-39.482 39.342-65.592-0.9279-45.172-6.9805-49.816-27.577-85.911-12.709-22.143-45.973-62.537-45.973-62.537s28.41 59.149 33.197 66.609z" fill="#f00"/>
 </g>
 <g transform="matrix(.19088 0 0 .19088 -175.64 71.969)">
  <path d="m1944.2 303.88c44.55-14.127 68.418-33.008 80.732-63.866 5.7361-14.374 10.448-28.745 10.472-31.937 0.061-8.2079-197.95-4.3077-230.17 4.5336-19.261 5.2852-24.583 9.0586-27.792 19.703-6.4646 21.446 8.1992 50.045 33.029 64.417 28.445 16.464 93.406 19.937 133.73 7.1505z" fill="#d40000"/>
  <g transform="translate(871.43 -8.5714)" stroke="#000" stroke-linecap="round" stroke-linejoin="round">
   <path d="m763.53 272.32c58.164-14.657 106.66-53.626 165.8-63.674 92.876-10.632 178.39 8.0361 270.33-11.924 36.908-6.6543 73.641-12.93 109.34-23.198 8.8138-2.4379 85.155-25.03 80.154-21.36-72.456 25.554-203.09 69.722-277.62 69.722-64.734 1.7925-132.43-7.2465-194.06 12.554-53.909 22.128-104.28 31.3-153.95 37.88z"/>
   <path d="m913.15 235.82c-1.1693 16.588-5.7407 31.849 12.993 52.756 32.356 30.221 150.3 38.056 210.07-16.798 11.196-14.478 19.849-38.266 23.429-60.81 6.2966 0.74223 17.954-2.7816 12.494 7.4983-5.9984 31.586-21.275 61.817-44.732 83.987-22.952 21.05-53.802 34.312-85.247 32.826-30.088 0.34202-59.444-2.6969-87.713-12.248-19.169-6.923-38.074-23.612-47.77-42.251-6.9402-11.818-7.9582-25.854-7.6085-39.245 4.6937-2e-5 9.3877-5.7142 14.081-5.7143z"/>
  </g>
  <path d="m1236.8 303.66c-44.55-14.523-68.418-33.934-80.732-65.657-5.7361-14.777-10.448-29.551-10.472-32.832-0.061-8.438 197.95-4.4285 230.17 4.6607 19.261 5.4334 24.583 9.3127 27.792 20.255 6.4646 22.048-8.1992 51.448-33.029 66.223-28.445 16.926-93.406 20.497-133.73 7.351z" fill="#d40000"/>
  <g transform="matrix(-1 0 0 1 2310.1 -8.5714)" stroke="#000" stroke-linecap="round" stroke-linejoin="round">
   <path d="m763.53 272.32c58.164-14.657 106.66-53.626 165.8-63.674 92.876-10.632 178.39 8.0361 270.33-11.924 36.908-6.6543 73.641-12.93 109.34-23.198 8.8138-2.4379 85.155-25.03 80.154-21.36-72.456 25.554-203.09 69.722-277.62 69.722-64.734 1.7925-132.43-7.2465-194.06 12.554-53.909 22.128-104.28 31.3-153.95 37.88z"/>
   <path d="m913.15 235.82c-1.1693 16.588-5.7407 31.849 12.993 52.756 32.356 30.221 150.3 38.056 210.07-16.798 11.196-14.478 19.849-38.266 23.429-60.81 6.2966 0.74223 17.954-2.7816 12.494 7.4983-5.9984 31.586-21.275 61.817-44.732 83.987-22.952 21.05-53.802 34.312-85.247 32.826-30.088 0.34202-59.444-2.6969-87.713-12.248-19.169-6.923-38.074-23.612-47.77-42.251-6.9402-11.818-7.9582-25.854-7.6085-39.245 4.6937-2e-5 9.3877-5.7142 14.081-5.7143z"/>
  </g>
  <path transform="matrix(2.977 0 0 2.9087 -2673.7 -563.07)" d="m1350 267.36c0 10.651-9.2741 19.286-20.714 19.286s-20.714-8.6345-20.714-19.286c0-0.25903 0.01-0.51804 0.017-0.77686"/>
  <path transform="matrix(2.977 0 0 2.7576 -2052.4 -525.59)" d="m1350 267.36c0 10.651-9.2741 19.286-20.714 19.286s-20.714-8.6345-20.714-19.286c0-0.25903 0.01-0.51804 0.017-0.77686"/>
 </g>
</svg>
