<?xml version="1.0" encoding="UTF-8"?>
<svg viewBox="0 0 160 160" xmlns="http://www.w3.org/2000/svg">
 <defs>
  <linearGradient id="b" x1=".40881" x2="1.044" y1=".63281" y2="-1.0078">
   <stop offset="0"/>
   <stop stop-color="#fff" offset="1"/>
  </linearGradient>
  <radialGradient id="a" fx=".3876" fy=".67188">
   <stop stop-color="#f00" offset="0"/>
   <stop stop-color="#a00000" stop-opacity=".71373" offset=".69372"/>
   <stop stop-color="#960000" stop-opacity="0" offset="1"/>
  </radialGradient>
 </defs>
 <g transform="matrix(1.2209 0 0 1.27 -71.146 -198.56)" fill-opacity=".1195" fill-rule="evenodd">
  <path d="m129.06 175.32c-0.22388-0.06171-0.52644 0.03425-0.78125 0.34375-2.2654 5.2909-3.1737 8.8522-6.2188 14.625-1.1564 7.8687-2.064 15.551-3.125 23.344-0.98597-0.21152-1.9868-0.38939-3.0312-0.46875-1.5011-4.6335-4.2146-11.643-5.375-15.906-2.203-3.4439-3.6781-7.1076-5.9062-10.531-1.4792-1.6354-3.6458-3.0833-5.125-4.7188-0.36095 0.42005 2.1782 4.1626 3.5 5.7812 1.2673 2.8782 3.4354 8.0106 6.1875 11.219 1.3996 5.3798 2.3634 9.5123 3.4375 14.25-0.92187 0.04228-1.954-0.0297-2.75 0.09375-0.98142 0.1522-1.9304 0.55477-2.8125 1.0625-0.14658-0.76911-0.60777-1.5228-1-1.875-2.2481-1.7971-2.8322-2.9157-4.7188-5.125-3.2861-0.28064-10.362-5.4765-14.031-7.4062-4.7101-0.37476-9.4164-0.79519-14.125-1.1875 1.2576 1.4262 2.4333 0.67092 3.5938 1.0938 3.3485 0.27967 6.8078 1.0328 10.156 1.3125 3.5595 1.9584 6.6097 4.4032 9.8438 6.875 2.328 2.7208 5.6067 5.2503 8.3438 7.6875-0.26196 0.21732-0.44053 0.39864-0.6875 0.625-1.8822-0.99121-7.1966-5.289-10.438-4.8438-7.9969 6.0222-13.445 9.3982-22.281 12.344-0.54865 1.4034-1.2459 15.54-1.0625 20.125 1.3271-1.571 0.95085-2.2799 1.25-3.5 0.00327-4.202 0.71548-8.3917 0.71875-12.594 9.1874-3.6327 14.869-9.3486 22.656-14.031 2.5362 1.182 4.6981 3.0592 7.0312 4.625-0.28306 0.30635-0.69666 0.71237-0.9375 0.96875-1.8082 1.9249-4.0236 6.11-4.0625 9.6875s0.61042 10.339 4.3125 12.719c4.0831 2.6248 10.071-0.48144 14.562-3.2812 2.4369-1.5191 4.6266-4.483 6.3125-7.5 0.70473 0.27859 1.494 0.59835 2.0312 0.78125-1.6965 5.5196-6.1934 14.857-5.0625 16.562-2.6066 7.4037-5.7997 14.503-8.4062 21.906 0.61162 0.24214 10.033-21.364 10.219-22.375 1.539 0.36083 3.0918-12.561 4.1562-17.219-0.78946-0.27717-1.5823-0.54473-2.375-0.8125 0.1216-0.23537 0.26024-0.45478 0.375-0.6875 1.8393 0.56963 3.8936 1.2621 5.5312 1.7188 3.5187 4.5146 7.502 15.679 8.6875 14.594 2.4944 3.4251 3.9718 11.882 3.6875 11.25-0.25628-5.5997-1.1566-8.9786-2.75-12.594 1.8366-0.41514-6.3703-8.7446-7.7812-15.938-1.7247-0.48034-4.2495-0.64873-6.4688-0.9375 0.08019-0.18558 0.11299-0.32014 0.1875-0.5l14.344-5.4062c6.6651 1.4134 16.134 3.1505 22.469 5.7188 2.2188 2.208 4.5949 4.9809 5.9062 8.3438-0.48491-3.6529-2.8566-7.1945-5.1562-10.188l-1.4062-1c-6.4876-1.1867-12.721-2.2823-18.219-5.5312l-3.5312 0.09375-13.188 4c0.0346-0.21969 0.07454-0.43661 0.09375-0.65625 0.30039-0.01444 0.54519-0.11295 0.65625-0.53125 4.5477-5.8263 9.8306-12.444 14.062-18.5 10.098-1.6948 16.396-7.0729 24.844-10.5l9.4688 9c-0.10291-1.3105-6.4104-7.8404-9.2188-10.469-8.8016 3.5978-16.793 7.8143-26.438 9.7188-2.6552 4.2869-8.4422 11.44-14 17.156-0.61662-1.4557-1.5702-2.734-3.0312-3.4688-0.13806-0.06943-0.32394-0.09182-0.46875-0.15625 0.64184-7.9674 1.2957-15.803 1.9375-23.844 2.5815-3.8872 3.8644-7.6332 4.9375-12.031l1.5625 10.406c0.75209-4.9474 0.05371-9.916-0.65625-13.125-0.04859-0.30917-0.21362-0.53204-0.4375-0.59375z"/>
  <path d="m128.97 174.19c-3.8725 2.7439-3.7652 8.2598-6.2066 12.082-3.4311 7.0382-2.7718 15.17-4.3023 22.717 0.55218 5.2561-3.1062 2.7109-3.134-0.94811-2.5141-7.7483-5.4921-15.495-10.247-22.145-2.2505-2.6443-5.1148-4.67-7.7972-6.8629 1.8462 5.8236 5.8253 10.591 8.15 16.176 3.5645 4.8222 4.2421 10.869 5.6735 16.442-0.92213 1.1217-4.3686 1.892-5.136-0.74253-2.4889-2.1554-4.2716-5.1733-7.8125-5.75-5.2253-2.9152-10.211-7.1995-16.578-6.7112-4.047-0.33338-8.0914-0.69776-12.14-1.0075 3.2506 2.8562 7.287 4.039 11.548 4.1619 7.8143 0.08573 13.49 5.9851 18.952 10.838-3.0515-2.2629-7.334-2.3001-10.024 0.56424-5.9556 4.1695-12.214 7.9695-19.195 10.155-0.75397 8.1959-1.256 16.425-1 24.656 3.128-4.2176 3.7701-9.394 3.7118-14.497-0.3255-2.7794 0.41498-5.849 3.555-6.3511 6.4884-3.2387 12.182-7.9823 18.358-11.808 1.8614 1.404 6.9343 2.8432 3.882 5.7092-3.8104 5.5344-3.8578 13.471-0.45386 19.157 2.0553 3.756 6.8878 4.9175 10.588 2.9442 5.6413-1.3851 10.456-5.6108 13.452-10.279-0.37866 3.5621-2.7209 6.72-3.4017 10.32-1.0813 4.2769-1.855 8.6238-3.8598 12.642-2.0444 5.1405-3.8321 10.377-5.7385 15.569 3.294 0.6543 3.4264-4.0958 4.9391-5.9897 2.9035-6.659 6.4299-13.127 8.9205-19.921l2.7342-13.933c4.6401 1.8754 5.2647 7.7768 7.9197 11.558 2.5245 3.6462 5.0704 7.37 5.5392 11.933 0.39153 1.7762 2.3935 7.0595 2.2163 2.6058 0.67604-5.5548-1.8267-10.77-3.1635-15.989-3.0694-4.4657-5.6687-9.1737-7.6992-14.202-4.4667-0.01135-3.3326-0.92774 0.04686-1.8195 3.9948-1.8099 8.4217-3.4633 12.7-1.8166 5.9111 1.3281 12.022 2.6781 17.46 5.2377 2.8415 2.8374 4.47 6.6231 7.0116 9.7108 0.04266-5.6536-2.6942-11.075-6.7812-14.812-6.0769-1.6122-12.372-2.668-18.049-5.4135-5.2104-1.7593-10.194 1.5459-15.201 2.5385 4.5437-5.667 8.5585-12.109 13.789-17.051 8.2002-1.8747 15.456-6.2843 22.992-9.855 3.7312 3.5591 7.4288 7.2204 11.656 10.188-1.7804-5.9757-6.8174-9.8493-10.938-14.188-9.0177 3.8298-18.134 7.7894-27.531 10.344-4.0752 5.5728-8.3374 10.965-13.031 16.031-0.90629-1.6405-3.4926-2.5716-2.3125-4.8438 0.77106-7.3025 0.7452-14.876 2.415-21.973 1.2672-0.94235 2.7296-8.2071 2.957-4.6767 0.4415 1.7321 1.3817 8.0253 2.1697 6.2514 1.3526-5.3166 0.93987-11.112-0.49537-16.288-0.27265-0.28198-0.67481-1.2044-1.1088-0.65755z"/>
  <path d="m129.31 173.12c-3.6071 1.518-4.7051 6.1391-6.2139 9.4887-3.9961 8.5686-4.7686 18.031-5.8798 27.293-4.0848-9.6677-6.5459-20.892-14.929-27.98-1.8777-0.91312-4.7387-6.0018-6.227-3.6446 2.8168 8.8136 8.8862 16.478 11.892 25.285-0.11124 2.336 3.8016 8.1125 0.08688 7.7046-3.3671-2.8819-6.3572-6.4634-10.783-7.922-4.9633-2.8396-10.014-5.9489-15.936-6.0554-4.3853-0.13082-8.9502-1.0825-13.229-0.79312-0.54106 1.9354 3.4772 3.8241 5.498 4.4339 6.2048 2.2949 13.715 1.4906 18.718 6.5605 4.4804 2.4435 0.94861 2.3107-1.9369 3.8625-6.538 4.2797-13.166 8.5798-20.654 11.049-0.79058 9.7538-1.0616 19.53-1.125 29.312 3.9307-5.2251 5.9956-11.575 5.8789-18.11-0.53531-3.3475 1.634-5.4031 4.4219-6.622l16.449-10.581c3.0794 1.0618 3.9906 3.4449 2.0905 5.9982-3.0007 5.7273-2.5121 12.954 0.78453 18.439 2.7121 4.9861 9.3818 4.5419 13.778 2.2595 3.2034-1.2971 6.1946-3.3092 8.4098-5.9783-3.1524 9.5496-5.8704 19.238-9.6799 28.567-0.04578 2.0942-4.5367 7.6108-0.61299 6.6738 4.6511-1.088 5.1927-6.9916 7.3663-10.533 3.9581-8.2185 7.901-16.502 9.1152-25.649-0.10069-4.8737 2.8701-1.1211 3.6474 1.2073 3.0773 6.3757 7.8896 11.962 9.1071 19.109 0.54127 2.0001 4.1437 7.6131 3.509 2.7897 1.1246-9.4013-2.7256-18.666-7.774-26.36-0.18583-2.2228-5.0014-6.3494-1.6471-7.1452 7.4142-3.4622 15.306 0.14669 22.552 2.2635 6.434 1.1118 8.6765 7.7885 12.384 12.276 2.6095 4.6978 0.78673-2.5173 0.85334-4.6165-1.1396-4.9656-3.4641-10.303-7.8321-13.058-6.5694-1.2963-12.839-3.8503-19.258-5.5064-3.7551-0.75296-7.387 0.77136-10.918 1.8248 4.1134-5.0166 7.4412-11.302 13.069-14.663 7.3434-1.9572 13.897-5.7999 20.712-9.0562 4.5273 4.3722 9.3631 8.3411 14.344 12.188-1.9869-6.4366-6.0414-11.827-10.945-16.348-1.8017-3.9288-5.0989-0.93883-7.9361-0.03025-7.4703 3.2915-15.339 5.724-22.9 8.66-3.914 5.1396-7.9216 10.174-12.219 15-2.711-3.5627-0.29964-8.4366-0.43954-12.559 0.48924-5.0186 1.0494-10.163 2.7833-14.91 0.38828 1.9869 1.4095 6.905 4.0312 4.0312 1.2304-5.8651 0.60169-12.06-1.25-17.625-0.38687-0.05141-0.73592-0.74929-1.1562-0.53125z"/>
 </g>
 <path transform="matrix(1.249 0 0 1.249 -4.8717 -166.99)" d="m66 205.75c-0.20644 0.62546-0.72161 1.4026 0.29635 1.4267 0.74496 0.25361 2.0674 0.83717 2.8123 1.0908-1.6965 5.5196-6.1863 14.865-5.0553 16.57-2.6066 7.4037-5.7905 14.477-8.3971 21.881 0.61162 0.24213 10.035-21.351 10.22-22.362 1.539 0.36083 3.0903-12.575 4.1548-17.232-1.3396-0.47032-2.688-0.91523-4.0312-1.375z" fill-rule="evenodd"/>
 <path transform="matrix(1.249 0 0 1.249 -4.8717 -166.99)" d="m66.656 203.41c0.02689 0.42697-0.74079 1.7603-0.05723 1.8079 2.0541 0.57277 4.8906 1.5839 6.9447 2.1566 3.5187 4.5146 7.5041 15.679 8.6896 14.594 2.4944 3.4251 3.9767 11.856 3.6925 11.224-0.25629-5.5996-1.1449-8.9796-2.7383-12.595 1.8366-0.41514-6.388-8.717-7.799-15.91-2.3323-0.64956-6.3991-0.63113-8.7323-1.2776z" fill-rule="evenodd"/>
 <path transform="matrix(1.249 0 0 1.249 -4.8717 -166.99)" d="m83.511 195.25-14.384 4.3812-0.67738 3.8584 15.001-5.6698c6.6651 1.4134 16.135 3.1567 22.47 5.725 2.2188 2.208 4.6025 4.9933 5.9138 8.3562-0.48491-3.6529-2.8671-7.2234-5.1668-10.216l-1.4019-0.97706c-6.4876-1.1867-12.728-2.291-18.225-5.54l-3.5296 0.08249z" fill-rule="evenodd"/>
 <path transform="matrix(1.249 0 0 1.249 -4.8717 -166.99)" d="m110.25 167.59c-8.8016 3.5978-16.793 7.8244-26.438 9.7289-2.8646 4.6252-9.3486 12.72-15.287 18.593-1.1677 1.0418 2.067 4.052 2.5703 2.1563 4.5477-5.8263 9.8238-12.424 14.056-18.481 10.098-1.6948 16.401-7.1016 24.849-10.529 2.9271 2.7812 6.5141 6.2224 9.4412 9.0037-0.10292-1.3105-6.3828-7.844-9.1912-10.472z" fill-rule="evenodd"/>
 <path transform="matrix(1.249 0 0 1.249 -4.8717 -166.99)" d="m72.874 152.01c-2.2654 5.2909-3.1787 8.8549-6.2238 14.628-1.387 9.4383-2.3616 18.547-3.7486 27.985l3.0648 0.67118c0.76126-9.5371 1.5225-18.744 2.2838-28.281 2.5815-3.8872 3.8644-7.6507 4.9375-12.049l1.5625 10.406c0.75209-4.9474 0.03272-9.9047-0.67724-13.114-0.09717-0.61835-0.68928-0.86551-1.1989-0.24652z" fill-rule="evenodd"/>
 <path transform="matrix(1.249 0 0 1.249 -4.8717 -166.99)" d="m44.094 158.34c-0.36095 0.42005 2.1741 4.1882 3.496 5.8069 1.2673 2.8782 3.442 7.9836 6.1941 11.192 1.8048 6.9375 2.9349 11.369 4.4325 18.381 0.14246 0.66392 2.639 0.32001 3.2117 0.34204 1.1691-0.24781-4.5221-13.929-6.3029-20.471-2.203-3.4439-3.7057-7.085-5.9338-10.509-1.4792-1.6354-3.6183-3.1058-5.0974-4.7413z" fill-rule="evenodd"/>
 <path transform="matrix(1.249 0 0 1.249 -4.8717 -166.99)" d="m17.781 175.16c1.2576 1.4262 2.4274 0.67777 3.5879 1.1006 3.3485 0.27967 6.8136 1.026 10.162 1.3056 3.5595 1.9584 6.5927 4.402 9.8268 6.8738 2.5503 2.9806 6.3202 5.7717 9.1753 8.4156 2.1165-0.91282 0.91657-3.2394 0.11648-3.9578-2.2481-1.7971-2.8325-2.9349-4.719-5.1442-3.2861-0.28063-10.356-5.4766-14.025-7.4063-4.7101-0.37476-9.4164-0.79519-14.125-1.1875z" fill-rule="evenodd"/>
 <path transform="matrix(1.249 0 0 1.249 -4.8717 -166.99)" d="m38.592 187.91c-7.9969 6.0222-13.467 9.4014-22.303 12.347-0.54865 1.4034-1.2219 15.532-1.0385 20.118 1.3271-1.571 0.9535-2.2511 1.2526-3.4711 0.00327-4.202 0.70649-8.404 0.70976-12.606 9.1874-3.6327 14.875-9.3652 22.663-14.048 2.8793 1.3419 5.2203 3.6608 7.948 5.2999 1.6035-1.7863 2.4408-1.7974 1.3706-2.6611-1.7727-0.86665-7.2947-5.4327-10.602-4.9783z" fill-rule="evenodd"/>
 <path transform="matrix(1.249 0 0 1.249 -4.8717 -166.99)" d="m45.964 195.85c-1.8082 1.9249-4.0442 6.1051-4.0831 9.6827s0.61429 10.336 4.3164 12.716c4.0831 2.6248 10.091-0.46663 14.582-3.2664s8.1661-10.597 9.3327-14.349-0.0183-7.9388-3.3431-9.6109-8.6851-1.8788-12.321-1.315-6.6761 4.218-8.4844 6.1429z" fill-rule="evenodd"/>
 <path transform="matrix(1.249 0 0 1.249 -4.8717 -166.99)" d="m48.288 196.09s2.6008-6.4273 12.282-4.5438 7.0799 8.1663 5.924 9.5458-24.419 17.873-18.206-5.0021z" fill="url(#b)" fill-rule="evenodd"/>
 <path transform="matrix(1.4275 0 0 1.4275 -10.141 -200.84)" d="m54.939 208.16a6.9292 6.9292 0 1 0 -13.858 0 6.9292 6.9292 0 1 0 13.858 0z" fill="url(#a)" fill-rule="evenodd"/>
</svg>
