<?xml version="1.0" encoding="UTF-8"?>
<svg viewBox="0 0 744.09448819 1052.3622047" xmlns="http://www.w3.org/2000/svg">
 <path d="m346.52 255.83c-10.838-7.6924-14.694-12.322-20.579-24.709-7.5941-15.984-13.053-23.479-24.717-33.938-8.7141-7.8137-13.298-10.627-21.857-13.413-12.946-4.214-13.018-4.2162-23.048-0.72259-6.5415 2.2785-8.8911 4.2201-13.537 11.187-5.3635 8.0425-5.7338 8.2924-8.0501 5.4318-1.3354-1.6492-3.3845-7.5697-4.5536-13.157-4.0998-19.592-11.353-31.485-22.134-36.296l-7.2478-3.2338-23.631 3.4638c-15.352 2.2503-26.586 4.7925-32.066 7.2566-13.191 5.9309-15.789 4.0076-19.711-14.592-3.9171-18.577-12.223-29.864-25.97-35.292-4.1015-1.6193-6.913-1.6964-12.603-0.34584-4.0282 0.95611-12.286 2.19-18.352 2.7419-12.205 1.1106-23.837 4.4758-27.772 8.0343-1.4111 1.2761-4.6006 2.4654-7.0877 2.643-3.463 0.24719-4.621-0.41511-4.9448-2.828-0.38421-2.8634 0.86243-5.244 9.4337-18.014 1.4919-2.2228 4.1873-6.5226 5.9897-9.5553 8.6017-14.472 11.03-17.746 22.605-30.474 6.8216-7.5007 13.209-13.638 14.195-13.638s3.7031-1.7723 6.0392-3.9385c4.0386-3.7448 5.1742-3.9385 23.09-3.9385 14.819 0 20.301 0.62211 25.669 2.913 3.7543 1.6021 9.6537 3.4383 13.11 4.0804s11.447 3.5848 17.758 6.5394 11.771 5.372 12.134 5.372c0.61083 0 10.783 4.6569 39.897 18.264 6.315 2.9516 11.815 5.3664 12.222 5.3664 0.77704 0 26.269 14.617 33.519 19.219 5.0301 3.1933 25.429 15.25 31.458 18.593 12.729 7.0585 25.96 18.34 34.486 29.407 2.7911 3.6227 3.9555 4.1452 6.1965 2.7802 1.5178-0.92445 3.579-4.1146 4.5806-7.0893 2.3868-7.0887 6.6166-7.0497 11.41 0.10542 2.0315 3.0326 5.7582 7.8598 8.2816 10.727 4.0485 4.6001 5.3815 5.1559 11.335 4.7262 6.5147-0.47018 6.9139-0.813 11.574-9.9394 6.1073-11.96 10.28-13.244 14.414-4.434 4.1034 8.7439 9.6542 8.9926 17.847 0.79952 9.497-9.497 28.935-23.849 32.379-23.906 0.9488-0.01577 3.0082-1.4465 4.5765-3.1795s3.4612-3.1508 4.2065-3.1508c1.5299 0 12.557-6.3271 28.877-16.569 10.392-6.5216 38.725-21.241 40.886-21.241 0.94343 0 6.8479-2.6638 33.945-15.314 27.181-12.69 31.18-14.061 56.713-19.451l16.54-3.4918 10.914 3.7156c8.2231 2.7995 13.166 5.8006 20.049 12.173 8.9512 8.2873 23.495 26.392 28.725 35.759 1.4514 2.5994 4.0316 6.853 5.7336 9.4524s4.5441 7.8631 6.3158 11.697c2.689 5.8194 2.8732 7.3189 1.1144 9.0777s-3.6843 1.5888-11.656-1.0283c-8.3322-2.7353-28.067-6.5733-46.475-9.038-10.601-1.4195-24.257 9.3195-30.328 23.849-1.3788 3.3-2.507 7.4582-2.507 9.2404s-0.80715 5.772-1.7937 8.8661c-5.004 15.695-8.3718 18.009-16.775 11.526-6.8798-5.3072-13.63-7.4314-31.844-10.02-22.765-3.2358-30.104-2.7953-37.375 2.2436-7.8642 5.4499-16.029 20.383-17.293 31.628-0.49806 4.432-1.5465 9.3078-2.3298 10.835-1.7036 3.3215-4.0861 2.3086-16.401-6.9727-7.2298-5.4487-8.9531-6.0443-17.488-6.0443-16.285 0-27.015 5.7321-42.53 22.72-8.2936 9.081-11.205 13.763-20.429 32.848-2.0027 4.1437-6.1498 8.0784-13.699 12.997l-10.826 7.0542-15.972-0.11579c-15.964-0.11574-15.976-0.11885-24.637-6.2656zm45.624-57.346c3.2805-3.9528 1.3312-7.9527-3.8757-7.9527-3.2552 0-4.8494 0.86367-5.2286 2.8326-0.6255 3.2479 2.3105 7.4075 5.2286 7.4075 1.0875 0 2.8316-1.0293 3.8757-2.2874zm-32.451-1.6511c1.4578-3.799-0.62321-7.0893-4.4838-7.0893-4.4042 0-7.5035 3.4526-6.1846 6.8896 1.252 3.2628 9.4342 3.4159 10.668 0.19969z"/>
</svg>
